<?xml version="1.0" encoding="UTF-8"?><svg id="a" xmlns="http://www.w3.org/2000/svg" viewBox="0 0 800 800"><path d="M249.35,65.96l4.54-2.01,16.79,18.67-4.1,1.82-8.47-10.14c-1.72-2-3.46-4.21-5.17-6.32l-.13,.06c.47,2.68,.93,5.44,1.26,8.05l1.8,13.1-3.95,1.75-2.56-24.98Zm2.8,14.17l10.28-4.56,1.35,3.04-10.28,4.56-1.35-3.04Z" style="fill:#1a171b;"/><path d="M264.56,59.42l7.54-2.81c4.65-1.74,8.85-1.43,10.71,3.56,1.8,4.81-.97,8.33-5.62,10.06l-3.57,1.33,3.26,8.74-3.97,1.48-8.35-22.36Zm11.03,7.79c3.06-1.14,4.26-3.04,3.31-5.58-.96-2.57-2.96-2.84-6.03-1.69l-3.16,1.18,2.72,7.28,3.16-1.18Zm.45,2.24l1.99-3.44,11.53,9.56-4.46,1.67-9.06-7.79Z" style="fill:#1a171b;"/><path d="M288.21,63.56c-2.28-7.47,1.05-13.34,6.83-15.1,2.86-.87,5.56-.2,7.46,.89l-1.37,3.27c-1.53-.82-3.15-1.21-4.93-.66-3.71,1.13-5.42,5.09-3.86,10.21,1.59,5.21,5.01,7.62,8.83,6.45,2.02-.62,3.3-2.03,4.16-3.83l2.94,1.88c-1.2,2.71-3.22,4.61-6.18,5.51-5.74,1.75-11.57-1.07-13.87-8.62Z" style="fill:#1a171b;"/><path d="M307.19,45.41l4.12-.97,2.19,9.34,9.4-2.2-2.19-9.34,4.12-.97,5.45,23.24-4.12,.97-2.42-10.31-9.4,2.2,2.42,10.31-4.12,.97-5.45-23.24Z" style="fill:#1a171b;"/><path d="M331.69,40.01l4.16-.76,4.29,23.48-4.16,.76-4.29-23.48Z" style="fill:#1a171b;"/><path d="M347.87,40.93l-6.83,.94-.49-3.53,17.85-2.46,.49,3.53-6.83,.94,2.78,20.12-4.2,.58-2.78-20.12Z" style="fill:#1a171b;"/><path d="M363.37,35.41l14.32-1.16,.29,3.55-10.1,.82,.49,6.1,8.56-.69,.29,3.55-8.56,.69,.57,7.04,10.46-.85,.29,3.55-14.68,1.19-1.93-23.79Z" style="fill:#1a171b;"/><path d="M383.02,45.97c-.18-7.81,4.6-12.56,10.64-12.7,2.99-.07,5.4,1.31,6.94,2.86l-2.2,2.78c-1.25-1.2-2.7-2.01-4.57-1.97-3.88,.09-6.59,3.44-6.47,8.79,.13,5.44,2.77,8.68,6.77,8.59,2.12-.05,3.73-1.06,5.04-2.57l2.32,2.6c-1.88,2.29-4.34,3.57-7.44,3.65-6,.14-10.86-4.15-11.04-12.04Z" style="fill:#1a171b;"/><path d="M410.16,37.35l-6.89-.23,.12-3.56,18.01,.6-.12,3.56-6.89-.23-.68,20.3-4.23-.14,.68-20.3Z" style="fill:#1a171b;"/><path d="M425.1,47.82l1.28-13.34,4.21,.4-1.31,13.66c-.5,5.17,1.28,7.06,4.15,7.33,2.91,.28,5.08-1.23,5.57-6.4l1.31-13.66,4.05,.39-1.28,13.34c-.75,7.8-4.5,10.52-10.01,10s-8.73-3.92-7.99-11.72Z" style="fill:#1a171b;"/><path d="M451.43,37.16l7.94,1.29c4.9,.79,8.39,3.14,7.54,8.4-.82,5.07-4.97,6.75-9.87,5.96l-3.76-.61-1.49,9.21-4.18-.68,3.82-23.56Zm5.72,12.23c3.23,.52,5.2-.53,5.64-3.21,.44-2.71-1.17-3.93-4.39-4.45l-3.33-.54-1.24,7.67,3.33,.54Zm-.71,2.17l3.43-2,5.28,14.01-4.7-.76-4.01-11.25Z" style="fill:#1a171b;"/><path d="M478.12,42l4.84,1.09,2.36,25-4.37-.98-.76-13.19c-.19-2.63-.27-5.44-.38-8.15l-.14-.03c-1.22,2.43-2.5,4.92-3.79,7.21l-6.36,11.59-4.22-.95,12.82-21.59Zm-6.19,13.04l10.97,2.46-.73,3.24-10.97-2.46,.73-3.24Z" style="fill:#1a171b;"/><path d="M494.15,45.81l4.08,1.15-5.54,19.54,9.54,2.7-.97,3.43-13.61-3.86,6.51-22.97Z" style="fill:#1a171b;"/><path d="M514.62,64.51c2.71-7.33,8.9-9.99,14.58-7.89,2.81,1.04,4.54,3.2,5.4,5.22l-3.07,1.78c-.73-1.58-1.77-2.87-3.53-3.51-3.64-1.35-7.4,.77-9.25,5.8-1.89,5.11-.62,9.09,3.13,10.48,1.99,.73,3.86,.38,5.63-.54l1.2,3.28c-2.59,1.44-5.35,1.73-8.26,.65-5.63-2.08-8.57-7.85-5.83-15.26Z" style="fill:#1a171b;"/><path d="M533.64,71.38c3.12-7.06,8.91-9.49,14.6-6.97,5.69,2.52,7.78,8.45,4.66,15.49-3.13,7.06-8.99,9.66-14.67,7.15-5.69-2.52-7.71-8.6-4.58-15.66Zm15.28,6.76c2.17-4.9,1.26-8.85-2.17-10.36-3.43-1.52-6.96,.47-9.13,5.37-2.17,4.9-1.34,9.02,2.09,10.54,3.43,1.52,7.04-.64,9.21-5.54Z" style="fill:#1a171b;"/><path d="M563.19,71.76l4.22,2.26-1.78,12.27c-.25,1.59-.58,3.23-.86,4.85l.13,.07c1.2-1.13,2.36-2.33,3.54-3.42l9.14-8.34,4.22,2.26-11.26,21.05-3.42-1.83,5.15-9.63c1.04-1.94,2.83-4.59,4.06-6.44l-.13-.07-4.32,3.98-8.52,7.6-2.21-1.18,1.58-11.31,.94-5.79-.13-.07c-.86,2.05-2.06,5-3.1,6.95l-5.15,9.63-3.36-1.8,11.26-21.05Z" style="fill:#1a171b;"/><path d="M588.11,85.49l6.37,4c4.49,2.82,6.84,6.46,3.9,11.14-2.83,4.51-7.45,4.46-11.81,1.72l-2.91-1.82-4.67,7.43-3.59-2.25,12.69-20.22Zm-.03,13.81c3.02,1.89,5.21,1.6,6.77-.89,1.58-2.51,.54-4.35-2.46-6.24l-2.49-1.56-4.43,7.05,2.61,1.64Z" style="fill:#1a171b;"/><path d="M599.04,108.36l7.84-10.86,3.43,2.48-8.03,11.12c-3.04,4.21-2.47,6.73-.12,8.43,2.37,1.71,5,1.5,8.04-2.71l8.03-11.12,3.3,2.38-7.84,10.86c-4.59,6.35-9.2,6.81-13.69,3.57-4.49-3.24-5.55-7.79-.97-14.15Z" style="fill:#1a171b;"/><path d="M628.57,118.25l-5.32-4.38,2.26-2.75,13.92,11.44-2.26,2.75-5.32-4.38-12.9,15.69-3.27-2.69,12.9-15.69Z" style="fill:#1a171b;"/><path d="M645.46,128.04l3.66,3.35-10.38,22.86-3.31-3.03,5.9-11.82c1.15-2.38,2.47-4.86,3.72-7.26l-.11-.1c-2.27,1.51-4.61,3.02-6.87,4.37l-11.28,6.89-3.19-2.92,21.85-12.35Zm-11.85,8.24l8.29,7.59-2.24,2.45-8.29-7.59,2.24-2.45Z" style="fill:#1a171b;"/><path d="M656.75,143.69l-4.84-4.91,2.54-2.5,12.65,12.83-2.54,2.5-4.84-4.91-14.46,14.26-2.97-3.01,14.46-14.26Z" style="fill:#1a171b;"/><path d="M670.26,152.67l2.84,3.14-17.69,16.02-2.84-3.14,17.69-16.02Z" style="fill:#1a171b;"/><path d="M667.81,167.49c5.98-4.89,12.23-4.44,16.17,.37s3.12,11.04-2.83,15.92c-5.98,4.89-12.38,4.56-16.32-.25s-3-11.15,2.98-16.04Zm10.58,12.92c4.15-3.39,5.12-7.32,2.74-10.23-2.38-2.9-6.42-2.73-10.57,.67-4.15,3.39-5.27,7.44-2.89,10.35,2.38,2.9,6.57,2.61,10.71-.79Z" style="fill:#1a171b;"/><path d="M693.94,181.13l2.52,3.55-6.66,13.81-2.73,4.96,.08,.12c1.9-1.59,4.17-3.61,6.34-5.15l8.46-5.99,2.33,3.29-19.48,13.8-2.52-3.55,6.68-13.82,2.71-4.95-.08-.12c-1.94,1.63-4.1,3.56-6.26,5.1l-8.53,6.04-2.33-3.29,19.48-13.8Z" style="fill:#1a171b;"/><path d="M732.59,246.18l2.06,4.52-18.5,16.97-1.86-4.08,10.05-8.57c1.98-1.74,4.17-3.5,6.27-5.23l-.06-.13c-2.68,.5-5.43,.98-8.04,1.33l-13.08,1.93-1.79-3.93,24.95-2.81Zm-14.13,2.94l4.66,10.23-3.02,1.38-4.66-10.23,3.02-1.38Z" style="fill:#1a171b;"/><path d="M739.27,261.32l2.89,7.51c1.78,4.63,1.52,8.83-3.46,10.74-4.79,1.84-8.34-.89-10.12-5.53l-1.37-3.56-8.71,3.35-1.52-3.95,22.28-8.56Zm-9.92,11.58l3.46,1.96-9.45,11.62-1.71-4.44,7.7-9.13Zm2.23-.48c1.17,3.05,3.08,4.23,5.61,3.25,2.56-.98,2.81-2.99,1.64-6.04l-1.21-3.15-7.25,2.79,1.21,3.15Z" style="fill:#1a171b;"/><path d="M735.36,285.01c7.45-2.35,13.35,.92,15.16,6.68,.9,2.85,.25,5.55-.82,7.47l-3.28-1.34c.8-1.54,1.18-3.16,.62-4.94-1.17-3.7-5.14-5.38-10.25-3.76-5.19,1.64-7.57,5.08-6.37,8.89,.64,2.02,2.06,3.28,3.87,4.12l-1.85,2.96c-2.73-1.17-4.64-3.17-5.57-6.13-1.8-5.72,.96-11.58,8.49-13.96Z" style="fill:#1a171b;"/><path d="M753.7,303.82l1.01,4.11-9.32,2.28,2.3,9.37,9.32-2.28,1.01,4.11-23.18,5.68-1.01-4.11,10.28-2.52-2.3-9.37-10.28,2.52-1.01-4.11,23.18-5.68Z" style="fill:#1a171b;"/><path d="M759.33,328.28l.8,4.16-23.44,4.51-.8-4.16,23.44-4.51Z" style="fill:#1a171b;"/><path d="M758.56,344.45l-1.01-6.82,3.52-.52,2.64,17.82-3.52,.52-1.01-6.82-20.09,2.97-.62-4.19,20.09-2.97Z" style="fill:#1a171b;"/><path d="M764.23,359.9l1.29,14.31-3.55,.32-.91-10.09-6.09,.55,.77,8.55-3.55,.32-.77-8.55-7.04,.63,.94,10.45-3.55,.32-1.32-14.67,23.77-2.15Z" style="fill:#1a171b;"/><path d="M753.86,379.65c7.81-.25,12.61,4.49,12.8,10.53,.1,2.99-1.26,5.42-2.8,6.97l-2.8-2.17c1.19-1.27,1.99-2.72,1.93-4.59-.12-3.88-3.5-6.56-8.85-6.39-5.44,.18-8.66,2.85-8.53,6.85,.07,2.12,1.1,3.72,2.62,5.01l-2.58,2.35c-2.31-1.86-3.62-4.31-3.72-7.4-.19-6,4.05-10.9,11.94-11.15Z" style="fill:#1a171b;"/><path d="M762.72,406.7l.16-6.89,3.56,.08-.43,18.01-3.56-.08,.16-6.89-20.3-.48,.1-4.23,20.3,.48Z" style="fill:#1a171b;"/><path d="M752.4,421.75l13.35,1.15-.37,4.22-13.67-1.18c-5.18-.45-7.05,1.34-7.3,4.22-.25,2.91,1.28,5.06,6.46,5.51l13.67,1.18-.35,4.06-13.35-1.15c-7.81-.68-10.57-4.4-10.09-9.91,.48-5.51,3.83-8.77,11.65-8.09Z" style="fill:#1a171b;"/><path d="M748.96,453.12l2.04,3.41-13.96,5.41,.72-4.71,11.21-4.12Zm14.35-5.14l-1.21,7.95c-.75,4.91-3.06,8.43-8.33,7.62-5.07-.77-6.8-4.91-6.05-9.82l.58-3.77-9.22-1.41,.64-4.19,23.6,3.6Zm-12.18,5.84c-.49,3.23,.58,5.2,3.26,5.61,2.71,.41,3.92-1.2,4.41-4.44l.51-3.33-7.68-1.17-.51,3.33Z" style="fill:#1a171b;"/><path d="M758.73,474.7l-1.04,4.85-24.97,2.61,.94-4.38,13.18-.89c2.63-.21,5.44-.33,8.15-.46l.03-.14c-2.45-1.2-4.94-2.45-7.25-3.72l-11.65-6.24,.91-4.23,21.71,12.61Zm-13.1-6.06l-2.35,10.99-3.25-.7,2.35-10.99,3.25,.7Z" style="fill:#1a171b;"/><path d="M755.07,490.76l-1.12,4.08-19.59-5.35-2.61,9.57-3.44-.94,3.73-13.65,23.03,6.29Z" style="fill:#1a171b;"/><path d="M736.56,511.45c7.35,2.64,10.07,8.81,8.03,14.5-1.01,2.82-3.16,4.57-5.17,5.45l-1.81-3.05c1.57-.74,2.85-1.8,3.48-3.56,1.31-3.66-.84-7.39-5.88-9.2-5.13-1.84-9.1-.54-10.45,3.23-.71,1.99-.35,3.86,.59,5.63l-3.27,1.23c-1.46-2.58-1.78-5.34-.73-8.25,2.03-5.65,7.77-8.65,15.21-5.98Z" style="fill:#1a171b;"/><path d="M729.88,530.51c7.09,3.06,9.57,8.82,7.11,14.53-2.46,5.71-8.37,7.86-15.44,4.81-7.09-3.06-9.75-8.89-7.28-14.6,2.46-5.71,8.53-7.79,15.62-4.73Zm-6.61,15.34c4.92,2.12,8.86,1.18,10.34-2.27s-.53-6.96-5.45-9.08c-4.92-2.12-9.03-1.25-10.52,2.19-1.49,3.45,.71,7.03,5.63,9.15Z" style="fill:#1a171b;"/><path d="M729.77,560.08l-2.22,4.24-12.29-1.66c-1.59-.24-3.24-.55-4.86-.81l-.07,.13c1.14,1.19,2.36,2.33,3.46,3.5l8.42,9.07-2.22,4.24-21.16-11.06,1.8-3.44,9.68,5.06c1.95,1.02,4.61,2.79,6.48,4l.07-.13-4.02-4.28-7.68-8.45,1.16-2.23,11.33,1.47,5.8,.89,.07-.13c-2.05-.84-5.02-2.02-6.98-3.04l-9.68-5.06,1.77-3.38,21.16,11.06Z" style="fill:#1a171b;"/><path d="M716.29,585.11l-3.94,6.41c-2.78,4.52-6.4,6.9-11.1,4.01-4.53-2.79-4.53-7.41-1.84-11.79l1.8-2.92-7.48-4.6,2.22-3.61,20.34,12.5Zm-13.81,.1c-1.87,3.04-1.55,5.22,.95,6.76,2.52,1.55,4.35,.5,6.21-2.52l1.54-2.5-7.09-4.36-1.61,2.62Z" style="fill:#1a171b;"/><path d="M693.54,596.24l10.94,7.74-2.45,3.46-11.21-7.93c-4.24-3-6.76-2.4-8.43-.04-1.69,2.38-1.46,5.02,2.79,8.02l11.21,7.93-2.35,3.33-10.94-7.74c-6.4-4.53-6.9-9.14-3.7-13.66,3.2-4.52,7.74-5.63,14.14-1.1Z" style="fill:#1a171b;"/><path d="M683.92,625.86l4.32-5.36,2.77,2.24-11.3,14.02-2.77-2.24,4.32-5.36-15.81-12.74,2.66-3.3,15.81,12.74Z" style="fill:#1a171b;"/><path d="M674.3,642.85l-3.32,3.69-22.96-10.16,2.99-3.33,11.88,5.78c2.39,1.12,4.88,2.42,7.3,3.65l.1-.11c-1.53-2.25-3.07-4.58-4.44-6.83l-7-11.21,2.89-3.22,12.56,21.74Zm-8.35-11.78l-7.51,8.37-2.47-2.22,7.51-8.37,2.47,2.22Z" style="fill:#1a171b;"/><path d="M658.73,654.31l4.86-4.89,2.53,2.51-12.71,12.77-2.53-2.51,4.86-4.89-14.4-14.32,2.99-3,14.4,14.32Z" style="fill:#1a171b;"/><path d="M649.9,667.88l-3.11,2.87-16.19-17.54,3.11-2.87,16.19,17.54Z" style="fill:#1a171b;"/><path d="M635.07,665.58c4.95,5.93,4.56,12.19-.21,16.18-4.78,3.99-11.02,3.23-15.95-2.68-4.95-5.93-4.68-12.34,.09-16.32,4.78-3.99,11.12-3.1,16.07,2.83Zm-12.83,10.7c3.43,4.12,7.37,5.05,10.25,2.65,2.88-2.4,2.67-6.45-.77-10.56-3.43-4.12-7.49-5.2-10.38-2.79-2.88,2.4-2.54,6.59,.89,10.71Z" style="fill:#1a171b;"/><path d="M621.68,691.82l-3.52,2.55-13.87-6.52-4.99-2.68-.12,.09c1.61,1.88,3.66,4.13,5.21,6.28l6.08,8.4-3.26,2.36-13.99-19.34,3.52-2.55,13.89,6.54,4.97,2.66,.12-.09c-1.65-1.93-3.6-4.06-5.16-6.21l-6.13-8.47,3.26-2.36,13.99,19.34Z" style="fill:#1a171b;"/><path d="M556.96,731.11l-4.5,2.1-17.14-18.35,4.06-1.89,8.66,9.98c1.75,1.97,3.54,4.14,5.28,6.22l.13-.06c-.52-2.67-1.03-5.42-1.41-8.03l-2.05-13.06,3.92-1.83,3.04,24.92Zm-3.07-14.11l-10.19,4.75-1.4-3.01,10.19-4.75,1.4,3.01Z" style="fill:#1a171b;"/><path d="M530.24,728.12l-1.92,3.48-11.71-9.33,4.43-1.75,9.2,7.61Zm11.67,9.8l-7.48,2.96c-4.62,1.83-8.82,1.6-10.78-3.35-1.89-4.77,.81-8.34,5.43-10.17l3.54-1.4-3.43-8.67,3.94-1.56,8.78,22.19Zm-11.18-7.57c-3.04,1.2-4.2,3.12-3.2,5.65,1.01,2.55,3.01,2.78,6.05,1.58l3.14-1.24-2.86-7.22-3.14,1.24Z" style="fill:#1a171b;"/><path d="M518.17,734.26c2.42,7.42-.79,13.35-6.54,15.23-2.85,.93-5.55,.3-7.47-.74l1.31-3.3c1.55,.79,3.17,1.15,4.95,.57,3.69-1.2,5.33-5.19,3.67-10.28-1.69-5.18-5.15-7.52-8.96-6.28-2.01,.66-3.26,2.09-4.08,3.91l-2.97-1.82c1.14-2.74,3.13-4.67,6.07-5.63,5.7-1.86,11.59,.84,14.04,8.35Z" style="fill:#1a171b;"/><path d="M499.53,752.77l-4.1,1.05-2.37-9.3-9.35,2.38,2.37,9.29-4.1,1.05-5.9-23.13,4.1-1.05,2.62,10.26,9.35-2.38-2.62-10.26,4.1-1.05,5.9,23.13Z" style="fill:#1a171b;"/><path d="M475.14,758.63l-4.15,.84-4.74-23.39,4.15-.84,4.74,23.39Z" style="fill:#1a171b;"/><path d="M458.96,758.02l6.81-1.07,.55,3.52-17.8,2.8-.55-3.52,6.81-1.07-3.16-20.06,4.18-.66,3.16,20.06Z" style="fill:#1a171b;"/><path d="M443.57,763.84l-14.29,1.43-.35-3.54,10.08-1.01-.61-6.09-8.54,.85-.35-3.54,8.54-.85-.7-7.03-10.44,1.04-.35-3.54,14.66-1.47,2.38,23.75Z" style="fill:#1a171b;"/><path d="M423.73,753.65c.33,7.8-4.37,12.65-10.41,12.9-2.99,.12-5.43-1.21-7-2.73l2.15-2.82c1.28,1.17,2.74,1.96,4.61,1.88,3.88-.16,6.53-3.56,6.31-8.92-.23-5.44-2.93-8.63-6.93-8.46-2.12,.09-3.71,1.13-4.99,2.66l-2.37-2.56c1.84-2.33,4.27-3.66,7.37-3.79,6-.25,10.93,3.94,11.26,11.83Z" style="fill:#1a171b;"/><path d="M396.73,762.78l6.89,.11-.06,3.56-18.02-.29,.06-3.56,6.89,.11,.33-20.31,4.23,.07-.33,20.31Z" style="fill:#1a171b;"/><path d="M381.62,752.59l-1.03,13.36-4.22-.32,1.05-13.68c.4-5.18-1.41-7.03-4.29-7.25-2.91-.22-5.05,1.33-5.45,6.51l-1.05,13.68-4.06-.31,1.02-13.36c.6-7.82,4.3-10.61,9.82-10.18,5.52,.42,8.81,3.75,8.21,11.57Z" style="fill:#1a171b;"/><path d="M355.49,763.75l-7.96-1.14c-4.91-.7-8.45-2.98-7.7-8.25,.73-5.08,4.84-6.84,9.75-6.14l3.77,.54,1.32-9.24,4.19,.6-3.37,23.63Zm-5.28-14.3l-3.39,2.07-5.54-13.91,4.71,.67,4.22,11.17Zm-.67,2.18c-3.24-.46-5.19,.63-5.58,3.32-.39,2.72,1.24,3.91,4.48,4.37l3.34,.48,1.1-7.69-3.34-.48Z" style="fill:#1a171b;"/><path d="M328.72,759.42l-4.86-.99-2.85-24.95,4.39,.9,1.02,13.17c.24,2.63,.38,5.44,.54,8.14l.14,.03c1.17-2.46,2.4-4.96,3.65-7.29l6.13-11.71,4.23,.87-12.41,21.83Zm5.94-13.16l-11.02-2.25,.67-3.25,11.02,2.25-.67,3.25Z" style="fill:#1a171b;"/><path d="M312.63,755.91l-4.1-1.08,5.16-19.65-9.59-2.52,.91-3.45,13.69,3.6-6.07,23.09Z" style="fill:#1a171b;"/><path d="M291.78,737.61c-2.57,7.38-8.71,10.15-14.42,8.17-2.83-.98-4.6-3.12-5.5-5.11l3.03-1.83c.75,1.56,1.83,2.83,3.59,3.45,3.67,1.28,7.38-.91,9.14-5.97,1.79-5.14,.45-9.1-3.33-10.42-2-.7-3.86-.31-5.62,.64l-1.26-3.25c2.57-1.49,5.32-1.83,8.24-.81,5.67,1.97,8.72,7.69,6.12,15.14Z" style="fill:#1a171b;"/><path d="M272.64,731.1c-2.99,7.12-8.73,9.66-14.46,7.25-5.74-2.41-7.94-8.3-4.95-15.4,2.99-7.12,8.8-9.83,14.53-7.42,5.74,2.41,7.87,8.45,4.88,15.57Zm-15.4-6.47c-2.07,4.94-1.09,8.87,2.37,10.32,3.46,1.45,6.95-.6,9.02-5.54s1.17-9.04-2.29-10.5c-3.46-1.45-7.02,.77-9.1,5.71Z" style="fill:#1a171b;"/><path d="M243.08,731.29l-4.27-2.18,1.54-12.31c.22-1.59,.52-3.24,.76-4.87l-.13-.07c-1.18,1.15-2.31,2.38-3.47,3.49l-8.98,8.51-4.27-2.18,10.85-21.27,3.46,1.76-4.96,9.73c-1,1.96-2.74,4.64-3.93,6.52l.13,.07,4.24-4.07,8.37-7.77,2.24,1.14-1.36,11.34-.83,5.8,.13,.07c.82-2.06,1.97-5.04,2.97-7.01l4.96-9.73,3.39,1.73-10.85,21.27Z" style="fill:#1a171b;"/><path d="M217.91,718.04l-6.44-3.88c-4.54-2.73-6.96-6.33-4.11-11.06,2.74-4.56,7.37-4.6,11.77-1.95l2.94,1.77,4.52-7.52,3.63,2.18-12.3,20.46Zm-.23-13.81c-3.05-1.84-5.23-1.5-6.75,1.02-1.53,2.54-.46,4.36,2.58,6.19l2.52,1.51,4.29-7.13-2.64-1.59Z" style="fill:#1a171b;"/><path d="M206.55,695.39l-7.64,11.02-3.48-2.41,7.82-11.28c2.96-4.27,2.34-6.78-.04-8.43-2.4-1.66-5.03-1.41-7.99,2.86l-7.82,11.28-3.35-2.32,7.64-11.02c4.47-6.44,9.07-6.98,13.62-3.83,4.55,3.15,5.7,7.69,1.24,14.13Z" style="fill:#1a171b;"/><path d="M176.84,686.06l5.41,4.27-2.21,2.8-14.14-11.17,2.21-2.79,5.41,4.27,12.59-15.94,3.32,2.62-12.59,15.94Z" style="fill:#1a171b;"/><path d="M159.75,676.59l-3.72-3.28,9.94-23.06,3.36,2.96-5.67,11.93c-1.1,2.4-2.37,4.9-3.58,7.33l.11,.1c2.24-1.55,4.55-3.11,6.79-4.51l11.15-7.11,3.24,2.86-21.62,12.77Zm11.7-8.46l-8.44-7.43,2.2-2.49,8.44,7.43-2.2,2.49Z" style="fill:#1a171b;"/><path d="M148.17,661.15l4.93,4.81-2.49,2.55-12.89-12.58,2.49-2.55,4.93,4.81,14.19-14.53,3.03,2.96-14.19,14.54Z" style="fill:#1a171b;"/><path d="M134.49,652.43l-2.9-3.09,17.39-16.36,2.9,3.08-17.39,16.36Z" style="fill:#1a171b;"/><path d="M136.66,637.57c-5.88,5-12.14,4.68-16.17-.06-4.03-4.74-3.33-10.98,2.53-15.97,5.88-5,12.29-4.8,16.32-.06s3.21,11.09-2.68,16.1Zm-10.82-12.72c-4.08,3.47-4.98,7.42-2.55,10.28,2.43,2.86,6.47,2.6,10.55-.87,4.08-3.47,5.12-7.54,2.69-10.4-2.43-2.86-6.62-2.48-10.7,.99Z" style="fill:#1a171b;"/><path d="M110.3,624.43l-2.58-3.5,6.4-13.93,2.64-5.01-.09-.12c-1.86,1.63-4.1,3.69-6.24,5.27l-8.34,6.15-2.39-3.24,19.21-14.17,2.58,3.5-6.41,13.95-2.62,5,.09,.12c1.91-1.66,4.03-3.64,6.16-5.22l8.41-6.21,2.39,3.24-19.21,14.17Z" style="fill:#1a171b;"/><path d="M70.41,560.13l-2.14-4.48,18.18-17.32,1.93,4.04-9.89,8.76c-1.95,1.77-4.1,3.58-6.17,5.34l.06,.13c2.67-.55,5.41-1.08,8.01-1.49l13.04-2.17,1.86,3.9-24.89,3.28Zm14.08-3.2l-4.85-10.14,3-1.43,4.85,10.14-3,1.43Z" style="fill:#1a171b;"/><path d="M63.43,545.11l-3.03-7.45c-1.87-4.6-1.69-8.8,3.25-10.81,4.75-1.93,8.35,.73,10.22,5.33l1.44,3.53,8.64-3.51,1.59,3.92-22.11,8.99Zm7.47-11.25c-1.23-3.03-3.16-4.17-5.68-3.15-2.54,1.03-2.75,3.04-1.52,6.07l1.27,3.12,7.2-2.93-1.27-3.12Zm2.22-.52l-3.5-1.89,9.22-11.8,1.79,4.41-7.52,9.28Z" style="fill:#1a171b;"/><path d="M66.88,521.34c-7.4,2.49-13.36-.66-15.29-6.39-.95-2.84-.36-5.55,.67-7.48l3.31,1.27c-.77,1.55-1.12,3.18-.52,4.95,1.24,3.68,5.24,5.28,10.32,3.57,5.16-1.74,7.47-5.22,6.19-9.02-.68-2.01-2.12-3.24-3.95-4.05l1.8-2.99c2.75,1.12,4.7,3.08,5.69,6.02,1.91,5.69-.73,11.6-8.22,14.12Z" style="fill:#1a171b;"/><path d="M48.2,502.9l-1.08-4.09,9.27-2.46-2.47-9.33-9.27,2.46-1.08-4.09,23.07-6.12,1.08,4.09-10.23,2.71,2.47,9.33,10.23-2.71,1.08,4.09-23.07,6.12Z" style="fill:#1a171b;"/><path d="M42.1,478.56l-.88-4.14,23.35-4.96,.88,4.14-23.35,4.96Z" style="fill:#1a171b;"/><path d="M42.56,462.4l1.14,6.8-3.51,.59-2.98-17.77,3.51-.59,1.14,6.8,20.03-3.35,.7,4.18-20.03,3.35Z" style="fill:#1a171b;"/><path d="M36.58,447.01l-1.56-14.28,3.54-.39,1.1,10.07,6.08-.67-.93-8.53,3.54-.39,.93,8.53,7.02-.77-1.14-10.44,3.54-.39,1.6,14.65-23.73,2.59Z" style="fill:#1a171b;"/><path d="M46.58,427.08c-7.8,.4-12.69-4.25-13-10.29-.15-2.99,1.15-5.44,2.67-7.02l2.84,2.12c-1.16,1.29-1.94,2.76-1.84,4.62,.2,3.88,3.62,6.5,8.97,6.22,5.44-.28,8.6-3.01,8.4-7.01-.11-2.11-1.17-3.7-2.71-4.96l2.54-2.4c2.34,1.82,3.7,4.24,3.85,7.33,.31,5.99-3.84,10.97-11.73,11.37Z" style="fill:#1a171b;"/><path d="M37.19,400.05l-.11,6.89-3.56-.06,.29-18.02,3.56,.06-.11,6.89,20.31,.33-.07,4.23-20.31-.33Z" style="fill:#1a171b;"/><path d="M47.26,384.99l-13.37-.9,.29-4.23,13.69,.92c5.19,.35,7.02-1.47,7.22-4.36,.2-2.91-1.37-5.04-6.56-5.39l-13.69-.92,.27-4.06,13.37,.9c7.82,.53,10.65,4.2,10.28,9.72-.37,5.52-3.67,8.84-11.49,8.31Z" style="fill:#1a171b;"/><path d="M35.85,358.96l1.06-7.97c.65-4.92,2.89-8.48,8.18-7.78,5.09,.68,6.89,4.77,6.24,9.69l-.5,3.78,9.25,1.23-.56,4.2-23.66-3.14Zm12.06-6.07c.43-3.24-.68-5.19-3.37-5.54-2.72-.36-3.9,1.28-4.33,4.52l-.44,3.34,7.7,1.02,.44-3.34Zm2.19,.65l-2.1-3.37,13.85-5.68-.63,4.72-11.13,4.33Z" style="fill:#1a171b;"/><path d="M39.92,332.16l.95-4.87,24.92-3.09-.85,4.4-13.16,1.15c-2.62,.26-5.43,.43-8.14,.62l-.03,.14c2.47,1.15,4.99,2.35,7.32,3.58l11.77,6.02-.82,4.24-21.95-12.19Zm13.22,5.81l2.14-11.04,3.26,.63-2.14,11.03-3.26-.63Z" style="fill:#1a171b;"/><path d="M43.28,316.02l1.04-4.1,19.69,4.97,2.42-9.61,3.45,.87-3.46,13.72-23.14-5.84Z" style="fill:#1a171b;"/><path d="M61.38,294.99c-7.4-2.49-10.24-8.61-8.31-14.34,.96-2.84,3.07-4.63,5.06-5.55l1.86,3.02c-1.55,.77-2.81,1.86-3.41,3.63-1.24,3.68,.98,7.37,6.06,9.08,5.16,1.74,9.11,.36,10.39-3.43,.68-2.01,.27-3.87-.7-5.61l3.24-1.3c1.51,2.55,1.88,5.3,.89,8.24-1.92,5.69-7.6,8.79-15.09,6.27Z" style="fill:#1a171b;"/><path d="M67.7,275.8c-7.15-2.92-9.74-8.63-7.39-14.39s8.22-8.02,15.35-5.11c7.15,2.92,9.92,8.7,7.57,14.46-2.35,5.76-8.37,7.95-15.52,5.04Zm6.31-15.47c-4.96-2.02-8.88-1.01-10.3,2.47-1.42,3.47,.67,6.94,5.63,8.97,4.96,2.02,9.05,1.08,10.47-2.4,1.42-3.47-.84-7.02-5.8-9.04Z" style="fill:#1a171b;"/><path d="M67.22,246.25l2.14-4.29,12.32,1.43c1.59,.21,3.25,.49,4.88,.72l.07-.13c-1.16-1.17-2.4-2.29-3.52-3.44l-8.6-8.9,2.14-4.29,21.37,10.65-1.73,3.48-9.77-4.87c-1.97-.98-4.67-2.7-6.55-3.87l-.06,.13,4.11,4.2,7.85,8.3-1.12,2.25-11.36-1.26-5.81-.78-.06,.13c2.07,.8,5.06,1.92,7.04,2.9l9.77,4.87-1.7,3.41-21.37-10.65Z" style="fill:#1a171b;"/><path d="M80.24,220.95l3.81-6.48c2.69-4.57,6.26-7.02,11.02-4.22,4.58,2.7,4.67,7.32,2.06,11.75l-1.74,2.96,7.56,4.45-2.15,3.65-20.57-12.1Zm13.8-.36c1.81-3.07,1.45-5.25-1.08-6.73-2.55-1.5-4.36-.42-6.16,2.64l-1.49,2.53,7.17,4.22,1.56-2.65Z" style="fill:#1a171b;"/><path d="M102.78,209.36l-11.09-7.53,2.38-3.5,11.35,7.71c4.3,2.92,6.8,2.27,8.43-.12,1.64-2.42,1.36-5.04-2.94-7.96l-11.35-7.71,2.29-3.37,11.09,7.53c6.49,4.4,7.07,9,3.96,13.58-3.11,4.58-7.63,5.78-14.12,1.37Z" style="fill:#1a171b;"/><path d="M111.82,179.58l-4.22,5.45-2.82-2.18,11.04-14.24,2.82,2.18-4.22,5.45,16.05,12.45-2.59,3.35-16.05-12.45Z" style="fill:#1a171b;"/><path d="M121.13,162.41l3.25-3.76,23.15,9.72-2.93,3.39-11.99-5.55c-2.41-1.08-4.93-2.33-7.37-3.51l-.1,.11c1.57,2.22,3.16,4.52,4.57,6.75l7.22,11.08-2.83,3.27-12.97-21.5Zm8.57,11.62l7.35-8.51,2.51,2.17-7.35,8.51-2.51-2.17Z" style="fill:#1a171b;"/><path d="M136.45,150.68l-4.77,4.98-2.57-2.46,12.46-13.02,2.57,2.46-4.77,4.98,14.67,14.04-2.93,3.06-14.67-14.04Z" style="fill:#1a171b;"/><path d="M145.05,136.92l3.06-2.93,16.52,17.23-3.06,2.93-16.52-17.23Z" style="fill:#1a171b;"/><path d="M159.93,138.95c-5.06-5.83-4.79-12.1-.09-16.17,4.7-4.07,10.95-3.44,16,2.38,5.06,5.83,4.91,12.24,.22,16.31-4.7,4.07-11.06,3.31-16.12-2.52Zm12.62-10.94c-3.51-4.05-7.46-4.91-10.3-2.45s-2.54,6.49,.97,10.54c3.51,4.05,7.59,5.05,10.42,2.59s2.42-6.64-1.09-10.69Z" style="fill:#1a171b;"/><path d="M172.83,112.44l3.48-2.62,13.99,6.27,5.04,2.59,.12-.09c-1.65-1.85-3.73-4.06-5.33-6.19l-6.23-8.29,3.22-2.42,14.35,19.08-3.48,2.62-14.01-6.28-5.02-2.57-.12,.09c1.68,1.9,3.68,3.99,5.28,6.12l6.28,8.36-3.22,2.42-14.35-19.08Z" style="fill:#1a171b;"/></svg>