<?xml version="1.0" encoding="UTF-8"?><svg id="a" xmlns="http://www.w3.org/2000/svg" viewBox="0 0 800 800"><path d="M244.47,65.42l6.43-2.8c7.39-3.22,13.49-1.14,16.96,6.84,3.47,7.98,.93,14.05-6.24,17.17l-6.65,2.9-10.5-24.11Zm15.14,17.97c4.85-2.11,6.44-6.08,3.86-12.01-2.58-5.93-6.49-7.28-11.34-5.17l-1.87,.82,7.48,17.18,1.87-.82Z" style="fill:#1a171b;"/><path d="M268.62,55.32l4.37-1.63,9.21,24.63-4.37,1.63-9.21-24.63Z" style="fill:#1a171b;"/><path d="M282.87,64.05c-2.59-8.21,1.08-14.72,7.75-16.82,3.56-1.12,6.49-.33,8.58,.79l-1.47,3.62c-1.64-.83-3.42-1.32-5.75-.58-4.45,1.4-6.35,5.8-4.58,11.42,1.8,5.72,5.55,8.35,10.58,6.77,1.4-.44,2.65-1.27,3.23-2.23l-1.71-5.41-4.72,1.49-1.15-3.65,8.71-2.75,3.49,11.06c-1.14,2.21-3.63,4.42-7.07,5.5-6.76,2.13-13.27-.9-15.88-9.19Z" style="fill:#1a171b;"/><path d="M305.4,43.48l4.51-1.16,6.57,25.46-4.51,1.16-6.57-25.46Z" style="fill:#1a171b;"/><path d="M323.28,43.23l-7.43,1.54-.8-3.84,19.43-4.03,.8,3.84-7.43,1.54,4.54,21.9-4.57,.95-4.54-21.9Z" style="fill:#1a171b;"/><path d="M343.46,35.53l5.41-.79,12.29,24.77-4.88,.72-5.99-13.26c-1.23-2.63-2.43-5.49-3.61-8.23l-.16,.02c-.29,2.98-.63,6.04-1.05,8.91l-1.96,14.43-4.71,.69,4.67-27.26Zm-1.22,15.86l12.25-1.8,.53,3.62-12.25,1.8-.53-3.62Z" style="fill:#1a171b;"/><path d="M361.57,33.16l4.65-.4,1.9,22.29,10.88-.93,.33,3.91-15.52,1.33-2.24-26.2Z" style="fill:#1a171b;"/><path d="M390.97,31.36l15.88-.26,.06,3.92-11.22,.18,.12,7.46,9.55-.16,.06,3.92-9.55,.16,.18,10.98-4.66,.08-.43-26.29Z" style="fill:#1a171b;"/><path d="M416.52,31.59l5.46,.28,7.21,26.69-4.93-.25-3.28-14.18c-.69-2.82-1.31-5.86-1.93-8.78h-.16c-.87,2.86-1.79,5.79-2.77,8.53l-4.75,13.76-4.75-.24,9.91-25.82Zm-4.3,15.31l12.37,.63-.19,3.65-12.37-.63,.19-3.65Z" style="fill:#1a171b;"/><path d="M434.8,32.75l8.35,.98c5.37,.63,9.12,2.74,8.56,7.53-.29,2.46-1.91,4.7-4.29,5.23l-.02,.16c2.81,.99,4.7,3.26,4.29,6.79-.61,5.22-5.18,7.17-10.93,6.49l-9.02-1.06,3.06-26.12Zm5.91,23.51c3.83,.45,6.13-.67,6.48-3.61,.32-2.75-1.61-4.19-5.51-4.65l-3.91-.46-.97,8.26,3.91,.46Zm.77-11.8c3.64,.43,5.36-.81,5.62-3.08,.3-2.52-1.3-3.68-4.69-4.08l-3.4-.4-.84,7.17,3.31,.39Z" style="fill:#1a171b;"/><path d="M459.96,35.99l8.71,1.63c5.37,1.01,9.16,3.68,8.07,9.45-1.04,5.55-5.66,7.3-11.03,6.29l-4.12-.77-1.9,10.1-4.58-.86,4.85-25.84Zm5.97,13.62c3.54,.66,5.74-.44,6.29-3.38,.56-2.97-1.18-4.36-4.72-5.02l-3.65-.69-1.58,8.41,3.65,.69Zm-.85,2.37l3.83-2.11,5.43,15.57-5.15-.97-4.11-12.49Z" style="fill:#1a171b;"/><path d="M484.27,40.91l4.53,1.09-6.15,25.56-4.53-1.09,6.15-25.56Z" style="fill:#1a171b;"/><path d="M491.16,56.13c2.43-8.25,9.04-11.64,15.43-9.77,3.16,.93,5.23,3.18,6.33,5.33l-3.24,2.18c-.92-1.68-2.16-3.02-4.14-3.6-4.1-1.21-8.07,1.4-9.74,7.06-1.69,5.76,0,10.04,4.23,11.28,2.24,.66,4.27,.13,6.15-1.01l1.57,3.51c-2.74,1.78-5.75,2.3-9.03,1.34-6.34-1.86-10.01-7.99-7.55-16.33Z" style="fill:#1a171b;"/><path d="M524.43,52.76l5.13,1.88-1.01,27.63-4.63-1.7,1.06-14.51c.17-2.9,.48-5.98,.75-8.95l-.15-.06c-1.68,2.48-3.43,5.01-5.17,7.33l-8.6,11.74-4.47-1.64,17.1-21.73Zm-8.63,13.35l11.62,4.26-1.26,3.43-11.62-4.26,1.26-3.43Z" style="fill:#1a171b;"/><path d="M542.57,64.07l-6.97-3.01,1.56-3.6,18.21,7.88-1.56,3.6-6.97-3.01-8.88,20.53-4.28-1.85,8.88-20.53Z" style="fill:#1a171b;"/><path d="M560.13,67.72l4.19,2.05-11.58,23.6-4.19-2.05,11.58-23.6Z" style="fill:#1a171b;"/><path d="M563.7,83.89c4.16-7.42,10.75-9.47,16.73-6.12,5.98,3.35,7.65,10.07,3.5,17.47-4.16,7.42-10.86,9.66-16.83,6.31-5.98-3.35-7.56-10.23-3.39-17.65Zm16.04,9c2.89-5.15,2.31-9.57-1.3-11.59-3.6-2.02-7.68-.21-10.57,4.93-2.89,5.15-2.41,9.75,1.2,11.77s7.78,.03,10.67-5.12Z" style="fill:#1a171b;"/><path d="M596.08,87.48l3.99,2.66-1.4,16.83-.85,6.18,.13,.09c1.32-2.39,2.86-5.36,4.48-7.8l6.33-9.5,3.69,2.46-14.58,21.87-3.99-2.66,1.41-16.85,.84-6.16-.13-.09c-1.36,2.44-2.8,5.28-4.43,7.72l-6.38,9.58-3.69-2.46,14.58-21.87Z" style="fill:#1a171b;"/><path d="M669.68,148.31l4.66,5.24c5.35,6.02,5.27,12.47-1.24,18.25-6.5,5.78-13.07,5.24-18.26-.6l-4.82-5.42,19.66-17.46Zm-12.38,19.97c3.51,3.96,7.78,4.23,12.62-.06,4.83-4.29,4.91-8.42,1.39-12.38l-1.36-1.53-14.01,12.44,1.36,1.53Z" style="fill:#1a171b;"/><path d="M686.76,168.11l2.91,3.64-20.54,16.42-2.91-3.64,20.54-16.42Z" style="fill:#1a171b;"/><path d="M682.9,184.38c6.99-5.01,14.32-3.56,18.4,2.12,2.17,3.03,2.33,6.06,1.92,8.4l-3.9-.27c.28-1.82,.19-3.66-1.24-5.64-2.72-3.79-7.48-4.23-12.28-.79-4.87,3.49-6.21,7.87-3.13,12.16,.85,1.19,2.04,2.12,3.12,2.37l4.61-3.31-2.89-4.02,3.11-2.23,5.32,7.42-9.42,6.75c-2.46-.39-5.33-2.08-7.43-5-4.13-5.76-3.28-12.88,3.79-17.95Z" style="fill:#1a171b;"/><path d="M709.47,199.38l2.52,3.93-22.13,14.18-2.52-3.93,22.13-14.18Z" style="fill:#1a171b;"/><path d="M715.29,216.29l-3.79-6.58,3.4-1.96,9.9,17.2-3.4,1.96-3.79-6.58-19.39,11.16-2.33-4.04,19.39-11.16Z" style="fill:#1a171b;"/><path d="M728.91,233.06l2.44,4.89-19.69,19.41-2.21-4.42,10.73-9.83c2.12-1.99,4.45-4.02,6.69-6l-.07-.14c-2.93,.65-5.93,1.29-8.8,1.79l-14.32,2.64-2.13-4.26,27.35-4.08Zm-15.44,3.79l5.53,11.08-3.27,1.63-5.53-11.08,3.27-1.63Z" style="fill:#1a171b;"/><path d="M736.82,249.5l1.83,4.29-20.58,8.76,4.28,10.05-3.61,1.54-6.1-14.34,24.19-10.3Z" style="fill:#1a171b;"/><path d="M747.89,277.22l5,15.08-3.72,1.24-3.54-10.65-7.08,2.35,3.01,9.06-3.72,1.24-3.01-9.06-10.42,3.46-1.47-4.43,24.95-8.28Z" style="fill:#1a171b;"/><path d="M755.41,301.3l1.42,5.28-23.16,15.11-1.28-4.77,12.47-7.5c2.47-1.53,5.16-3.06,7.75-4.55l-.04-.16c-3,.06-6.07,.09-8.98,0l-14.56-.26-1.24-4.6,27.62,1.44Zm-15.89,.65l3.22,11.96-3.53,.95-3.22-11.96,3.53-.95Z" style="fill:#1a171b;"/><path d="M759.96,319.09l1.64,8.25c1.06,5.3,.21,9.52-4.52,10.46-2.43,.48-5.06-.37-6.3-2.47l-.16,.03c-.08,2.98-1.65,5.48-5.13,6.17-5.16,1.03-8.41-2.72-9.54-8.4l-1.78-8.91,25.79-5.14Zm-20.54,12.87c.75,3.79,2.53,5.63,5.43,5.05,2.71-.54,3.49-2.83,2.72-6.67l-.77-3.86-8.15,1.63,.77,3.86Zm11.46-2.91c.72,3.6,2.43,4.85,4.67,4.4,2.49-.5,3.1-2.37,2.44-5.72l-.67-3.36-7.08,1.41,.65,3.27Z" style="fill:#1a171b;"/><path d="M764.64,344.01l1.13,8.79c.7,5.42-.68,9.85-6.5,10.6-5.61,.72-8.69-3.13-9.38-8.55l-.54-4.16-10.19,1.31-.59-4.62,26.08-3.35Zm-13.63,9.8l3.19,2.99-13.14,9.97-.67-5.2,10.62-7.76Zm2.51,.07c.46,3.57,2.19,5.33,5.16,4.95,3-.39,3.79-2.46,3.33-6.04l-.47-3.68-8.49,1.09,.47,3.68Z" style="fill:#1a171b;"/><path d="M767.46,368.64l.36,4.65-26.22,2.05-.36-4.65,26.21-2.05Z" style="fill:#1a171b;"/><path d="M755.1,379.9c8.6-.25,13.86,4.99,14.06,11.64,.1,3.29-1.4,5.96-3.11,7.67l-3.08-2.4c1.31-1.39,2.2-2.99,2.14-5.05-.12-4.27-3.83-7.24-9.73-7.07-5.99,.17-9.54,3.11-9.42,7.51,.07,2.33,1.2,4.1,2.86,5.53l-2.85,2.58c-2.54-2.06-3.97-4.76-4.06-8.17-.19-6.6,4.5-11.98,13.19-12.23Z" style="fill:#1a171b;"/><path d="M768.63,410.45l-.19,5.46-26.58,7.64,.17-4.93,14.12-3.51c2.81-.74,5.83-1.4,8.75-2.07v-.16c-2.88-.83-5.82-1.7-8.57-2.64l-13.84-4.53,.17-4.76,25.97,9.49Zm-15.38-4.05l-.44,12.38-3.66-.13,.44-12.38,3.66,.13Z" style="fill:#1a171b;"/><path d="M763.54,431.19l.69-7.56,3.91,.36-1.8,19.76-3.91-.36,.69-7.56-22.28-2.03,.42-4.64,22.28,2.03Z" style="fill:#1a171b;"/><path d="M765.54,449.03l-.64,4.62-26.04-3.63,.64-4.62,26.04,3.63Z" style="fill:#1a171b;"/><path d="M751.3,457.45c8.35,1.64,12.36,7.26,11.04,13.98-1.32,6.72-7.18,10.41-15.5,8.77-8.35-1.64-12.56-7.3-11.24-14.02,1.32-6.72,7.36-10.37,15.71-8.73Zm-3.54,18.05c5.79,1.14,9.81-.8,10.6-4.85,.8-4.05-2.19-7.36-7.98-8.5s-10.01,.76-10.81,4.81c-.79,4.05,2.4,7.4,8.19,8.54Z" style="fill:#1a171b;"/><path d="M758,489.33l-1.28,4.62-16.42,3.92-6.13,1.12-.04,.15c2.68,.51,5.99,1.04,8.81,1.82l11,3.05-1.19,4.28-25.34-7.03,1.28-4.62,16.45-3.92,6.11-1.13,.04-.15c-2.74-.53-5.89-1.02-8.71-1.8l-11.1-3.08,1.19-4.28,25.34,7.03Z" style="fill:#1a171b;"/><path d="M723.02,578.27l-3.54,6.05c-4.07,6.95-10.23,8.86-17.73,4.46-7.51-4.4-9.03-10.81-5.07-17.55l3.67-6.26,22.68,13.29Zm-22.81-5.6c-2.67,4.56-1.62,8.71,3.96,11.98,5.58,3.27,9.53,2.06,12.2-2.5l1.03-1.76-16.16-9.47-1.03,1.76Z" style="fill:#1a171b;"/><path d="M709.47,600.62l-2.57,3.89-21.95-14.46,2.56-3.89,21.96,14.46Z" style="fill:#1a171b;"/><path d="M692.81,602c6.93,5.1,7.82,12.52,3.67,18.16-2.21,3-5.05,4.09-7.39,4.42l-.94-3.79c1.82-.3,3.54-.95,4.99-2.92,2.76-3.76,1.71-8.43-3.04-11.93-4.83-3.56-9.41-3.47-12.53,.78-.87,1.18-1.39,2.59-1.29,3.7l4.57,3.37,2.94-3.99,3.08,2.27-5.42,7.36-9.34-6.87c-.39-2.46,.33-5.71,2.46-8.61,4.2-5.71,11.24-7.1,18.25-1.95Z" style="fill:#1a171b;"/><path d="M686.77,631.87l-2.96,3.61-20.33-16.67,2.96-3.61,20.33,16.67Z" style="fill:#1a171b;"/><path d="M672.49,642.63l5.08-5.64,2.91,2.63-13.29,14.73-2.91-2.63,5.08-5.63-16.61-14.99,3.12-3.46,16.61,14.99Z" style="fill:#1a171b;"/><path d="M660.74,660.79l-3.89,3.84-24.56-12.72,3.52-3.46,12.67,7.16c2.55,1.4,5.2,2.99,7.78,4.5l.11-.11c-1.53-2.58-3.06-5.24-4.42-7.81l-6.94-12.8,3.39-3.34,12.34,24.75Zm-8.39-13.51l-8.82,8.69-2.57-2.61,8.82-8.69,2.57,2.61Z" style="fill:#1a171b;"/><path d="M647.59,673.37l-3.51,3.07-14.71-16.84-8.22,7.18-2.58-2.96,11.73-10.25,17.29,19.8Z" style="fill:#1a171b;"/><path d="M624.7,692.5l-12.77,9.45-2.33-3.15,9.02-6.68-4.44-6-7.68,5.68-2.33-3.15,7.68-5.68-6.53-8.83,3.75-2.77,15.64,21.14Z" style="fill:#1a171b;"/><path d="M604.15,707.16l-4.57,3-21.58-17.3,4.13-2.71,11.02,9.51c2.22,1.87,4.51,3.96,6.74,5.95l.13-.09c-.99-2.83-1.97-5.74-2.8-8.53l-4.29-13.92,3.98-2.61,7.24,26.69Zm-5.57-14.9l-10.36,6.79-2-3.06,10.36-6.79,2,3.06Z" style="fill:#1a171b;"/><path d="M588.69,717.02l-7.32,4.14c-4.71,2.66-8.98,3.17-11.35-1.03-1.22-2.16-1.23-4.92,.38-6.75l-.08-.14c-2.86,.86-5.72,.15-7.47-2.95-2.59-4.58-.04-8.84,5-11.69l7.91-4.47,12.93,22.89Zm-18.64-15.5c-3.36,1.9-4.56,4.16-3.1,6.74,1.36,2.41,3.77,2.43,7.19,.5l3.43-1.94-4.09-7.24-3.43,1.94Zm6.34,9.98c-3.19,1.8-3.85,3.82-2.72,5.8,1.25,2.21,3.22,2.21,6.19,.53l2.98-1.69-3.55-6.29-2.9,1.64Z" style="fill:#1a171b;"/><path d="M552.9,719.35l-1.85,3.96-13.57-9.37,4.73-2.26,10.69,7.66Zm13.57,9.89l-7.99,3.82c-4.93,2.36-9.56,2.43-12.09-2.87-2.43-5.1,.26-9.23,5.19-11.58l3.79-1.81-4.43-9.27,4.21-2.01,11.33,23.72Zm-12.85-7.47c-3.25,1.55-4.38,3.75-3.09,6.44,1.3,2.73,3.52,2.83,6.77,1.27l3.35-1.6-3.69-7.72-3.35,1.6Z" style="fill:#1a171b;"/><path d="M543.95,739.62l-4.3,1.79-10.12-24.27,4.3-1.79,10.12,24.27Z" style="fill:#1a171b;"/><path d="M529.41,731.38c2.91,8.09-.42,14.73-6.69,16.98-3.1,1.12-6.1,.52-8.25-.57l1.33-3.67c1.73,.81,3.53,1.16,5.46,.46,4.03-1.45,5.69-5.89,3.69-11.45-2.03-5.64-5.92-8.11-10.07-6.61-2.19,.79-3.52,2.41-4.37,4.44l-3.34-1.91c1.17-3.05,3.29-5.25,6.5-6.41,6.22-2.24,12.79,.54,15.74,8.73Z" style="fill:#1a171b;"/><path d="M504.52,753.74l-5.25,1.51-15.49-22.9,4.74-1.36,7.71,12.34c1.57,2.44,3.14,5.11,4.68,7.67l.15-.04c-.11-3-.19-6.07-.15-8.97l.02-14.56,4.57-1.31-.98,27.63Zm-.91-15.87l-11.9,3.42-1.01-3.52,11.9-3.42,1.01,3.52Z" style="fill:#1a171b;"/><path d="M483.22,755.3l7.4-1.68,.87,3.83-19.35,4.38-.87-3.83,7.4-1.68-4.94-21.81,4.55-1.03,4.94,21.81Z" style="fill:#1a171b;"/><path d="M466.88,762.71l-4.59,.81-4.58-25.89,4.59-.81,4.58,25.89Z" style="fill:#1a171b;"/><path d="M454.46,751.77c1.02,8.45-3.09,14-9.89,14.81-6.8,.82-12.12-3.62-13.13-12.04-1.02-8.45,3.07-14.2,9.87-15.02s12.14,3.8,13.15,12.25Zm-18.27,2.2c.71,5.86,3.78,9.08,7.89,8.59,4.1-.49,6.33-4.36,5.62-10.22-.71-5.86-3.81-9.29-7.91-8.8s-6.3,4.57-5.6,10.43Z" style="fill:#1a171b;"/><path d="M426.21,767.97l-4.79,.21-8.81-14.41-2.96-5.49h-.16c.34,2.71,.86,6.02,.99,8.95l.5,11.41-4.43,.19-1.15-26.27,4.79-.21,8.81,14.43,2.96,5.46h.16c-.35-2.78-.85-5.92-.98-8.85l-.5-11.5,4.43-.19,1.15,26.27Z" style="fill:#1a171b;"/><path d="M330.86,762.4l-6.85-1.48c-7.87-1.7-11.61-6.95-9.77-15.45,1.84-8.5,7.45-11.95,15.09-10.3l7.09,1.53-5.55,25.7Zm-1.8-23.42c-5.17-1.12-8.78,1.18-10.14,7.5-1.36,6.32,1.02,9.69,6.19,10.81l2,.43,3.95-18.31-2-.43Z" style="fill:#1a171b;"/><path d="M305.39,756.51l-4.5-1.22,6.89-25.37,4.5,1.22-6.89,25.37Z" style="fill:#1a171b;"/><path d="M298.88,741.1c-2.69,8.17-9.47,11.32-16.11,9.13-3.54-1.17-5.46-3.52-6.5-5.65l3.31-2.08c.85,1.63,2,3.06,4.33,3.83,4.43,1.46,8.54-1,10.38-6.6,1.88-5.7,.37-10.02-4.64-11.67-1.39-.46-2.89-.51-3.92-.07l-1.78,5.39,4.7,1.55-1.2,3.63-8.67-2.86,3.63-11.01c2.22-1.13,5.53-1.46,8.95-.34,6.73,2.22,10.24,8.47,7.52,16.73Z" style="fill:#1a171b;"/><path d="M268.62,744.68l-4.35-1.69,9.52-24.51,4.35,1.69-9.52,24.51Z" style="fill:#1a171b;"/><path d="M253.93,734.43l6.93,3.08-1.59,3.58-18.13-8.07,1.59-3.58,6.93,3.08,9.09-20.43,4.26,1.9-9.09,20.44Z" style="fill:#1a171b;"/><path d="M233.03,728.89l-4.85-2.51,4.49-27.29,4.38,2.27-2.88,14.26c-.54,2.85-1.23,5.87-1.88,8.79l.14,.07c1.98-2.25,4.03-4.54,6.06-6.62l10.02-10.56,4.23,2.19-19.7,19.4Zm10.25-12.16l-10.99-5.7,1.68-3.25,10.99,5.7-1.68,3.25Z" style="fill:#1a171b;"/><path d="M216.96,720.27l-4-2.39,11.47-19.2-9.37-5.6,2.01-3.37,13.38,7.99-13.48,22.57Z" style="fill:#1a171b;"/><path d="M191.71,704.42l-12.94-9.23,2.28-3.19,9.14,6.52,4.33-6.08-7.78-5.55,2.28-3.19,7.78,5.55,6.38-8.94,3.8,2.71-15.27,21.41Z" style="fill:#1a171b;"/><path d="M171.41,689.4l-4.26-3.42,9.77-25.86,3.85,3.09-5.63,13.41c-1.09,2.69-2.36,5.51-3.57,8.25l.12,.1c2.39-1.82,4.85-3.65,7.24-5.3l11.9-8.38,3.71,2.98-23.14,15.13Zm12.44-9.9l-9.65-7.75,2.29-2.85,9.65,7.75-2.29,2.85Z" style="fill:#1a171b;"/><path d="M157.28,677.76l-6.2-5.68c-3.98-3.65-5.79-7.55-2.53-11.11,1.67-1.83,4.3-2.69,6.54-1.73l.11-.12c-1.7-2.45-1.91-5.39,.49-8.01,3.55-3.88,8.39-2.78,12.66,1.13l6.7,6.14-17.76,19.38Zm1.44-13.4c-2.7-2.48-4.82-2.48-6.36-.79-1.72,1.87-1.1,3.75,1.41,6.05l2.53,2.31,4.88-5.32-2.45-2.25Zm7.52-9.11c-2.84-2.61-5.37-3.04-7.37-.86-1.87,2.04-1.14,4.34,1.75,6.99l2.9,2.66,5.62-6.13-2.9-2.66Z" style="fill:#1a171b;"/><path d="M138.78,660.43l-6.11-6.42c-3.77-3.96-5.28-8.34-1.03-12.39,4.09-3.9,8.86-2.62,12.63,1.34l2.89,3.04,7.44-7.09,3.22,3.38-19.04,18.13Zm3.12-14.54c-2.48-2.61-4.92-3-7.09-.94-2.19,2.08-1.59,4.23,.89,6.83l2.56,2.69,6.2-5.9-2.56-2.69Zm2.07-1.43l-4.34-.53,4.7-15.81,3.62,3.8-3.97,12.54Z" style="fill:#1a171b;"/><path d="M121.93,642.24l-3.04-3.54,19.93-17.15,3.04,3.54-19.93,17.15Z" style="fill:#1a171b;"/><path d="M125.22,625.83c-6.79,5.29-14.13,4.18-18.22-1.08-2.03-2.6-2.39-5.64-2.03-8.02l3.91,.12c-.24,1.9,0,3.71,1.26,5.34,2.63,3.38,7.37,3.58,12.03-.05,4.73-3.69,5.86-8.15,3.15-11.63-1.43-1.84-3.39-2.6-5.58-2.77l.78-3.77c3.26,.16,6.01,1.49,8.11,4.18,4.06,5.21,3.46,12.33-3.4,17.67Z" style="fill:#1a171b;"/><path d="M96.24,609.17l-3.07-4.52,16.94-21.86,2.77,4.08-9.33,11.17c-1.83,2.25-3.88,4.58-5.83,6.84l.09,.13c2.81-1.04,5.71-2.07,8.48-2.94l13.84-4.52,2.67,3.94-26.57,7.68Zm14.8-5.81l-6.96-10.25,3.03-2.05,6.96,10.25-3.03,2.05Z" style="fill:#1a171b;"/><path d="M88.12,589.42l3.9,6.51-3.36,2.02-10.21-17.01,3.36-2.02,3.9,6.51,19.18-11.5,2.4,4-19.18,11.5Z" style="fill:#1a171b;"/><path d="M75.98,576.22l-2.21-4.11,23.16-12.43,2.21,4.11-23.16,12.43Z" style="fill:#1a171b;"/><path d="M82.5,561.01c-7.71,3.6-14.26,1.43-17.16-4.78-2.9-6.21-.34-12.64,7.34-16.23,7.71-3.6,14.45-1.52,17.35,4.69,2.9,6.21,.18,12.72-7.53,16.32Zm-7.79-16.67c-5.35,2.5-7.45,6.43-5.7,10.17,1.75,3.74,6.12,4.65,11.46,2.15,5.35-2.5,7.64-6.52,5.89-10.26-1.75-3.74-6.3-4.56-11.65-2.06Z" style="fill:#1a171b;"/><path d="M58.28,539.21l-1.69-4.48,10.95-12.85,4.29-4.52-.06-.15c-2.46,1.17-5.45,2.69-8.19,3.72l-10.68,4.03-1.57-4.15,24.6-9.27,1.69,4.48-10.97,12.86-4.27,4.51,.06,.15c2.52-1.19,5.36-2.66,8.09-3.69l10.77-4.06,1.57,4.15-24.6,9.27Z" style="fill:#1a171b;"/><path d="M34.06,446.77l-.71-6.98c-.81-8.01,3.03-13.19,11.68-14.07,8.65-.88,13.66,3.4,14.45,11.17l.73,7.21-26.16,2.65Zm21.72-8.94c-.53-5.26-3.83-7.98-10.26-7.33-6.43,.65-8.91,3.96-8.37,9.22l.21,2.03,18.64-1.89-.21-2.03Z" style="fill:#1a171b;"/><path d="M31.81,420.72l-.23-4.66,26.25-1.29,.23,4.66-26.25,1.29Z" style="fill:#1a171b;"/><path d="M44.3,409.72c-8.6-.14-13.62-5.67-13.51-12.67,.06-3.73,1.74-6.26,3.46-7.89l2.97,2.54c-1.31,1.3-2.33,2.82-2.37,5.27-.08,4.66,3.49,7.86,9.39,7.95,6,.1,9.67-2.62,9.76-7.9,.02-1.46-.37-2.92-1.1-3.76l-5.67-.09-.08,4.95-3.83-.06,.15-9.13,11.59,.19c1.74,1.78,3.04,4.84,2.98,8.44-.12,7.09-5.04,12.3-13.74,12.16Z" style="fill:#1a171b;"/><path d="M31.65,382.15l.25-4.66,26.25,1.42-.25,4.66-26.26-1.42Z" style="fill:#1a171b;"/><path d="M36.81,365l-.77,7.55-3.9-.4,2-19.74,3.9,.4-.77,7.55,22.25,2.26-.47,4.64-22.25-2.26Z" style="fill:#1a171b;"/><path d="M35.54,343.43l.87-5.4,27.32-4.27-.79,4.87-14.45,1.72c-2.88,.38-5.96,.67-8.94,.97l-.03,.16c2.76,1.18,5.57,2.41,8.19,3.68l13.17,6.21-.76,4.7-24.59-12.65Zm14.75,5.93l1.97-12.22,3.61,.58-1.97,12.22-3.61-.58Z" style="fill:#1a171b;"/><path d="M38.71,325.47l1.02-4.55,21.83,4.9,2.39-10.66,3.83,.86-3.41,15.21-25.66-5.76Z" style="fill:#1a171b;"/><path d="M45.89,296.53l4.73-15.17,3.75,1.17-3.34,10.71,7.12,2.22,2.85-9.12,3.75,1.17-2.85,9.12,10.48,3.27-1.39,4.45-25.1-7.83Z" style="fill:#1a171b;"/><path d="M53.85,272.55l1.93-5.12,27.62,1.25-1.74,4.62-14.5-1.19c-2.9-.2-5.98-.53-8.95-.83l-.06,.15c2.47,1.7,4.98,3.47,7.29,5.24l11.67,8.71-1.68,4.45-21.58-17.29Zm13.28,8.75l4.37-11.58,3.42,1.29-4.37,11.58-3.42-1.29Z" style="fill:#1a171b;"/><path d="M60.53,255.47l3.48-7.66c2.24-4.92,5.39-7.85,9.78-5.86,2.25,1.02,3.89,3.25,3.67,5.68l.15,.07c1.8-2.38,4.53-3.49,7.77-2.02,4.79,2.18,5.25,7.12,2.85,12.39l-3.76,8.27-23.94-10.88Zm13.19-2.79c1.52-3.34,.86-5.35-1.22-6.3-2.31-1.05-3.9,.12-5.31,3.22l-1.42,3.12,6.57,2.99,1.38-3.03Zm11,4.33c1.6-3.51,1.23-6.05-1.46-7.27-2.52-1.14-4.48,.26-6.1,3.83l-1.63,3.59,7.57,3.44,1.63-3.59Z" style="fill:#1a171b;"/><path d="M71.28,232.5l4.21-7.8c2.6-4.81,6.3-7.6,11.46-4.81,4.97,2.69,5.23,7.61,2.63,12.42l-1.99,3.69,9.04,4.88-2.22,4.1-23.13-12.49Zm14.79-1.53c1.71-3.17,1.33-5.61-1.3-7.03-2.66-1.44-4.51-.21-6.22,2.96l-1.77,3.27,7.53,4.07,1.76-3.27Zm2,1.53l-.84-4.29,16.49-.43-2.49,4.61-13.15,.11Z" style="fill:#1a171b;"/><path d="M83.36,210.87l2.42-3.99,22.47,13.64-2.42,3.99-22.47-13.64Z" style="fill:#1a171b;"/><path d="M99.98,208.92c-7.12-4.82-8.34-12.15-4.61-17.67,1.85-2.73,4.62-4.02,7-4.41l1.09,3.75c-1.88,.36-3.53,1.14-4.69,2.85-2.4,3.54-1.12,8.11,3.76,11.42,4.97,3.36,9.56,3.06,12.03-.59,1.31-1.93,1.42-4.03,.91-6.16l3.82-.42c.86,3.15,.44,6.18-1.47,9-3.71,5.47-10.65,7.1-17.86,2.22Z" style="fill:#1a171b;"/><path d="M106.87,176.22l3.35-4.32,26.02,9.35-3.03,3.9-13.5-5.41c-2.71-1.04-5.55-2.27-8.3-3.43l-.1,.13c1.86,2.36,3.73,4.79,5.42,7.15l8.58,11.76-2.92,3.76-15.51-22.89Zm10.1,12.28l7.59-9.78,2.89,2.24-7.59,9.78-2.89-2.24Z" style="fill:#1a171b;"/><path d="M123.12,162.39l-4.98,5.73-2.96-2.58,13.02-14.97,2.96,2.57-4.98,5.73,16.88,14.68-3.06,3.52-16.88-14.68Z" style="fill:#1a171b;"/><path d="M131.94,146.75l3.22-3.37,18.99,18.18-3.22,3.37-18.99-18.18Z" style="fill:#1a171b;"/><path d="M148.42,148.25c-5.81-6.21-5.78-13.11-.78-17.8,5-4.68,11.91-4.25,17.71,1.95,5.82,6.21,5.93,13.27,.93,17.95s-12.04,4.11-17.85-2.1Zm13.43-12.58c-4.03-4.31-8.42-5.09-11.44-2.26s-2.52,7.26,1.51,11.56,8.57,5.24,11.58,2.42c3.02-2.83,2.38-7.41-1.65-11.72Z" style="fill:#1a171b;"/><path d="M161.61,118.48l3.74-3,15.62,6.41,5.63,2.67,.12-.1c-1.88-1.98-4.25-4.34-6.08-6.62l-7.15-8.9,3.46-2.78,16.46,20.5-3.74,3-15.63-6.43-5.62-2.66-.12,.1c1.92,2.03,4.19,4.27,6.02,6.55l7.21,8.98-3.46,2.78-16.46-20.5Z" style="fill:#1a171b;"/></svg>