<?xml version="1.0" encoding="UTF-8"?><svg id="a" xmlns="http://www.w3.org/2000/svg" viewBox="0 0 800 800"><path d="M251.99,87.22l1.19-4c2.43,.88,5.21,.96,7.44-.02,2.69-1.19,3.63-3.06,2.81-4.93-.87-1.97-2.69-1.92-5.27-1.88l-3.9,.02c-2.79,.06-6.09-.71-7.64-4.21-1.68-3.81,.39-8.23,5.06-10.29,2.8-1.23,6.01-1.27,8.72-.2l-.99,3.66c-2.09-.62-4.05-.67-6.1,.24-2.27,1-3.28,2.71-2.51,4.46,.83,1.88,2.96,1.77,5.3,1.71l3.83-.07c3.37-.07,6.15,.85,7.68,4.32,1.71,3.88-.08,8.53-5.45,10.9-3.23,1.43-6.91,1.53-10.17,.3Z" style="fill:#1a171b;"/><path d="M270.58,70.32l-4.98-13.82,4.37-1.57,5.1,14.15c1.93,5.36,4.57,6.4,7.55,5.32,3.01-1.08,4.45-3.59,2.52-8.95l-5.1-14.15,4.2-1.51,4.98,13.82c2.91,8.08,.47,12.53-5.23,14.59-5.71,2.06-10.49,.21-13.4-7.87Z" style="fill:#1a171b;"/><path d="M295.88,69.99l1.73-3.8c2.29,1.2,5.04,1.67,7.37,1,2.83-.81,4.02-2.54,3.46-4.5-.59-2.07-2.4-2.27-4.96-2.58l-3.87-.51c-2.77-.32-5.94-1.54-6.99-5.22-1.14-4.01,1.51-8.1,6.42-9.51,2.94-.84,6.13-.44,8.67,.99l-1.48,3.49c-1.99-.9-3.93-1.22-6.08-.6-2.39,.68-3.62,2.24-3.1,4.08,.56,1.98,2.69,2.16,5.02,2.42l3.8,.45c3.35,.39,5.98,1.69,7.02,5.33,1.16,4.08-1.25,8.44-6.9,10.06-3.4,.97-7.06,.57-10.12-1.1Z" style="fill:#1a171b;"/><path d="M318.75,44.35l-7.38,1.63-.84-3.81,19.28-4.26,.84,3.81-7.38,1.63,4.8,21.73-4.53,1-4.8-21.73Z" style="fill:#1a171b;"/><path d="M338.71,36.43l5.37-.86,12.55,24.49-4.85,.78-6.13-13.12c-1.26-2.6-2.49-5.43-3.7-8.14l-.16,.03c-.25,2.97-.54,6.02-.93,8.88l-1.77,14.38-4.68,.75,4.29-27.18Zm-1.01,15.79l12.17-1.95,.57,3.59-12.17,1.95-.58-3.59Z" style="fill:#1a171b;"/><path d="M356.41,33.91l4.61-.52,2.9,26-4.61,.51-2.9-26Z" style="fill:#1a171b;"/><path d="M368.67,32.55l4.76-.27,8.96,14.21,3.02,5.42h.16c-.38-2.7-.94-5.98-1.1-8.89l-.65-11.34,4.41-.25,1.51,26.12-4.76,.27-8.96-14.23-3.02-5.4h-.16c.38,2.76,.93,5.89,1.1,8.79l.66,11.44-4.41,.25-1.51-26.12Z" style="fill:#1a171b;"/><path d="M401.45,31.35l5.44,.09,8.1,26.3-4.91-.08-3.75-13.98c-.79-2.78-1.51-5.78-2.23-8.66h-.16c-.77,2.88-1.58,5.83-2.46,8.58l-4.24,13.85-4.74-.08,8.96-26.02Zm-3.74,15.37l12.32,.2-.06,3.64-12.32-.2,.06-3.64Z" style="fill:#1a171b;"/><path d="M419.57,31.78l8.34,.63c5.36,.41,9.18,2.35,8.81,7.13-.19,2.46-1.71,4.75-4.05,5.37v.16c2.83,.87,4.8,3.04,4.53,6.57-.4,5.22-4.86,7.33-10.6,6.9l-9.01-.68,1.98-26.09Zm6.83,23.13c3.83,.29,6.07-.92,6.29-3.86,.21-2.74-1.78-4.1-5.67-4.39l-3.91-.3-.62,8.25,3.91,.3Zm.28-11.76c3.64,.28,5.29-1.03,5.46-3.29,.19-2.52-1.44-3.61-4.83-3.86l-3.4-.26-.54,7.16,3.3,.25Z" style="fill:#1a171b;"/><path d="M444.58,33.98l4.59,.64-3.06,22.04,10.76,1.5-.54,3.87-15.35-2.13,3.6-25.91Z" style="fill:#1a171b;"/><path d="M465.61,37.12l15.43,3.1-.77,3.83-10.89-2.19-1.32,6.57,9.22,1.85-.77,3.83-9.22-1.85-1.52,7.59,11.28,2.26-.77,3.83-15.83-3.18,5.15-25.65Z" style="fill:#1a171b;"/><path d="M496.13,43.92l6.69,1.98c7.68,2.28,11,7.77,8.54,16.06-2.46,8.3-8.29,11.29-15.74,9.08l-6.92-2.05,7.43-25.08Zm.03,23.37c5.05,1.5,8.79-.51,10.62-6.68s-.28-9.69-5.33-11.19l-1.95-.58-5.3,17.87,1.95,.58Z" style="fill:#1a171b;"/><path d="M521.27,51.7l14.76,5.48-1.36,3.66-10.41-3.86-2.33,6.29,8.82,3.27-1.36,3.66-8.82-3.27-2.69,7.26,10.79,4-1.36,3.66-15.14-5.62,9.1-24.53Z" style="fill:#1a171b;"/><path d="M531.61,79.96l3.76-1.81c.99,2.39,2.8,4.51,5.02,5.49,2.69,1.2,4.71,.63,5.54-1.23,.87-1.97-.39-3.28-2.15-5.17l-2.64-2.87c-1.92-2.03-3.57-4.99-2.02-8.49,1.69-3.81,6.36-5.25,11.02-3.18,2.79,1.24,4.99,3.6,6.02,6.32l-3.37,1.72c-.95-1.97-2.23-3.45-4.28-4.36-2.27-1.01-4.21-.6-4.99,1.15-.83,1.88,.68,3.38,2.3,5.07l2.62,2.78c2.32,2.45,3.51,5.13,1.97,8.6-1.72,3.88-6.37,5.68-11.74,3.3-3.23-1.44-5.78-4.09-7.06-7.33Z" style="fill:#1a171b;"/><path d="M563.15,69.34l4.15,2.08-11.74,23.38-4.15-2.08,11.74-23.38Z" style="fill:#1a171b;"/><path d="M566.42,85.64c4.24-7.44,11.47-9.18,17.51-5.73,3.23,1.84,4.63,4.51,5.23,6.79l-3.64,1.37c-.51-1.76-1.35-3.38-3.46-4.59-4.03-2.3-8.52-.71-11.43,4.39-2.95,5.19-2.34,9.7,2.22,12.29,1.27,.72,2.72,1.07,3.81,.84l2.79-4.91-4.28-2.44,1.88-3.31,7.9,4.5-5.71,10.02c-2.39,.67-5.68,.34-8.79-1.44-6.13-3.49-8.32-10.28-4.04-17.8Z" style="fill:#1a171b;"/><path d="M597.08,88.26l3.96,2.66-1.44,16.74-.87,6.14,.13,.09c1.32-2.37,2.86-5.33,4.48-7.74l6.33-9.43,3.67,2.46-14.58,21.73-3.96-2.66,1.46-16.76,.85-6.12-.13-.09c-1.36,2.42-2.81,5.25-4.43,7.66l-6.38,9.51-3.67-2.46,14.58-21.73Z" style="fill:#1a171b;"/><path d="M612.67,122.57c5.18-6.3,14.93,.86,18.33-3.28,.87-1.06,1.07-2.29-.09-3.24-1.27-1.04-3.02-.72-4.29,.82-2.86,3.49-2.47,11.68-.66,17.65,.73,2.45,1.69,4.53,2.77,5.91l-3.28,2.17c-1.47-1.91-2.7-4.51-3.51-7.53-1.96-7.3-1.74-16.46,1.68-20.62,2.29-2.78,6.15-3.4,9.24-.86,2.77,2.27,3.05,5.41,.95,7.97-4.35,5.29-14.22-.46-17.56,3.6-1.54,1.88-1.1,4.36,.91,6,1.54,1.27,3.82,1.65,6.23,1.41,3-.35,6.06-1.52,8.99-3.61l3.26,2.68c-3.39,2.29-7.08,3.9-11.13,4.58-3.44,.51-6.93-.11-10.05-2.67-4.04-3.32-4.39-7.81-1.78-10.99Z" style="fill:#1a171b;"/><path d="M653.36,132.12l11.22,11.04-2.74,2.78-7.91-7.79-4.7,4.78,6.7,6.6-2.74,2.78-6.7-6.6-5.43,5.52,8.2,8.07-2.74,2.78-11.5-11.33,18.35-18.64Z" style="fill:#1a171b;"/><path d="M669.51,148.31l3.16,3.57-5.62,15.83-2.39,5.73,.11,.12c1.88-1.96,4.11-4.43,6.29-6.36l8.5-7.53,2.93,3.31-19.58,17.34-3.16-3.57,5.63-15.85,2.37-5.71-.11-.12c-1.92,2-4.04,4.37-6.22,6.3l-8.57,7.6-2.93-3.31,19.58-17.34Z" style="fill:#1a171b;"/><path d="M676.31,176.11c6.8-5.19,14.14-3.97,18.36,1.57,2.25,2.95,2.5,5.96,2.16,8.29l-3.88-.16c.22-1.82,.08-3.64-1.4-5.58-2.81-3.69-7.57-3.99-12.24-.42-4.74,3.62-5.94,8.01-2.76,12.19,.88,1.16,2.09,2.05,3.18,2.26l4.49-3.43-2.99-3.92,3.03-2.31,5.51,7.22-9.17,7c-2.46-.32-5.36-1.91-7.53-4.76-4.28-5.61-3.64-12.72,3.24-17.97Z" style="fill:#1a171b;"/><path d="M703.17,190.22l2.62,3.83-21.59,14.77-2.62-3.83,21.59-14.77Z" style="fill:#1a171b;"/><path d="M710.13,200.4l2.48,4.07-8.34,14.58-3.37,5.21,.08,.14c2.19-1.6,4.83-3.63,7.32-5.14l9.71-5.9,2.29,3.77-22.35,13.59-2.48-4.07,8.36-14.6,3.35-5.2-.08-.14c-2.25,1.63-4.75,3.58-7.24,5.09l-9.79,5.95-2.29-3.77,22.35-13.59Z" style="fill:#1a171b;"/><path d="M724.16,224.17l7.24,13.98-3.47,1.79-5.1-9.86-5.95,3.08,4.33,8.35-3.47,1.79-4.32-8.35-6.88,3.56,5.29,10.22-3.47,1.79-7.42-14.34,23.23-12.02Z" style="fill:#1a171b;"/><path d="M734.38,244.45l6.36,14.4-3.57,1.58-4.49-10.16-6.13,2.71,3.8,8.61-3.57,1.58-3.8-8.61-7.08,3.13,4.65,10.52-3.57,1.58-6.52-14.77,23.93-10.57Z" style="fill:#1a171b;"/><path d="M743.4,265.42l3.03,8.28c1.87,5.11,1.5,9.71-3.98,11.71-5.28,1.93-9.12-1.13-10.99-6.24l-1.43-3.92-9.6,3.51-1.59-4.36,24.57-8.98Zm-11.08,12.51l3.75,2.21-10.56,12.56-1.79-4.9,8.6-9.86Zm2.46-.48c1.23,3.37,3.3,4.69,6.09,3.67,2.83-1.03,3.13-3.22,1.9-6.59l-1.27-3.47-7.99,2.92,1.27,3.47Z" style="fill:#1a171b;"/><path d="M751.53,288.69l1.37,4.43-24.99,7.73-1.37-4.43,24.99-7.73Z" style="fill:#1a171b;"/><path d="M755.18,300.49l1.16,4.62-12.29,11.46-4.76,3.98,.04,.16c2.57-.88,5.69-2.04,8.52-2.75l11.02-2.76,1.07,4.28-25.38,6.37-1.16-4.63,12.31-11.47,4.74-3.98-.04-.16c-2.63,.89-5.6,2.02-8.42,2.72l-11.11,2.79-1.08-4.28,25.38-6.37Z" style="fill:#1a171b;"/><path d="M748.4,328.32c8.43-1.47,14.38,3.01,15.57,9.86,.64,3.66-.54,6.44-1.91,8.36l-3.37-1.93c1.04-1.51,1.75-3.2,1.33-5.59-.79-4.57-4.88-7.03-10.66-6.02-5.88,1.02-8.97,4.37-8.07,9.54,.25,1.43,.91,2.78,1.77,3.48l5.56-.97-.84-4.86,3.75-.65,1.56,8.95-11.37,1.98c-2.03-1.42-3.88-4.17-4.49-7.7-1.21-6.95,2.63-12.96,11.16-14.45Z" style="fill:#1a171b;"/><path d="M745.04,425.32l2.9,3.01c-1.96,1.69-3.4,4.07-3.64,6.49-.29,2.93,.88,4.67,2.91,4.87,2.14,.21,2.99-1.4,4.23-3.66l1.9-3.41c1.32-2.46,3.62-4.96,7.43-4.58,4.15,.41,6.98,4.39,6.47,9.47-.3,3.04-1.85,5.86-4.12,7.7l-2.7-2.66c1.57-1.52,2.58-3.2,2.8-5.43,.25-2.47-.75-4.19-2.65-4.38-2.05-.2-3,1.7-4.1,3.77l-1.82,3.37c-1.6,2.97-3.77,4.94-7.54,4.57-4.22-.42-7.39-4.27-6.81-10.12,.35-3.52,2.07-6.77,4.75-9Z" style="fill:#1a171b;"/><path d="M750.61,449.81l14.48,2.45-.78,4.58-14.83-2.51c-5.62-.95-7.82,.83-8.35,3.96-.53,3.16,.94,5.65,6.56,6.6l14.83,2.51-.75,4.4-14.48-2.45c-8.47-1.44-11.15-5.75-10.14-11.73,1.01-5.98,4.97-9.24,13.45-7.8Z" style="fill:#1a171b;"/><path d="M738.45,471.99l2.46,3.37c-2.17,1.4-3.93,3.57-4.5,5.93-.69,2.86,.23,4.75,2.22,5.22,2.09,.5,3.16-.98,4.69-3.05l2.34-3.11c1.64-2.25,4.26-4.41,7.98-3.52,4.05,.97,6.31,5.3,5.12,10.27-.71,2.97-2.64,5.55-5.13,7.06l-2.31-3.01c1.77-1.29,2.99-2.82,3.51-5,.58-2.41-.17-4.25-2.03-4.7-2-.48-3.2,1.28-4.57,3.18l-2.26,3.08c-1.99,2.72-4.41,4.38-8.1,3.49-4.12-.99-6.74-5.24-5.36-10.95,.83-3.44,2.98-6.43,5.93-8.27Z" style="fill:#1a171b;"/><path d="M749.54,504.5l2.21-7.22,3.73,1.14-5.77,18.88-3.73-1.14,2.21-7.22-21.28-6.5,1.36-4.44,21.29,6.5Z" style="fill:#1a171b;"/><path d="M746.61,525.8l-1.9,5.1-27.49-1.12,1.71-4.6,14.43,1.11c2.88,.18,5.95,.5,8.91,.78l.06-.15c-2.46-1.68-4.97-3.43-7.28-5.18l-11.65-8.61,1.65-4.44,21.55,17.1Zm-13.25-8.64l-4.29,11.55-3.41-1.27,4.29-11.55,3.41,1.27Z" style="fill:#1a171b;"/><path d="M740.09,542.47l-1.82,4.27-24.06-10.27,1.82-4.27,24.06,10.27Z" style="fill:#1a171b;"/><path d="M735.25,553.81l-2.11,4.28-16.78,.8-6.2-.04-.07,.14c2.52,.99,5.66,2.13,8.27,3.41l10.19,5.02-1.95,3.96-23.47-11.56,2.11-4.28,16.8-.79,6.18,.03,.07-.14c-2.58-1.02-5.57-2.08-8.19-3.37l-10.28-5.06,1.95-3.96,23.47,11.56Z" style="fill:#1a171b;"/><path d="M720.17,582.85l-2.74,4.7-26.9-5.79,2.47-4.25,14.04,3.56c2.81,.67,5.78,1.51,8.65,2.29l.08-.14c-2.14-2.08-4.31-4.23-6.29-6.34l-10.01-10.48,2.38-4.09,18.32,20.53Zm-11.58-10.78l-6.2,10.65-3.15-1.83,6.2-10.65,3.15,1.83Z" style="fill:#1a171b;"/><path d="M710.81,598.49l-4.67,6.94c-3,4.46-6.58,6.82-10.56,4.14-2.04-1.38-3.29-3.83-2.67-6.18l-.13-.09c-2.16,2.04-5.02,2.68-7.96,.7-4.34-2.92-3.98-7.85-.76-12.63l5.05-7.5,21.71,14.61Zm-23.49-5.49c-2.14,3.19-2.2,5.73,.24,7.38,2.28,1.54,4.44,.48,6.62-2.76l2.19-3.25-6.86-4.62-2.19,3.25Zm10.08,6.05c-2.04,3.03-1.72,5.11,.16,6.38,2.1,1.41,3.85,.53,5.74-2.29l1.9-2.83-5.96-4.01-1.85,2.75Z" style="fill:#1a171b;"/><path d="M696.5,619.17l-2.83,3.68-17.64-13.57-6.62,8.61-3.09-2.38,9.45-12.29,20.74,15.95Z" style="fill:#1a171b;"/><path d="M683.4,635.87l-10.32,11.89-2.95-2.56,7.28-8.39-5.06-4.39-6.17,7.11-2.95-2.56,6.17-7.11-5.85-5.08-7.54,8.69-2.95-2.56,10.58-12.19,19.76,17.14Z" style="fill:#1a171b;"/><path d="M662.43,659.04l-5.02,4.84c-5.77,5.56-12.18,5.74-18.18-.49-6.01-6.23-5.74-12.78-.14-18.17l5.19-5.01,18.15,18.83Zm-20.35-11.49c-3.79,3.65-3.89,7.9,.57,12.54,4.46,4.63,8.57,4.54,12.36,.88l1.46-1.41-12.93-13.42-1.46,1.41Z" style="fill:#1a171b;"/><path d="M643.29,677.07l-12.04,10.16-2.52-2.98,8.49-7.16-4.33-5.12-7.19,6.07-2.52-2.98,7.19-6.07-5-5.92-8.79,7.42-2.52-2.98,12.34-10.41,16.88,20Z" style="fill:#1a171b;"/><path d="M613.6,672.16l-.27,4.17c-2.57-.31-5.3,.22-7.25,1.67-2.36,1.76-2.86,3.79-1.65,5.43,1.28,1.73,3.05,1.27,5.56,.66l3.8-.89c2.71-.68,6.1-.66,8.38,2.41,2.49,3.34,1.45,8.12-2.65,11.16-2.45,1.82-5.58,2.58-8.46,2.13l.16-3.79c2.18,.14,4.1-.25,5.9-1.58,1.99-1.48,2.6-3.38,1.46-4.91-1.23-1.65-3.28-1.07-5.55-.49l-3.71,.92c-3.27,.82-6.19,.54-8.45-2.51-2.53-3.4-1.81-8.34,2.9-11.84,2.84-2.11,6.4-3.03,9.85-2.55Z" style="fill:#1a171b;"/><path d="M607.32,704.86l-3.85,2.59-14.59-21.71,3.85-2.59,14.59,21.71Z" style="fill:#1a171b;"/><path d="M591.54,699.69c4.4,7.34,2.36,14.5-3.61,18.07-3.18,1.91-6.21,1.81-8.48,1.22l.59-3.84c1.78,.42,3.61,.49,5.7-.76,3.98-2.38,4.81-7.08,1.79-12.11-3.07-5.12-7.3-6.8-11.8-4.1-1.25,.75-2.27,1.84-2.61,2.9l2.9,4.85,4.23-2.53,1.96,3.27-7.8,4.67-5.93-9.9c.59-2.41,2.5-5.11,5.57-6.95,6.05-3.63,13.04-2.2,17.49,5.23Z" style="fill:#1a171b;"/><path d="M574.19,725.11l-4.26,2.14-13.87-9.48-4.92-3.77-.14,.07c1.42,2.32,3.23,5.11,4.54,7.71l5.11,10.15-3.95,1.98-11.76-23.37,4.26-2.14,13.88,9.51,4.91,3.75,.14-.07c-1.44-2.37-3.19-5.02-4.5-7.62l-5.15-10.24,3.95-1.98,11.76,23.37Z" style="fill:#1a171b;"/><path d="M536.63,721.84c2.94,7.61-8.1,12.58-6.17,17.58,.5,1.28,1.47,2.06,2.87,1.52,1.53-.59,2.12-2.27,1.4-4.14-1.62-4.21-8.96-7.9-15.04-9.26-2.49-.57-4.78-.76-6.51-.5l-.28-3.92c2.39-.34,5.26-.13,8.29,.65,7.32,1.88,15.19,6.59,17.13,11.61,1.3,3.36-.07,7.02-3.8,8.46-3.34,1.29-6.21,0-7.4-3.09-2.47-6.39,7.4-12.15,5.51-17.07-.88-2.27-3.25-3.1-5.67-2.17-1.87,.72-3.32,2.51-4.3,4.73-1.17,2.79-1.65,6.03-1.29,9.6l-3.94,1.52c-.32-4.08,.09-8.09,1.5-11.95,1.25-3.25,3.5-5.98,7.27-7.44,4.87-1.88,8.96,.02,10.44,3.86Z" style="fill:#1a171b;"/><path d="M508.26,752.55l-15.14,4.31-1.07-3.75,10.68-3.04-1.84-6.45-9.05,2.58-1.07-3.75,9.05-2.58-2.12-7.45-11.06,3.15-1.07-3.75,15.53-4.42,7.17,25.16Z" style="fill:#1a171b;"/><path d="M486.24,758.62l-4.67,.99-11-12.7-3.8-4.9-.16,.03c.78,2.6,1.83,5.76,2.43,8.61l2.35,11.12-4.32,.92-5.42-25.6,4.67-.99,11,12.73,3.8,4.88,.16-.03c-.79-2.66-1.81-5.67-2.41-8.52l-2.37-11.21,4.32-.92,5.42,25.6Z" style="fill:#1a171b;"/><path d="M458.67,750.81c1.15,8.48-3.54,14.25-10.44,15.19-3.68,.5-6.42-.78-8.28-2.22l2.06-3.3c1.47,1.09,3.13,1.87,5.54,1.54,4.6-.62,7.21-4.61,6.42-10.43-.8-5.92-4.03-9.13-9.23-8.42-1.44,.2-2.81,.8-3.54,1.64l.76,5.6,4.88-.66,.51,3.77-9.01,1.22-1.55-11.43c1.49-1.98,4.31-3.72,7.86-4.2,6.99-.95,12.86,3.12,14.02,11.7Z" style="fill:#1a171b;"/><path d="M433.12,767.17l-4.62,.38-2.16-26.07,4.62-.38,2.16,26.07Z" style="fill:#1a171b;"/><path d="M420.84,768.18l-4.77,.14-8.55-14.46-2.87-5.5h-.16c.3,2.7,.77,6,.85,8.91l.33,11.35-4.41,.13-.77-26.15,4.77-.14,8.56,14.48,2.87,5.48h.16c-.31-2.76-.77-5.9-.85-8.81l-.34-11.45,4.41-.13,.77,26.15Z" style="fill:#1a171b;"/><path d="M393.3,768.65l-15.74-.59,.15-3.9,11.1,.42,.25-6.7-9.4-.35,.15-3.9,9.4,.36,.29-7.74-11.5-.43,.15-3.9,16.14,.61-.99,26.15Z" style="fill:#1a171b;"/><path d="M370.6,767.56l-15.67-1.56,.39-3.89,11.05,1.1,.66-6.67-9.36-.93,.39-3.89,9.36,.93,.77-7.71-11.45-1.14,.39-3.89,16.07,1.59-2.58,26.04Z" style="fill:#1a171b;"/><path d="M347.94,765.08l-8.7-1.44c-5.37-.89-9.19-3.46-8.24-9.22,.92-5.55,5.47-7.38,10.83-6.5l4.12,.68,1.67-10.09,4.58,.76-4.26,25.81Zm-5.44-15.79l-3.77,2.18-5.74-15.37,5.15,.85,4.36,12.34Zm-.79,2.38c-3.54-.58-5.7,.57-6.19,3.5-.49,2.97,1.27,4.31,4.8,4.89l3.65,.6,1.39-8.4-3.65-.6Z" style="fill:#1a171b;"/><path d="M323.68,760.73l-4.54-.98,5.55-25.57,4.54,.98-5.55,25.57Z" style="fill:#1a171b;"/><path d="M311.62,758.1l-4.6-1.26-3.95-16.33-1.13-6.1-.15-.04c-.5,2.67-1.02,5.96-1.79,8.77l-3.01,10.96-4.26-1.17,6.93-25.23,4.6,1.26,3.94,16.36,1.14,6.08,.15,.04c.52-2.73,1-5.87,1.77-8.67l3.03-11.05,4.26,1.17-6.93,25.23Z" style="fill:#1a171b;"/><path d="M290.72,738.52c-2.87,8.07-9.69,11.04-16.24,8.71-3.5-1.25-5.35-3.64-6.34-5.77l3.34-1.99c.81,1.65,1.92,3.1,4.21,3.91,4.37,1.56,8.52-.79,10.49-6.32,2-5.62,.61-9.96-4.34-11.72-1.37-.49-2.87-.58-3.9-.16l-1.89,5.32,4.64,1.65-1.28,3.59-8.56-3.05,3.87-10.87c2.23-1.07,5.53-1.33,8.91-.12,6.65,2.37,9.99,8.67,7.09,16.83Z" style="fill:#1a171b;"/><path d="M201.41,683.31l-4.07,.94c-.44-2.55-1.74-5.01-3.69-6.46-2.36-1.76-4.46-1.65-5.67-.01-1.28,1.73-.34,3.29,.97,5.51l1.94,3.38c1.43,2.4,2.39,5.65,.11,8.72-2.49,3.35-7.35,3.72-11.45,.68-2.45-1.82-4.07-4.6-4.48-7.49l3.67-.94c.49,2.13,1.42,3.86,3.22,5.19,1.99,1.48,3.98,1.51,5.12-.02,1.23-1.65,.08-3.45-1.13-5.46l-1.95-3.29c-1.72-2.9-2.3-5.77-.03-8.82,2.53-3.4,7.46-4.14,12.18-.64,2.84,2.11,4.74,5.26,5.28,8.7Z" style="fill:#1a171b;"/><path d="M177.56,675.51l-9.55,11.16-3.53-3.02,9.78-11.43c3.7-4.33,3.3-7.13,.89-9.19-2.43-2.08-5.33-2.09-9.03,2.24l-9.78,11.43-3.39-2.9,9.55-11.16c5.58-6.53,10.66-6.61,15.27-2.67,4.61,3.94,5.37,9.01-.22,15.54Z" style="fill:#1a171b;"/><path d="M164.76,653.66l-4.16,.38c-.09-2.58-1.04-5.2-2.78-6.9-2.1-2.06-4.19-2.24-5.62-.78-1.5,1.54-.78,3.21,.21,5.59l1.47,3.61c1.09,2.57,1.6,5.92-1.07,8.66-2.92,2.98-7.79,2.7-11.44-.88-2.18-2.14-3.41-5.11-3.43-8.03l3.76-.44c.2,2.18,.88,4.01,2.49,5.58,1.77,1.74,3.74,2.04,5.08,.67,1.44-1.47,.55-3.41-.38-5.56l-1.49-3.53c-1.32-3.1-1.49-6.03,1.16-8.74,2.97-3.03,7.96-3.09,12.15,1.01,2.53,2.47,3.99,5.85,4.05,9.33Z" style="fill:#1a171b;"/><path d="M131.19,646.52l5.07,5.6-2.89,2.62-13.26-14.63,2.89-2.62,5.07,5.6,16.5-14.94,3.12,3.44-16.5,14.94Z" style="fill:#1a171b;"/><path d="M114.4,633.1l-3.41-4.24,15.03-23.05,3.08,3.83-8.34,11.83c-1.63,2.38-3.48,4.85-5.23,7.25l.1,.12c2.71-1.26,5.5-2.51,8.17-3.6l13.36-5.6,2.97,3.69-25.73,9.76Zm14.21-6.96l-7.73-9.6,2.83-2.28,7.73,9.6-2.84,2.28Z" style="fill:#1a171b;"/><path d="M103.43,619l-2.74-3.75,21.13-15.43,2.74,3.75-21.13,15.43Z" style="fill:#1a171b;"/><path d="M96.16,609.02l-2.6-4,7.89-14.83,3.2-5.31-.09-.13c-2.14,1.66-4.72,3.78-7.16,5.37l-9.52,6.2-2.41-3.7,21.92-14.27,2.6,4-7.91,14.85-3.18,5.3,.09,.13c2.2-1.7,4.64-3.73,7.08-5.31l9.6-6.25,2.41,3.7-21.92,14.27Z" style="fill:#1a171b;"/><path d="M78.9,581.22l-2.64-4.75,18.72-20.17,2.39,4.29-10.23,10.25c-2.01,2.07-4.25,4.19-6.39,6.26l.08,.14c2.88-.78,5.84-1.54,8.66-2.16l14.12-3.26,2.3,4.14-27.01,5.26Zm15.18-4.45l-5.99-10.77,3.18-1.77,5.99,10.77-3.18,1.77Z" style="fill:#1a171b;"/><path d="M70.24,565.15l-3.58-7.57c-2.3-4.86-2.5-9.14,1.84-11.19,2.23-1.05,4.97-.86,6.67,.86l.14-.07c-.64-2.9,.27-5.68,3.47-7.19,4.73-2.24,8.78,.59,11.24,5.8l3.86,8.17-23.65,11.18Zm6.37-11.8c-1.56-3.3-3.51-4.09-5.56-3.12-2.29,1.08-2.42,3.04-.97,6.1l1.46,3.08,6.5-3.07-1.42-2.99Zm10.36-5.57c-1.64-3.47-3.8-4.82-6.46-3.56-2.49,1.18-2.68,3.57-1.02,7.1l1.67,3.54,7.48-3.53-1.67-3.54Z" style="fill:#1a171b;"/><path d="M59.79,542.32l-1.71-4.31,20.68-8.22-4.01-10.1,3.63-1.44,5.72,14.41-24.31,9.66Z" style="fill:#1a171b;"/><path d="M52.14,522.5l-4.92-14.95,3.71-1.22,3.47,10.55,6.37-2.1-2.94-8.94,3.71-1.22,2.94,8.94,7.36-2.42-3.6-10.93,3.71-1.22,5.05,15.33-24.85,8.18Z" style="fill:#1a171b;"/><path d="M42.97,492.58l-1.58-6.8c-1.81-7.81,1.32-13.4,9.76-15.36,8.43-1.96,13.92,1.63,15.68,9.21l1.63,7.03-25.49,5.92Zm20.31-11.57c-1.19-5.13-4.79-7.4-11.06-5.94s-8.29,5.03-7.1,10.16l.46,1.98,18.16-4.22-.46-1.98Z" style="fill:#1a171b;"/><path d="M37.34,466.87l-2.52-15.54,3.85-.62,1.78,10.96,6.62-1.07-1.51-9.29,3.85-.62,1.51,9.29,7.65-1.24-1.84-11.36,3.85-.63,2.59,15.94-25.83,4.19Z" style="fill:#1a171b;"/><path d="M56.81,443.92l-3.44-2.38c1.59-2.04,2.54-4.66,2.3-7.08-.29-2.93-1.78-4.41-3.81-4.2-2.14,.21-2.66,1.96-3.43,4.42l-1.19,3.71c-.81,2.67-2.57,5.57-6.38,5.95-4.15,.41-7.71-2.93-8.21-8.01-.3-3.04,.66-6.11,2.52-8.35l3.17,2.08c-1.24,1.8-1.9,3.65-1.68,5.88,.25,2.47,1.56,3.96,3.46,3.77,2.05-.2,2.61-2.26,3.28-4.51l1.12-3.66c.98-3.22,2.73-5.58,6.5-5.96,4.22-.42,8.09,2.74,8.67,8.58,.35,3.52-.7,7.05-2.88,9.76Z" style="fill:#1a171b;"/><path d="M31.99,421.77l-.24-4.63,26.13-1.36,.24,4.63-26.12,1.36Z" style="fill:#1a171b;"/><path d="M44.71,411.15c-8.56,.14-13.73-5.2-13.85-12.16-.06-3.71,1.53-6.28,3.18-7.96l3.03,2.43c-1.26,1.33-2.22,2.89-2.18,5.32,.08,4.64,3.73,7.7,9.6,7.6,5.97-.1,9.54-2.92,9.45-8.17-.02-1.46-.46-2.89-1.21-3.71l-5.65,.09,.08,4.93-3.81,.06-.15-9.09,11.53-.19c1.79,1.71,3.18,4.72,3.24,8.3,.12,7.05-4.61,12.4-13.27,12.54Z" style="fill:#1a171b;"/><path d="M31.62,382.95l.34-4.76,15.25-7.05,5.76-2.3v-.16c-2.7,.03-6.03,.16-8.94-.05l-11.33-.81,.32-4.41,26.1,1.88-.34,4.76-15.28,7.05-5.74,2.3v.16c2.77-.02,5.94-.17,8.84,.04l11.43,.82-.32,4.41-26.1-1.88Z" style="fill:#1a171b;"/><path d="M53.67,352.37c-8.04-1.37-6.66-13.39-11.95-14.29-1.36-.23-2.52,.21-2.77,1.69-.28,1.62,.87,2.98,2.84,3.32,4.45,.76,11.37-3.66,15.65-8.18,1.76-1.85,3.1-3.72,3.76-5.33l3.51,1.77c-.93,2.23-2.57,4.58-4.8,6.79-5.36,5.33-13.43,9.68-18.74,8.78-3.55-.6-6-3.65-5.33-7.59,.6-3.53,3.18-5.33,6.44-4.78,6.75,1.15,6.66,12.57,11.84,13.46,2.4,.41,4.33-1.21,4.76-3.77,.34-1.97-.46-4.14-1.86-6.11-1.79-2.43-4.33-4.5-7.59-6.02l.71-4.16c3.67,1.81,6.9,4.21,9.5,7.4,2.15,2.73,3.35,6.07,2.67,10.05-.88,5.15-4.6,7.69-8.66,7Z" style="fill:#1a171b;"/><path d="M41.79,312.28l4.04-15.22,3.77,1-2.85,10.73,6.48,1.72,2.42-9.09,3.77,1-2.42,9.09,7.49,1.99,2.95-11.12,3.77,1-4.14,15.61-25.29-6.72Z" style="fill:#1a171b;"/><path d="M47.86,290.24l1.54-4.51,16.54-2.95,6.16-.76,.05-.15c-2.63-.66-5.88-1.38-8.64-2.32l-10.75-3.67,1.43-4.18,24.76,8.44-1.54,4.51-16.56,2.94-6.13,.76-.05,.15c2.69,.68,5.79,1.35,8.55,2.29l10.84,3.7-1.42,4.18-24.76-8.44Z" style="fill:#1a171b;"/><path d="M68.67,270.55c-7.88-3.35-10.43-10.34-7.71-16.74,1.45-3.42,3.95-5.12,6.14-5.98l1.78,3.45c-1.69,.71-3.21,1.73-4.16,3.97-1.82,4.27,.27,8.55,5.68,10.85,5.49,2.34,9.9,1.21,11.96-3.62,.57-1.34,.75-2.83,.4-3.88l-5.2-2.21-1.93,4.53-3.5-1.49,3.56-8.36,10.61,4.52c.94,2.29,.99,5.6-.42,8.9-2.76,6.49-9.26,9.45-17.22,6.06Z" style="fill:#1a171b;"/><path d="M67.69,240.24l2.04-4.17,23.5,11.5-2.04,4.17-23.5-11.5Z" style="fill:#1a171b;"/><path d="M73.12,229.16l2.32-4.16,16.8,.07,6.19,.36,.08-.14c-2.47-1.12-5.54-2.41-8.08-3.83l-9.92-5.53,2.15-3.86,22.84,12.74-2.32,4.16-16.82-.08-6.17-.35-.08,.14c2.53,1.15,5.46,2.37,8,3.79l10,5.58-2.15,3.86-22.84-12.74Z" style="fill:#1a171b;"/><path d="M86.88,205.25l8.59-13.19,3.27,2.13-6.06,9.3,5.62,3.66,5.14-7.88,3.27,2.13-5.14,7.88,6.49,4.23,6.28-9.64,3.27,2.13-8.81,13.52-21.91-14.28Z" style="fill:#1a171b;"/><path d="M99.48,186.34l9.39-12.64,3.13,2.33-6.62,8.91,5.38,4,5.61-7.55,3.13,2.33-5.61,7.55,6.21,4.62,6.86-9.23,3.13,2.33-9.63,12.96-21-15.6Z" style="fill:#1a171b;"/><path d="M113.25,168.18l5.7-6.72c3.52-4.15,7.7-6.1,12.15-2.32,4.29,3.64,3.52,8.49,0,12.63l-2.7,3.18,7.8,6.61-3,3.54-19.95-16.92Zm14.71,1.55c2.32-2.73,2.45-5.18,.18-7.11-2.29-1.95-4.35-1.13-6.67,1.6l-2.39,2.82,6.49,5.51,2.39-2.82Zm1.63,1.9l.06-4.35,16.14,2.98-3.38,3.98-12.83-2.6Z" style="fill:#1a171b;"/><path d="M129.45,149.61l3.17-3.38,19.08,17.89-3.17,3.38-19.08-17.89Z" style="fill:#1a171b;"/><path d="M137.87,140.63l3.44-3.3,16.04,4.99,5.82,2.16,.12-.11c-2.03-1.8-4.59-3.93-6.61-6.03l-7.86-8.2,3.19-3.06,18.1,18.88-3.44,3.3-16.06-5.01-5.8-2.14-.12,.11c2.08,1.84,4.52,3.86,6.54,5.96l7.93,8.27-3.19,3.06-18.1-18.88Z" style="fill:#1a171b;"/><path d="M165.4,132.73c-5.46-6.6-4.52-13.97,.84-18.41,2.86-2.37,5.86-2.73,8.2-2.49v3.89c-1.83-.15-3.65,.06-5.52,1.62-3.58,2.96-3.68,7.72,.06,12.25,3.8,4.6,8.24,5.62,12.29,2.28,1.12-.93,1.97-2.17,2.14-3.26l-3.6-4.35-3.8,3.14-2.43-2.93,7-5.79,7.35,8.89c-.22,2.47-1.7,5.43-4.46,7.72-5.44,4.5-12.56,4.14-18.08-2.53Z" style="fill:#1a171b;"/></svg>