<?xml version="1.0" encoding="UTF-8"?><svg id="a" xmlns="http://www.w3.org/2000/svg" viewBox="0 0 800 800"><path d="M324.45,690.67l3.01,.77,1.74,22.79-2.83-.72-.67-12.65c-.15-2.54-.24-5.01-.29-7.61l-.13-.03c-1.27,2.27-2.53,4.39-3.88,6.54l-6.7,10.77-2.72-.69,12.46-19.17Zm-6.55,11.6l9.66,2.47-.54,2.13-9.66-2.47,.54-2.13Z" style="fill:#1a171b;"/><path d="M337,693.72l6.66,1.29c4.33,.84,7.14,3,6.28,7.42-.82,4.25-4.33,5.69-8.66,4.85l-3.95-.77-1.74,8.99-2.71-.52,4.12-21.26Zm4.32,11.29c3.31,.64,5.39-.35,5.92-3.1,.54-2.8-1.09-4.14-4.4-4.78l-3.56-.69-1.53,7.88,3.56,.69Zm-.43,1.42l2.39-.99,4.33,12.38-3.07-.59-3.66-10.8Z" style="fill:#1a171b;"/><path d="M352.32,707.63c.91-6.93,5.54-10.62,10.99-9.9,2.61,.34,4.48,1.88,5.56,3.42l-1.73,1.58c-.97-1.35-2.28-2.36-4.09-2.6-4.06-.53-7.19,2.44-7.89,7.79-.71,5.4,1.43,9.12,5.5,9.65,2.05,.27,3.72-.42,5.29-1.76l1.27,1.91c-1.95,1.75-4.2,2.6-6.99,2.24-5.35-.7-8.82-5.36-7.9-12.33Z" style="fill:#1a171b;"/><path d="M373.15,699.27l2.75,.18-.58,9.05,10.05,.65,.58-9.05,2.75,.18-1.39,21.62-2.75-.18,.66-10.16-10.05-.65-.65,10.16-2.75-.18,1.39-21.62Z" style="fill:#1a171b;"/><path d="M394.25,700.33l2.76,.04-.32,21.66-2.76-.04,.33-21.66Z" style="fill:#1a171b;"/><path d="M407.16,702.64l-6.55,.19-.07-2.33,15.86-.45,.07,2.33-6.55,.18,.55,19.32-2.76,.08-.55-19.32Z" style="fill:#1a171b;"/><path d="M419.8,699.79l12.44-1.07,.2,2.33-9.69,.83,.58,6.76,8.18-.7,.2,2.33-8.18,.7,.67,7.85,10.02-.86,.2,2.32-12.77,1.1-1.85-21.58Z" style="fill:#1a171b;"/><path d="M436.97,709.12c-1.01-6.91,2.46-11.72,7.89-12.51,2.6-.38,4.83,.59,6.28,1.79l-1.24,1.99c-1.3-1.04-2.84-1.65-4.65-1.39-4.05,.59-6.26,4.3-5.48,9.64,.78,5.39,3.85,8.39,7.91,7.8,2.05-.3,3.47-1.41,4.62-3.13l1.74,1.49c-1.41,2.21-3.34,3.65-6.13,4.05-5.34,.78-9.94-2.77-10.95-9.73Z" style="fill:#1a171b;"/><path d="M459.11,696.87l-6.42,1.32-.47-2.29,15.54-3.19,.47,2.29-6.42,1.32,3.88,18.93-2.7,.55-3.88-18.93Z" style="fill:#1a171b;"/><path d="M474.27,704.22l-3.34-12.27,2.66-.72,3.35,12.34c1.37,5.02,3.92,6.02,6.65,5.28,2.77-.75,4.53-2.93,3.16-7.95l-3.35-12.34,2.55-.69,3.33,12.27c1.82,6.71-.79,9.89-5.05,11.05-4.27,1.16-8.14-.26-9.96-6.97Z" style="fill:#1a171b;"/><path d="M491.01,686.28l6.42-2.2c4.17-1.43,7.68-.96,9.14,3.31,1.4,4.09-.92,7.09-5.09,8.52l-3.81,1.31,2.97,8.66-2.61,.89-7.02-20.48Zm9.37,7.64c3.19-1.09,4.5-2.99,3.59-5.64-.92-2.69-3.01-3.05-6.19-1.96l-3.43,1.18,2.6,7.6,3.43-1.18Zm.34,1.45l1.58-2.05,9.93,8.58-2.96,1.01-8.55-7.54Z" style="fill:#1a171b;"/><path d="M512.27,678.53l2.88-1.18,14.99,17.26-2.7,1.11-8.08-9.76c-1.64-1.95-3.18-3.88-4.77-5.93l-.12,.05c.33,2.58,.59,5.03,.78,7.57l1.05,12.64-2.59,1.06-1.43-22.82Zm1.66,13.22l9.23-3.78,.83,2.04-9.23,3.78-.83-2.03Z" style="fill:#1a171b;"/><path d="M524.16,673.48l2.49-1.18,8.29,17.46,8.54-4.05,1,2.11-11.03,5.24-9.29-19.56Z" style="fill:#1a171b;"/><path d="M548.18,673.7c-3.48-6.06-2.03-11.8,2.74-14.54,2.28-1.31,4.7-1.23,6.5-.65l-.42,2.31c-1.59-.49-3.25-.49-4.83,.42-3.55,2.04-4.24,6.3-1.55,10.98,2.71,4.72,6.66,6.39,10.22,4.34,1.79-1.03,2.71-2.59,3.14-4.61l2.17,.75c-.5,2.58-1.77,4.62-4.21,6.02-4.68,2.69-10.26,1.08-13.76-5.02Z" style="fill:#1a171b;"/><path d="M563.77,664.6c-3.82-5.79-2.95-11.41,1.59-14.4,4.54-3,10.05-1.58,13.87,4.21,3.82,5.79,3.04,11.54-1.5,14.53-4.54,3-10.13,1.45-13.95-4.33Zm13.08-8.63c-2.97-4.5-6.93-5.88-10.16-3.75-3.23,2.13-3.52,6.31-.54,10.81,2.97,4.5,7.01,6.01,10.24,3.88s3.43-6.44,.46-10.94Z" style="fill:#1a171b;"/><path d="M576.61,643.05l2.63-2.03,10.36,6.62c1.32,.85,2.64,1.76,3.97,2.63l.1-.08c-.51-1.51-1.08-3-1.57-4.49l-3.82-11.67,2.63-2.03,13.23,17.14-2.03,1.57-7.29-9.44c-1.15-1.49-2.58-3.68-3.64-5.28l-.1,.08,1.66,4.96,3.62,11.36-1.45,1.12-10.09-6.36-4.38-2.86-.1,.08c1.28,1.43,3.04,3.36,4.19,4.86l7.29,9.44-1.98,1.53-13.23-17.14Z" style="fill:#1a171b;"/><path d="M594.99,628.51l4.62-4.11c3.63-3.22,7.16-4.18,10.31-.63,3.03,3.41,2.01,7.16-1.53,10.31l-2.66,2.37,5.71,6.42-2.06,1.83-14.39-16.19Zm11.66,4.13c2.83-2.52,3.27-4.74,1.22-7.04-2.08-2.33-4.19-1.82-7.03,.71l-2.3,2.05,5.71,6.42,2.4-2.13Z" style="fill:#1a171b;"/><path d="M617.45,625.35l-9.04-8.93,1.94-1.96,9.1,8.99c3.7,3.66,6.41,3.24,8.4,1.23,2.02-2.04,2.44-4.8-1.26-8.46l-9.1-8.99,1.86-1.88,9.05,8.93c4.94,4.88,4.29,8.95,1.18,12.09-3.11,3.14-7.17,3.86-12.11-1.03Z" style="fill:#1a171b;"/><path d="M627.62,599.53l-4.3,4.95-1.76-1.53,10.41-11.97,1.76,1.53-4.3,4.94,14.59,12.68-1.81,2.08-14.58-12.68Z" style="fill:#1a171b;"/><path d="M636.03,585.79l1.91-2.45,21.58,7.53-1.79,2.3-11.86-4.46c-2.39-.87-4.69-1.79-7.09-2.77l-.08,.1c1.57,2.07,3.01,4.07,4.44,6.18l7.19,10.44-1.72,2.21-12.58-19.09Zm8.01,10.64l6.13-7.87,1.73,1.35-6.13,7.87-1.74-1.35Z" style="fill:#1a171b;"/><path d="M647.35,574.48l-3.75,5.37-1.91-1.33,9.08-13,1.91,1.34-3.75,5.37,15.85,11.06-1.58,2.26-15.85-11.06Z" style="fill:#1a171b;"/><path d="M652.6,562.51l1.48-2.33,18.28,11.62-1.48,2.33-18.28-11.62Z" style="fill:#1a171b;"/><path d="M665.79,561.94c-6.03-3.42-7.81-8.82-5.13-13.55,2.69-4.73,8.24-5.97,14.26-2.55,6.03,3.42,7.95,8.9,5.26,13.63-2.69,4.73-8.37,5.89-14.4,2.47Zm7.73-13.62c-4.69-2.66-8.84-2.09-10.75,1.27-1.91,3.36-.27,7.22,4.42,9.88,4.69,2.66,8.98,2.17,10.89-1.19,1.91-3.36,.14-7.29-4.56-9.96Z" style="fill:#1a171b;"/><path d="M667.43,536.87l1.23-2.57,15.67-1.2,5.05-.18,.06-.12c-2.03-.82-4.33-1.68-6.37-2.66l-10.11-4.83,1.13-2.36,19.54,9.34-1.23,2.57-15.68,1.2-5.04,.18-.06,.12c2.04,.82,4.21,1.62,6.26,2.6l10.23,4.89-1.13,2.36-19.54-9.34Z" style="fill:#1a171b;"/><path d="M690.15,477.32l.79-3.01,22.81-1.6-.74,2.82-12.66,.59c-2.54,.14-5.02,.21-7.61,.25l-.04,.13c2.26,1.29,4.37,2.56,6.52,3.92l10.73,6.76-.71,2.71-19.09-12.58Zm11.56,6.62l2.53-9.65,2.13,.56-2.53,9.65-2.13-.56Z" style="fill:#1a171b;"/><path d="M693.28,464.8l1.33-6.65c.87-4.33,3.04-7.12,7.46-6.24,4.24,.85,5.66,4.36,4.8,8.69l-.79,3.95,8.98,1.79-.54,2.7-21.24-4.25Zm11.32-4.25c.66-3.3-.31-5.39-3.07-5.94-2.79-.56-4.15,1.06-4.81,4.37l-.71,3.56,7.88,1.58,.71-3.56Zm1.42,.43l-.98-2.4,12.41-4.26-.61,3.06-10.82,3.59Z" style="fill:#1a171b;"/><path d="M707.28,449.57c-6.92-.95-10.58-5.61-9.84-11.05,.36-2.61,1.9-4.47,3.46-5.54l1.57,1.74c-1.36,.96-2.37,2.27-2.62,4.08-.56,4.06,2.4,7.21,7.75,7.94,5.39,.74,9.13-1.37,9.69-5.44,.28-2.05-.4-3.73-1.73-5.31l1.92-1.26c1.74,1.96,2.58,4.22,2.2,7.01-.73,5.35-5.42,8.79-12.39,7.83Z" style="fill:#1a171b;"/><path d="M699.06,428.67l.2-2.75,9.05,.64,.71-10.05-9.05-.64,.19-2.75,21.61,1.53-.19,2.75-10.16-.72-.71,10.05,10.16,.72-.2,2.75-21.61-1.53Z" style="fill:#1a171b;"/><path d="M700.25,407.6l.06-2.75,21.65,.46-.06,2.75-21.65-.46Z" style="fill:#1a171b;"/><path d="M702.64,394.69l.14,6.55-2.33,.05-.35-15.85,2.33-.05,.14,6.55,19.32-.43,.06,2.75-19.32,.43Z" style="fill:#1a171b;"/><path d="M699.86,382.05l-.99-12.44,2.33-.18,.77,9.7,6.76-.54-.65-8.18,2.33-.18,.65,8.18,7.85-.62-.79-10.03,2.32-.19,1.01,12.77-21.59,1.71Z" style="fill:#1a171b;"/><path d="M709.3,364.94c-6.92,.96-11.7-2.52-12.46-7.97-.36-2.6,.62-4.82,1.82-6.27l1.99,1.25c-1.05,1.3-1.67,2.83-1.42,4.64,.57,4.05,4.26,6.28,9.6,5.54,5.39-.75,8.41-3.79,7.84-7.86-.28-2.05-1.39-3.48-3.1-4.64l1.5-1.73c2.2,1.42,3.62,3.36,4.01,6.15,.74,5.34-2.83,9.92-9.8,10.89Z" style="fill:#1a171b;"/><path d="M697.18,342.71l1.28,6.43-2.29,.45-3.09-15.56,2.29-.45,1.28,6.43,18.96-3.76,.54,2.7-18.96,3.76Z" style="fill:#1a171b;"/><path d="M704.63,327.59l-12.29,3.26-.71-2.66,12.36-3.28c5.03-1.33,6.05-3.88,5.32-6.61-.74-2.77-2.9-4.54-7.93-3.21l-12.36,3.28-.68-2.55,12.29-3.26c6.72-1.78,9.89,.85,11.02,5.12s-.31,8.14-7.03,9.92Z" style="fill:#1a171b;"/><path d="M686.79,310.77l-2.16-6.43c-1.4-4.18-.91-7.69,3.37-9.12,4.1-1.38,7.08,.96,8.49,5.14l1.28,3.82,8.68-2.91,.88,2.61-20.53,6.89Zm7.7-9.32c-1.07-3.19-2.96-4.52-5.62-3.62-2.7,.91-3.07,2.99-2,6.18l1.16,3.44,7.61-2.56-1.15-3.44Zm1.45-.33l-2.04-1.59,8.64-9.87,.99,2.96-7.6,8.5Z" style="fill:#1a171b;"/><path d="M679.18,289.47l-1.16-2.88,17.35-14.89,1.09,2.71-9.81,8.02c-1.96,1.63-3.9,3.16-5.96,4.74l.05,.12c2.58-.32,5.03-.56,7.57-.74l12.65-.98,1.05,2.6-22.83,1.3Zm13.23-1.58l-3.73-9.25,2.04-.82,3.73,9.25-2.04,.82Z" style="fill:#1a171b;"/><path d="M674.18,277.51l-1.17-2.5,17.51-8.19-4-8.56,2.11-.99,5.17,11.06-19.62,9.17Z" style="fill:#1a171b;"/><path d="M674.56,253.52c-6.08,3.44-11.81,1.96-14.52-2.83-1.29-2.29-1.2-4.71-.61-6.5l2.31,.43c-.5,1.59-.51,3.24,.39,4.83,2.02,3.56,6.27,4.28,10.97,1.62,4.74-2.68,6.43-6.62,4.41-10.2-1.02-1.8-2.57-2.72-4.59-3.17l.76-2.17c2.57,.51,4.61,1.8,5.99,4.24,2.66,4.7,1.02,10.27-5.11,13.73Z" style="fill:#1a171b;"/><path d="M665.55,237.85c-5.81,3.79-11.42,2.89-14.39-1.67-2.97-4.56-1.52-10.06,4.29-13.84,5.81-3.79,11.56-2.97,14.53,1.59,2.97,4.56,1.39,10.14-4.42,13.93Zm-8.55-13.13c-4.52,2.95-5.92,6.89-3.81,10.13,2.11,3.24,6.29,3.55,10.81,.61,4.52-2.95,6.05-6.98,3.94-10.22s-6.42-3.47-10.94-.52Z" style="fill:#1a171b;"/><path d="M644.08,224.88l-2.01-2.64,6.68-10.32c.86-1.31,1.78-2.63,2.66-3.96l-.08-.11c-1.51,.5-3,1.06-4.5,1.55l-11.69,3.76-2.01-2.64,17.22-13.14,1.55,2.04-9.48,7.23c-1.5,1.14-3.7,2.55-5.3,3.61l.08,.1,4.97-1.63,11.38-3.55,1.11,1.45-6.42,10.05-2.89,4.36,.08,.1c1.44-1.27,3.38-3.02,4.88-4.16l9.48-7.23,1.51,1.98-17.22,13.14Z" style="fill:#1a171b;"/><path d="M629.66,206.42l-4.08-4.65c-3.2-3.65-4.14-7.18-.57-10.31,3.42-3.01,7.17-1.97,10.3,1.59l2.35,2.68,6.45-5.67,1.82,2.07-16.27,14.29Zm4.2-11.63c-2.5-2.85-4.72-3.3-7.04-1.26-2.35,2.06-1.84,4.18,.67,7.03l2.03,2.31,6.46-5.67-2.12-2.41Z" style="fill:#1a171b;"/><path d="M626.64,183.95l-8.99,8.99-1.95-1.95,9.04-9.04c3.68-3.68,3.28-6.39,1.28-8.39-2.03-2.03-4.79-2.47-8.47,1.21l-9.04,9.04-1.87-1.87,8.99-8.99c4.91-4.91,8.98-4.23,12.1-1.11,3.13,3.13,3.82,7.19-1.1,12.11Z" style="fill:#1a171b;"/><path d="M600.89,173.62l4.92,4.33-1.54,1.75-11.91-10.48,1.54-1.75,4.92,4.33,12.77-14.51,2.07,1.82-12.77,14.51Z" style="fill:#1a171b;"/><path d="M587.2,165.14l-2.44-1.93,7.66-21.54,2.29,1.81-4.52,11.84c-.89,2.38-1.81,4.68-2.82,7.07l.1,.08c2.08-1.56,4.09-2.98,6.2-4.4l10.49-7.13,2.2,1.74-19.17,12.47Zm10.69-7.95l-7.83-6.18,1.36-1.73,7.83,6.17-1.36,1.73Z" style="fill:#1a171b;"/><path d="M575.95,153.73l5.35,3.78-1.35,1.91-12.95-9.15,1.35-1.9,5.35,3.78,11.16-15.78,2.25,1.59-11.16,15.78Z" style="fill:#1a171b;"/><path d="M564.02,148.4l-2.32-1.49,11.73-18.2,2.32,1.49-11.73,18.2Z" style="fill:#1a171b;"/><path d="M563.52,135.2c-3.46,6.01-8.87,7.75-13.58,5.04-4.71-2.71-5.92-8.28-2.46-14.28,3.46-6.01,8.95-7.89,13.66-5.18,4.71,2.71,5.84,8.4,2.38,14.41Zm-13.58-7.82c-2.69,4.68-2.15,8.83,1.2,10.76s7.22,.31,9.91-4.36,2.23-8.96-1.12-10.89c-3.35-1.93-7.29-.18-9.98,4.5Z" style="fill:#1a171b;"/><path d="M538.48,133.42l-2.56-1.24-1.11-15.67-.14-5.06-.12-.06c-.83,2.03-1.71,4.32-2.69,6.35l-4.9,10.09-2.35-1.14,9.46-19.49,2.56,1.24,1.1,15.68,.15,5.04,.12,.06c.83-2.03,1.65-4.2,2.64-6.24l4.95-10.2,2.35,1.14-9.46,19.49Z" style="fill:#1a171b;"/><path d="M479.19,110.37l-3-.81-1.45-22.82,2.82,.76,.51,12.66c.12,2.54,.18,5.02,.2,7.61l.13,.03c1.3-2.25,2.59-4.36,3.97-6.49l6.83-10.69,2.71,.73-12.7,19.02Zm6.7-11.52l-9.63-2.59,.57-2.12,9.63,2.59-.57,2.12Z" style="fill:#1a171b;"/><path d="M466.7,107.16l-6.64-1.37c-4.32-.89-7.1-3.08-6.19-7.5,.88-4.24,4.4-5.63,8.72-4.74l3.94,.81,1.85-8.96,2.7,.56-4.38,21.21Zm-3.73-12.77l-2.4,.96-4.18-12.44,3.06,.63,3.52,10.85Zm-.44,1.42c-3.3-.68-5.39,.28-5.96,3.03-.58,2.79,1.04,4.15,4.33,4.84l3.56,.73,1.62-7.87-3.56-.73Z" style="fill:#1a171b;"/><path d="M451.54,93.06c-.99,6.91-5.67,10.54-11.11,9.76-2.6-.37-4.46-1.93-5.52-3.49l1.75-1.56c.96,1.37,2.25,2.39,4.06,2.65,4.05,.58,7.22-2.35,7.99-7.69,.77-5.39-1.31-9.14-5.38-9.72-2.05-.29-3.73,.37-5.32,1.69l-1.25-1.93c1.98-1.72,4.24-2.55,7.02-2.15,5.34,.77,8.75,5.47,7.75,12.44Z" style="fill:#1a171b;"/><path d="M430.6,101.14l-2.75-.21,.7-9.04-10.04-.78-.7,9.04-2.75-.21,1.67-21.59,2.75,.21-.79,10.15,10.04,.78,.79-10.15,2.75,.21-1.67,21.59Z" style="fill:#1a171b;"/><path d="M409.52,99.8l-2.75-.08,.6-21.65,2.75,.08-.6,21.65Z" style="fill:#1a171b;"/><path d="M396.65,97.34l6.55-.1,.04,2.33-15.86,.25-.04-2.33,6.55-.1-.3-19.33,2.76-.04,.3,19.33Z" style="fill:#1a171b;"/><path d="M383.98,100.02l-12.45,.91-.17-2.33,9.7-.71-.49-6.77-8.18,.6-.17-2.33,8.18-.6-.57-7.85-10.03,.73-.17-2.33,12.78-.93,1.57,21.6Z" style="fill:#1a171b;"/><path d="M366.94,90.47c.92,6.93-2.6,11.69-8.05,12.41-2.61,.35-4.82-.65-6.26-1.87l1.26-1.98c1.29,1.06,2.82,1.69,4.63,1.45,4.06-.54,6.32-4.22,5.61-9.57-.71-5.4-3.74-8.44-7.81-7.9-2.05,.27-3.49,1.37-4.66,3.07l-1.72-1.52c1.44-2.19,3.39-3.6,6.18-3.97,5.35-.71,9.91,2.9,10.83,9.87Z" style="fill:#1a171b;"/><path d="M344.62,102.45l6.44-1.23,.44,2.29-15.58,2.98-.44-2.29,6.43-1.23-3.63-18.98,2.71-.52,3.63,18.98Z" style="fill:#1a171b;"/><path d="M329.56,94.9l3.18,12.31-2.67,.69-3.2-12.39c-1.3-5.04-3.84-6.08-6.58-5.37-2.78,.72-4.56,2.87-3.26,7.91l3.2,12.39-2.56,.66-3.18-12.31c-1.74-6.73,.91-9.88,5.2-10.99,4.28-1.11,8.14,.37,9.87,7.1Z" style="fill:#1a171b;"/><path d="M302.99,103.42l-1.61,2.03-9.82-8.71,2.97-.98,8.46,7.65Zm9.6,9.22l-6.45,2.12c-4.19,1.38-7.7,.86-9.1-3.43-1.35-4.11,1.01-7.08,5.2-8.45l3.83-1.26-2.86-8.7,2.62-.86,6.76,20.58Zm-9.27-7.76c-3.2,1.05-4.54,2.93-3.66,5.6,.89,2.71,2.97,3.09,6.17,2.04l3.45-1.13-2.51-7.63-3.45,1.13Z" style="fill:#1a171b;"/><path d="M291.25,120.1l-2.89,1.14-14.77-17.45,2.71-1.07,7.96,9.86c1.61,1.97,3.13,3.92,4.7,5.99l.12-.05c-.3-2.58-.52-5.04-.69-7.57l-.89-12.65,2.61-1.03,1.15,22.83Zm-1.5-13.24l-9.27,3.67-.81-2.04,9.27-3.67,.81,2.04Z" style="fill:#1a171b;"/><path d="M279.26,125.02l-2.5,1.15-8.07-17.56-8.59,3.95-.97-2.12,11.09-5.1,9.04,19.68Z" style="fill:#1a171b;"/><path d="M255.28,124.48c3.4,6.1,1.88,11.82-2.92,14.5-2.3,1.28-4.72,1.17-6.5,.57l.45-2.3c1.59,.51,3.24,.53,4.83-.36,3.58-1.99,4.32-6.24,1.7-10.96-2.65-4.76-6.58-6.47-10.17-4.47-1.81,1.01-2.74,2.56-3.2,4.57l-2.16-.78c.53-2.57,1.83-4.6,4.28-5.96,4.71-2.62,10.27-.95,13.7,5.2Z" style="fill:#1a171b;"/><path d="M239.55,133.39c3.75,5.84,2.81,11.44-1.77,14.38-4.58,2.94-10.07,1.45-13.81-4.38-3.75-5.84-2.9-11.57,1.68-14.51,4.58-2.94,10.15-1.33,13.9,4.51Zm-13.18,8.47c2.92,4.54,6.85,5.97,10.11,3.88,3.25-2.09,3.6-6.27,.68-10.81-2.92-4.54-6.94-6.1-10.19-4.01s-3.51,6.4-.6,10.94Z" style="fill:#1a171b;"/><path d="M226.45,154.77l-2.65,2-10.28-6.75c-1.31-.87-2.62-1.79-3.95-2.68l-.1,.08c.49,1.52,1.04,3.01,1.52,4.51l3.68,11.72-2.65,2-13.02-17.31,2.05-1.54,7.17,9.53c1.13,1.51,2.53,3.71,3.57,5.33l.11-.08-1.6-4.98-3.48-11.41,1.46-1.1,10.01,6.49,4.34,2.92,.11-.08c-1.26-1.45-3-3.4-4.13-4.91l-7.17-9.53,2-1.5,13.02,17.31Z" style="fill:#1a171b;"/><path d="M207.89,169.08l-4.68,4.05c-3.67,3.18-7.21,4.09-10.32,.5-2.98-3.45-1.92-7.19,1.66-10.29l2.69-2.33-5.63-6.5,2.08-1.8,14.18,16.37Zm-11.6-4.28c-2.86,2.48-3.33,4.7-1.31,7.03,2.05,2.36,4.17,1.87,7.04-.62l2.33-2.02-5.63-6.5-2.43,2.1Z" style="fill:#1a171b;"/><path d="M185.38,171.96l8.93,9.05-1.96,1.94-8.99-9.11c-3.66-3.71-6.37-3.32-8.39-1.34-2.04,2.02-2.51,4.77,1.15,8.48l8.99,9.11-1.88,1.86-8.93-9.05c-4.88-4.95-4.17-9.01-1.02-12.11,3.15-3.11,7.22-3.77,12.1,1.18Z" style="fill:#1a171b;"/><path d="M174.89,197.64l4.36-4.89,1.74,1.55-10.56,11.84-1.74-1.55,4.36-4.89-14.42-12.86,1.83-2.06,14.42,12.86Z" style="fill:#1a171b;"/><path d="M166.31,211.28l-1.94,2.43-21.5-7.81,1.82-2.28,11.81,4.61c2.38,.9,4.67,1.85,7.06,2.87l.08-.1c-1.54-2.09-2.96-4.11-4.36-6.23l-7.06-10.54,1.75-2.19,12.34,19.25Zm-7.88-10.75l-6.23,7.79-1.72-1.37,6.23-7.79,1.72,1.37Z" style="fill:#1a171b;"/><path d="M154.85,222.43l3.82-5.33,1.9,1.36-9.24,12.89-1.9-1.36,3.82-5.33-15.71-11.26,1.61-2.24,15.71,11.26Z" style="fill:#1a171b;"/><path d="M149.44,234.34l-1.51,2.31-18.13-11.85,1.51-2.31,18.13,11.85Z" style="fill:#1a171b;"/><path d="M136.24,234.74c5.99,3.5,7.7,8.92,4.95,13.62s-8.32,5.86-14.29,2.37c-5.99-3.5-7.83-9-5.09-13.7,2.75-4.7,8.44-5.79,14.43-2.29Zm-7.91,13.52c4.66,2.72,8.81,2.21,10.77-1.13,1.95-3.34,.36-7.21-4.3-9.94-4.66-2.72-8.95-2.29-10.9,1.05-1.95,3.34-.23,7.29,4.43,10.02Z" style="fill:#1a171b;"/><path d="M134.28,259.8l-1.26,2.55-15.68,1-5.06,.11-.06,.12c2.02,.84,4.31,1.73,6.34,2.74l10.05,4.96-1.16,2.35-19.43-9.59,1.26-2.55,15.69-1,5.04-.12,.06-.12c-2.03-.85-4.19-1.68-6.22-2.68l-10.17-5.02,1.16-2.35,19.42,9.59Z" style="fill:#1a171b;"/><path d="M110.81,319.04l-.82,3-22.82,1.31,.78-2.81,12.66-.43c2.54-.11,5.02-.15,7.61-.15l.04-.13c-2.24-1.31-4.34-2.61-6.47-4l-10.65-6.89,.74-2.7,18.93,12.81Zm-11.48-6.76l-2.65,9.61-2.12-.58,2.65-9.61,2.12,.58Z" style="fill:#1a171b;"/><path d="M94.74,335.16l.94,2.41-12.46,4.1,.65-3.06,10.87-3.46Zm12.79-3.66l-1.41,6.64c-.92,4.32-3.13,7.08-7.54,6.14-4.23-.9-5.61-4.43-4.69-8.75l.84-3.94-8.95-1.91,.57-2.7,21.19,4.51Zm-11.38,4.11c-.7,3.3,.25,5.4,2.99,5.98,2.79,.59,4.16-1.01,4.87-4.31l.76-3.55-7.86-1.67-.76,3.55Z" style="fill:#1a171b;"/><path d="M93.34,346.57c6.91,1.04,10.51,5.74,9.69,11.18-.39,2.6-1.96,4.45-3.53,5.49l-1.55-1.76c1.37-.95,2.4-2.24,2.67-4.05,.61-4.05-2.3-7.24-7.64-8.04-5.38-.81-9.14,1.25-9.75,5.31-.31,2.04,.35,3.73,1.66,5.33l-1.93,1.24c-1.71-1.99-2.52-4.25-2.1-7.04,.8-5.33,5.53-8.71,12.49-7.67Z" style="fill:#1a171b;"/><path d="M101.29,367.55l-.23,2.75-9.04-.75-.84,10.04,9.04,.75-.23,2.75-21.58-1.8,.23-2.75,10.15,.85,.84-10.04-10.15-.85,.23-2.75,21.58,1.8Z" style="fill:#1a171b;"/><path d="M99.83,388.63l-.09,2.75-21.65-.73,.09-2.75,21.65,.73Z" style="fill:#1a171b;"/><path d="M97.28,401.49l-.06-6.55,2.33-.02,.15,15.86-2.33,.02-.06-6.55-19.33,.18-.03-2.76,19.33-.18Z" style="fill:#1a171b;"/><path d="M99.89,414.19l.83,12.46-2.33,.16-.65-9.71-6.77,.45,.55,8.19-2.33,.16-.55-8.19-7.86,.53,.67,10.04-2.33,.16-.86-12.78,21.61-1.45Z" style="fill:#1a171b;"/><path d="M90.23,431.18c6.93-.88,11.67,2.67,12.36,8.13,.33,2.61-.68,4.81-1.9,6.24l-1.97-1.27c1.06-1.28,1.7-2.81,1.47-4.62-.51-4.06-4.18-6.34-9.53-5.66-5.4,.68-8.46,3.69-7.95,7.76,.26,2.05,1.35,3.5,3.04,4.67l-1.53,1.71c-2.19-1.45-3.58-3.41-3.93-6.2-.68-5.35,2.96-9.88,9.93-10.77Z" style="fill:#1a171b;"/><path d="M102.07,453.54l-1.2-6.44,2.29-.43,2.89,15.6-2.29,.43-1.19-6.44-19,3.52-.5-2.71,19-3.52Z" style="fill:#1a171b;"/><path d="M94.43,468.58l12.33-3.1,.67,2.67-12.41,3.12c-5.05,1.27-6.1,3.8-5.41,6.54,.7,2.78,2.84,4.58,7.89,3.31l12.4-3.12,.64,2.56-12.33,3.1c-6.74,1.69-9.88-.98-10.95-5.27-1.08-4.29,.42-8.13,7.16-9.83Z" style="fill:#1a171b;"/><path d="M112.05,485.63l2.08,6.46c1.35,4.2,.81,7.7-3.48,9.08-4.12,1.33-7.07-1.05-8.42-5.25l-1.23-3.83-8.71,2.8-.84-2.62,20.61-6.63Zm-9.27,9.54l2.02,1.62-8.76,9.76-.96-2.97,7.7-8.41Zm1.45-.31c1.03,3.21,2.9,4.56,5.57,3.7,2.71-.87,3.11-2.95,2.07-6.16l-1.11-3.46-7.65,2.46,1.11,3.46Z" style="fill:#1a171b;"/><path d="M119.39,507.03l1.13,2.9-17.54,14.67-1.06-2.72,9.91-7.9c1.97-1.6,3.94-3.11,6.02-4.66l-.05-.12c-2.58,.28-5.04,.49-7.58,.64l-12.66,.82-1.01-2.61,22.84-1.01Zm-13.25,1.42l3.61,9.29-2.05,.8-3.61-9.29,2.05-.8Z" style="fill:#1a171b;"/><path d="M124.23,519.02l1.14,2.51-17.61,7.97,3.9,8.61-2.12,.96-5.03-11.12,19.73-8.93Z" style="fill:#1a171b;"/><path d="M123.56,543.04c6.12-3.36,11.84-1.8,14.48,3.01,1.26,2.31,1.14,4.73,.53,6.51l-2.3-.46c.52-1.58,.55-3.24-.33-4.84-1.97-3.59-6.22-4.36-10.95-1.76-4.77,2.62-6.51,6.54-4.54,10.14,1,1.81,2.54,2.76,4.55,3.23l-.79,2.16c-2.57-.54-4.58-1.85-5.94-4.32-2.6-4.73-.88-10.28,5.28-13.67Z" style="fill:#1a171b;"/><path d="M132.36,558.79c5.86-3.71,11.46-2.74,14.37,1.85s1.39,10.08-4.46,13.78c-5.86,3.71-11.59,2.82-14.5-1.77-2.91-4.59-1.26-10.16,4.59-13.87Zm8.38,13.23c4.56-2.89,6.01-6.82,3.94-10.08-2.07-3.27-6.24-3.63-10.8-.75-4.56,2.89-6.14,6.9-4.07,10.17,2.07,3.27,6.37,3.55,10.93,.66Z" style="fill:#1a171b;"/><path d="M153.66,572.03l1.98,2.67-6.82,10.23c-.88,1.3-1.81,2.61-2.71,3.93l.08,.11c1.52-.48,3.02-1.02,4.52-1.49l11.74-3.61,1.98,2.66-17.39,12.92-1.53-2.06,9.57-7.11c1.51-1.12,3.73-2.51,5.35-3.54l-.08-.11-4.99,1.56-11.43,3.41-1.09-1.47,6.55-9.97,2.94-4.32-.08-.11c-1.46,1.25-3.42,2.98-4.93,4.1l-9.58,7.11-1.49-2,17.39-12.91Z" style="fill:#1a171b;"/><path d="M167.86,590.69l4.02,4.7c3.16,3.69,4.04,7.24,.44,10.32-3.46,2.96-7.2,1.87-10.28-1.73l-2.32-2.71-6.53,5.59-1.79-2.09,16.46-14.08Zm-4.35,11.58c2.46,2.88,4.68,3.36,7.02,1.35,2.37-2.03,1.9-4.15-.58-7.04l-2-2.34-6.53,5.59,2.09,2.44Z" style="fill:#1a171b;"/><path d="M170.6,613.21l9.1-8.88,1.92,1.97-9.16,8.93c-3.73,3.63-3.36,6.35-1.39,8.37,2,2.05,4.76,2.53,8.48-1.1l9.15-8.93,1.84,1.89-9.1,8.88c-4.97,4.85-9.03,4.12-12.11,.95-3.09-3.17-3.72-7.24,1.25-12.09Z" style="fill:#1a171b;"/><path d="M196.2,623.86l-4.86-4.39,1.56-1.73,11.77,10.63-1.56,1.73-4.86-4.39-12.95,14.34-2.04-1.85,12.95-14.34Z" style="fill:#1a171b;"/><path d="M209.79,632.51l2.42,1.96-7.94,21.44-2.27-1.84,4.68-11.78c.92-2.37,1.88-4.66,2.91-7.04l-.1-.08c-2.1,1.53-4.13,2.93-6.26,4.32l-10.58,7-2.18-1.77,19.32-12.22Zm-10.79,7.81l7.75,6.28-1.38,1.71-7.75-6.28,1.38-1.71Z" style="fill:#1a171b;"/><path d="M220.88,644.06l-5.3-3.85,1.37-1.89,12.83,9.32-1.37,1.89-5.3-3.85-11.36,15.63-2.23-1.62,11.36-15.63Z" style="fill:#1a171b;"/><path d="M232.75,649.54l2.3,1.52-11.97,18.05-2.3-1.52,11.97-18.05Z" style="fill:#1a171b;"/><path d="M233.08,662.75c3.54-5.97,8.97-7.64,13.65-4.87,4.68,2.77,5.81,8.35,2.28,14.31-3.54,5.97-9.05,7.78-13.72,5-4.68-2.77-5.73-8.48-2.2-14.44Zm13.47,7.99c2.75-4.64,2.26-8.8-1.06-10.77-3.33-1.97-7.21-.41-9.96,4.23-2.75,4.64-2.34,8.94,.98,10.91,3.33,1.97,7.29,.27,10.04-4.37Z" style="fill:#1a171b;"/><path d="M258.12,664.86l2.54,1.28,.9,15.69,.08,5.06,.12,.06c.86-2.02,1.76-4.29,2.78-6.32l5.03-10.02,2.34,1.17-9.71,19.36-2.54-1.28-.9-15.7-.08-5.05-.12-.06c-.86,2.02-1.71,4.18-2.72,6.21l-5.08,10.13-2.34-1.17,9.71-19.36Z" style="fill:#1a171b;"/></svg>