<?xml version="1.0" encoding="UTF-8"?><svg id="a" xmlns="http://www.w3.org/2000/svg" viewBox="0 0 800 800"><path d="M241.38,652.82l5.08,3.01c6.25,3.71,7.45,9.32,3.62,15.78-3.83,6.46-9.42,8.25-15.56,4.61l-5.2-3.08,12.05-20.33Zm-5.9,21.11c4.75,2.82,8.89,1.24,11.93-3.89,3.05-5.14,2.35-9.38-2.4-12.19l-2.31-1.37-9.54,16.09,2.31,1.37Z" style="fill:#1a171b;"/><path d="M260.21,663.62l2.66,1.4-10.99,20.92-2.66-1.4,11-20.91Z" style="fill:#1a171b;"/><path d="M261.99,678c3.19-6.92,9.3-9.22,14.99-6.6,2.97,1.37,4.31,3.62,4.97,5.5l-2.32,1.09c-.57-1.62-1.53-3.16-3.69-4.15-4.32-1.99-8.63,.05-11.1,5.39-2.49,5.39-1.5,9.95,3.08,12.06,1.54,.71,3.23,.93,4.45,.52l2.58-5.59-4.54-2.1,1.04-2.26,7.03,3.24-4.16,9.02c-2.04,.8-4.88,.77-7.76-.56-5.66-2.61-7.79-8.6-4.57-15.57Z" style="fill:#1a171b;"/><path d="M288.1,676.66l2.79,1.12-8.78,21.94-2.79-1.12,8.78-21.94Z" style="fill:#1a171b;"/><path d="M300.33,684.01l-6.75-2.34,.83-2.41,16.35,5.66-.83,2.41-6.75-2.34-6.9,19.92-2.84-.98,6.9-19.92Z" style="fill:#1a171b;"/><path d="M317.65,686.87l3.27,.92,1.31,24.91-3.07-.86-.4-13.82c-.1-2.77-.13-5.47-.12-8.3l-.14-.04c-1.45,2.44-2.87,4.72-4.4,7.03l-7.58,11.58-2.95-.83,14.08-20.58Zm-7.44,12.48l10.47,2.94-.65,2.31-10.47-2.94,.65-2.31Z" style="fill:#1a171b;"/><path d="M331.26,690.48l2.94,.64-4.47,20.6,10.08,2.19-.54,2.49-13.02-2.83,5.01-23.09Z" style="fill:#1a171b;"/><path d="M354.83,695.05l13.51,1.8-.34,2.52-10.53-1.4-1.05,7.9,8.93,1.19-.34,2.52-8.93-1.19-1.4,10.48-2.98-.4,3.12-23.42Z" style="fill:#1a171b;"/><path d="M375.5,697.42l3.38,.26,6.19,24.16-3.17-.24-3.11-13.47c-.65-2.7-1.21-5.34-1.76-8.12h-.14c-.94,2.67-1.89,5.18-2.93,7.75l-5.15,12.84-3.05-.23,9.75-22.96Zm-4.84,13.7l10.85,.82-.18,2.39-10.85-.82,.18-2.39Z" style="fill:#1a171b;"/><path d="M389.49,698.31l7.01,.07c4.8,.05,8.11,1.71,8.07,5.86-.02,2.33-1.29,4.4-3.5,5.1v.14c2.82,.58,4.78,2.47,4.75,5.7-.04,4.64-3.74,6.88-9.01,6.83l-7.55-.07,.23-23.62Zm6.92,21.31c4.04,.04,6.43-1.39,6.47-4.58,.03-2.91-2.25-4.26-6.38-4.3l-4.11-.04-.08,8.88,4.11,.04Zm-.51-11.19c4.02,.04,5.7-1.43,5.72-3.82,.03-2.76-1.86-3.81-5.51-3.84l-3.63-.04-.07,7.67,3.5,.03Z" style="fill:#1a171b;"/><path d="M410.11,698.3l7.39-.43c4.8-.28,8.35,1.24,8.64,6.16,.27,4.71-3.04,7.18-7.85,7.46l-4.38,.26,.58,9.97-3,.17-1.38-23.59Zm7.61,10.78c3.67-.21,5.6-1.82,5.43-4.88-.18-3.1-2.27-4.09-5.94-3.87l-3.96,.23,.51,8.75,3.95-.23Zm-.07,1.62l2.26-1.69,7.92,11.93-3.4,.2-6.78-10.43Z" style="fill:#1a171b;"/><path d="M430.12,696.85l2.99-.32,2.52,23.5-2.99,.32-2.52-23.5Z" style="fill:#1a171b;"/><path d="M439.58,707.78c-1.18-7.53,2.54-12.81,8.46-13.74,2.83-.44,5.27,.59,6.87,1.88l-1.33,2.19c-1.43-1.12-3.12-1.77-5.08-1.46-4.41,.69-6.78,4.76-5.87,10.58,.92,5.87,4.29,9.11,8.72,8.42,2.23-.35,3.77-1.58,5-3.47l1.92,1.61c-1.51,2.43-3.6,4.02-6.64,4.49-5.81,.91-10.88-2.91-12.06-10.49Z" style="fill:#1a171b;"/><path d="M463.58,691.51l3.31-.74,12.97,21.31-3.11,.7-6.91-11.98c-1.41-2.39-2.71-4.76-4.05-7.25l-.14,.03c-.12,2.83-.29,5.52-.54,8.28l-1.18,13.79-2.99,.67,2.63-24.81Zm-.63,14.52l10.62-2.38,.53,2.34-10.62,2.38-.52-2.34Z" style="fill:#1a171b;"/><path d="M480.96,689.82l-6.88,1.95-.7-2.45,16.64-4.73,.7,2.45-6.88,1.95,5.76,20.28-2.89,.82-5.76-20.28Z" style="fill:#1a171b;"/><path d="M493.62,683.31l2.85-.96,7.51,22.4-2.85,.96-7.52-22.41Z" style="fill:#1a171b;"/><path d="M505.24,691.88c-2.79-7.03-.61-12.84,4.9-15.03,5.52-2.19,11.08,.56,13.87,7.58,2.79,7.03,.68,13-4.84,15.18-5.51,2.19-11.14-.7-13.93-7.74Zm15.89-6.3c-2.17-5.47-6.09-7.82-10.01-6.27-3.92,1.56-5.16,5.95-2.99,11.42,2.17,5.47,6.15,7.98,10.07,6.43,3.92-1.56,5.1-6.11,2.93-11.58Z" style="fill:#1a171b;"/><path d="M523.73,671.67l2.79-1.36,14.21,9.59,4.44,3.28,.13-.06c-1.18-2.08-2.56-4.37-3.64-6.59l-5.37-10.99,2.56-1.25,10.38,21.23-2.79,1.36-14.21-9.6-4.43-3.26-.13,.06c1.19,2.08,2.5,4.24,3.59,6.46l5.43,11.11-2.57,1.25-10.38-21.23Z" style="fill:#1a171b;"/><path d="M590.25,630.07l4.45-3.89c5.47-4.78,11.18-4.16,16.12,1.49,4.94,5.65,4.89,11.52-.48,16.21l-4.55,3.97-15.54-17.79Zm18.2,12.19c4.16-3.63,3.96-8.05,.03-12.55-3.93-4.5-8.17-5.16-12.33-1.53l-2.02,1.76,12.3,14.08,2.02-1.76Z" style="fill:#1a171b;"/><path d="M606.37,615.56l2.16-2.09,16.45,16.97-2.16,2.09-16.45-16.97Z" style="fill:#1a171b;"/><path d="M620.58,618.35c-5.58-5.19-5.86-11.71-1.59-16.3,2.23-2.4,4.79-2.96,6.77-3l.31,2.54c-1.72,.04-3.48,.47-5.1,2.21-3.24,3.49-2.65,8.22,1.66,12.23,4.35,4.05,8.99,4.52,12.42,.83,1.16-1.24,1.89-2.78,1.88-4.06l-4.51-4.19-3.41,3.67-1.83-1.7,5.28-5.67,7.27,6.77c.12,2.19-.79,4.88-2.95,7.2-4.25,4.57-10.6,4.71-16.22-.51Z" style="fill:#1a171b;"/><path d="M627.44,593.12l1.93-2.3,18.11,15.18-1.93,2.3-18.11-15.18Z" style="fill:#1a171b;"/><path d="M638.25,583.78l-4.33,5.69-2.02-1.54,10.48-13.76,2.02,1.54-4.33,5.69,16.77,12.77-1.82,2.39-16.77-12.77Z" style="fill:#1a171b;"/><path d="M646.35,568.32l1.87-2.83,24.13,6.32-1.75,2.66-13.29-3.81c-2.67-.74-5.26-1.54-7.95-2.4l-.08,.12c1.89,2.12,3.62,4.17,5.37,6.33l8.73,10.74-1.68,2.55-15.34-19.67Zm9.63,10.88l5.98-9.09,2,1.32-5.98,9.09-2-1.32Z" style="fill:#1a171b;"/><path d="M654.1,556.45l1.53-2.59,18.14,10.73,5.25-8.87,2.19,1.29-6.78,11.46-20.33-12.03Z" style="fill:#1a171b;"/><path d="M665.89,535.5l5.97-12.25,2.29,1.12-4.65,9.55,7.16,3.49,3.95-8.09,2.29,1.12-3.95,8.09,9.5,4.63-1.32,2.7-21.24-10.36Z" style="fill:#1a171b;"/><path d="M674.66,516.63l1.31-3.13,24.88,1.76-1.23,2.94-13.77-1.3c-2.76-.24-5.45-.54-8.26-.9l-.05,.13c2.24,1.73,4.33,3.43,6.44,5.24l10.56,8.94-1.18,2.82-18.71-16.51Zm11.48,8.92l4.21-10.04,2.21,.93-4.21,10.04-2.21-.93Z" style="fill:#1a171b;"/><path d="M679.93,503.63l2.28-6.63c1.56-4.54,4.18-7.16,8.11-5.81,2.21,.76,3.77,2.61,3.73,4.93l.14,.05c1.44-2.49,3.85-3.76,6.91-2.71,4.39,1.51,5.34,5.72,3.63,10.7l-2.45,7.14-22.35-7.67Zm11.62-2.89c1.3-3.8,.44-5.85-1.82-6.63-2.61-.9-4.2,.56-5.38,4.01l-1.18,3.44,7.25,2.49,1.13-3.31Zm10.78,3.05c1.31-3.82,.71-6.55-2.3-7.58-2.75-.94-4.75,.79-6.1,4.7l-1.33,3.89,8.4,2.88,1.34-3.89Z" style="fill:#1a171b;"/><path d="M686.41,484.09l1.92-7.15c1.25-4.65,3.81-7.54,8.56-6.26,4.56,1.22,5.86,5.15,4.61,9.79l-1.14,4.24,9.65,2.58-.78,2.9-22.82-6.12Zm12.62-3.83c.95-3.55,.04-5.89-2.92-6.68-3-.8-4.59,.87-5.54,4.42l-1.03,3.83,8.46,2.27,1.03-3.83Zm1.52,.57l-.89-2.68,13.81-3.76-.88,3.29-12.04,3.15Z" style="fill:#1a171b;"/><path d="M691.33,464.65l.64-2.94,23.09,4.99-.63,2.94-23.09-4.99Z" style="fill:#1a171b;"/><path d="M704.68,459.07c-7.52-1.24-11.37-6.43-10.4-12.34,.47-2.83,2.21-4.82,3.93-5.94l1.66,1.95c-1.51,1.01-2.66,2.4-2.98,4.37-.73,4.41,2.4,7.93,8.21,8.89,5.86,.97,9.99-1.23,10.72-5.65,.37-2.23-.32-4.08-1.73-5.84l2.13-1.32c1.83,2.2,2.68,4.68,2.18,7.71-.96,5.81-6.17,9.42-13.74,8.17Z" style="fill:#1a171b;"/><path d="M696.75,431.2l.33-3.38,24.3-5.65-.31,3.17-13.54,2.81c-2.71,.59-5.37,1.09-8.16,1.58v.14c2.64,1,5.14,2,7.68,3.11l12.73,5.43-.3,3.04-22.73-10.26Zm13.59,5.14l1.06-10.83,2.39,.23-1.06,10.83-2.39-.23Z" style="fill:#1a171b;"/><path d="M700.58,414.15l-.29,7.14-2.54-.1,.71-17.29,2.54,.1-.29,7.14,21.06,.86-.12,3-21.06-.86Z" style="fill:#1a171b;"/><path d="M698.35,400.07l-.02-3.01,23.63-.13,.02,3.01-23.63,.13Z" style="fill:#1a171b;"/><path d="M710.11,391.73c-7.55,.46-12.39-3.42-12.75-9.35-.36-5.92,3.99-10.36,11.53-10.81,7.55-.46,12.56,3.41,12.92,9.34s-4.15,10.37-11.7,10.82Zm-1.03-17.06c-5.88,.35-9.33,3.34-9.08,7.55,.25,4.21,4.05,6.76,9.92,6.41,5.88-.36,9.5-3.35,9.25-7.57-.25-4.21-4.22-6.75-10.09-6.4Z" style="fill:#1a171b;"/><path d="M696.7,367.86l-.42-3.08,13.55-10.5,4.5-3.19-.02-.14c-2.34,.47-4.95,1.07-7.39,1.4l-12.11,1.67-.39-2.83,23.4-3.22,.42,3.08-13.56,10.5-4.49,3.19,.02,.14c2.35-.48,4.81-1.05,7.26-1.38l12.25-1.69,.39,2.83-23.4,3.22Z" style="fill:#1a171b;"/><path d="M678.06,291.62l-2.28-5.45c-2.81-6.7-.42-11.92,6.5-14.82s12.48-1.01,15.24,5.57l2.33,5.57-21.79,9.13Zm17.32-13.43c-2.13-5.09-6.39-6.3-11.9-3.99-5.51,2.31-7.48,6.12-5.34,11.21l1.04,2.47,17.24-7.23-1.04-2.47Z" style="fill:#1a171b;"/><path d="M669.37,271.76l-1.3-2.71,21.3-10.24,1.3,2.71-21.3,10.24Z" style="fill:#1a171b;"/><path d="M676.51,259.13c-6.69,3.66-12.96,1.86-15.96-3.63-1.57-2.87-1.3-5.48-.71-7.38l2.51,.51c-.51,1.64-.66,3.45,.48,5.53,2.28,4.18,6.96,5.11,12.12,2.28,5.21-2.85,7.13-7.1,4.71-11.52-.81-1.49-2.04-2.67-3.26-3.07l-5.4,2.95,2.4,4.39-2.18,1.2-3.72-6.79,8.71-4.76c2.12,.57,4.38,2.29,5.9,5.07,2.99,5.47,1.12,11.54-5.61,15.23Z" style="fill:#1a171b;"/><path d="M654.75,244.67l-1.58-2.56,20.12-12.39,1.58,2.56-20.12,12.39Z" style="fill:#1a171b;"/><path d="M649.29,231.47l4.03,5.9-2.1,1.44-9.76-14.29,2.1-1.44,4.03,5.9,17.41-11.89,1.7,2.48-17.41,11.89Z" style="fill:#1a171b;"/><path d="M637.09,218.85l-2.08-2.68,13.8-20.78,1.95,2.52-7.92,11.33c-1.57,2.29-3.16,4.47-4.85,6.74l.09,.11c2.62-1.1,5.12-2.08,7.73-3.02l12.99-4.78,1.87,2.42-23.58,8.14Zm13.42-5.59l-6.66-8.6,1.9-1.47,6.66,8.61-1.9,1.47Z" style="fill:#1a171b;"/><path d="M628.32,207.85l-1.98-2.26,15.87-13.88-6.79-7.76,1.92-1.68,8.77,10.02-17.78,15.56Z" style="fill:#1a171b;"/><path d="M612.13,190.14l-9.78-9.49,1.77-1.83,7.62,7.39,5.55-5.72-6.46-6.27,1.77-1.83,6.46,6.27,7.36-7.58,2.16,2.09-16.45,16.95Z" style="fill:#1a171b;"/><path d="M596.91,175.91l-2.56-2.22,9.43-23.1,2.41,2.08-5.53,12.67c-1.09,2.55-2.21,5.01-3.42,7.57l.11,.09c2.35-1.59,4.61-3.05,6.98-4.49l11.79-7.25,2.31,2-21.51,12.63Zm12.05-8.13l-8.23-7.12,1.57-1.81,8.22,7.12-1.57,1.81Z" style="fill:#1a171b;"/><path d="M586.22,166.86l-5.59-4.23c-3.83-2.9-5.49-6.21-2.98-9.52,1.41-1.86,3.65-2.76,5.85-2l.09-.12c-1.91-2.15-2.37-4.83-.42-7.41,2.8-3.7,7.1-3.29,11.3-.11l6.02,4.56-14.26,18.83Zm.89-11.94c-3.2-2.43-5.42-2.25-6.87-.34-1.67,2.2-.78,4.16,2.13,6.37l2.9,2.2,4.63-6.11-2.79-2.11Zm6.26-9.29c-3.22-2.44-6-2.72-7.92-.18-1.76,2.32-.74,4.76,2.56,7.26l3.28,2.48,5.36-7.08-3.28-2.48Z" style="fill:#1a171b;"/><path d="M569.72,154.62l-6.18-4.07c-4.02-2.64-5.96-5.99-3.25-10.1,2.59-3.94,6.73-3.94,10.75-1.3l3.67,2.41,5.49-8.34,2.51,1.65-12.98,19.74Zm.33-13.19c-3.07-2.02-5.58-1.89-7.26,.67-1.71,2.6-.62,4.63,2.45,6.65l3.31,2.18,4.82-7.32-3.31-2.18Zm1.02-1.26h-2.82s.77-14.29,.77-14.29l2.85,1.87-.8,12.42Z" style="fill:#1a171b;"/><path d="M552.81,143.83l-2.59-1.53,12.02-20.34,2.59,1.53-12.02,20.34Z" style="fill:#1a171b;"/><path d="M551.71,129.39c-3.55,6.74-9.69,8.76-14.99,5.97-2.54-1.34-3.88-3.62-4.39-5.61l2.37-.96c.48,1.75,1.44,3.28,3.21,4.21,3.95,2.08,8.28,.23,11.02-4.98,2.77-5.25,2-9.87-1.97-11.96-2-1.05-3.97-.98-6.08-.21l-.58-2.44c2.66-1.05,5.29-1.07,8,.36,5.21,2.74,6.99,8.82,3.41,15.61Z" style="fill:#1a171b;"/><path d="M522.78,128.11l-3.1-1.38,2.33-24.84,2.91,1.3-1.62,13.73c-.3,2.76-.67,5.44-1.08,8.24l.13,.06c1.79-2.2,3.53-4.25,5.38-6.32l9.18-10.35,2.79,1.25-16.93,18.32Zm9.18-11.27l-9.94-4.43,.98-2.19,9.94,4.43-.98,2.19Z" style="fill:#1a171b;"/><path d="M507.82,119.1l6.69,2.53-.9,2.38-16.18-6.13,.9-2.38,6.69,2.53,7.47-19.72,2.81,1.07-7.47,19.72Z" style="fill:#1a171b;"/><path d="M493.78,116.76l-2.86-.93,7.32-22.46,2.86,.93-7.32,22.46Z" style="fill:#1a171b;"/><path d="M489.56,102.96c-1.95,7.31-7.16,10.68-12.89,9.15-5.73-1.53-8.57-7.05-6.63-14.35,1.95-7.31,7.2-10.84,12.93-9.31s8.53,7.2,6.58,14.52Zm-16.52-4.4c-1.51,5.69,.23,9.91,4.31,11,4.08,1.09,7.69-1.71,9.21-7.4,1.52-5.69-.19-10.08-4.26-11.16-4.08-1.09-7.74,1.87-9.25,7.56Z" style="fill:#1a171b;"/><path d="M462.69,108.19l-3.05-.57-5.71-16.16-1.62-5.27-.14-.03c-.29,2.37-.54,5.03-.99,7.46l-2.23,12.03-2.81-.52,4.3-23.24,3.05,.57,5.7,16.18,1.62,5.26,.14,.03c.29-2.38,.52-4.9,.97-7.33l2.25-12.16,2.81,.52-4.3,23.24Z" style="fill:#1a171b;"/><path d="M384.47,102.02l-5.89,.46c-7.24,.57-11.46-3.33-12.05-10.81-.59-7.48,2.95-12.17,10.06-12.73l6.02-.48,1.86,23.55Zm-7.33-20.65c-5.51,.43-7.98,4.1-7.51,10.05,.47,5.96,3.47,9.02,8.98,8.58l2.67-.21-1.47-18.64-2.67,.21Z" style="fill:#1a171b;"/><path d="M362.85,104.05l-2.98,.39-3.07-23.42,2.98-.39,3.07,23.43Z" style="fill:#1a171b;"/><path d="M353.11,93.33c1.38,7.5-2.29,12.89-8.46,14.02-3.22,.59-5.61-.48-7.23-1.64l1.27-2.22c1.4,1,3.07,1.7,5.41,1.27,4.68-.86,7.03-5.01,5.97-10.8-1.07-5.84-4.51-9-9.47-8.09-1.67,.31-3.18,1.1-3.94,2.13l1.11,6.05,4.92-.9,.45,2.45-7.62,1.4-1.79-9.77c1.21-1.83,3.54-3.44,6.67-4.01,6.13-1.12,11.32,2.55,12.7,10.1Z" style="fill:#1a171b;"/><path d="M332.54,109.46l-2.93,.69-5.45-22.99,2.92-.69,5.46,22.99Z" style="fill:#1a171b;"/><path d="M318.28,110.49l6.87-1.97,.7,2.45-16.63,4.77-.7-2.45,6.87-1.97-5.82-20.26,2.89-.83,5.82,20.26Z" style="fill:#1a171b;"/><path d="M302.47,118.1l-3.2,1.12-15.37-19.64,3.01-1.06,8.26,11.09c1.68,2.21,3.25,4.41,4.87,6.73l.14-.05c-.22-2.83-.36-5.51-.43-8.29l-.44-13.83,2.89-1.01,.29,24.94Zm-1.07-14.5l-10.27,3.61-.79-2.26,10.26-3.61,.8,2.26Z" style="fill:#1a171b;"/><path d="M289.28,122.95l-2.77,1.16-8.16-19.44-9.51,3.99-.99-2.35,12.28-5.16,9.15,21.79Z" style="fill:#1a171b;"/><path d="M267.34,132.73l-12.09,6.28-1.17-2.26,9.42-4.89-3.67-7.07-7.99,4.15-1.17-2.26,7.99-4.15-4.87-9.38,2.67-1.39,10.88,20.97Z" style="fill:#1a171b;"/><path d="M249.02,142.67l-2.92,1.73-18.93-16.25,2.74-1.63,10.28,9.25c2.08,1.84,4.05,3.68,6.1,5.64l.12-.07c-.77-2.73-1.43-5.34-2.05-8.04l-3.15-13.48,2.63-1.56,5.18,24.4Zm-3.9-14l-9.36,5.55-1.22-2.06,9.36-5.55,1.23,2.06Z" style="fill:#1a171b;"/><path d="M237.06,149.96l-5.78,3.97c-3.96,2.72-7.62,3.25-9.98-.17-1.32-1.92-1.47-4.34-.06-6.19l-.08-.12c-2.64,1.14-5.33,.72-7.16-1.94-2.63-3.83-.88-7.78,3.46-10.76l6.23-4.27,13.37,19.48Zm-17.89-13.48c-3.33,2.29-4.47,4.83-2.67,7.46,1.65,2.4,4.29,2.2,7.69-.14l3.39-2.33-5.03-7.32-3.39,2.33Zm6.84,8.88c-3.31,2.27-3.84,4.44-2.49,6.41,1.56,2.28,3.71,2.05,6.72-.01l3-2.06-4.34-6.32-2.88,1.98Z" style="fill:#1a171b;"/><path d="M206.93,155.96l-.88,2.68-13.33-5.21,2.67-2.12,11.54,4.65Zm13.29,5.81l-5.8,4.6c-3.77,2.99-7.55,3.78-10.61-.07-2.93-3.7-1.63-7.62,2.13-10.61l3.44-2.73-6.2-7.82,2.36-1.87,14.68,18.51Zm-12.42-4.45c-2.88,2.28-3.54,4.71-1.64,7.11,1.93,2.44,4.2,2.04,7.08-.24l3.1-2.46-5.44-6.87-3.1,2.46Z" style="fill:#1a171b;"/><path d="M204.67,174.47l-2.26,1.98-15.57-17.77,2.26-1.98,15.57,17.77Z" style="fill:#1a171b;"/><path d="M190.62,170.98c5.3,5.48,5.3,11.94,.99,16.1-2.06,1.99-4.65,2.55-6.7,2.42l-.18-2.55c1.82,.09,3.56-.35,5-1.73,3.21-3.1,2.8-7.8-1.29-12.03-4.13-4.27-8.75-4.98-11.97-1.86-1.62,1.57-2.17,3.46-2.09,5.71l-2.5-.21c-.17-2.86,.63-5.36,2.84-7.49,4.23-4.09,10.56-3.88,15.9,1.63Z" style="fill:#1a171b;"/><path d="M180.37,198.1l-2.28,2.51-22.88-9.95,2.14-2.36,12.54,5.81c2.53,1.15,4.96,2.33,7.49,3.6l.1-.11c-1.54-2.38-2.94-4.68-4.33-7.08l-6.98-11.95,2.06-2.27,12.14,21.79Zm-7.85-12.23l-7.31,8.06-1.78-1.61,7.31-8.06,1.78,1.61Z" style="fill:#1a171b;"/><path d="M167.14,209.5l4.49-5.56,1.98,1.6-10.88,13.45-1.98-1.6,4.49-5.56-16.39-13.25,1.89-2.34,16.39,13.25Z" style="fill:#1a171b;"/><path d="M160.54,222.13l-1.78,2.42-19.04-13.99,1.78-2.42,19.04,13.99Z" style="fill:#1a171b;"/><path d="M146.1,221.83c6.33,4.15,7.89,10.15,4.64,15.11-3.25,4.96-9.39,5.92-15.71,1.78-6.33-4.15-8.03-10.24-4.78-15.21s9.52-5.84,15.85-1.69Zm-9.37,14.3c4.92,3.23,9.48,2.9,11.79-.63,2.31-3.53,.79-7.84-4.13-11.07-4.92-3.23-9.62-2.99-11.94,.54-2.31,3.53-.65,7.93,4.27,11.16Z" style="fill:#1a171b;"/><path d="M142.62,248.97l-1.5,2.72-17.14,.31-5.52-.13-.07,.13c2.16,1.02,4.6,2.1,6.77,3.3l10.71,5.91-1.38,2.5-20.69-11.41,1.5-2.72,17.15-.31,5.5,.12,.07-.13c-2.17-1.02-4.48-2.04-6.65-3.23l-10.83-5.97,1.38-2.5,20.69,11.41Z" style="fill:#1a171b;"/><path d="M112.08,321.24l-1.41,5.74c-1.73,7.06-6.76,9.83-14.05,8.04s-10.63-6.62-8.93-13.54l1.44-5.87,22.95,5.63Zm-21.91,.48c-1.32,5.36,1.39,8.86,7.19,10.29,5.8,1.42,9.65-.47,10.97-5.83l.64-2.6-18.16-4.45-.64,2.6Z" style="fill:#1a171b;"/><path d="M107.22,342.37l-.57,2.95-23.2-4.44,.56-2.95,23.2,4.44Z" style="fill:#1a171b;"/><path d="M93.98,348.28c7.55,1.04,11.53,6.21,10.67,12.42-.45,3.24-2.21,5.18-3.82,6.35l-1.71-1.9c1.39-1.02,2.58-2.38,2.9-4.73,.65-4.72-2.56-8.25-8.39-9.05-5.88-.81-9.96,1.46-10.64,6.46-.23,1.68,.05,3.36,.79,4.41l6.09,.84,.68-4.96,2.47,.34-1.06,7.67-9.84-1.36c-1.36-1.72-2.16-4.44-1.72-7.59,.85-6.18,5.97-9.95,13.57-8.9Z" style="fill:#1a171b;"/><path d="M102.87,372.86l-.26,3-23.54-2.01,.26-3,23.54,2.01Z" style="fill:#1a171b;"/><path d="M99.39,386.72l.27-7.14,2.54,.1-.66,17.29-2.54-.1,.28-7.14-21.07-.81,.12-3,21.07,.81Z" style="fill:#1a171b;"/><path d="M101.68,404.11l.07,3.39-23.46,8.47-.07-3.18,13.11-4.39c2.62-.9,5.2-1.71,7.91-2.53v-.14c-2.76-.67-5.35-1.38-8.01-2.18l-13.28-3.9-.06-3.06,23.78,7.51Zm-14.1-3.5l.22,10.88-2.4,.05-.22-10.88,2.4-.05Z" style="fill:#1a171b;"/><path d="M102.17,418.17l.24,3-21.01,1.68,.82,10.28-2.54,.2-1.06-13.28,23.55-1.89Z" style="fill:#1a171b;"/><path d="M104.6,442.05l2.18,13.45-2.51,.41-1.7-10.48-7.86,1.27,1.44,8.89-2.51,.41-1.44-8.89-10.43,1.69-.48-2.97,23.32-3.77Z" style="fill:#1a171b;"/><path d="M108.3,462.54l.73,3.31-21.36,12.89-.69-3.11,12-6.86c2.4-1.4,4.77-2.7,7.27-4.02l-.03-.14c-2.83-.12-5.52-.31-8.28-.57l-13.78-1.23-.66-2.99,24.79,2.72Zm-14.52-.68l2.34,10.62-2.34,.52-2.34-10.62,2.34-.52Z" style="fill:#1a171b;"/><path d="M111.47,476.23l1.95,6.74c1.34,4.61,.69,8.26-3.29,9.42-2.24,.65-4.58,.03-5.89-1.89l-.14,.04c.25,2.87-.99,5.29-4.09,6.19-4.46,1.29-7.66-1.6-9.13-6.66l-2.1-7.25,22.69-6.58Zm-18.42,12.75c1.12,3.88,3.19,5.76,6.24,4.87,2.79-.81,3.43-3.38,2.28-7.35l-1.15-3.95-8.53,2.47,1.15,3.95Zm10.57-3.71c1.12,3.86,3.01,5.04,5.31,4.38,2.65-.77,3.11-2.87,2.1-6.38l-1.01-3.49-7.36,2.14,.97,3.36Z" style="fill:#1a171b;"/><path d="M117.41,495.95l2.54,6.95c1.65,4.52,1.21,8.36-3.41,10.04-4.43,1.62-7.75-.85-9.4-5.37l-1.5-4.13-9.38,3.42-1.03-2.82,22.19-8.09Zm-9.71,10.79l2.27,1.68-9.15,11.01-1.17-3.2,8.05-9.49Zm1.57-.4c1.26,3.45,3.35,4.84,6.23,3.79,2.92-1.06,3.26-3.34,2-6.8l-1.36-3.72-8.23,3,1.36,3.72Z" style="fill:#1a171b;"/><path d="M124.55,514.71l1.17,2.77-21.77,9.17-1.17-2.77,21.77-9.17Z" style="fill:#1a171b;"/><path d="M116.81,526.92c6.87-3.29,13-1.26,15.59,4.15,1.24,2.59,.96,5.21,.18,7.12l-2.48-.64c.66-1.69,.8-3.49-.06-5.29-1.93-4.03-6.51-5.12-11.82-2.57-5.36,2.57-7.48,6.73-5.55,10.77,.98,2.03,2.6,3.15,4.76,3.79l-.99,2.3c-2.76-.75-4.88-2.29-6.21-5.06-2.54-5.31-.35-11.25,6.57-14.57Z" style="fill:#1a171b;"/><path d="M139.3,545.22l1.66,2.96-16.67,18.55-1.56-2.78,9.48-10.06c1.89-2.04,3.77-3.97,5.78-5.97l-.07-.12c-2.75,.71-5.37,1.31-8.08,1.87l-13.54,2.84-1.5-2.67,24.51-4.62Zm-14.08,3.58l5.33,9.48-2.09,1.18-5.34-9.48,2.09-1.18Z" style="fill:#1a171b;"/><path d="M145.93,561.35l-3.86-6.02,2.14-1.37,9.34,14.57-2.14,1.37-3.86-6.02-17.75,11.38-1.62-2.53,17.75-11.38Z" style="fill:#1a171b;"/><path d="M155.83,571.6l1.74,2.45-19.26,13.68-1.74-2.45,19.26-13.68Z" style="fill:#1a171b;"/><path d="M151,585.2c5.92-4.71,12.11-4.32,15.8,.33,3.7,4.64,2.68,10.77-3.23,15.48-5.92,4.71-12.24,4.42-15.94-.22-3.7-4.64-2.56-10.87,3.36-15.58Zm10.64,13.37c4.61-3.67,5.72-8.1,3.09-11.4-2.63-3.3-7.2-3.21-11.8,.46-4.61,3.67-5.85,8.21-3.22,11.51s7.33,3.1,11.94-.56Z" style="fill:#1a171b;"/><path d="M175.69,597.01l2.12,2.27-5.04,16.38-1.84,5.2,.1,.11c1.64-1.73,3.43-3.72,5.24-5.4l8.95-8.33,1.95,2.09-17.29,16.1-2.12-2.27,5.05-16.39,1.83-5.19-.1-.11c-1.65,1.74-3.33,3.63-5.14,5.31l-9.05,8.43-1.95-2.09,17.29-16.1Z" style="fill:#1a171b;"/></svg>