<?xml version="1.0" encoding="UTF-8"?><svg id="a" xmlns="http://www.w3.org/2000/svg" viewBox="0 0 800 800"><path d="M112.21,537.62l2.65,.67c-.8,2.32-.77,4.95,.35,7.14,1.41,2.76,3.62,3.7,5.66,2.66,2.15-1.09,2.06-2.97,1.92-5.4l-.21-3.7c-.16-2.39,.15-5.45,3.25-7.02,3.22-1.64,7.01-.04,8.96,3.78,1.27,2.5,1.32,5.27,.55,7.53l-2.44-.54c.56-1.91,.53-3.84-.46-5.78-1.2-2.36-3.19-3.32-5.07-2.36-2.03,1.03-1.85,3.25-1.71,5.26l.23,3.66c.19,2.97-.29,5.61-3.42,7.2-3.33,1.69-7.38,.3-9.63-4.13-1.5-2.96-1.61-6.14-.62-8.96Z" style="fill:#1a171b;"/><path d="M127.92,553.41l11.9-7.12,1.54,2.58-11.97,7.17c-4.87,2.92-5.17,5.89-3.59,8.54,1.61,2.69,4.41,3.89,9.28,.97l11.97-7.16,1.48,2.47-11.9,7.12c-6.51,3.89-10.62,2.09-13.1-2.05-2.48-4.14-2.12-8.62,4.38-12.52Z" style="fill:#1a171b;"/><path d="M133.68,575.68l2.72,.3c-.48,2.4-.08,5.01,1.32,7.02,1.77,2.55,4.09,3.17,5.97,1.86,1.98-1.38,1.64-3.22,1.16-5.61l-.71-3.64c-.49-2.34-.59-5.42,2.26-7.4,2.96-2.06,6.94-1,9.39,2.53,1.6,2.3,2.03,5.04,1.57,7.38l-2.5-.21c.29-1.97,0-3.88-1.24-5.67-1.51-2.17-3.61-2.85-5.35-1.65-1.87,1.3-1.39,3.48-.98,5.44l.73,3.59c.6,2.92,.48,5.6-2.41,7.6-3.06,2.13-7.27,1.3-10.11-2.78-1.89-2.72-2.43-5.86-1.84-8.79Z" style="fill:#1a171b;"/><path d="M162.99,585.49l-4.43-5.61,2-1.58,10.72,13.58-2,1.58-4.43-5.61-16.54,13.07-1.86-2.36,16.54-13.07Z" style="fill:#1a171b;"/><path d="M176.02,597.2l2.26,2.53-12.33,21.68-2.12-2.38,7.11-11.86c1.41-2.39,2.84-4.68,4.37-7.06l-.1-.11c-2.53,1.27-4.96,2.43-7.5,3.55l-12.62,5.67-2.04-2.28,22.96-9.75Zm-13,6.5l7.24,8.12-1.79,1.6-7.24-8.12,1.79-1.6Z" style="fill:#1a171b;"/><path d="M185.64,607.61l2.1,2.15-16.88,16.53-2.1-2.15,16.88-16.53Z" style="fill:#1a171b;"/><path d="M191.94,614.08l2.29,2.1-3.74,16.73-1.43,5.33,.11,.1c1.5-1.86,3.13-3.98,4.8-5.8l8.27-9.01,2.1,1.93-15.97,17.41-2.29-2.1,3.75-16.74,1.42-5.32-.11-.1c-1.5,1.87-3.04,3.88-4.71,5.7l-8.36,9.11-2.1-1.93,15.97-17.41Z" style="fill:#1a171b;"/><path d="M212.65,632.25l2.65,2.11-8.45,23.46-2.49-1.98,4.99-12.89c.98-2.6,2-5.1,3.11-7.7l-.11-.09c-2.28,1.69-4.48,3.24-6.79,4.77l-11.47,7.73-2.39-1.9,20.96-13.51Zm-11.7,8.62l8.51,6.77-1.49,1.88-8.51-6.77,1.49-1.88Z" style="fill:#1a171b;"/><path d="M223.71,640.84l5.76,4c3.95,2.74,5.75,5.97,3.38,9.38-1.33,1.92-3.53,2.92-5.76,2.25l-.08,.12c2,2.07,2.57,4.73,.73,7.38-2.64,3.82-6.96,3.59-11.29,.58l-6.21-4.3,13.46-19.42Zm-6.25,21.51c3.32,2.3,6.11,2.46,7.92-.16,1.66-2.39,.53-4.79-2.86-7.14l-3.38-2.34-5.06,7.3,3.38,2.34Zm5.87-9.54c3.3,2.29,5.51,2.02,6.88,.05,1.57-2.27,.6-4.19-2.4-6.27l-2.99-2.07-4.37,6.3,2.88,1.99Z" style="fill:#1a171b;"/><path d="M240.82,652.4l2.57,1.55-10.89,18.05,8.83,5.33-1.32,2.18-11.4-6.88,12.21-20.22Z" style="fill:#1a171b;"/><path d="M255.45,661.04l12.06,6.33-1.18,2.25-9.39-4.93-3.44,6.55,7.92,4.16-1.18,2.25-7.92-4.16-4,7.6,9.71,5.1-1.18,2.25-12.37-6.5,10.99-20.92Z" style="fill:#1a171b;"/><path d="M278.18,672.42l5.46,2.27c6.71,2.79,8.68,8.18,5.8,15.11-2.88,6.93-8.16,9.49-14.75,6.75l-5.58-2.32,9.07-21.81Zm-2.87,21.72c5.1,2.12,8.97-.02,11.26-5.53,2.29-5.51,1.01-9.61-4.09-11.73l-2.47-1.03-7.17,17.26,2.47,1.03Z" style="fill:#1a171b;"/><path d="M298.19,680.46l12.9,4.38-.82,2.41-10.05-3.41-2.38,7.01,8.48,2.88-.82,2.41-8.48-2.88-2.76,8.13,10.39,3.53-.82,2.41-13.24-4.49,7.6-22.37Z" style="fill:#1a171b;"/><path d="M308.68,705.61l2.28-1.52c1.18,2.15,3.15,3.89,5.52,4.54,2.99,.81,5.17-.2,5.77-2.41,.63-2.33-.82-3.52-2.71-5.04l-2.88-2.33c-1.88-1.48-3.93-3.77-3.02-7.13,.95-3.48,4.68-5.23,8.82-4.1,2.7,.73,4.79,2.56,5.95,4.65l-2.04,1.45c-1.04-1.7-2.49-2.97-4.59-3.54-2.56-.7-4.6,.13-5.16,2.17-.6,2.2,1.17,3.56,2.75,4.8l2.87,2.29c2.33,1.85,3.96,3.98,3.04,7.37-.98,3.6-4.74,5.67-9.53,4.37-3.2-.87-5.63-2.93-7.05-5.55Z" style="fill:#1a171b;"/><path d="M333.95,690.92l2.93,.65-5.13,23.06-2.94-.65,5.13-23.06Z" style="fill:#1a171b;"/><path d="M339.44,704.33c1.27-7.51,6.56-11.33,12.74-10.29,3.23,.55,5.11,2.37,6.23,4.01l-1.95,1.66c-.97-1.42-2.3-2.65-4.64-3.04-4.69-.79-8.32,2.3-9.3,8.11-.99,5.85,1.16,9.99,6.13,10.83,1.67,.28,3.36,.05,4.43-.66l1.02-6.07-4.93-.83,.42-2.46,7.64,1.29-1.65,9.79c-1.76,1.31-4.51,2.02-7.64,1.49-6.15-1.04-9.76-6.26-8.48-13.83Z" style="fill:#1a171b;"/><path d="M364.09,696.29l3.09,.29,7.13,15.58,2.08,5.11h.14c.07-2.37,.09-5.05,.32-7.5l1.14-12.17,2.84,.27-2.2,23.52-3.09-.29-7.13-15.6-2.08-5.09h-.14c-.07,2.38-.08,4.91-.31,7.37l-1.15,12.31-2.84-.27,2.2-23.52Z" style="fill:#1a171b;"/><path d="M391.69,715.92c-.03-7.01,10.76-8.2,10.73-13.27,0-1.37-.64-2.6-2.24-2.59-1.77,0-2.9,1.49-2.89,3.45,.02,4.41,4.9,10.28,9.44,13.62,1.87,1.39,3.68,2.36,5.21,2.78l-.79,2.47c-1.88-.52-4.02-1.6-6.18-3.27-5.2-3.99-10.21-10.55-10.23-15.55-.01-3.16,2.16-5.62,5.42-5.63,2.93-.01,4.65,1.91,4.67,4.66,.03,6.06-10.29,7.95-10.26,13.14,.01,2.62,2.08,4.35,4.68,4.34,1.97,0,3.85-1.15,5.4-2.8,1.93-2.1,3.34-4.82,4.21-8.05h2.75c-1.02,3.52-2.6,6.78-4.89,9.46-1.98,2.21-4.48,3.74-7.79,3.75-4.28,.02-7.21-2.71-7.23-6.51Z" style="fill:#1a171b;"/><path d="M422.01,697.62l13.56-1.3,.24,2.53-10.56,1.01,.71,7.37,8.91-.85,.24,2.53-8.91,.85,.82,8.55,10.92-1.04,.24,2.53-13.92,1.33-2.25-23.52Z" style="fill:#1a171b;"/><path d="M440.29,695.75l3.06-.51,10.87,13.25,3.32,4.41,.14-.02c-.54-2.33-1.2-4.91-1.61-7.35l-2-12.06,2.82-.47,3.87,23.31-3.06,.51-10.87-13.26-3.31-4.39-.14,.02c.54,2.33,1.18,4.78,1.59,7.22l2.03,12.19-2.82,.47-3.87-23.3Z" style="fill:#1a171b;"/><path d="M464.08,703.62c-1.8-7.4,1.54-13,7.63-14.49,3.18-.78,5.63,.16,7.31,1.22l-1.14,2.29c-1.46-.92-3.16-1.52-5.47-.96-4.62,1.13-6.73,5.41-5.33,11.12,1.41,5.77,5.02,8.72,9.91,7.53,1.65-.4,3.11-1.28,3.81-2.36l-1.46-5.98-4.86,1.18-.59-2.42,7.52-1.83,2.35,9.65c-1.1,1.9-3.34,3.64-6.42,4.39-6.06,1.48-11.44-1.89-13.26-9.35Z" style="fill:#1a171b;"/><path d="M483.69,686.33l2.88-.86,6.77,22.64-2.88,.86-6.77-22.64Z" style="fill:#1a171b;"/><path d="M492.32,683.77l2.92-1.05,13.06,11.1,4.05,3.75,.14-.05c-.95-2.19-2.06-4.62-2.9-6.95l-4.12-11.51,2.69-.96,7.97,22.25-2.92,1.05-13.06-11.11-4.05-3.73-.13,.05c.95,2.2,2.02,4.49,2.85,6.82l4.17,11.64-2.69,.96-7.97-22.25Z" style="fill:#1a171b;"/><path d="M513.92,675.61l12.56-5.25,.98,2.35-9.79,4.09,2.86,6.83,8.26-3.45,.98,2.35-8.26,3.45,3.31,7.92,10.12-4.23,.98,2.35-12.9,5.39-9.12-21.8Z" style="fill:#1a171b;"/><path d="M530.48,668.29l12.12-6.2,1.16,2.26-9.45,4.83,3.37,6.59,7.97-4.08,1.16,2.27-7.97,4.08,3.91,7.65,9.77-5,1.16,2.27-12.45,6.37-10.76-21.04Z" style="fill:#1a171b;"/><path d="M546.81,659.75l6.36-3.78c4.14-2.46,7.99-2.74,10.51,1.49,2.41,4.06,.6,7.78-3.53,10.24l-3.78,2.25,5.11,8.58-2.58,1.54-12.08-20.31Zm11.72,6.06c3.16-1.88,4.14-4.19,2.57-6.83-1.59-2.67-3.89-2.58-7.05-.7l-3.4,2.03,4.48,7.53,3.4-2.03Zm.69,1.47l1.23-2.54,12.52,6.94-2.93,1.74-10.82-6.14Z" style="fill:#1a171b;"/><path d="M563.9,649.26l2.51-1.66,13.06,19.69-2.51,1.66-13.06-19.69Z" style="fill:#1a171b;"/><path d="M571.44,644.29l2.49-1.85,15.73,6.82,4.96,2.41,.12-.09c-1.54-1.82-3.32-3.82-4.79-5.81l-7.29-9.82,2.29-1.7,14.1,18.96-2.49,1.85-15.73-6.83-4.96-2.39-.12,.08c1.55,1.83,3.24,3.71,4.71,5.7l7.38,9.92-2.29,1.7-14.1-18.96Z" style="fill:#1a171b;"/><path d="M596.18,640.43c-4.99-5.76-4.57-12.27,.17-16.37,2.48-2.14,5.08-2.43,7.06-2.26l.04,2.56c-1.71-.15-3.51,.09-5.3,1.65-3.6,3.12-3.52,7.88,.34,12.33,3.89,4.49,8.45,5.46,12.26,2.16,1.28-1.11,2.18-2.56,2.31-3.84l-4.03-4.65-3.78,3.28-1.63-1.88,5.85-5.07,6.5,7.51c-.11,2.19-1.31,4.76-3.71,6.84-4.71,4.08-11.05,3.55-16.07-2.25Z" style="fill:#1a171b;"/><path d="M658.36,587.04l-.69-2.65c2.42-.41,4.71-1.7,6.1-3.72,1.75-2.56,1.52-4.95-.38-6.25-1.99-1.36-3.59-.39-5.66,.9l-3.15,1.96c-2.02,1.29-4.86,2.47-7.72,.51-2.98-2.04-3.4-6.14-.97-9.68,1.58-2.31,3.99-3.69,6.34-4.09l.69,2.41c-1.95,.42-3.62,1.37-4.86,3.17-1.5,2.19-1.39,4.39,.36,5.58,1.88,1.29,3.74,.07,5.44-1.02l3.11-1.96c2.51-1.59,5.06-2.43,7.96-.45,3.08,2.11,3.8,6.34,.99,10.44-1.87,2.74-4.62,4.35-7.56,4.84Z" style="fill:#1a171b;"/><path d="M664.69,565.68l-11.96-7.03,1.52-2.59,12.03,7.07c4.89,2.88,7.65,1.71,9.21-.95,1.59-2.7,1.3-5.74-3.6-8.61l-12.03-7.07,1.46-2.48,11.96,7.03c6.54,3.84,6.93,8.32,4.49,12.48s-6.55,6-13.09,2.16Z" style="fill:#1a171b;"/><path d="M681.47,549.96l-1.04-2.53c2.34-.73,4.44-2.32,5.53-4.52,1.39-2.77,.83-5.11-1.23-6.13-2.16-1.08-3.61,.11-5.48,1.67l-2.86,2.37c-1.83,1.55-4.47,3.11-7.58,1.56-3.23-1.61-4.2-5.62-2.28-9.46,1.25-2.5,3.45-4.2,5.73-4.91l1.01,2.29c-1.87,.68-3.4,1.85-4.38,3.81-1.19,2.37-.77,4.54,1.12,5.48,2.04,1.02,3.72-.44,5.25-1.75l2.81-2.36c2.27-1.92,4.68-3.1,7.83-1.53,3.34,1.67,4.63,5.76,2.41,10.21-1.48,2.97-3.98,4.94-6.83,5.82Z" style="fill:#1a171b;"/><path d="M676.04,519.53l-2.81,6.57-2.34-1,6.79-15.91,2.34,1-2.8,6.57,19.39,8.28-1.18,2.76-19.39-8.28Z" style="fill:#1a171b;"/><path d="M680.1,502.48l1.15-3.19,24.94,.48-1.08,3-13.81-.59c-2.77-.09-5.47-.26-8.29-.47l-.05,.13c2.33,1.62,4.5,3.2,6.7,4.9l11.01,8.39-1.04,2.88-19.53-15.52Zm11.92,8.32l3.68-10.24,2.26,.81-3.68,10.24-2.26-.81Z" style="fill:#1a171b;"/><path d="M684.66,489.05l.88-2.87,22.58,6.95-.88,2.87-22.58-6.95Z" style="fill:#1a171b;"/><path d="M687.34,480.44l.75-3.01,16.49-4.68,5.36-1.29,.04-.14c-2.35-.43-4.99-.86-7.38-1.46l-11.86-2.97,.69-2.77,22.92,5.74-.75,3.01-16.5,4.68-5.35,1.29-.04,.14c2.36,.43,4.86,.82,7.25,1.42l11.99,3-.69,2.77-22.92-5.74Z" style="fill:#1a171b;"/><path d="M693.45,453.55l.59-3.34,24.66-3.73-.56,3.14-13.71,1.75c-2.75,.37-5.44,.67-8.25,.93l-.02,.14c2.57,1.2,4.98,2.4,7.43,3.7l12.26,6.41-.54,3.01-21.87-12.01Zm13.15,6.19l1.91-10.71,2.36,.42-1.9,10.71-2.36-.42Z" style="fill:#1a171b;"/><path d="M695.74,439.71l.77-6.97c.53-4.78,2.52-7.9,6.65-7.44,2.32,.26,4.25,1.72,4.72,4l.14,.02c.86-2.75,2.93-4.51,6.15-4.16,4.61,.51,6.47,4.41,5.89,9.65l-.83,7.51-23.49-2.59Zm10.71-5.36c.44-4-.85-5.81-3.23-6.08-2.74-.3-3.98,1.46-4.38,5.1l-.4,3.61,7.62,.84,.38-3.48Zm11.19,.62c.44-4.02-.74-6.54-3.91-6.89-2.89-.32-4.47,1.81-4.92,5.92l-.45,4.09,8.83,.98,.45-4.09Z" style="fill:#1a171b;"/><path d="M697.76,419.18l.14-3,21.06,.99,.48-10.3,2.54,.12-.62,13.3-23.6-1.1Z" style="fill:#1a171b;"/><path d="M698.4,402.21l-.18-13.62,2.54-.03,.14,10.61,7.4-.1-.12-8.95,2.54-.03,.12,8.95,8.59-.11-.14-10.97,2.54-.03,.18,13.98-23.63,.31Z" style="fill:#1a171b;"/><path d="M697.56,376.83l-.62-5.88c-.76-7.22,3.04-11.54,10.5-12.32,7.46-.78,12.24,2.63,12.98,9.73l.63,6.01-23.5,2.46Zm20.45-7.86c-.58-5.49-4.3-7.87-10.24-7.25-5.94,.62-8.92,3.7-8.35,9.2l.28,2.67,18.59-1.95-.28-2.67Z" style="fill:#1a171b;"/><path d="M695.06,355.38l-2.33-13.42,2.51-.43,1.81,10.45,7.29-1.26-1.53-8.82,2.51-.44,1.53,8.82,8.46-1.47-1.87-10.81,2.51-.43,2.39,13.77-23.28,4.04Z" style="fill:#1a171b;"/><path d="M712.12,334.15l-2.43-1.27c1.32-2.06,1.9-4.63,1.33-7.02-.72-3.01-2.65-4.44-4.88-3.91-2.35,.56-2.7,2.4-3.13,4.8l-.67,3.65c-.4,2.36-1.43,5.26-4.8,6.07-3.51,.84-6.83-1.6-7.83-5.78-.65-2.72-.05-5.43,1.23-7.45l2.25,1.1c-.99,1.73-1.42,3.61-.91,5.73,.62,2.58,2.32,3.97,4.38,3.48,2.21-.53,2.56-2.73,2.89-4.71l.63-3.61c.51-2.93,1.6-5.39,5.01-6.2,3.63-.87,7.25,1.44,8.4,6.27,.77,3.22,.12,6.34-1.49,8.85Z" style="fill:#1a171b;"/><path d="M687.11,319.01l-.83-2.89,22.7-6.56,.83,2.89-22.7,6.56Z" style="fill:#1a171b;"/><path d="M696.24,307.75c-7.2,2.49-13.09-.32-15.14-6.24-1.07-3.09-.37-5.62,.53-7.39l2.39,.92c-.78,1.54-1.22,3.29-.45,5.54,1.56,4.5,6.01,6.19,11.58,4.27,5.61-1.94,8.21-5.81,6.57-10.58-.55-1.6-1.57-2.98-2.7-3.57l-5.82,2.01,1.63,4.73-2.36,.81-2.53-7.32,9.39-3.25c1.99,.92,3.93,2.99,4.97,5.99,2.04,5.89-.82,11.57-8.07,14.08Z" style="fill:#1a171b;"/><path d="M677.23,289.85l-1.2-2.87,10.4-13.62,3.53-4.24-.05-.13c-2.14,1.06-4.51,2.3-6.79,3.25l-11.28,4.72-1.1-2.63,21.8-9.12,1.2,2.87-10.42,13.62-3.52,4.24,.05,.13c2.15-1.06,4.38-2.25,6.66-3.2l11.41-4.77,1.1,2.63-21.8,9.12Z" style="fill:#1a171b;"/><path d="M681.46,256.44c-6.15,3.37-12.33-5.54-16.78-3.11-1.2,.66-1.98,1.8-1.21,3.21,.85,1.55,2.69,1.84,4.41,.89,3.87-2.12,6.7-9.21,7.47-14.79,.33-2.31,.31-4.36-.04-5.91l2.55-.48c.45,1.9,.51,4.3,.08,6.99-1.03,6.47-4.4,14-8.79,16.41-2.77,1.52-5.97,.78-7.54-2.08-1.41-2.57-.54-5,1.87-6.32,5.32-2.92,11.89,5.25,16.44,2.76,2.3-1.26,2.83-3.9,1.58-6.18-.95-1.73-2.85-2.83-5.04-3.41-2.77-.69-5.83-.63-9.08,.14l-1.32-2.41c3.59-.79,7.21-.95,10.65-.22,2.88,.68,5.42,2.16,7.02,5.06,2.05,3.75,1.06,7.63-2.28,9.46Z" style="fill:#1a171b;"/><path d="M650.92,238.51l-7.6-11.31,2.11-1.42,5.92,8.81,6.15-4.13-4.99-7.43,2.11-1.42,4.99,7.43,7.13-4.79-6.12-9.11,2.11-1.42,7.8,11.61-19.62,13.18Z" style="fill:#1a171b;"/><path d="M640.56,223.31l-1.91-2.45,6.48-15.87,2.3-5.02-.09-.11c-1.79,1.58-3.75,3.4-5.7,4.91l-9.66,7.5-1.75-2.25,18.66-14.5,1.91,2.45-6.49,15.88-2.29,5.01,.09,.11c1.8-1.59,3.64-3.32,5.59-4.83l9.77-7.59,1.75,2.25-18.66,14.5Z" style="fill:#1a171b;"/><path d="M636.17,198.64c-5.65,5.11-12.17,4.84-16.37,.19-2.2-2.43-2.54-5.02-2.41-7.01l2.56-.09c-.11,1.72,.17,3.51,1.76,5.27,3.2,3.53,7.96,3.34,12.32-.61,4.4-3.99,5.28-8.57,1.9-12.3-1.14-1.26-2.61-2.12-3.89-2.22l-4.56,4.13,3.36,3.71-1.85,1.67-5.2-5.74,7.36-6.67c2.19,.06,4.79,1.2,6.92,3.56,4.18,4.62,3.79,10.97-1.9,16.12Z" style="fill:#1a171b;"/><path d="M611.63,189.65l-2.13-2.12,16.67-16.74,2.13,2.12-16.67,16.74Z" style="fill:#1a171b;"/><path d="M605.25,183.26l-2.32-2.07,3.52-16.77,1.36-5.35-.11-.1c-1.47,1.88-3.08,4.02-4.72,5.86l-8.15,9.12-2.13-1.9,15.74-17.62,2.32,2.07-3.53,16.78-1.35,5.34,.11,.09c1.48-1.88,2.99-3.92,4.63-5.76l8.24-9.22,2.13,1.9-15.74,17.62Z" style="fill:#1a171b;"/><path d="M588.14,168.34l-10.75-8.36,1.56-2.01,8.38,6.51,4.54-5.85-7.07-5.49,1.56-2.01,7.07,5.49,5.27-6.78-8.66-6.73,1.56-2.01,11.04,8.58-14.5,18.66Z" style="fill:#1a171b;"/><path d="M573.46,157.17l-11.25-7.68,1.43-2.1,8.77,5.98,4.17-6.12-7.39-5.04,1.43-2.1,7.39,5.04,4.84-7.1-9.06-6.18,1.43-2.1,11.55,7.88-13.31,19.52Z" style="fill:#1a171b;"/><path d="M558.13,146.91l-6.37-3.77c-4.14-2.45-6.23-5.7-3.73-9.93,2.4-4.06,6.53-4.26,10.67-1.81l3.78,2.24,5.08-8.59,2.59,1.53-12.03,20.33Zm-.29-13.19c-3.16-1.87-5.66-1.62-7.22,1.02-1.58,2.67-.4,4.66,2.76,6.53l3.41,2.02,4.46-7.54-3.41-2.02Zm.96-1.31l-2.82,.14,.09-14.31,2.93,1.74-.21,12.44Z" style="fill:#1a171b;"/><path d="M540.74,136.95l-2.66-1.4,11.03-20.89,2.66,1.4-11.03,20.89Z" style="fill:#1a171b;"/><path d="M532.78,132.72l-2.82-1.3-1.54-17.07-.27-5.51-.13-.06c-.86,2.23-1.77,4.74-2.8,6.98l-5.13,11.1-2.59-1.2,9.9-21.45,2.82,1.3,1.53,17.08,.27,5.5,.13,.06c.87-2.23,1.71-4.62,2.75-6.86l5.18-11.22,2.59,1.2-9.9,21.45Z" style="fill:#1a171b;"/><path d="M517.54,112.83c-2.68,7.13-8.6,9.88-14.46,7.68-3.06-1.15-4.56-3.3-5.36-5.12l2.23-1.25c.69,1.58,1.76,3.04,3.98,3.87,4.46,1.67,8.61-.68,10.67-6.19,2.09-5.56,.76-10.03-3.96-11.8-1.59-.59-3.29-.69-4.47-.2l-2.16,5.76,4.68,1.76-.88,2.33-7.25-2.72,3.49-9.3c1.98-.95,4.81-1.12,7.78-.01,5.84,2.19,8.39,8.01,5.7,15.19Z" style="fill:#1a171b;"/><path d="M440.99,83.6l-2,1.87c-1.51-1.93-3.73-3.34-6.18-3.59-3.08-.32-5.07,1.02-5.31,3.3-.25,2.4,1.37,3.34,3.49,4.55l3.22,1.84c2.09,1.16,4.49,3.09,4.12,6.55-.38,3.59-3.78,5.91-8.05,5.46-2.79-.29-5.14-1.76-6.61-3.64l1.79-1.75c1.3,1.51,2.93,2.54,5.1,2.76,2.63,.28,4.52-.87,4.74-2.97,.24-2.26-1.72-3.33-3.48-4.3l-3.2-1.8c-2.6-1.45-4.55-3.3-4.18-6.79,.39-3.71,3.77-6.35,8.71-5.84,3.3,.35,6.02,1.99,7.85,4.35Z" style="fill:#1a171b;"/><path d="M419.16,88.19l-.48,13.86-3-.1,.49-13.94c.2-5.67-2.14-7.54-5.22-7.65-3.13-.11-5.66,1.59-5.86,7.26l-.49,13.94-2.88-.1,.48-13.86c.26-7.58,4.01-10.05,8.83-9.88,4.82,.17,8.39,2.9,8.13,10.48Z" style="fill:#1a171b;"/><path d="M397.35,80.93l-1.73,2.12c-1.76-1.71-4.16-2.79-6.61-2.71-3.1,.1-4.89,1.71-4.81,4,.08,2.41,1.82,3.12,4.08,4.02l3.44,1.38c2.23,.87,4.87,2.45,4.98,5.92,.12,3.61-2.94,6.37-7.23,6.51-2.8,.09-5.34-1.04-7.05-2.69l1.53-1.98c1.49,1.32,3.25,2.11,5.43,2.04,2.65-.09,4.36-1.48,4.29-3.59-.08-2.28-2.16-3.06-4.04-3.78l-3.41-1.34c-2.77-1.08-4.96-2.64-5.08-6.15-.12-3.73,2.86-6.81,7.83-6.98,3.31-.11,6.24,1.15,8.38,3.23Z" style="fill:#1a171b;"/><path d="M373.19,100.21l7.12-.67,.24,2.53-17.23,1.62-.24-2.53,7.12-.67-1.98-20.99,2.99-.28,1.98,20.99Z" style="fill:#1a171b;"/><path d="M356.26,104.79l-3.35,.52-11.51-22.13,3.15-.49,6.09,12.41c1.24,2.48,2.39,4.93,3.55,7.51l.14-.02c.3-2.82,.66-5.49,1.09-8.23l2.1-13.68,3.03-.47-4.29,24.57Zm1.6-14.45l-10.75,1.66-.37-2.37,10.75-1.66,.37,2.37Z" style="fill:#1a171b;"/><path d="M342.29,107.21l-2.95,.6-4.7-23.16,2.95-.6,4.71,23.16Z" style="fill:#1a171b;"/><path d="M333.46,108.98l-3,.78-12.01-12.23-3.7-4.09-.14,.04c.75,2.27,1.64,4.79,2.26,7.18l3.08,11.83-2.76,.72-5.94-22.87,3-.78,12.02,12.24,3.7,4.08,.14-.04c-.75-2.28-1.61-4.66-2.23-7.05l-3.11-11.97,2.76-.72,5.94,22.87Z" style="fill:#1a171b;"/><path d="M306.96,116.49l-3.22,1.08-15.1-19.85,3.02-1.01,8.1,11.2c1.65,2.23,3.19,4.45,4.78,6.8l.14-.05c-.18-2.83-.28-5.52-.32-8.29l-.25-13.83,2.9-.97-.06,24.94Zm-.87-14.51l-10.31,3.46-.76-2.27,10.31-3.46,.76,2.27Z" style="fill:#1a171b;"/><path d="M293.71,121.12l-6.49,2.66c-4.45,1.82-8.14,1.57-9.72-2.27-.89-2.16-.52-4.55,1.25-6.06l-.05-.13c-2.82,.56-5.37-.42-6.59-3.41-1.76-4.3,.78-7.79,5.65-9.79l6.99-2.87,8.97,21.86Zm-14.65-16.95c-3.74,1.53-5.39,3.78-4.18,6.73,1.11,2.69,3.73,3.06,7.55,1.49l3.81-1.56-3.37-8.22-3.81,1.56Zm4.81,10.12c-3.72,1.53-4.69,3.53-3.79,5.75,1.05,2.55,3.19,2.79,6.57,1.4l3.36-1.38-2.91-7.1-3.24,1.33Z" style="fill:#1a171b;"/><path d="M274.69,129.17l-2.71,1.31-9.19-18.98-9.28,4.49-1.11-2.29,11.99-5.8,10.3,21.27Z" style="fill:#1a171b;"/><path d="M259.47,136.71l-11.89,6.65-1.24-2.22,9.26-5.18-3.61-6.46-7.81,4.37-1.24-2.22,7.81-4.37-4.19-7.5-9.58,5.35-1.24-2.22,12.2-6.82,11.53,20.62Z" style="fill:#1a171b;"/><path d="M237.54,149.56l-4.88,3.34c-6,4.1-11.6,2.82-15.84-3.38-4.24-6.19-3.51-12.02,2.38-16.05l4.99-3.41,13.35,19.5Zm-16.65-14.25c-4.56,3.12-4.88,7.53-1.5,12.46,3.37,4.93,7.51,6.09,12.06,2.97l2.21-1.52-10.56-15.43-2.21,1.51Z" style="fill:#1a171b;"/><path d="M219.91,161.94l-10.69,8.44-1.58-2,8.33-6.58-4.59-5.81-7.03,5.54-1.58-2,7.03-5.54-5.32-6.75-8.62,6.8-1.58-2,10.98-8.66,14.64,18.55Z" style="fill:#1a171b;"/><path d="M193.1,157.05l.04,2.74c-2.44-.18-4.98,.53-6.81,2.17-2.31,2.07-2.65,4.45-1.12,6.16,1.61,1.8,3.4,1.23,5.71,.47l3.53-1.15c2.27-.77,5.3-1.25,7.62,1.34,2.41,2.69,1.84,6.77-1.35,9.64-2.09,1.87-4.76,2.63-7.14,2.46l-.1-2.5c1.99,.05,3.85-.47,5.47-1.93,1.97-1.77,2.39-3.93,.98-5.51-1.52-1.7-3.62-.95-5.52-.3l-3.48,1.16c-2.82,.95-5.5,1.16-7.84-1.46-2.49-2.78-2.19-7.06,1.52-10.38,2.47-2.21,5.52-3.13,8.5-2.91Z" style="fill:#1a171b;"/><path d="M191.68,186.27l-2.14,2.11-16.58-16.83,2.14-2.11,16.58,16.83Z" style="fill:#1a171b;"/><path d="M177.44,183.6c5.62,5.15,5.96,11.66,1.73,16.29-2.21,2.42-4.76,3-6.75,3.06l-.33-2.54c1.72-.05,3.48-.5,5.08-2.25,3.21-3.51,2.58-8.24-1.76-12.21-4.38-4.01-9.03-4.45-12.43-.73-1.14,1.25-1.87,2.8-1.85,4.08l4.54,4.15,3.38-3.69,1.84,1.68-5.23,5.71-7.33-6.7c-.14-2.19,.75-4.88,2.89-7.23,4.21-4.6,10.56-4.8,16.23,.38Z" style="fill:#1a171b;"/><path d="M170.82,208.65l-1.92,2.44-16.96-2.46-5.42-1.02-.09,.11c1.97,1.35,4.2,2.82,6.14,4.35l9.61,7.56-1.76,2.24-18.57-14.6,1.92-2.44,16.97,2.47,5.41,1.01,.09-.11c-1.97-1.36-4.1-2.73-6.04-4.26l-9.72-7.64,1.76-2.24,18.57,14.6Z" style="fill:#1a171b;"/><path d="M139.35,221.19c5.9,3.78,1.05,13.48,5.32,16.21,1.16,.74,2.53,.87,3.4-.48,.95-1.49,.32-3.24-1.33-4.3-3.71-2.38-11.29-1.47-16.56,.54-2.18,.82-3.98,1.81-5.16,2.87l-1.64-2.01c1.46-1.3,3.53-2.51,6.1-3.42,6.17-2.2,14.39-2.85,18.61-.15,2.66,1.7,3.55,4.86,1.79,7.61-1.58,2.46-4.13,2.87-6.44,1.39-5.11-3.27-1.1-12.95-5.46-15.75-2.21-1.42-4.78-.61-6.18,1.58-1.06,1.66-1.12,3.86-.57,6.05,.72,2.76,2.24,5.42,4.48,7.9l-1.48,2.31c-2.41-2.77-4.29-5.86-5.3-9.24-.79-2.86-.71-5.79,1.07-8.58,2.3-3.6,6.19-4.59,9.39-2.54Z" style="fill:#1a171b;"/><path d="M138.27,256.57l-6.28,12.08-2.26-1.17,4.9-9.42-6.57-3.42-4.13,7.94-2.26-1.18,4.13-7.94-7.62-3.96-5.06,9.74-2.26-1.17,6.45-12.4,20.96,10.9Z" style="fill:#1a171b;"/><path d="M129.89,272.97l-1.24,2.85-17.03,1.9-5.5,.38-.06,.13c2.25,.81,4.78,1.67,7.04,2.65l11.21,4.89-1.14,2.62-21.66-9.44,1.24-2.85,17.04-1.9,5.49-.39,.06-.13c-2.25-.82-4.65-1.61-6.92-2.6l-11.33-4.94,1.14-2.62,21.66,9.44Z" style="fill:#1a171b;"/><path d="M110.33,288.63c7.19,2.52,10.06,8.38,7.98,14.3-1.08,3.09-3.2,4.63-5.01,5.46l-1.3-2.2c1.56-.72,3-1.82,3.79-4.06,1.58-4.49-.86-8.59-6.42-10.54-5.6-1.97-10.05-.55-11.72,4.21-.56,1.6-.62,3.31-.1,4.48l5.81,2.04,1.66-4.72,2.35,.83-2.56,7.31-9.37-3.29c-.99-1.96-1.23-4.79-.18-7.78,2.06-5.88,7.83-8.56,15.07-6.02Z" style="fill:#1a171b;"/><path d="M114.14,314.48l-.85,2.88-22.67-6.67,.85-2.88,22.67,6.67Z" style="fill:#1a171b;"/><path d="M111.57,323.13l-.72,3.02-16.43,4.89-5.35,1.35-.03,.14c2.35,.4,5,.79,7.4,1.37l11.9,2.82-.66,2.78-22.99-5.46,.72-3.02,16.44-4.89,5.34-1.35,.03-.14c-2.36-.41-4.87-.76-7.27-1.33l-12.03-2.86,.66-2.78,22.99,5.46Z" style="fill:#1a171b;"/><path d="M106.59,345.3l-2.23,13.44-2.51-.42,1.74-10.47-7.3-1.21-1.46,8.83-2.51-.42,1.46-8.83-8.47-1.4-1.79,10.82-2.51-.42,2.29-13.79,23.31,3.86Z" style="fill:#1a171b;"/><path d="M103.76,363.52l-1.39,13.55-2.53-.26,1.08-10.56-7.37-.76-.91,8.91-2.53-.26,.91-8.91-8.55-.88-1.12,10.92-2.53-.26,1.43-13.9,23.5,2.41Z" style="fill:#1a171b;"/><path d="M88.97,388.19l1.46,2.41-12.63,6.73,.13-3.41,11.04-5.74Zm13.07-6.31l-.28,7.39c-.18,4.81-2.04,8.2-6.96,8.01-4.72-.18-6.85-3.72-6.67-8.53l.17-4.39-9.98-.38,.12-3,23.61,.9Zm-11.46,6.54c-.14,3.67,1.27,5.75,4.33,5.87,3.11,.12,4.29-1.86,4.43-5.54l.15-3.96-8.76-.33-.15,3.96Z" style="fill:#1a171b;"/><path d="M101.56,401.92l.03,3.01-23.62,.26-.03-3.01,23.62-.26Z" style="fill:#1a171b;"/><path d="M101.63,410.93l.2,3.1-14.27,9.49-4.72,2.86v.14c2.38-.31,5.02-.71,7.48-.87l12.2-.79,.19,2.85-23.57,1.53-.2-3.1,14.28-9.49,4.7-2.86v-.14c-2.39,.31-4.88,.7-7.35,.86l-12.34,.8-.18-2.85,23.57-1.53Z" style="fill:#1a171b;"/><path d="M91.43,433.82c7.55-1.06,12.78,2.83,13.66,9.03,.46,3.24-.71,5.58-1.94,7.15l-2.17-1.36c1.06-1.36,1.83-3,1.5-5.35-.66-4.71-4.71-7.23-10.54-6.41-5.88,.83-9.18,4.13-8.47,9.12,.24,1.68,.96,3.22,1.97,4.02l6.09-.86-.7-4.95,2.47-.35,1.08,7.67-9.83,1.38c-1.78-1.28-3.29-3.68-3.73-6.83-.87-6.17,3.02-11.2,10.62-12.27Z" style="fill:#1a171b;"/></svg>