<?xml version="1.0" encoding="UTF-8"?><svg id="b" xmlns="http://www.w3.org/2000/svg" viewBox="0 0 800 800"><path d="M309.73,264.2c-10.22-10.63-23.88-19.96-38.26-22.91-41.11-8.07-66.09,40.23-42.41,73.03,23.93,32.93,65.21,42.13,107.68,44.34-.07-10.08-.24-20.07-.67-29.8-1.96-24.38-9.53-47.3-26.33-64.67Z" style="fill:#1a171b;"/><path d="M475.13,354.3c17.38-2.07,34.2-5.22,47.78-13.91,24.64-14.98,48.15-48.37,29.98-75.84-28.6-39.78-91.37-8.19-105.04,30.68-6.6,18.32-4.01,41.74,.51,62.14,9.43-.93,18.88-2.13,26.77-3.06Z" style="fill:#1a171b;"/><path d="M400,118.47c-155.48,0-281.53,126.05-281.53,281.53s126.05,281.53,281.53,281.53,281.53-126.05,281.53-281.53S555.48,118.47,400,118.47Zm76.7,456.86c-6.36-2.24-13.88-6.31-19.56-10-10.1-7.08-18.64-16.91-23.93-27.76-16.2-33.64-10.54-72.81-2.09-107.51,0,0,2.68,.51,2.68,.51-.97,8.77-1.83,17.53-2.11,26.29-1.08,31.97,1.81,70.75,29.53,91.19,24.47,17.79,63.22,17.87,84.49-4.39,19.69-20.12,26.49-57.2,9.67-80.34-4.93-5.88-10.62-11.11-16.93-15.73-12.64-9.25-27.58-16.08-43.7-22.28-26.63-10.66-61.84-20.68-72.27-51.7-.59-1.82-1.03-3.65-1.48-5.49-17.1-.15-34.23-.91-51.27-.72-3.77,.01-7.55,.02-11.35,.01-.22,4.86-.43,9.55-.56,13.86-1.23,26.92-1.03,52.85-2.72,79.96-3.16,27.71-13.69,55.53-34.06,75-12.89,13.01-29.61,21.33-46.24,27.89,0,0-1.27-2.41-1.27-2.41,52.46-27.93,69.03-70.23,64.36-127.49-1.26-21.73-1.05-44.6-1.11-67.12-25.02-.8-50.1-3.52-73.61-12.21-117.08-42.95-47.06-184.76,47.55-122.13,31.08,21.12,46.84,58.36,48.47,94.54,.42,9.62,.04,20.99-.44,32.02,21.22,.15,42.01-.73,60.4-.55-.73-4.66-1.29-9.36-2-14.06-4.18-29.23,.25-62.88,21.21-85.49,26.34-29.83,72.86-49.6,110.41-28.54,18.87,10.37,31.46,31.75,30.85,53.26-1.09,39.9-39.3,71.76-76.25,78.75-15.14,2.92-36.05,3.65-51.83,4.71,9.65,16.94,36.59,22.82,54,30.84,29.88,12.05,65.94,30.61,79.58,62.76,24.48,69.82-35.64,140.56-108.42,114.35Z" style="fill:#1a171b;"/></svg>