<?xml version="1.0" encoding="UTF-8"?><svg id="a" xmlns="http://www.w3.org/2000/svg" viewBox="0 0 800 800"><path d="M400,118.47c-155.48,0-281.53,126.04-281.53,281.53s126.04,281.53,281.53,281.53,281.53-126.04,281.53-281.53S555.48,118.47,400,118.47Zm-6.6,462.64l-138.51-138.51-51.25,51.25-32.44-32.44,141.19-141.19,32.44,32.44-51.25,51.25,138.51,138.51-38.69,38.69Zm179.5-173.2c-23.1,23.1-55.41,38.5-89.77,40.4l-4.37-48.77c23.51-2.34,46.72-11.03,63.29-27.61,16.42-16.42,17.64-30.36,9.28-38.72-12.31-12.31-25.44-5.12-48.4,4.28l-31.78,12.77c-26.14,11.74-57.96,14.5-82.84-10.37-28.32-28.32-25.44-76.45,11.7-113.59,20.56-20.56,49.06-33.63,79.16-34.39l4.89,43.88c-20.68,3.39-36.05,9.34-52.75,26.04-12.75,12.75-16.11,26.67-6.12,36.66,10.28,10.28,25.5,2.58,48.05-7.66l29.78-12.05c30.78-13.99,58.88-14.17,83,9.95,28.42,28.42,29.19,76.87-13.13,119.19Z" style="fill:#1a171b;"/></svg>