<?xml version="1.0" encoding="UTF-8"?>
<svg id="Layer_1" data-name="Layer 1" xmlns="http://www.w3.org/2000/svg" viewBox="0 0 85.04 85.04">
  <defs>
    <style>
      .cls-1 {
        fill: #d0928e;
      }

      .cls-2 {
        stroke: #fff;
        stroke-miterlimit: 10;
        stroke-width: 2px;
      }

      .cls-2, .cls-3 {
        fill: #90a1ce;
      }

      .cls-4 {
        fill: #fff;
      }

      .cls-5 {
        fill: #e3d09b;
      }
    </style>
  </defs>
  <g>
    <path class="cls-5" d="M17.97,35.25c2.3,0,4.22-1.61,4.73-3.75h2.94l4.65,9.74c.21.44.65.72,1.14.72h8.68c.7,0,1.26-.57,1.26-1.26s-.57-1.26-1.26-1.26h-7.89l-4.65-9.74c-.21-.44-.65-.72-1.14-.72h-3.82c-.61-1.99-2.46-3.44-4.64-3.44-2.68,0-4.86,2.18-4.86,4.86s2.18,4.86,4.86,4.86ZM17.97,28.06c1.29,0,2.33,1.05,2.33,2.33s-1.05,2.33-2.33,2.33-2.33-1.05-2.33-2.33,1.05-2.33,2.33-2.33Z"/>
    <path class="cls-5" d="M40.11,47.12h-5.23c-.38,0-.74.17-.98.47l-4.22,5.24h-3.83c-.07,0-.13,0-.2.02-.55-2.08-2.44-3.61-4.69-3.61-2.68,0-4.86,2.18-4.86,4.86s2.18,4.86,4.86,4.86c2.25,0,4.14-1.54,4.69-3.61.06.01.13.02.2.02h4.44c.38,0,.74-.17.98-.47l4.22-5.24h4.63c.7,0,1.26-.57,1.26-1.26s-.57-1.26-1.26-1.26ZM20.96,56.43c-1.29,0-2.33-1.05-2.33-2.33s1.05-2.33,2.33-2.33,2.33,1.05,2.33,2.33-1.05,2.33-2.33,2.33Z"/>
    <path class="cls-5" d="M40.11,43.23H11.6c-.52-2.13-2.43-3.71-4.72-3.71-2.68,0-4.86,2.18-4.86,4.86s2.18,4.86,4.86,4.86c2.2,0,4.06-1.47,4.66-3.48h28.57c.7,0,1.26-.57,1.26-1.26s-.57-1.26-1.26-1.26ZM6.89,46.71c-1.29,0-2.33-1.05-2.33-2.33s1.05-2.33,2.33-2.33,2.33,1.05,2.33,2.33-1.05,2.33-2.33,2.33Z"/>
  </g>
  <path class="cls-1" d="M75.26,25.02c1.2,1.09,2.36,2.23,3.42,3.46l-2.29,4.19c-.07.52.36.97.54,1.42.3.75.55,1.53.86,2.27l4.55,1.37.17.17c.18,1.2.02,2.46.02,3.7,0,.51.24,1.87-.05,2.26l-4.58,1.34-1.51,3.48.09.6,2.17,3.86c.04.12-.16.36-.25.45-.97,1.07-2.45,2.61-3.54,3.54-.1.08-.31.26-.42.28-.46.09-2.92-1.55-3.55-1.85-1.2-.59-1.01-.25-2.07.18-.48.19-2.07.69-2.35.9-.15.11-.17.2-.22.36-.43,1.2-.6,3.11-1.14,4.19-.04.08-.07.15-.17.18-.48.28-.91.02-1.37.01-1.32-.02-2.66.13-3.95.12-.82,0-.85-.68-1.07-1.37-.36-1.1-.51-2.29-.91-3.38-.2-.26-1.31-.49-1.68-.64-.75-.32-1.61-1.03-2.4-.78-1.04.33-2.43,1.57-3.48,1.97-.43.16-.51.19-.89-.11-.91-.74-2.57-2.38-3.33-3.28-.12-.14-.41-.46-.44-.61-.09-.46,1.59-2.99,1.9-3.62.56-1.17.15-1.07-.26-2.07-.3-.75-.57-1.52-.86-2.27l-4.55-1.37-.17-.17c-.25-.46-.01-1.63-.02-2.18,0-.62-.2-3.45.05-3.78l4.58-1.34,1.48-3.39-.06-.69-2.21-3.92c.17-.17.29-.39.45-.58.79-.95,2.42-2.55,3.37-3.35.1-.08.31-.26.42-.28.63-.13,3.49,2.09,4.38,2.19.37.01.85-.36,1.23-.51.48-.19,2.07-.69,2.35-.9.15-.11.17-.2.22-.36.43-1.2.6-3.11,1.14-4.19.25-.49.92-.2,1.31-.19,1.39.01,2.81-.13,4.18-.12.82,0,.85.68,1.07,1.37.36,1.1.53,2.28.91,3.38l3.39,1.48c.27.07.46.05.72-.04.88-.3,2.34-1.5,3.29-1.93s.92.03,1.51.56ZM69.91,40.84c0-4.37-3.54-7.92-7.92-7.92s-7.92,3.55-7.92,7.92,3.54,7.92,7.92,7.92,7.92-3.55,7.92-7.92Z"/>
  <g>
    <path class="cls-3" d="M34.78,74.2c-2.65,0-4.54-.79-5.61-2.35-1.68-2.46-.51-5.65-.37-6.01l9.71-20.04v-5.65c-.6-.17-1.04-.72-1.04-1.37v-3.37c0-.78.64-1.42,1.42-1.42h8.12s8.12-.01,8.12-.01c.78,0,1.42.64,1.42,1.42v3.37c0,.65-.44,1.2-1.04,1.37v5.65l9.68,19.97.03.07c.14.36,1.31,3.56-.37,6.01-1.07,1.56-2.95,2.35-5.6,2.35h-12.04s-.2.01-.2.01h-12.24Z"/>
    <path class="cls-4" d="M55.14,34.99c.23,0,.42.19.42.42v3.37c0,.23-.19.42-.42.42h-.62v6.82l9.76,20.14s0,.02.01.03c.05.12,1.15,3.02-.26,5.08-.87,1.27-2.48,1.92-4.78,1.92h0c-2.13,0-4.07,0-5.75,0-3.54,0-5.92,0-6.39,0-.03,0-.06.01-.09.01,0,0-2.29,0-5.96,0-1.8,0-3.92,0-6.28,0h0c-2.3,0-3.91-.65-4.78-1.92-1.41-2.06-.31-4.96-.26-5.08l9.77-20.17v-6.82h-.62c-.23,0-.42-.19-.42-.42v-3.37c0-.23.19-.42.42-.42h8.03s.06-.01.09-.01h8.12M55.14,32.99h-8.12c-.07,0-.15,0-.22.01h-7.9c-1.33,0-2.42,1.09-2.42,2.42v3.37c0,.82.41,1.55,1.04,1.99v4.8l-9.57,19.76-.03.07-.03.07c-.16.41-1.49,4.06.47,6.94,1.27,1.85,3.43,2.79,6.43,2.79h6.28c2.97,0,5.03,0,5.71,0h0s.25,0,.25,0c.07,0,.15,0,.22-.01h6.26s5.75,0,5.75,0c3,0,5.17-.94,6.43-2.79,1.97-2.88.63-6.53.47-6.94l-.03-.08-.05-.1-9.56-19.72v-4.8c.63-.44,1.04-1.17,1.04-1.99v-3.37c0-1.33-1.09-2.42-2.42-2.42h0Z"/>
  </g>
  <path class="cls-4" d="M52.48,58.95c1.56,0,3.31.51,4.57,1.44l3.51,7.34c.2.6-.13,1.09-.68,1.32-8.33.34-16.75.04-25.11.15-1.24-.12-1.58-.71-1.18-1.85.65-1.88,2.16-3.94,2.86-5.87l.2-.2c2.21.86,4.32,1.28,6.71.9,3.37-.54,5.66-3.22,9.14-3.22Z"/>
  <circle class="cls-2" cx="51.8" cy="25.53" r="3.72"/>
  <circle class="cls-3" cx="41.9" cy="20.67" r="2.18"/>
  <circle class="cls-3" cx="47.94" cy="12.68" r="3.86"/>
</svg>