<?xml version="1.0" encoding="UTF-8"?><svg id="a" xmlns="http://www.w3.org/2000/svg" viewBox="0 0 800 800"><g><path d="M112.26,537.65l2.66,.67c-.8,2.32-.77,4.95,.35,7.14,1.41,2.76,3.62,3.7,5.66,2.66,2.15-1.09,2.06-2.97,1.92-5.4l-.21-3.7c-.16-2.39,.16-5.45,3.25-7.02,3.22-1.64,7.01-.04,8.96,3.79,1.27,2.5,1.32,5.27,.55,7.53l-2.44-.54c.56-1.91,.53-3.84-.46-5.78-1.2-2.36-3.19-3.32-5.07-2.36-2.03,1.03-1.85,3.25-1.71,5.26l.23,3.66c.19,2.97-.29,5.61-3.42,7.2-3.33,1.69-7.38,.3-9.63-4.13-1.5-2.96-1.61-6.14-.62-8.96Z" style="fill:#1a171b;"/><path d="M127.96,553.44l11.9-7.12,1.54,2.58-11.97,7.16c-4.87,2.92-5.17,5.89-3.59,8.54,1.61,2.69,4.41,3.89,9.28,.98l11.97-7.17,1.48,2.47-11.9,7.12c-6.51,3.89-10.62,2.09-13.1-2.05-2.48-4.14-2.12-8.62,4.38-12.52Z" style="fill:#1a171b;"/><path d="M133.72,575.71l2.72,.3c-.48,2.4-.08,5.01,1.32,7.02,1.77,2.54,4.09,3.17,5.97,1.86,1.98-1.38,1.64-3.22,1.16-5.61l-.71-3.64c-.49-2.34-.59-5.42,2.26-7.4,2.96-2.06,6.94-1,9.39,2.53,1.6,2.3,2.03,5.04,1.57,7.38l-2.5-.21c.29-1.97,0-3.87-1.24-5.67-1.51-2.17-3.61-2.85-5.35-1.65-1.87,1.3-1.39,3.48-.98,5.44l.73,3.6c.6,2.92,.48,5.6-2.41,7.6-3.06,2.13-7.27,1.3-10.11-2.78-1.89-2.72-2.43-5.86-1.84-8.79Z" style="fill:#1a171b;"/><path d="M163.02,585.49l-4.43-5.61,2-1.58,10.72,13.58-2,1.58-4.43-5.61-16.54,13.07-1.86-2.36,16.54-13.07Z" style="fill:#1a171b;"/><path d="M176.07,597.23l2.26,2.53-12.33,21.68-2.12-2.38,7.11-11.85c1.41-2.39,2.84-4.68,4.37-7.06l-.1-.11c-2.53,1.28-4.96,2.43-7.5,3.55l-12.62,5.67-2.04-2.29,22.96-9.75Zm-13,6.5l7.24,8.12-1.79,1.6-7.24-8.12,1.79-1.6Z" style="fill:#1a171b;"/><path d="M185.69,607.64l2.1,2.15-16.88,16.53-2.1-2.15,16.88-16.53Z" style="fill:#1a171b;"/><path d="M191.98,614.11l2.29,2.1-3.74,16.73-1.43,5.33,.11,.1c1.5-1.86,3.13-3.98,4.8-5.8l8.27-9.01,2.1,1.93-15.97,17.41-2.29-2.1,3.75-16.74,1.42-5.32-.11-.1c-1.51,1.86-3.04,3.88-4.71,5.7l-8.36,9.11-2.1-1.93,15.97-17.41Z" style="fill:#1a171b;"/><path d="M212.7,632.28l2.65,2.11-8.45,23.46-2.49-1.98,4.99-12.89c.98-2.6,2-5.1,3.1-7.7l-.11-.09c-2.28,1.69-4.48,3.24-6.79,4.77l-11.47,7.73-2.39-1.9,20.96-13.51Zm-11.7,8.62l8.51,6.77-1.49,1.88-8.51-6.77,1.49-1.88Z" style="fill:#1a171b;"/><path d="M223.76,640.87l5.76,4c3.95,2.74,5.75,5.97,3.38,9.38-1.33,1.92-3.53,2.92-5.76,2.25l-.08,.12c2,2.07,2.57,4.73,.73,7.38-2.64,3.82-6.96,3.59-11.29,.59l-6.21-4.3,13.46-19.42Zm-6.25,21.51c3.32,2.3,6.11,2.46,7.92-.16,1.66-2.39,.53-4.79-2.86-7.14l-3.38-2.34-5.06,7.3,3.38,2.34Zm5.87-9.54c3.3,2.29,5.51,2.02,6.88,.05,1.57-2.27,.6-4.19-2.4-6.27l-2.99-2.07-4.37,6.3,2.88,1.99Z" style="fill:#1a171b;"/><path d="M240.87,652.43l2.57,1.55-10.89,18.05,8.83,5.33-1.32,2.18-11.4-6.88,12.21-20.22Z" style="fill:#1a171b;"/><path d="M255.5,661.07l12.06,6.33-1.18,2.25-9.39-4.93-3.44,6.55,7.92,4.16-1.18,2.25-7.92-4.16-4,7.6,9.71,5.1-1.18,2.25-12.37-6.5,10.99-20.92Z" style="fill:#1a171b;"/><path d="M278.23,672.45l5.46,2.27c6.71,2.79,8.68,8.18,5.8,15.11-2.88,6.93-8.16,9.49-14.75,6.75l-5.58-2.32,9.07-21.81Zm-2.87,21.72c5.1,2.12,8.97-.02,11.26-5.53,2.29-5.51,1.01-9.61-4.09-11.73l-2.47-1.03-7.17,17.26,2.47,1.03Z" style="fill:#1a171b;"/><path d="M298.24,680.49l12.9,4.38-.82,2.41-10.05-3.41-2.38,7.01,8.48,2.88-.82,2.41-8.47-2.88-2.76,8.13,10.39,3.53-.82,2.41-13.24-4.49,7.6-22.37Z" style="fill:#1a171b;"/><path d="M308.73,705.64l2.28-1.52c1.18,2.15,3.15,3.89,5.52,4.54,2.99,.81,5.17-.2,5.77-2.41,.63-2.33-.82-3.52-2.71-5.04l-2.88-2.33c-1.88-1.48-3.93-3.77-3.02-7.12,.95-3.48,4.68-5.23,8.82-4.1,2.7,.73,4.79,2.56,5.95,4.65l-2.04,1.45c-1.04-1.7-2.49-2.97-4.59-3.54-2.56-.7-4.6,.13-5.15,2.17-.6,2.2,1.17,3.56,2.75,4.8l2.87,2.29c2.33,1.85,3.96,3.98,3.04,7.37-.98,3.6-4.74,5.67-9.53,4.37-3.2-.87-5.63-2.93-7.05-5.55Z" style="fill:#1a171b;"/><path d="M334,690.95l2.93,.65-5.13,23.06-2.94-.65,5.13-23.06Z" style="fill:#1a171b;"/><path d="M339.49,704.36c1.27-7.51,6.56-11.33,12.74-10.29,3.23,.54,5.11,2.37,6.23,4.01l-1.95,1.66c-.97-1.42-2.3-2.65-4.64-3.04-4.69-.79-8.32,2.3-9.3,8.11-.99,5.86,1.16,9.99,6.13,10.83,1.67,.28,3.36,.05,4.43-.66l1.02-6.07-4.93-.83,.41-2.46,7.64,1.29-1.65,9.79c-1.76,1.31-4.51,2.02-7.64,1.49-6.15-1.04-9.76-6.26-8.49-13.83Z" style="fill:#1a171b;"/><path d="M364.14,696.33l3.09,.29,7.13,15.58,2.08,5.11h.14c.07-2.37,.09-5.05,.32-7.5l1.14-12.17,2.84,.27-2.2,23.52-3.09-.29-7.13-15.6-2.09-5.09h-.14c-.07,2.38-.08,4.91-.31,7.37l-1.15,12.31-2.84-.27,2.2-23.52Z" style="fill:#1a171b;"/><path d="M391.74,715.95c-.03-7.01,10.75-8.2,10.73-13.27,0-1.37-.64-2.6-2.24-2.59-1.77,0-2.9,1.49-2.89,3.45,.02,4.41,4.9,10.28,9.44,13.62,1.87,1.39,3.68,2.36,5.21,2.78l-.79,2.47c-1.89-.51-4.02-1.6-6.19-3.27-5.2-3.99-10.21-10.54-10.23-15.55-.01-3.16,2.16-5.62,5.42-5.63,2.93-.01,4.65,1.91,4.67,4.66,.03,6.06-10.29,7.95-10.26,13.14,.01,2.62,2.08,4.35,4.68,4.34,1.97,0,3.85-1.15,5.4-2.8,1.93-2.1,3.34-4.82,4.21-8.05h2.75c-1.02,3.52-2.6,6.78-4.89,9.46-1.98,2.21-4.48,3.74-7.79,3.75-4.28,.02-7.21-2.71-7.23-6.51Z" style="fill:#1a171b;"/><path d="M422.06,697.65l13.56-1.3,.24,2.53-10.56,1.01,.71,7.37,8.91-.85,.24,2.53-8.91,.85,.82,8.55,10.92-1.04,.24,2.53-13.92,1.33-2.25-23.52Z" style="fill:#1a171b;"/><path d="M440.34,695.78l3.06-.51,10.87,13.25,3.32,4.41,.14-.02c-.54-2.33-1.21-4.92-1.61-7.35l-2-12.06,2.82-.47,3.87,23.31-3.06,.51-10.87-13.26-3.32-4.39-.14,.02c.54,2.33,1.18,4.78,1.59,7.22l2.03,12.2-2.82,.47-3.87-23.3Z" style="fill:#1a171b;"/><path d="M464.13,703.65c-1.81-7.4,1.54-13,7.63-14.49,3.18-.78,5.63,.16,7.31,1.22l-1.14,2.29c-1.46-.92-3.16-1.52-5.47-.96-4.62,1.13-6.73,5.41-5.33,11.12,1.41,5.77,5.02,8.72,9.92,7.53,1.65-.4,3.11-1.28,3.81-2.36l-1.46-5.98-4.86,1.18-.59-2.42,7.52-1.83,2.35,9.65c-1.1,1.9-3.34,3.64-6.42,4.39-6.06,1.48-11.44-1.89-13.26-9.35Z" style="fill:#1a171b;"/><path d="M483.74,686.36l2.88-.86,6.77,22.64-2.88,.86-6.77-22.64Z" style="fill:#1a171b;"/><path d="M492.37,683.8l2.92-1.05,13.06,11.1,4.05,3.75,.13-.05c-.95-2.19-2.06-4.62-2.89-6.95l-4.12-11.51,2.69-.96,7.97,22.25-2.92,1.05-13.06-11.11-4.05-3.73-.14,.05c.95,2.2,2.02,4.5,2.85,6.82l4.17,11.64-2.69,.96-7.97-22.25Z" style="fill:#1a171b;"/><path d="M513.97,675.64l12.56-5.25,.98,2.35-9.79,4.09,2.86,6.83,8.26-3.45,.98,2.35-8.26,3.45,3.31,7.92,10.12-4.23,.98,2.35-12.9,5.39-9.12-21.8Z" style="fill:#1a171b;"/><path d="M530.53,668.32l12.12-6.2,1.16,2.26-9.45,4.83,3.37,6.59,7.97-4.08,1.16,2.27-7.97,4.08,3.91,7.65,9.77-5,1.16,2.27-12.44,6.37-10.76-21.04Z" style="fill:#1a171b;"/><path d="M546.86,659.79l6.36-3.78c4.13-2.46,7.99-2.74,10.5,1.49,2.41,4.06,.6,7.78-3.53,10.24l-3.78,2.25,5.11,8.58-2.58,1.54-12.08-20.3Zm11.72,6.06c3.16-1.88,4.14-4.19,2.57-6.83-1.59-2.67-3.89-2.58-7.05-.71l-3.4,2.03,4.48,7.53,3.4-2.03Zm.69,1.47l1.23-2.54,12.52,6.94-2.93,1.74-10.82-6.14Z" style="fill:#1a171b;"/><path d="M563.95,649.29l2.51-1.66,13.06,19.69-2.51,1.66-13.06-19.69Z" style="fill:#1a171b;"/><path d="M571.49,644.32l2.49-1.85,15.73,6.82,4.96,2.41,.12-.09c-1.54-1.82-3.32-3.82-4.79-5.81l-7.29-9.82,2.29-1.7,14.1,18.96-2.49,1.85-15.73-6.83-4.96-2.39-.12,.08c1.55,1.83,3.24,3.71,4.71,5.7l7.38,9.92-2.29,1.7-14.1-18.96Z" style="fill:#1a171b;"/><path d="M596.23,640.46c-4.99-5.76-4.57-12.27,.17-16.37,2.47-2.14,5.08-2.43,7.06-2.26l.04,2.56c-1.71-.15-3.51,.09-5.3,1.65-3.6,3.12-3.52,7.89,.34,12.33,3.89,4.49,8.45,5.46,12.26,2.16,1.28-1.11,2.18-2.56,2.31-3.84l-4.03-4.65-3.78,3.28-1.63-1.88,5.85-5.07,6.5,7.51c-.11,2.19-1.31,4.76-3.71,6.84-4.71,4.08-11.05,3.55-16.07-2.25Z" style="fill:#1a171b;"/><path d="M658.41,587.07l-.69-2.65c2.42-.41,4.71-1.7,6.1-3.72,1.75-2.56,1.51-4.95-.38-6.25-1.99-1.36-3.59-.39-5.66,.91l-3.15,1.95c-2.02,1.29-4.85,2.47-7.72,.51-2.98-2.04-3.4-6.14-.97-9.68,1.58-2.31,3.99-3.69,6.35-4.09l.69,2.41c-1.95,.42-3.62,1.37-4.86,3.17-1.5,2.19-1.38,4.39,.36,5.58,1.88,1.29,3.75,.07,5.44-1.02l3.1-1.96c2.51-1.59,5.06-2.43,7.96-.45,3.08,2.11,3.8,6.34,.99,10.44-1.87,2.74-4.62,4.35-7.56,4.84Z" style="fill:#1a171b;"/><path d="M664.74,565.71l-11.96-7.03,1.52-2.59,12.03,7.07c4.9,2.88,7.65,1.71,9.21-.95,1.59-2.7,1.3-5.74-3.6-8.61l-12.03-7.07,1.46-2.48,11.96,7.03c6.54,3.84,6.93,8.32,4.49,12.48s-6.55,6-13.09,2.16Z" style="fill:#1a171b;"/><path d="M681.52,549.99l-1.04-2.53c2.34-.73,4.44-2.32,5.53-4.52,1.39-2.77,.83-5.11-1.23-6.13-2.16-1.08-3.61,.11-5.48,1.67l-2.86,2.37c-1.83,1.55-4.47,3.11-7.58,1.56-3.23-1.61-4.2-5.62-2.28-9.46,1.25-2.5,3.45-4.2,5.73-4.91l1.02,2.29c-1.87,.68-3.4,1.85-4.38,3.81-1.18,2.37-.77,4.54,1.12,5.48,2.04,1.02,3.72-.44,5.25-1.75l2.81-2.36c2.27-1.92,4.69-3.1,7.83-1.53,3.34,1.67,4.63,5.76,2.41,10.21-1.48,2.96-3.98,4.94-6.83,5.82Z" style="fill:#1a171b;"/><path d="M676.09,519.56l-2.81,6.57-2.34-1,6.79-15.91,2.34,1-2.81,6.57,19.39,8.28-1.18,2.76-19.39-8.28Z" style="fill:#1a171b;"/><path d="M680.15,502.51l1.15-3.19,24.94,.48-1.08,3-13.81-.59c-2.77-.09-5.47-.26-8.29-.47l-.05,.13c2.33,1.62,4.5,3.2,6.7,4.9l11.01,8.39-1.04,2.88-19.53-15.52Zm11.92,8.32l3.68-10.24,2.26,.81-3.68,10.24-2.26-.81Z" style="fill:#1a171b;"/><path d="M684.71,489.08l.88-2.87,22.58,6.95-.88,2.87-22.58-6.95Z" style="fill:#1a171b;"/><path d="M687.39,480.47l.75-3.01,16.48-4.68,5.37-1.29,.04-.14c-2.35-.43-4.99-.86-7.38-1.46l-11.86-2.97,.69-2.77,22.92,5.74-.75,3.01-16.5,4.68-5.35,1.29-.04,.14c2.36,.43,4.86,.82,7.25,1.42l11.99,3-.69,2.77-22.92-5.74Z" style="fill:#1a171b;"/><path d="M693.5,453.58l.59-3.34,24.66-3.73-.56,3.14-13.71,1.75c-2.75,.37-5.44,.66-8.25,.93l-.03,.14c2.57,1.2,4.98,2.4,7.43,3.7l12.26,6.41-.54,3.01-21.87-12Zm13.15,6.19l1.9-10.71,2.36,.42-1.9,10.71-2.36-.42Z" style="fill:#1a171b;"/><path d="M695.79,439.74l.77-6.97c.53-4.78,2.52-7.9,6.64-7.44,2.32,.26,4.25,1.72,4.72,4l.14,.02c.86-2.75,2.93-4.51,6.15-4.16,4.61,.51,6.47,4.41,5.89,9.65l-.83,7.51-23.49-2.59Zm10.71-5.36c.44-3.99-.85-5.81-3.23-6.07-2.74-.3-3.97,1.46-4.38,5.1l-.4,3.61,7.62,.84,.38-3.48Zm11.19,.62c.44-4.02-.74-6.54-3.91-6.89-2.89-.32-4.47,1.81-4.92,5.92l-.45,4.09,8.83,.98,.45-4.09Z" style="fill:#1a171b;"/><path d="M697.81,419.21l.14-3,21.06,.99,.48-10.3,2.54,.12-.62,13.3-23.6-1.1Z" style="fill:#1a171b;"/><path d="M698.45,402.23l-.18-13.62,2.54-.03,.14,10.61,7.4-.1-.12-8.95,2.54-.03,.12,8.95,8.59-.11-.14-10.97,2.54-.03,.18,13.98-23.63,.31Z" style="fill:#1a171b;"/><path d="M697.61,376.86l-.62-5.88c-.75-7.22,3.04-11.54,10.5-12.32,7.47-.78,12.24,2.63,12.98,9.73l.63,6.01-23.5,2.46Zm20.45-7.86c-.57-5.49-4.3-7.87-10.24-7.25-5.94,.62-8.92,3.7-8.35,9.2l.28,2.67,18.59-1.95-.28-2.67Z" style="fill:#1a171b;"/><path d="M695.12,355.44l-2.33-13.42,2.51-.43,1.81,10.45,7.29-1.26-1.53-8.82,2.51-.43,1.53,8.82,8.46-1.47-1.87-10.81,2.51-.43,2.39,13.77-23.28,4.04Z" style="fill:#1a171b;"/><path d="M712.17,334.18l-2.42-1.27c1.32-2.06,1.9-4.63,1.33-7.02-.72-3.02-2.65-4.44-4.88-3.91-2.35,.56-2.7,2.4-3.13,4.8l-.67,3.65c-.4,2.36-1.43,5.26-4.81,6.07-3.51,.84-6.83-1.6-7.83-5.78-.65-2.72-.05-5.44,1.23-7.45l2.25,1.1c-.99,1.72-1.42,3.61-.91,5.73,.62,2.58,2.32,3.97,4.38,3.48,2.21-.53,2.56-2.73,2.89-4.71l.63-3.61c.51-2.93,1.6-5.39,5.01-6.2,3.63-.87,7.25,1.44,8.4,6.27,.77,3.22,.12,6.34-1.49,8.85Z" style="fill:#1a171b;"/><path d="M687.16,319.03l-.83-2.89,22.7-6.56,.83,2.89-22.7,6.56Z" style="fill:#1a171b;"/><path d="M696.29,307.78c-7.2,2.49-13.09-.32-15.14-6.24-1.07-3.09-.37-5.62,.53-7.39l2.39,.92c-.78,1.54-1.22,3.29-.44,5.53,1.56,4.5,6.01,6.2,11.58,4.27,5.61-1.94,8.21-5.81,6.57-10.58-.55-1.6-1.57-2.98-2.7-3.57l-5.82,2.01,1.64,4.73-2.35,.81-2.53-7.32,9.39-3.25c1.99,.92,3.94,2.99,4.97,5.99,2.04,5.89-.82,11.57-8.07,14.08Z" style="fill:#1a171b;"/><path d="M677.28,289.87l-1.2-2.86,10.4-13.62,3.53-4.24-.06-.13c-2.14,1.06-4.51,2.3-6.79,3.25l-11.28,4.72-1.1-2.63,21.8-9.12,1.2,2.87-10.42,13.62-3.52,4.24,.06,.13c2.15-1.06,4.38-2.25,6.66-3.2l11.41-4.77,1.1,2.64-21.8,9.11Z" style="fill:#1a171b;"/><path d="M681.51,256.47c-6.15,3.37-12.33-5.54-16.78-3.11-1.2,.66-1.98,1.8-1.21,3.21,.85,1.55,2.69,1.84,4.41,.89,3.87-2.12,6.7-9.21,7.47-14.79,.33-2.31,.31-4.36-.04-5.91l2.55-.48c.45,1.9,.51,4.3,.08,6.99-1.03,6.47-4.4,14-8.79,16.4-2.77,1.52-5.97,.78-7.54-2.08-1.41-2.57-.54-5,1.87-6.32,5.32-2.91,11.89,5.25,16.44,2.76,2.3-1.26,2.83-3.9,1.58-6.18-.95-1.73-2.85-2.83-5.04-3.41-2.77-.69-5.83-.64-9.08,.14l-1.32-2.41c3.59-.79,7.21-.96,10.65-.22,2.88,.68,5.42,2.16,7.02,5.06,2.05,3.75,1.06,7.63-2.28,9.46Z" style="fill:#1a171b;"/><path d="M650.97,238.54l-7.6-11.31,2.11-1.42,5.92,8.81,6.15-4.13-4.99-7.43,2.11-1.42,4.99,7.43,7.13-4.79-6.12-9.11,2.11-1.42,7.8,11.61-19.62,13.18Z" style="fill:#1a171b;"/><path d="M640.61,223.34l-1.91-2.45,6.48-15.87,2.3-5.02-.09-.11c-1.79,1.58-3.75,3.4-5.7,4.92l-9.66,7.5-1.75-2.25,18.66-14.5,1.9,2.45-6.49,15.88-2.29,5.01,.09,.11c1.79-1.59,3.64-3.32,5.59-4.83l9.76-7.59,1.75,2.25-18.66,14.5Z" style="fill:#1a171b;"/><path d="M636.21,198.67c-5.65,5.11-12.17,4.83-16.37,.19-2.2-2.43-2.54-5.02-2.41-7.01l2.56-.09c-.11,1.72,.17,3.51,1.76,5.27,3.2,3.53,7.96,3.34,12.32-.61,4.4-3.99,5.28-8.57,1.89-12.3-1.14-1.26-2.61-2.12-3.89-2.22l-4.56,4.13,3.36,3.71-1.85,1.67-5.2-5.74,7.36-6.67c2.19,.06,4.79,1.2,6.92,3.56,4.18,4.62,3.79,10.97-1.9,16.12Z" style="fill:#1a171b;"/><path d="M611.68,189.68l-2.13-2.12,16.67-16.74,2.13,2.12-16.67,16.74Z" style="fill:#1a171b;"/><path d="M605.3,183.29l-2.32-2.07,3.52-16.77,1.36-5.35-.11-.1c-1.48,1.88-3.08,4.02-4.72,5.86l-8.15,9.12-2.13-1.9,15.74-17.62,2.32,2.07-3.53,16.78-1.35,5.34,.11,.1c1.48-1.88,2.99-3.92,4.63-5.76l8.24-9.22,2.13,1.9-15.74,17.62Z" style="fill:#1a171b;"/><path d="M588.19,168.37l-10.75-8.36,1.56-2.01,8.38,6.51,4.54-5.85-7.07-5.49,1.56-2.01,7.07,5.49,5.27-6.78-8.66-6.73,1.56-2.01,11.04,8.58-14.5,18.66Z" style="fill:#1a171b;"/><path d="M573.51,157.19l-11.25-7.68,1.43-2.1,8.77,5.98,4.17-6.12-7.39-5.04,1.43-2.1,7.39,5.04,4.84-7.1-9.06-6.18,1.43-2.1,11.55,7.88-13.31,19.52Z" style="fill:#1a171b;"/><path d="M558.21,146.96l-6.37-3.77c-4.14-2.45-6.23-5.7-3.73-9.93,2.4-4.06,6.53-4.26,10.67-1.81l3.78,2.24,5.08-8.59,2.59,1.53-12.03,20.33Zm-.29-13.19c-3.16-1.87-5.66-1.62-7.22,1.01-1.58,2.68-.4,4.66,2.76,6.53l3.41,2.02,4.46-7.54-3.41-2.02Zm.96-1.31l-2.82,.14,.09-14.31,2.93,1.74-.21,12.44Z" style="fill:#1a171b;"/><path d="M540.79,136.97l-2.66-1.4,11.03-20.89,2.66,1.4-11.03,20.89Z" style="fill:#1a171b;"/><path d="M532.82,132.74l-2.82-1.3-1.54-17.07-.27-5.51-.13-.06c-.86,2.23-1.77,4.74-2.8,6.98l-5.13,11.1-2.59-1.2,9.9-21.45,2.82,1.3,1.53,17.08,.27,5.5,.13,.06c.86-2.23,1.71-4.62,2.75-6.86l5.18-11.22,2.59,1.2-9.9,21.45Z" style="fill:#1a171b;"/><path d="M517.59,112.86c-2.68,7.13-8.6,9.88-14.46,7.68-3.07-1.15-4.56-3.3-5.36-5.12l2.23-1.25c.69,1.58,1.76,3.04,3.98,3.87,4.46,1.67,8.61-.68,10.67-6.19,2.09-5.56,.76-10.03-3.96-11.8-1.59-.6-3.29-.69-4.47-.2l-2.16,5.76,4.68,1.76-.88,2.33-7.25-2.72,3.49-9.3c1.98-.95,4.81-1.13,7.78,0,5.84,2.19,8.39,8.01,5.7,15.19Z" style="fill:#1a171b;"/><path d="M441.04,83.63l-2,1.86c-1.51-1.93-3.73-3.33-6.18-3.59-3.08-.33-5.07,1.02-5.31,3.3-.25,2.4,1.37,3.34,3.49,4.55l3.22,1.84c2.09,1.16,4.49,3.09,4.12,6.55-.38,3.59-3.78,5.91-8.05,5.46-2.79-.29-5.14-1.76-6.61-3.64l1.79-1.75c1.3,1.51,2.93,2.54,5.1,2.76,2.63,.28,4.52-.87,4.74-2.97,.24-2.26-1.72-3.33-3.48-4.3l-3.2-1.8c-2.6-1.45-4.55-3.3-4.18-6.79,.39-3.71,3.77-6.36,8.71-5.83,3.3,.35,6.02,1.99,7.85,4.35Z" style="fill:#1a171b;"/><path d="M419.23,88.22l-.49,13.86-3-.11,.49-13.95c.2-5.67-2.13-7.54-5.22-7.65-3.13-.11-5.66,1.59-5.86,7.26l-.49,13.95-2.88-.1,.49-13.86c.27-7.58,4.02-10.05,8.84-9.88s8.39,2.9,8.13,10.48Z" style="fill:#1a171b;"/><path d="M397.39,80.96l-1.73,2.12c-1.76-1.71-4.16-2.79-6.61-2.71-3.1,.1-4.88,1.71-4.81,4,.08,2.41,1.82,3.12,4.08,4.02l3.44,1.38c2.23,.87,4.87,2.45,4.98,5.92,.12,3.61-2.94,6.37-7.23,6.51-2.8,.09-5.33-1.04-7.05-2.7l1.53-1.98c1.49,1.32,3.25,2.11,5.43,2.04,2.65-.09,4.36-1.48,4.29-3.59-.08-2.27-2.16-3.06-4.04-3.78l-3.41-1.34c-2.77-1.08-4.96-2.64-5.07-6.15-.12-3.73,2.86-6.81,7.82-6.98,3.31-.11,6.24,1.15,8.38,3.23Z" style="fill:#1a171b;"/><path d="M373.24,100.24l7.12-.67,.24,2.53-17.23,1.62-.24-2.53,7.12-.67-1.98-20.99,2.99-.28,1.98,20.99Z" style="fill:#1a171b;"/><path d="M356.3,104.82l-3.35,.52-11.51-22.13,3.15-.49,6.09,12.41c1.24,2.48,2.39,4.93,3.55,7.51l.14-.02c.3-2.82,.66-5.49,1.1-8.23l2.1-13.68,3.02-.47-4.29,24.57Zm1.6-14.45l-10.75,1.66-.37-2.37,10.75-1.66,.37,2.37Z" style="fill:#1a171b;"/><path d="M342.33,107.24l-2.95,.6-4.71-23.16,2.95-.6,4.71,23.16Z" style="fill:#1a171b;"/><path d="M333.5,109.01l-3.01,.78-12.01-12.22-3.7-4.09-.14,.04c.75,2.27,1.64,4.79,2.26,7.18l3.08,11.84-2.76,.72-5.94-22.87,3-.78,12.02,12.24,3.7,4.08,.14-.04c-.75-2.28-1.61-4.66-2.23-7.05l-3.11-11.97,2.76-.72,5.94,22.87Z" style="fill:#1a171b;"/><path d="M307.01,116.52l-3.22,1.08-15.1-19.85,3.02-1.01,8.11,11.2c1.64,2.23,3.19,4.45,4.78,6.8l.14-.05c-.18-2.83-.28-5.52-.32-8.29l-.25-13.83,2.9-.97-.06,24.94Zm-.87-14.51l-10.31,3.46-.76-2.27,10.31-3.46,.76,2.27Z" style="fill:#1a171b;"/><path d="M293.76,121.15l-6.49,2.66c-4.45,1.83-8.14,1.57-9.72-2.27-.89-2.16-.52-4.55,1.25-6.06l-.05-.13c-2.82,.56-5.37-.42-6.59-3.41-1.76-4.3,.78-7.79,5.65-9.79l6.99-2.87,8.97,21.86Zm-14.65-16.95c-3.74,1.53-5.39,3.78-4.18,6.73,1.11,2.69,3.73,3.06,7.55,1.49l3.81-1.56-3.37-8.22-3.81,1.56Zm4.82,10.12c-3.72,1.53-4.69,3.53-3.79,5.75,1.05,2.55,3.19,2.79,6.57,1.4l3.36-1.38-2.91-7.1-3.24,1.33Z" style="fill:#1a171b;"/><path d="M274.74,129.2l-2.71,1.31-9.19-18.98-9.28,4.49-1.11-2.29,11.99-5.8,10.3,21.27Z" style="fill:#1a171b;"/><path d="M259.52,136.74l-11.88,6.65-1.24-2.22,9.26-5.18-3.61-6.46-7.81,4.37-1.24-2.22,7.81-4.37-4.19-7.5-9.58,5.35-1.24-2.22,12.2-6.82,11.53,20.62Z" style="fill:#1a171b;"/><path d="M237.59,149.59l-4.88,3.34c-6,4.1-11.6,2.82-15.84-3.38-4.24-6.2-3.51-12.02,2.38-16.05l4.99-3.41,13.35,19.5Zm-16.65-14.25c-4.56,3.12-4.88,7.53-1.5,12.46,3.38,4.93,7.51,6.09,12.07,2.97l2.21-1.51-10.56-15.43-2.21,1.51Z" style="fill:#1a171b;"/><path d="M219.96,161.97l-10.69,8.44-1.58-2,8.33-6.58-4.59-5.81-7.03,5.54-1.58-2,7.03-5.54-5.32-6.75-8.62,6.8-1.58-2,10.98-8.66,14.64,18.55Z" style="fill:#1a171b;"/><path d="M193.15,157.08l.04,2.74c-2.45-.18-4.98,.53-6.81,2.17-2.31,2.07-2.65,4.45-1.12,6.16,1.61,1.8,3.4,1.23,5.71,.46l3.53-1.15c2.27-.77,5.31-1.25,7.62,1.34,2.41,2.69,1.84,6.77-1.35,9.64-2.09,1.87-4.76,2.63-7.13,2.46l-.1-2.5c1.99,.05,3.85-.47,5.47-1.93,1.97-1.77,2.39-3.94,.98-5.51-1.52-1.7-3.62-.95-5.52-.3l-3.48,1.16c-2.82,.95-5.5,1.16-7.84-1.46-2.49-2.78-2.19-7.06,1.52-10.38,2.47-2.21,5.52-3.13,8.5-2.9Z" style="fill:#1a171b;"/><path d="M191.74,186.28l-2.14,2.11-16.57-16.83,2.14-2.11,16.57,16.83Z" style="fill:#1a171b;"/><path d="M177.49,183.63c5.62,5.14,5.96,11.66,1.73,16.28-2.21,2.42-4.76,3-6.75,3.06l-.33-2.54c1.72-.05,3.48-.5,5.08-2.25,3.21-3.51,2.58-8.24-1.76-12.21-4.38-4.01-9.03-4.45-12.43-.73-1.14,1.25-1.87,2.8-1.85,4.08l4.54,4.15,3.38-3.69,1.84,1.68-5.23,5.72-7.33-6.71c-.14-2.19,.75-4.88,2.89-7.23,4.21-4.6,10.56-4.8,16.23,.38Z" style="fill:#1a171b;"/><path d="M170.87,208.68l-1.92,2.44-16.96-2.46-5.42-1.02-.09,.11c1.97,1.35,4.2,2.82,6.15,4.35l9.61,7.56-1.76,2.24-18.57-14.6,1.92-2.44,16.97,2.47,5.41,1.01,.09-.11c-1.97-1.36-4.1-2.73-6.04-4.26l-9.72-7.64,1.76-2.24,18.57,14.6Z" style="fill:#1a171b;"/><path d="M139.42,221.2c5.9,3.78,1.05,13.48,5.32,16.22,1.16,.74,2.53,.88,3.4-.48,.95-1.49,.33-3.24-1.33-4.3-3.71-2.38-11.29-1.47-16.57,.54-2.18,.82-3.98,1.81-5.17,2.87l-1.64-2.01c1.46-1.3,3.53-2.51,6.1-3.42,6.17-2.2,14.4-2.85,18.61-.15,2.66,1.7,3.55,4.86,1.79,7.62-1.58,2.46-4.13,2.87-6.45,1.39-5.11-3.27-1.09-12.95-5.46-15.75-2.21-1.42-4.78-.61-6.19,1.58-1.06,1.66-1.12,3.86-.58,6.05,.72,2.76,2.24,5.42,4.48,7.9l-1.48,2.32c-2.41-2.77-4.29-5.87-5.3-9.25-.78-2.86-.71-5.79,1.08-8.58,2.31-3.6,6.19-4.59,9.39-2.54Z" style="fill:#1a171b;"/><path d="M138.32,256.6l-6.28,12.08-2.26-1.17,4.9-9.42-6.57-3.42-4.13,7.94-2.26-1.17,4.13-7.94-7.62-3.96-5.06,9.74-2.26-1.17,6.45-12.4,20.96,10.9Z" style="fill:#1a171b;"/><path d="M129.93,273l-1.24,2.85-17.03,1.9-5.5,.38-.06,.13c2.24,.81,4.78,1.67,7.04,2.65l11.21,4.89-1.14,2.62-21.66-9.44,1.24-2.85,17.04-1.9,5.49-.39,.06-.13c-2.25-.82-4.65-1.61-6.92-2.6l-11.33-4.94,1.14-2.62,21.66,9.44Z" style="fill:#1a171b;"/><path d="M110.38,288.66c7.19,2.52,10.06,8.39,7.98,14.3-1.08,3.09-3.2,4.63-5.01,5.46l-1.3-2.2c1.56-.72,3-1.82,3.79-4.06,1.58-4.49-.86-8.59-6.42-10.54-5.61-1.97-10.05-.55-11.72,4.21-.56,1.6-.62,3.31-.1,4.48l5.81,2.04,1.66-4.72,2.35,.83-2.56,7.31-9.37-3.29c-.99-1.96-1.23-4.79-.18-7.78,2.06-5.88,7.83-8.56,15.07-6.02Z" style="fill:#1a171b;"/><path d="M114.19,314.51l-.85,2.88-22.67-6.67,.85-2.88,22.67,6.67Z" style="fill:#1a171b;"/><path d="M111.62,323.16l-.72,3.02-16.43,4.89-5.35,1.35-.03,.14c2.35,.4,5,.79,7.4,1.36l11.9,2.83-.66,2.78-22.99-5.46,.72-3.02,16.44-4.89,5.34-1.35,.03-.14c-2.36-.41-4.87-.76-7.27-1.33l-12.03-2.86,.66-2.78,22.99,5.46Z" style="fill:#1a171b;"/><path d="M106.64,345.33l-2.23,13.44-2.51-.42,1.74-10.47-7.3-1.21-1.46,8.83-2.51-.42,1.46-8.83-8.47-1.41-1.79,10.82-2.51-.42,2.29-13.79,23.31,3.86Z" style="fill:#1a171b;"/><path d="M103.81,363.55l-1.39,13.55-2.53-.26,1.08-10.56-7.37-.76-.91,8.91-2.53-.26,.91-8.91-8.54-.88-1.12,10.92-2.53-.26,1.43-13.91,23.5,2.41Z" style="fill:#1a171b;"/><path d="M89.02,388.22l1.46,2.41-12.63,6.73,.13-3.41,11.04-5.74Zm13.07-6.31l-.28,7.39c-.18,4.81-2.04,8.2-6.96,8.01-4.72-.18-6.85-3.72-6.67-8.53l.17-4.39-9.98-.38,.12-3,23.61,.9Zm-11.46,6.54c-.14,3.67,1.27,5.75,4.33,5.87,3.11,.12,4.29-1.86,4.43-5.54l.15-3.96-8.76-.33-.15,3.96Z" style="fill:#1a171b;"/><path d="M101.6,401.95l.03,3.01-23.62,.26-.03-3.01,23.62-.26Z" style="fill:#1a171b;"/><path d="M101.68,410.96l.2,3.1-14.27,9.49-4.72,2.86v.14c2.38-.31,5.02-.71,7.49-.87l12.2-.79,.19,2.85-23.57,1.53-.2-3.1,14.28-9.49,4.7-2.86v-.14c-2.38,.3-4.88,.7-7.35,.86l-12.34,.8-.19-2.85,23.57-1.53Z" style="fill:#1a171b;"/><path d="M91.48,433.85c7.54-1.06,12.78,2.83,13.66,9.03,.46,3.24-.71,5.58-1.94,7.15l-2.17-1.36c1.06-1.36,1.83-3,1.5-5.35-.66-4.71-4.71-7.23-10.54-6.41-5.88,.83-9.17,4.13-8.47,9.12,.24,1.68,.96,3.22,1.97,4.02l6.09-.86-.7-4.95,2.47-.35,1.08,7.67-9.83,1.38c-1.78-1.28-3.29-3.68-3.73-6.83-.87-6.17,3.02-11.2,10.62-12.27Z" style="fill:#1a171b;"/></g><g><path d="M252.12,87l.93-2.98c2.58,1.06,5.58,1.19,8.14,.06,3.23-1.42,4.44-3.88,3.38-6.27-1.11-2.51-3.25-2.53-6.02-2.52h-4.22c-2.73,.03-6.19-.52-7.78-4.14-1.66-3.76,.4-7.98,4.87-9.95,2.92-1.29,6.08-1.17,8.6-.15l-.77,2.75c-2.14-.76-4.33-.85-6.61,.16-2.76,1.22-3.98,3.42-3.01,5.62,1.05,2.37,3.58,2.31,5.87,2.28l4.18-.03c3.39-.03,6.36,.69,7.98,4.35,1.72,3.89-.13,8.42-5.31,10.7-3.46,1.52-7.08,1.44-10.23,.14Z" style="fill:#1a171b;"/><path d="M271.12,70.5l-5.35-14.86,3.22-1.16,5.38,14.95c2.19,6.08,5.45,7.07,8.76,5.88,3.35-1.21,5.31-4.07,3.12-10.16l-5.38-14.95,3.09-1.11,5.35,14.86c2.92,8.12,0,12.33-5.16,14.19-5.17,1.86-10.1,.48-13.03-7.64Z" style="fill:#1a171b;"/><path d="M296.29,69.71l1.33-2.82c2.41,1.4,5.36,1.94,8.05,1.18,3.4-.97,4.93-3.23,4.21-5.74-.75-2.64-2.87-2.95-5.61-3.32l-4.18-.58c-2.7-.34-6.05-1.37-7.13-5.17-1.12-3.95,1.49-7.85,6.19-9.19,3.07-.87,6.18-.32,8.53,1.04l-1.14,2.61c-2.01-1.05-4.17-1.44-6.56-.76-2.9,.83-4.41,2.84-3.75,5.15,.71,2.49,3.23,2.78,5.5,3.06l4.14,.55c3.36,.44,6.21,1.55,7.3,5.4,1.16,4.09-1.29,8.31-6.73,9.86-3.63,1.03-7.21,.45-10.14-1.27Z" style="fill:#1a171b;"/><path d="M319.38,42.42l-7.95,1.75-.62-2.83,19.24-4.22,.62,2.83-7.95,1.75,5.15,23.45-3.34,.73-5.15-23.45Z" style="fill:#1a171b;"/><path d="M339.82,35.49l3.82-.61,13.21,25.15-3.58,.57-6.99-14.11c-1.43-2.82-2.74-5.6-4.08-8.53l-.16,.03c-.33,3.21-.73,6.25-1.21,9.37l-2.33,15.59-3.44,.55,4.78-28Zm-1.76,16.46l12.24-1.94,.43,2.7-12.24,1.94-.43-2.7Z" style="fill:#1a171b;"/><path d="M357.18,33.07l3.4-.38,2.96,26.75-3.4,.38-2.96-26.75Z" style="fill:#1a171b;"/><path d="M368.98,31.78l3.53-.2,10.69,16.33,3.22,5.4h.16c-.33-2.71-.76-5.72-.93-8.53l-.8-13.91,3.25-.19,1.54,26.87-3.53,.2-10.69-16.35-3.22-5.38h-.16c.33,2.72,.75,5.57,.92,8.38l.81,14.06-3.25,.19-1.54-26.87Z" style="fill:#1a171b;"/><path d="M402.48,30.61l3.86,.06,8.66,27.06-3.63-.06-4.45-15.11c-.92-3.02-1.73-5.99-2.54-9.11h-.16c-.88,3.1-1.8,6.03-2.81,9.02l-4.99,14.95-3.48-.06,9.54-26.76Zm-4.58,15.91l12.39,.2-.04,2.73-12.39-.2,.04-2.73Z" style="fill:#1a171b;"/><path d="M420.3,31.07l7.96,.61c5.46,.42,9.09,2.56,8.72,7.28-.2,2.65-1.8,4.9-4.37,5.52v.16c3.14,.88,5.23,3.17,4.95,6.84-.41,5.27-4.78,7.53-10.76,7.07l-8.57-.66,2.06-26.83Zm6.23,24.74c4.59,.35,7.42-1.09,7.7-4.71,.25-3.31-2.23-5.02-6.92-5.38l-4.67-.36-.78,10.08,4.67,.36Zm.28-12.76c4.56,.35,6.58-1.19,6.79-3.91,.24-3.13-1.82-4.47-5.97-4.79l-4.13-.32-.67,8.71,3.97,.31Z" style="fill:#1a171b;"/><path d="M445.58,33.35l3.39,.48-3.34,23.78,11.63,1.63-.4,2.87-15.02-2.11,3.75-26.65Z" style="fill:#1a171b;"/><path d="M466.46,36.52l15.21,3.07-.57,2.84-11.85-2.39-1.67,8.27,9.99,2.02-.57,2.84-9.99-2.02-1.94,9.59,12.25,2.47-.57,2.84-15.61-3.15,5.33-26.38Z" style="fill:#1a171b;"/><path d="M497.34,43.47l6.45,1.93c7.93,2.37,10.8,8.25,8.36,16.44-2.45,8.19-8.13,11.72-15.91,9.39l-6.6-1.97,7.7-25.79Zm-.69,24.95c6.03,1.8,10.16-1.08,12.11-7.6,1.95-6.52,.01-11.01-6.01-12.81l-2.93-.87-6.09,20.41,2.93,.87Z" style="fill:#1a171b;"/><path d="M522.68,51.41l14.53,5.43-1.01,2.71-11.32-4.23-2.95,7.9,9.55,3.57-1.01,2.71-9.55-3.57-3.43,9.16,11.71,4.38-1.02,2.71-14.91-5.58,9.42-25.21Z" style="fill:#1a171b;"/><path d="M532.68,80.25l2.83-1.31c.95,2.63,2.86,4.93,5.42,6.07,3.22,1.44,5.85,.69,6.92-1.7,1.12-2.51-.3-4.1-2.17-6.15l-2.83-3.13c-1.85-2-3.76-4.94-2.15-8.55,1.68-3.75,6.19-5.06,10.65-3.06,2.91,1.3,4.94,3.72,5.87,6.28l-2.56,1.27c-.87-2.09-2.28-3.78-4.55-4.8-2.75-1.23-5.2-.66-6.18,1.54-1.06,2.37,.69,4.21,2.25,5.88l2.82,3.08c2.3,2.49,3.76,5.18,2.12,8.83-1.74,3.88-6.33,5.55-11.49,3.24-3.45-1.54-5.82-4.29-6.96-7.49Z" style="fill:#1a171b;"/><path d="M564.72,69.29l3.06,1.54-12.13,24.02-3.06-1.54,12.13-24.02Z" style="fill:#1a171b;"/><path d="M567.23,85.58c4.31-7.54,11.46-9.54,17.66-6,3.24,1.85,4.53,4.54,5.09,6.73l-2.73,1c-.49-1.9-1.42-3.74-3.77-5.08-4.71-2.69-9.8-.8-13.12,5.02-3.36,5.87-2.68,11.14,2.3,13.99,1.68,.96,3.57,1.38,4.99,1.03l3.48-6.08-4.95-2.83,1.41-2.46,7.66,4.38-5.61,9.82c-2.4,.71-5.61,.39-8.75-1.4-6.16-3.52-7.98-10.53-3.64-18.12Z" style="fill:#1a171b;"/><path d="M598.37,88.2l2.93,1.98-1.39,19.48-.71,6.24,.14,.09c1.38-2.35,2.85-5.01,4.43-7.34l7.79-11.55,2.7,1.82-15.05,22.31-2.93-1.98,1.4-19.49,.7-6.23-.14-.09c-1.38,2.35-2.77,4.88-4.34,7.21l-7.88,11.68-2.7-1.82,15.05-22.31Z" style="fill:#1a171b;"/><path d="M613.74,123.32c5.08-6.16,15.39,.67,19.07-3.79,1-1.21,1.34-2.74-.07-3.91-1.55-1.28-3.62-.81-5.05,.92-3.2,3.87-3.21,12.57-1.67,18.8,.62,2.58,1.51,4.75,2.53,6.23l-2.49,1.58c-1.27-1.82-2.35-4.33-3.03-7.36-1.64-7.28-1.24-16.67,2.38-21.06,2.29-2.77,5.98-3.34,8.85-.97,2.57,2.12,2.68,5.07,.69,7.48-4.4,5.32-14.79-.54-18.56,4.02-1.9,2.3-1.35,5.32,.93,7.21,1.73,1.43,4.21,1.79,6.76,1.48,3.22-.43,6.43-1.79,9.55-3.98l2.42,1.99c-3.47,2.35-7.22,4.05-11.18,4.72-3.34,.49-6.65,0-9.56-2.4-3.75-3.1-4.34-7.63-1.58-10.97Z" style="fill:#1a171b;"/><path d="M654.68,132.36l11.02,10.91-2.04,2.06-8.59-8.5-5.93,5.99,7.25,7.17-2.04,2.06-7.25-7.17-6.88,6.95,8.88,8.79-2.04,2.06-11.32-11.2,18.93-19.13Z" style="fill:#1a171b;"/><path d="M670.87,148.67l2.34,2.65-6.25,18.49-2.26,5.86,.11,.12c1.92-1.92,4.02-4.13,6.14-5.99l10.45-9.21,2.15,2.44-20.19,17.8-2.34-2.65,6.26-18.5,2.25-5.85-.11-.12c-1.93,1.93-3.91,4.03-6.02,5.89l-10.57,9.31-2.15-2.44,20.19-17.8Z" style="fill:#1a171b;"/><path d="M677.44,176.81c6.92-5.24,14.28-4.28,18.59,1.4,2.25,2.97,2.39,5.95,2.04,8.19l-2.91-.15c.3-1.94,.16-4-1.48-6.15-3.28-4.32-8.7-4.58-14.04-.53-5.39,4.09-6.83,9.19-3.37,13.77,1.17,1.54,2.75,2.67,4.19,2.91l5.58-4.23-3.44-4.54,2.26-1.71,5.33,7.03-9.01,6.83c-2.48-.29-5.32-1.84-7.5-4.72-4.29-5.66-3.21-12.81,3.75-18.09Z" style="fill:#1a171b;"/><path d="M704.71,191.14l1.93,2.83-22.25,15.13-1.93-2.83,22.25-15.13Z" style="fill:#1a171b;"/><path d="M711.36,200.95l1.83,3.03-9.44,17.08-3.26,5.37,.08,.14c2.23-1.55,4.69-3.35,7.1-4.8l11.92-7.2,1.68,2.78-23.02,13.92-1.83-3.03,9.45-17.09,3.25-5.36-.08-.14c-2.24,1.56-4.56,3.27-6.97,4.72l-12.05,7.28-1.68-2.78,23.02-13.92Z" style="fill:#1a171b;"/><path d="M725.48,225.05l7.09,13.8-2.58,1.32-5.52-10.75-7.5,3.85,4.66,9.07-2.58,1.32-4.66-9.07-8.7,4.47,5.71,11.11-2.58,1.32-7.28-14.16,23.93-12.3Z" style="fill:#1a171b;"/><path d="M735.68,245.49l6.22,14.21-2.66,1.16-4.84-11.07-7.73,3.38,4.09,9.34-2.66,1.16-4.09-9.34-8.96,3.92,5.01,11.45-2.66,1.16-6.38-14.59,24.66-10.79Z" style="fill:#1a171b;"/><path d="M744.64,266.58l2.87,7.92c1.87,5.15,1.36,9.52-3.91,11.43-5.05,1.83-8.83-.99-10.69-6.14l-1.71-4.7-10.69,3.88-1.17-3.22,25.3-9.17Zm-11.08,12.26l2.58,1.92-10.44,12.52-1.32-3.65,9.18-10.79Zm1.79-.46c1.43,3.94,3.81,5.52,7.09,4.34,3.33-1.21,3.72-3.8,2.29-7.74l-1.54-4.24-9.38,3.4,1.54,4.24Z" style="fill:#1a171b;"/><path d="M752.58,289.54l1.01,3.27-25.72,7.92-1.01-3.27,25.72-7.92Z" style="fill:#1a171b;"/><path d="M756.06,300.9l.86,3.43-14.05,13.55-4.7,4.17,.04,.16c2.59-.83,5.47-1.82,8.2-2.5l13.51-3.37,.79,3.15-26.11,6.52-.86-3.43,14.07-13.55,4.69-4.16-.04-.16c-2.6,.83-5.32,1.78-8.05,2.46l-13.66,3.41-.79-3.16,26.11-6.52Z" style="fill:#1a171b;"/><path d="M748.96,328.93c8.55-1.47,14.65,2.78,15.86,9.81,.63,3.67-.62,6.38-1.96,8.21l-2.52-1.47c1.16-1.58,1.98-3.48,1.52-6.14-.92-5.34-5.61-8.07-12.22-6.94-6.67,1.15-10.3,5.02-9.33,10.67,.33,1.9,1.21,3.63,2.38,4.51l6.91-1.19-.96-5.62,2.8-.48,1.49,8.69-11.15,1.92c-2.07-1.4-3.87-4.08-4.48-7.65-1.2-7,3.05-12.85,11.66-14.33Z" style="fill:#1a171b;"/><path d="M744.99,427.94l2.12,2.29c-2.2,1.71-3.81,4.25-4.1,7.03-.37,3.51,1.15,5.78,3.75,6.06,2.73,.29,3.81-1.55,5.18-3.96l2.1-3.66c1.33-2.38,3.53-5.1,7.47-4.68,4.09,.44,6.72,4.32,6.2,9.18-.34,3.17-2.01,5.85-4.16,7.53l-2-2.04c1.72-1.47,2.89-3.33,3.16-5.81,.32-3-.98-5.15-3.38-5.41-2.58-.28-3.79,1.96-4.9,3.96l-2.06,3.64c-1.66,2.95-3.76,5.17-7.74,4.75-4.23-.45-7.23-4.3-6.63-9.93,.4-3.76,2.28-6.86,4.97-8.94Z" style="fill:#1a171b;"/><path d="M749.83,452.63l15.56,2.76-.6,3.37-15.65-2.77c-6.37-1.13-8.85,1.21-9.46,4.67-.62,3.51,.89,6.64,7.26,7.77l15.65,2.77-.57,3.23-15.56-2.76c-8.5-1.51-10.7-6.13-9.74-11.54s4.61-9,13.12-7.5Z" style="fill:#1a171b;"/><path d="M737.98,474.89l1.79,2.55c-2.42,1.4-4.35,3.68-5.03,6.4-.85,3.43,.35,5.88,2.88,6.51,2.67,.66,3.99-1.02,5.68-3.21l2.59-3.34c1.64-2.17,4.2-4.57,8.04-3.61,3.99,.99,6.06,5.2,4.88,9.94-.77,3.09-2.8,5.52-5.15,6.88l-1.7-2.29c1.91-1.22,3.32-2.9,3.92-5.32,.73-2.93-.26-5.24-2.6-5.82-2.52-.63-4.02,1.42-5.4,3.25l-2.54,3.32c-2.05,2.7-4.44,4.61-8.32,3.64-4.12-1.03-6.57-5.25-5.21-10.74,.91-3.66,3.2-6.48,6.15-8.17Z" style="fill:#1a171b;"/><path d="M750.16,508.48l2.44-7.76,2.76,.87-5.91,18.79-2.76-.87,2.44-7.76-22.9-7.2,1.03-3.27,22.9,7.2Z" style="fill:#1a171b;"/><path d="M745.98,529.66l-1.38,3.61-28.39-1.08,1.29-3.39,15.72,.97c3.16,.17,6.22,.41,9.43,.71l.06-.15c-2.62-1.89-5.06-3.74-7.53-5.72l-12.35-9.79,1.24-3.26,21.9,18.09Zm-13.4-9.73l-4.41,11.58-2.55-.97,4.41-11.58,2.55,.97Z" style="fill:#1a171b;"/><path d="M739.43,545.93l-1.37,3.14-24.67-10.76,1.37-3.14,24.67,10.76Z" style="fill:#1a171b;"/><path d="M734.68,556.8l-1.58,3.16-19.49,1.13-6.28,.1-.07,.15c2.5,1.06,5.33,2.19,7.85,3.45l12.45,6.24-1.46,2.91-24.06-12.06,1.58-3.16,19.5-1.12,6.27-.11,.07-.15c-2.51-1.07-5.19-2.12-7.71-3.38l-12.59-6.31,1.46-2.91,24.05,12.06Z" style="fill:#1a171b;"/><path d="M718.99,586.37l-1.97,3.32-27.79-5.89,1.85-3.12,15.32,3.62c3.08,.7,6.06,1.46,9.18,2.31l.08-.14c-2.26-2.31-4.35-4.55-6.44-6.92l-10.51-11.74,1.78-3,18.51,21.55Zm-11.55-11.86l-6.32,10.66-2.35-1.39,6.32-10.66,2.35,1.39Z" style="fill:#1a171b;"/><path d="M709.63,601.67l-4.52,6.59c-3.09,4.51-6.77,6.58-10.67,3.91-2.19-1.5-3.34-4.01-2.6-6.55l-.13-.09c-2.34,2.29-5.37,2.95-8.4,.87-4.36-2.99-4.13-7.9-.73-12.85l4.86-7.09,22.19,15.21Zm-24.54-6.99c-2.6,3.79-2.77,6.97,.22,9.02,2.73,1.87,5.46,.58,8.12-3.3l2.65-3.86-8.34-5.72-2.65,3.86Zm10.9,6.63c-2.59,3.77-2.27,6.29-.02,7.83,2.59,1.78,4.78,.66,7.13-2.77l2.34-3.41-7.2-4.94-2.25,3.29Z" style="fill:#1a171b;"/><path d="M695.02,622.4l-2.11,2.7-18.92-14.79-7.23,9.25-2.28-1.79,9.34-11.95,21.2,16.57Z" style="fill:#1a171b;"/><path d="M681.83,638.9l-10.26,11.63-2.17-1.92,7.99-9.06-6.32-5.58-6.74,7.65-2.17-1.92,6.74-7.65-7.34-6.47-8.26,9.37-2.17-1.92,10.53-11.94,20.18,17.8Z" style="fill:#1a171b;"/><path d="M660.39,662.14l-4.89,4.63c-6.01,5.69-12.53,5.24-18.41-.96-5.88-6.21-6.09-12.89-.2-18.47l5-4.73,18.5,19.54Zm-21.27-13.05c-4.57,4.32-4.14,9.34,.54,14.28,4.68,4.94,9.53,5.5,14.1,1.18l2.22-2.1-14.64-15.46-2.22,2.1Z" style="fill:#1a171b;"/><path d="M640.86,680.15l-11.95,9.89-1.85-2.23,9.31-7.7-5.38-6.5-7.85,6.5-1.85-2.23,7.85-6.5-6.24-7.54-9.63,7.97-1.85-2.23,12.26-10.15,17.16,20.73Z" style="fill:#1a171b;"/><path d="M610.9,674.44l-.27,3.11c-2.75-.48-5.7,.03-7.96,1.68-2.85,2.08-3.51,4.73-1.97,6.85,1.62,2.22,3.71,1.78,6.42,1.18l4.13-.9c2.66-.61,6.15-.81,8.48,2.39,2.42,3.32,1.31,7.88-2.64,10.76-2.58,1.88-5.69,2.44-8.37,1.97l.17-2.85c2.25,.29,4.41-.09,6.42-1.56,2.44-1.78,3.16-4.18,1.74-6.13-1.53-2.1-3.99-1.5-6.22-.98l-4.08,.92c-3.3,.75-6.36,.68-8.72-2.55-2.5-3.44-1.66-8.25,2.91-11.58,3.05-2.22,6.62-2.91,9.96-2.31Z" style="fill:#1a171b;"/><path d="M604.45,707.7l-2.86,1.88-14.81-22.47,2.86-1.88,14.81,22.47Z" style="fill:#1a171b;"/><path d="M589.09,701.76c4.4,7.48,2.58,14.69-3.57,18.3-3.22,1.89-6.19,1.67-8.37,1.07l.49-2.87c1.89,.52,3.95,.62,6.28-.75,4.68-2.75,5.57-8.1,2.17-13.88-3.43-5.83-8.33-7.87-13.28-4.96-1.67,.98-2.97,2.42-3.38,3.82l3.55,6.04,4.91-2.89,1.44,2.45-7.61,4.47-5.73-9.75c.58-2.43,2.45-5.06,5.57-6.9,6.12-3.6,13.1-1.69,17.53,5.85Z" style="fill:#1a171b;"/><path d="M571.31,727.48l-3.17,1.56-16.2-10.89-5.06-3.72-.15,.07c1.35,2.36,2.93,4.97,4.17,7.49l6.14,12.5-2.92,1.43-11.87-24.16,3.17-1.56,16.21,10.9,5.06,3.71,.15-.07c-1.36-2.37-2.86-4.83-4.1-7.35l-6.21-12.64,2.92-1.43,11.87,24.16Z" style="fill:#1a171b;"/><path d="M533.2,723.34c2.8,7.48-8.24,13.01-6.21,18.42,.55,1.46,1.71,2.53,3.42,1.88,1.89-.71,2.51-2.74,1.72-4.83-1.77-4.71-9.3-9.04-15.47-10.81-2.55-.75-4.87-1.06-6.67-.91l-.13-2.95c2.22-.2,4.93,.12,7.9,1.04,7.13,2.21,15.07,7.23,17.07,12.56,1.26,3.37-.08,6.85-3.57,8.16-3.12,1.17-5.73-.2-6.83-3.13-2.43-6.47,7.84-12.56,5.77-18.09-1.05-2.8-3.94-3.82-6.72-2.78-2.1,.79-3.65,2.75-4.66,5.13-1.23,3.01-1.66,6.47-1.31,10.26l-2.93,1.1c-.31-4.18,.09-8.28,1.47-12.05,1.24-3.14,3.31-5.77,6.84-7.09,4.56-1.71,8.77,.04,10.29,4.09Z" style="fill:#1a171b;"/><path d="M504.96,754.32l-14.96,4.11-.77-2.79,11.65-3.2-2.23-8.13-9.83,2.7-.77-2.79,9.83-2.7-2.59-9.43-12.05,3.31-.77-2.79,15.35-4.22,7.13,25.95Z" style="fill:#1a171b;"/><path d="M482.72,760.21l-3.47,.7-12.89-14.66-3.95-4.89-.16,.03c.71,2.63,1.56,5.55,2.12,8.31l2.75,13.65-3.19,.64-5.32-26.38,3.47-.7,12.89,14.67,3.95,4.87,.16-.03c-.71-2.63-1.53-5.4-2.09-8.15l-2.78-13.8,3.19-.64,5.32,26.38Z" style="fill:#1a171b;"/><path d="M455.03,751.83c1.08,8.61-3.44,14.51-10.52,15.39-3.7,.46-6.34-.91-8.11-2.33l1.58-2.44c1.53,1.23,3.38,2.13,6.06,1.8,5.38-.67,8.32-5.24,7.49-11.89-.84-6.71-4.54-10.52-10.23-9.81-1.92,.24-3.69,1.04-4.62,2.17l.87,6.95,5.65-.71,.35,2.82-8.75,1.09-1.4-11.22c1.49-2,4.25-3.68,7.84-4.13,7.04-.88,12.7,3.64,13.78,12.31Z" style="fill:#1a171b;"/><path d="M429,768.26l-3.42,.25-1.96-26.84,3.42-.25,1.96,26.84Z" style="fill:#1a171b;"/><path d="M417.17,769.11l-3.54,.07-10.08-16.71-3.02-5.51h-.16c.23,2.71,.55,5.74,.61,8.55l.28,13.92-3.25,.07-.54-26.9,3.54-.07,10.08,16.73,3.02,5.5h.16c-.23-2.72-.55-5.58-.6-8.4l-.28-14.08,3.25-.07,.54,26.9Z" style="fill:#1a171b;"/><path d="M389.27,769.3l-15.49-.74,.14-2.89,12.07,.58,.4-8.42-10.18-.49,.14-2.9,10.18,.49,.47-9.77-12.48-.6,.14-2.89,15.9,.76-1.28,26.88Z" style="fill:#1a171b;"/><path d="M366.48,767.95l-15.42-1.69,.31-2.88,12.01,1.31,.92-8.38-10.13-1.11,.32-2.88,10.13,1.11,1.06-9.72-12.42-1.36,.32-2.88,15.83,1.73-2.92,26.75Z" style="fill:#1a171b;"/><path d="M343.76,765.21l-8.3-1.45c-5.4-.94-8.94-3.56-7.97-9.08,.93-5.29,5.25-7.17,10.65-6.22l4.93,.86,1.96-11.2,3.37,.59-4.64,26.51Zm-5.12-15.72l-2.95,1.28-5.66-15.29,3.82,.67,4.79,13.34Zm-.5,1.78c-4.12-.72-6.69,.55-7.29,3.99-.61,3.49,1.44,5.12,5.57,5.84l4.44,.78,1.72-9.83-4.44-.78Z" style="fill:#1a171b;"/><path d="M319.86,760.67l-3.34-.76,5.94-26.25,3.34,.76-5.94,26.25Z" style="fill:#1a171b;"/><path d="M308.28,758.03l-3.4-.96-4.75-18.93-1.27-6.15-.16-.04c-.58,2.66-1.15,5.65-1.92,8.36l-3.8,13.4-3.13-.89,7.34-25.89,3.4,.96,4.75,18.95,1.28,6.14,.16,.04c.58-2.67,1.11-5.5,1.87-8.21l3.84-13.55,3.13,.89-7.34,25.89Z" style="fill:#1a171b;"/><path d="M287.52,737.92c-2.98,8.15-9.7,11.32-16.4,8.87-3.5-1.28-5.23-3.71-6.14-5.78l2.53-1.45c.8,1.79,2.03,3.45,4.57,4.38,5.09,1.86,9.79-.85,12.1-7.14,2.33-6.35,.78-11.43-4.61-13.41-1.81-.66-3.75-.76-5.1-.18l-2.41,6.58,5.35,1.96-.98,2.67-8.28-3.03,3.89-10.62c2.25-1.1,5.47-1.33,8.86-.08,6.67,2.44,9.63,9.05,6.62,17.25Z" style="fill:#1a171b;"/><path d="M197.05,680.38l-3.06,.62c-.32-2.77-1.64-5.46-3.87-7.16-2.8-2.15-5.54-2.02-7.12,.05-1.67,2.18-.66,4.06,.68,6.49l2.03,3.7c1.34,2.37,2.52,5.67,.11,8.81-2.5,3.26-7.19,3.49-11.07,.52-2.53-1.94-3.95-4.76-4.26-7.46l2.78-.64c.36,2.24,1.34,4.21,3.31,5.72,2.4,1.83,4.91,1.84,6.37-.07,1.58-2.06,.3-4.25-.83-6.24l-2.04-3.65c-1.66-2.96-2.46-5.91-.03-9.08,2.58-3.37,7.44-3.93,11.93-.49,3,2.3,4.67,5.52,5.04,8.89Z" style="fill:#1a171b;"/><path d="M173.48,671.67l-10.45,11.85-2.57-2.26,10.51-11.92c4.28-4.85,3.57-8.18,.94-10.5-2.67-2.36-6.13-2.69-10.41,2.15l-10.51,11.92-2.46-2.17,10.45-11.85c5.71-6.48,10.8-5.94,14.92-2.31,4.12,3.63,5.29,8.62-.42,15.1Z" style="fill:#1a171b;"/><path d="M160.63,649.98l-3.11,.2c.06-2.79-.89-5.63-2.86-7.62-2.49-2.51-5.21-2.76-7.07-.92-1.95,1.93-1.2,3.94-.2,6.52l1.51,3.95c1,2.53,1.72,5.96-1.09,8.75-2.92,2.89-7.59,2.48-11.04-.99-2.25-2.27-3.26-5.26-3.21-7.98l2.84-.26c.05,2.27,.76,4.35,2.51,6.11,2.12,2.14,4.61,2.49,6.32,.8,1.84-1.83,.88-4.17,.03-6.3l-1.52-3.89c-1.24-3.15-1.63-6.19,1.21-9,3.02-2.99,7.9-2.89,11.89,1.13,2.66,2.68,3.88,6.1,3.79,9.5Z" style="fill:#1a171b;"/><path d="M125.6,642.94l5.37,6.12-2.18,1.91-12.99-14.81,2.18-1.91,5.37,6.12,18.04-15.83,2.26,2.57-18.04,15.83Z" style="fill:#1a171b;"/><path d="M109.67,628.4l-2.38-3.05,15.62-23.72,2.23,2.86-8.97,12.94c-1.78,2.61-3.58,5.11-5.5,7.7l.1,.13c2.97-1.26,5.82-2.39,8.79-3.47l14.77-5.5,2.14,2.75-26.82,9.37Zm15.26-6.42l-7.62-9.77,2.15-1.68,7.62,9.77-2.15,1.68Z" style="fill:#1a171b;"/><path d="M99.15,614.37l-1.98-2.8,21.97-15.53,1.98,2.8-21.97,15.53Z" style="fill:#1a171b;"/><path d="M92.31,604.67l-1.88-2.99,9.13-17.26,3.17-5.43-.09-.14c-2.21,1.59-4.63,3.43-7.01,4.93l-11.79,7.42-1.73-2.75,22.77-14.34,1.88,2.99-9.14,17.27-3.15,5.42,.09,.14c2.21-1.6,4.5-3.35,6.88-4.85l11.92-7.5,1.73,2.75-22.77,14.34Z" style="fill:#1a171b;"/><path d="M75.14,575.95l-1.83-3.41,19.42-20.73,1.71,3.2-11.03,11.23c-2.2,2.27-4.39,4.43-6.72,6.66l.08,.14c3.14-.74,6.14-1.37,9.25-1.94l15.49-2.92,1.65,3.07-28.01,4.69Zm16.12-3.74l-5.85-10.92,2.41-1.29,5.85,10.92-2.41,1.29Z" style="fill:#1a171b;"/><path d="M66.88,560.01l-3.3-7.27c-2.26-4.98-2.13-9.2,2.18-11.15,2.42-1.1,5.16-.79,6.95,1.17l.15-.07c-.75-3.19,.25-6.12,3.6-7.64,4.81-2.18,8.9,.56,11.38,6.02l3.55,7.83-24.51,11.12Zm7.37-11.48c-1.89-4.17-4.21-5.2-6.7-4.07-2.86,1.3-3.04,3.75-1.32,7.54l1.71,3.77,7.95-3.61-1.65-3.63Zm11.31-5.9c-1.9-4.19-4.53-5.98-7.83-4.48-3.02,1.37-3.32,4.37-1.38,8.66l1.94,4.26,9.21-4.18-1.93-4.27Z" style="fill:#1a171b;"/><path d="M56.71,536.75l-1.21-3.2,22.46-8.51-4.16-10.98,2.71-1.03,5.37,14.19-25.17,9.53Z" style="fill:#1a171b;"/><path d="M49.44,516.92l-4.62-14.81,2.77-.86,3.6,11.54,8.05-2.51-3.04-9.73,2.77-.86,3.04,9.73,9.34-2.91-3.72-11.93,2.77-.86,4.74,15.2-25.69,8.01Z" style="fill:#1a171b;"/><path d="M40.71,486.52l-1.41-6.58c-1.73-8.09,2.04-13.43,10.4-15.22,8.36-1.79,14.18,1.5,15.88,9.44l1.44,6.73-26.31,5.64Zm22.21-11.38c-1.32-6.15-5.83-8.39-12.48-6.97s-9.66,5.28-8.34,11.43l.64,2.98,20.82-4.46-.64-2.98Z" style="fill:#1a171b;"/><path d="M35.48,460.47l-2.22-15.35,2.87-.42,1.73,11.96,8.34-1.21-1.46-10.09,2.87-.42,1.46,10.09,9.68-1.4-1.79-12.37,2.87-.42,2.28,15.75-26.63,3.86Z" style="fill:#1a171b;"/><path d="M55.95,437.85l-2.51-1.85c1.84-2.1,2.94-4.88,2.72-7.67-.29-3.52-2.21-5.46-4.82-5.25-2.74,.23-3.45,2.24-4.35,4.86l-1.38,3.99c-.86,2.59-2.52,5.67-6.46,6-4.1,.34-7.41-2.99-7.81-7.86-.26-3.18,.88-6.13,2.67-8.17l2.34,1.63c-1.42,1.77-2.22,3.82-2.01,6.29,.25,3.01,1.93,4.88,4.33,4.68,2.58-.21,3.36-2.63,4.07-4.8l1.34-3.96c1.08-3.21,2.73-5.79,6.72-6.11,4.24-.35,7.91,2.88,8.37,8.51,.31,3.76-.96,7.16-3.21,9.71Z" style="fill:#1a171b;"/><path d="M30.92,415.05l-.12-3.42,26.89-.95,.12,3.42-26.89,.95Z" style="fill:#1a171b;"/><path d="M43.97,405.02c-8.68-.14-13.88-5.45-13.77-12.58,.06-3.73,1.79-6.16,3.45-7.7l2.2,1.91c-1.43,1.34-2.59,3.05-2.63,5.75-.09,5.42,4.02,8.97,10.72,9.08,6.76,.11,11.06-3.02,11.15-8.76,.03-1.93-.52-3.8-1.5-4.87l-7.01-.11-.09,5.7-2.84-.05,.14-8.82,11.31,.19c1.78,1.76,3.05,4.73,2.99,8.35-.12,7.1-5.38,12.07-14.12,11.92Z" style="fill:#1a171b;"/><path d="M31.24,376.47l.31-3.52,17.71-8.2,5.81-2.4v-.16c-2.71-.07-5.75-.08-8.55-.32l-13.87-1.23,.29-3.24,26.8,2.38-.31,3.52-17.73,8.2-5.79,2.4v.16c2.71,.07,5.59,.06,8.4,.31l14.02,1.25-.29,3.24-26.8-2.38Z" style="fill:#1a171b;"/><path d="M54.53,346.04c-7.85-1.47-6.86-13.79-12.54-14.86-1.54-.29-3.05,.15-3.38,1.95-.37,1.98,1.04,3.56,3.24,3.98,4.94,.93,12.55-3.27,17.27-7.63,1.96-1.79,3.43-3.61,4.23-5.23l2.59,1.42c-.98,2-2.65,4.15-4.98,6.21-5.58,4.95-13.99,9.15-19.59,8.1-3.53-.66-5.82-3.62-5.13-7.28,.62-3.27,3.14-4.79,6.21-4.22,6.79,1.27,6.68,13.21,12.49,14.3,2.94,.55,5.31-1.39,5.86-4.3,.41-2.2-.46-4.55-1.97-6.64-1.93-2.61-4.67-4.77-8.1-6.44l.58-3.08c3.73,1.9,7.04,4.36,9.54,7.5,2.05,2.69,3.22,5.82,2.52,9.52-.9,4.79-4.58,7.48-8.83,6.68Z" style="fill:#1a171b;"/><path d="M42.67,305.81l4.24-14.92,2.79,.79-3.3,11.63,8.11,2.3,2.79-9.81,2.79,.79-2.79,9.81,9.41,2.67,3.41-12.02,2.79,.79-4.35,15.32-25.89-7.35Z" style="fill:#1a171b;"/><path d="M49.16,283.74l1.2-3.33,19.22-3.43,6.23-.84,.06-.15c-2.61-.76-5.55-1.54-8.2-2.49l-13.1-4.72,1.1-3.06,25.32,9.12-1.2,3.33-19.23,3.42-6.21,.85-.06,.15c2.62,.76,5.41,1.49,8.06,2.44l13.25,4.77-1.1,3.06-25.32-9.12Z" style="fill:#1a171b;"/><path d="M70.66,264.44c-7.92-3.54-10.62-10.47-7.71-16.98,1.52-3.4,4.07-4.95,6.2-5.73l1.27,2.62c-1.84,.67-3.58,1.79-4.68,4.25-2.21,4.95,.17,9.83,6.29,12.57,6.17,2.76,11.35,1.57,13.69-3.67,.79-1.76,1.02-3.69,.54-5.07l-6.4-2.86-2.33,5.2-2.59-1.16,3.6-8.05,10.33,4.62c.94,2.32,.94,5.55-.53,8.85-2.9,6.48-9.69,8.98-17.67,5.41Z" style="fill:#1a171b;"/><path d="M70.12,233.63l1.56-3.05,23.96,12.25-1.56,3.05-23.96-12.25Z" style="fill:#1a171b;"/><path d="M75.53,223.08l1.78-3.06,19.52,.07,6.28,.29,.08-.14c-2.43-1.21-5.19-2.51-7.62-3.92l-12.05-6.99,1.63-2.81,23.27,13.51-1.78,3.06-19.53-.08-6.26-.28-.08,.14c2.44,1.22,5.06,2.43,7.49,3.84l12.18,7.07-1.63,2.81-23.27-13.51Z" style="fill:#1a171b;"/><path d="M89.88,199.13l8.69-12.84,2.4,1.62-6.77,10.01,6.98,4.73,5.71-8.44,2.4,1.62-5.71,8.44,8.1,5.48,7-10.35,2.4,1.62-8.92,13.18-22.28-15.08Z" style="fill:#1a171b;"/><path d="M102.9,180.37l9.47-12.28,2.3,1.77-7.38,9.57,6.68,5.15,6.22-8.07,2.29,1.77-6.22,8.07,7.75,5.97,7.63-9.9,2.29,1.77-9.72,12.61-21.31-16.42Z" style="fill:#1a171b;"/><path d="M117.07,162.38l5.56-6.33c3.62-4.12,7.69-5.78,11.9-2.08,4.04,3.55,3.39,8.21-.23,12.33l-3.3,3.76,8.55,7.5-2.26,2.57-20.22-17.76Zm14.82,2.46c2.76-3.15,3.01-6,.39-8.3-2.66-2.34-5.12-1.43-7.89,1.71l-2.98,3.39,7.5,6.59,2.98-3.39Zm1.26,1.35l.44-3.19,16,3.12-2.56,2.92-13.88-2.85Z" style="fill:#1a171b;"/><path d="M133.37,144.35l2.38-2.46,19.34,18.72-2.38,2.46-19.34-18.72Z" style="fill:#1a171b;"/><path d="M141.62,135.84l2.59-2.41,18.65,5.77,5.92,2.11,.12-.11c-1.97-1.87-4.23-3.92-6.15-5.98l-9.48-10.21,2.38-2.21,18.32,19.72-2.59,2.41-18.66-5.78-5.91-2.09-.12,.11c1.98,1.88,4.13,3.8,6.04,5.86l9.59,10.32-2.38,2.21-18.32-19.72Z" style="fill:#1a171b;"/><path d="M169.58,128.54c-5.42-6.78-4.66-14.17,.91-18.63,2.91-2.33,5.89-2.54,8.13-2.26l-.07,2.91c-1.94-.25-4-.05-6.11,1.64-4.23,3.39-4.35,8.82-.16,14.05,4.23,5.28,9.37,6.59,13.86,3.01,1.51-1.21,2.59-2.82,2.8-4.26l-4.38-5.47-4.45,3.56-1.77-2.22,6.89-5.51,7.07,8.83c-.22,2.49-1.7,5.36-4.52,7.62-5.54,4.44-12.73,3.55-18.19-3.28Z" style="fill:#1a171b;"/></g><path d="M400,118.47c-155.48,0-281.53,126.04-281.53,281.53s126.04,281.53,281.53,281.53,281.53-126.04,281.53-281.53S555.48,118.47,400,118.47Zm-6.6,462.64l-138.51-138.51-51.25,51.25-32.44-32.44,141.19-141.19,32.44,32.44-51.25,51.25,138.51,138.51-38.69,38.69Zm179.5-173.2c-23.1,23.1-55.41,38.5-89.77,40.4l-4.37-48.77c23.51-2.34,46.72-11.03,63.29-27.61,16.42-16.42,17.64-30.36,9.28-38.72-12.31-12.31-25.44-5.12-48.4,4.28l-31.78,12.77c-26.14,11.74-57.96,14.5-82.84-10.37-28.32-28.32-25.44-76.45,11.7-113.59,20.56-20.56,49.06-33.63,79.16-34.39l4.89,43.88c-20.68,3.39-36.05,9.34-52.75,26.04-12.75,12.75-16.11,26.67-6.12,36.66,10.28,10.28,25.5,2.58,48.05-7.66l29.78-12.05c30.78-13.99,58.88-14.17,83,9.95,28.42,28.42,29.19,76.87-13.13,119.19Z" style="fill:#1a171b;"/></svg>