<?xml version="1.0" encoding="UTF-8"?><svg id="a" xmlns="http://www.w3.org/2000/svg" viewBox="0 0 800 800"><g><path d="M241.38,652.77l5.08,3.01c6.25,3.71,7.45,9.32,3.62,15.78-3.83,6.46-9.42,8.25-15.55,4.61l-5.2-3.08,12.05-20.33Zm-5.9,21.11c4.75,2.82,8.89,1.24,11.93-3.9,3.05-5.14,2.35-9.38-2.4-12.19l-2.31-1.37-9.54,16.09,2.31,1.37Z" style="fill:#1a171b;"/><path d="M260.21,663.57l2.66,1.4-10.99,20.91-2.66-1.4,11-20.92Z" style="fill:#1a171b;"/><path d="M261.99,677.95c3.19-6.92,9.3-9.22,14.99-6.6,2.97,1.37,4.31,3.62,4.97,5.5l-2.31,1.09c-.57-1.62-1.53-3.16-3.69-4.15-4.32-1.99-8.63,.05-11.1,5.39-2.49,5.39-1.5,9.95,3.08,12.06,1.54,.71,3.23,.93,4.45,.52l2.58-5.59-4.54-2.1,1.04-2.26,7.03,3.24-4.16,9.02c-2.04,.8-4.88,.77-7.76-.56-5.66-2.61-7.78-8.6-4.57-15.57Z" style="fill:#1a171b;"/><path d="M288.1,676.6l2.79,1.12-8.78,21.94-2.79-1.12,8.78-21.94Z" style="fill:#1a171b;"/><path d="M300.33,683.96l-6.75-2.34,.83-2.41,16.35,5.66-.83,2.4-6.75-2.34-6.9,19.92-2.84-.98,6.9-19.92Z" style="fill:#1a171b;"/><path d="M317.65,686.82l3.27,.92,1.31,24.91-3.07-.86-.4-13.82c-.1-2.77-.13-5.48-.12-8.3l-.14-.04c-1.45,2.44-2.87,4.72-4.4,7.03l-7.58,11.58-2.95-.83,14.08-20.58Zm-7.44,12.48l10.47,2.94-.65,2.31-10.47-2.94,.65-2.31Z" style="fill:#1a171b;"/><path d="M331.26,690.43l2.94,.64-4.47,20.6,10.08,2.19-.54,2.49-13.02-2.83,5.01-23.09Z" style="fill:#1a171b;"/><path d="M354.83,695l13.51,1.8-.34,2.52-10.53-1.4-1.05,7.9,8.93,1.19-.33,2.52-8.93-1.19-1.4,10.48-2.98-.4,3.12-23.42Z" style="fill:#1a171b;"/><path d="M375.5,697.37l3.38,.26,6.19,24.16-3.17-.24-3.11-13.47c-.65-2.7-1.21-5.34-1.76-8.12h-.14c-.94,2.67-1.89,5.18-2.93,7.75l-5.15,12.84-3.05-.23,9.75-22.96Zm-4.84,13.7l10.85,.82-.18,2.39-10.85-.82,.18-2.39Z" style="fill:#1a171b;"/><path d="M389.5,698.26l7.01,.07c4.8,.05,8.11,1.71,8.07,5.86-.02,2.33-1.29,4.4-3.5,5.1v.14c2.82,.58,4.78,2.47,4.75,5.7-.04,4.64-3.74,6.88-9.01,6.83l-7.55-.07,.23-23.62Zm6.92,21.31c4.04,.04,6.43-1.39,6.47-4.58,.03-2.91-2.25-4.26-6.38-4.3l-4.11-.04-.08,8.88,4.11,.04Zm-.51-11.19c4.02,.04,5.7-1.43,5.72-3.82,.03-2.76-1.86-3.81-5.51-3.84l-3.63-.04-.07,7.67,3.5,.03Z" style="fill:#1a171b;"/><path d="M410.11,698.24l7.39-.43c4.8-.28,8.35,1.24,8.64,6.16,.28,4.71-3.04,7.18-7.85,7.46l-4.38,.26,.58,9.97-3,.17-1.38-23.59Zm7.61,10.78c3.67-.21,5.6-1.82,5.43-4.88-.18-3.1-2.27-4.09-5.94-3.87l-3.96,.23,.51,8.75,3.95-.23Zm-.07,1.62l2.26-1.69,7.92,11.93-3.4,.2-6.78-10.43Z" style="fill:#1a171b;"/><path d="M430.12,696.8l2.99-.32,2.52,23.49-2.99,.32-2.52-23.5Z" style="fill:#1a171b;"/><path d="M439.61,707.73c-1.18-7.53,2.54-12.81,8.46-13.74,2.83-.44,5.27,.59,6.87,1.87l-1.32,2.19c-1.43-1.12-3.11-1.77-5.08-1.46-4.41,.69-6.78,4.76-5.87,10.58,.92,5.87,4.29,9.1,8.72,8.41,2.23-.35,3.77-1.58,5-3.47l1.92,1.61c-1.51,2.43-3.6,4.01-6.63,4.49-5.81,.91-10.87-2.9-12.06-10.48Z" style="fill:#1a171b;"/><path d="M463.58,691.46l3.31-.74,12.97,21.31-3.11,.7-6.91-11.98c-1.41-2.39-2.71-4.76-4.05-7.25l-.14,.03c-.12,2.83-.29,5.52-.54,8.28l-1.18,13.79-2.99,.67,2.63-24.81Zm-.63,14.52l10.62-2.38,.53,2.34-10.62,2.38-.52-2.34Z" style="fill:#1a171b;"/><path d="M480.96,689.77l-6.88,1.95-.7-2.45,16.64-4.73,.7,2.45-6.88,1.95,5.76,20.28-2.89,.82-5.76-20.28Z" style="fill:#1a171b;"/><path d="M493.65,683.25l2.85-.96,7.51,22.41-2.85,.96-7.51-22.4Z" style="fill:#1a171b;"/><path d="M505.24,691.83c-2.79-7.03-.61-12.84,4.9-15.03,5.52-2.19,11.08,.56,13.87,7.58,2.79,7.03,.68,13-4.84,15.18-5.51,2.19-11.14-.7-13.93-7.74Zm15.89-6.3c-2.17-5.47-6.09-7.82-10.01-6.27-3.92,1.55-5.16,5.95-2.99,11.42,2.17,5.47,6.15,7.98,10.07,6.43,3.92-1.56,5.1-6.11,2.93-11.58Z" style="fill:#1a171b;"/><path d="M523.73,671.62l2.79-1.36,14.21,9.59,4.44,3.27,.13-.06c-1.18-2.08-2.56-4.37-3.64-6.59l-5.37-10.99,2.57-1.25,10.38,21.23-2.79,1.36-14.21-9.6-4.43-3.26-.13,.06c1.19,2.08,2.5,4.24,3.58,6.46l5.43,11.11-2.57,1.25-10.38-21.23Z" style="fill:#1a171b;"/><path d="M590.25,630.02l4.45-3.89c5.47-4.78,11.18-4.16,16.12,1.49s4.89,11.52-.48,16.21l-4.55,3.97-15.54-17.79Zm18.2,12.2c4.16-3.63,3.96-8.05,.03-12.55-3.93-4.5-8.17-5.16-12.33-1.53l-2.02,1.76,12.3,14.08,2.02-1.76Z" style="fill:#1a171b;"/><path d="M606.37,615.51l2.16-2.09,16.45,16.97-2.16,2.09-16.44-16.97Z" style="fill:#1a171b;"/><path d="M620.6,618.28c-5.58-5.19-5.87-11.71-1.6-16.3,2.23-2.4,4.79-2.97,6.77-3.01l.31,2.54c-1.72,.04-3.48,.47-5.1,2.21-3.24,3.49-2.64,8.22,1.67,12.23,4.35,4.04,8.99,4.52,12.42,.83,1.15-1.24,1.89-2.78,1.88-4.06l-4.51-4.19-3.41,3.67-1.83-1.7,5.27-5.67,7.28,6.76c.13,2.19-.79,4.88-2.95,7.2-4.25,4.57-10.6,4.72-16.22-.51Z" style="fill:#1a171b;"/><path d="M627.44,593.07l1.93-2.3,18.11,15.18-1.93,2.3-18.11-15.18Z" style="fill:#1a171b;"/><path d="M638.25,583.73l-4.33,5.69-2.02-1.54,10.48-13.76,2.02,1.54-4.33,5.69,16.77,12.77-1.82,2.39-16.77-12.77Z" style="fill:#1a171b;"/><path d="M646.37,568.24l1.87-2.83,24.13,6.32-1.75,2.66-13.29-3.81c-2.67-.74-5.26-1.54-7.95-2.4l-.08,.12c1.89,2.12,3.63,4.17,5.37,6.33l8.73,10.74-1.68,2.55-15.34-19.67Zm9.64,10.88l5.98-9.09,2,1.32-5.98,9.09-2-1.32Z" style="fill:#1a171b;"/><path d="M654.12,556.37l1.53-2.59,18.14,10.73,5.25-8.87,2.19,1.3-6.78,11.46-20.33-12.03Z" style="fill:#1a171b;"/><path d="M665.89,535.44l5.97-12.25,2.29,1.12-4.65,9.55,7.16,3.49,3.95-8.09,2.29,1.12-3.95,8.09,9.5,4.63-1.32,2.7-21.24-10.36Z" style="fill:#1a171b;"/><path d="M674.66,516.58l1.31-3.13,24.88,1.76-1.23,2.94-13.76-1.3c-2.77-.24-5.45-.54-8.26-.9l-.06,.13c2.24,1.73,4.33,3.43,6.44,5.24l10.56,8.94-1.18,2.82-18.71-16.51Zm11.48,8.92l4.21-10.04,2.21,.93-4.21,10.04-2.21-.93Z" style="fill:#1a171b;"/><path d="M679.93,503.58l2.28-6.63c1.56-4.54,4.18-7.16,8.11-5.81,2.21,.76,3.77,2.61,3.73,4.93l.14,.05c1.44-2.49,3.85-3.76,6.91-2.71,4.39,1.51,5.35,5.72,3.63,10.7l-2.45,7.14-22.35-7.67Zm11.62-2.89c1.3-3.8,.44-5.85-1.82-6.63-2.61-.9-4.2,.56-5.39,4.01l-1.18,3.44,7.25,2.49,1.14-3.31Zm10.78,3.05c1.31-3.82,.71-6.55-2.3-7.58-2.75-.94-4.75,.79-6.1,4.7l-1.33,3.89,8.4,2.88,1.33-3.89Z" style="fill:#1a171b;"/><path d="M686.41,484.04l1.92-7.15c1.25-4.65,3.81-7.54,8.56-6.26,4.56,1.22,5.86,5.15,4.61,9.79l-1.14,4.24,9.65,2.58-.78,2.9-22.82-6.12Zm12.62-3.83c.95-3.55,.04-5.89-2.92-6.68-3-.81-4.59,.86-5.54,4.42l-1.03,3.83,8.46,2.27,1.03-3.83Zm1.52,.57l-.89-2.68,13.81-3.76-.88,3.29-12.04,3.15Z" style="fill:#1a171b;"/><path d="M691.33,464.59l.63-2.94,23.09,4.99-.63,2.94-23.09-4.99Z" style="fill:#1a171b;"/><path d="M704.68,459.02c-7.52-1.24-11.37-6.43-10.4-12.34,.47-2.83,2.21-4.82,3.93-5.94l1.66,1.94c-1.51,1.01-2.65,2.41-2.98,4.37-.73,4.41,2.4,7.93,8.21,8.89,5.86,.97,9.99-1.23,10.72-5.65,.37-2.22-.32-4.08-1.73-5.84l2.13-1.32c1.83,2.2,2.68,4.68,2.19,7.71-.96,5.81-6.17,9.42-13.74,8.17Z" style="fill:#1a171b;"/><path d="M696.75,431.14l.33-3.38,24.29-5.65-.31,3.17-13.54,2.81c-2.71,.59-5.37,1.09-8.16,1.58v.14c2.64,1,5.14,2,7.68,3.1l12.73,5.44-.3,3.04-22.73-10.26Zm13.59,5.14l1.06-10.83,2.39,.23-1.06,10.83-2.39-.23Z" style="fill:#1a171b;"/><path d="M700.58,414.1l-.29,7.14-2.54-.1,.71-17.29,2.54,.1-.29,7.14,21.06,.86-.12,3-21.06-.86Z" style="fill:#1a171b;"/><path d="M698.35,400.02l-.02-3.01,23.63-.14,.02,3.01-23.63,.13Z" style="fill:#1a171b;"/><path d="M710.11,391.67c-7.55,.46-12.39-3.42-12.75-9.35-.36-5.92,3.99-10.36,11.53-10.81,7.55-.46,12.56,3.41,12.92,9.34,.36,5.92-4.15,10.37-11.7,10.82Zm-1.03-17.06c-5.88,.36-9.33,3.34-9.08,7.55,.25,4.21,4.05,6.76,9.92,6.41,5.88-.36,9.5-3.35,9.25-7.57-.25-4.21-4.22-6.75-10.09-6.4Z" style="fill:#1a171b;"/><path d="M696.7,367.81l-.42-3.08,13.55-10.5,4.5-3.19-.02-.14c-2.34,.47-4.95,1.07-7.39,1.4l-12.11,1.67-.39-2.83,23.4-3.22,.42,3.08-13.56,10.5-4.49,3.19,.02,.14c2.35-.48,4.81-1.05,7.26-1.38l12.25-1.69,.39,2.83-23.4,3.22Z" style="fill:#1a171b;"/><path d="M678.05,291.57l-2.29-5.45c-2.81-6.7-.42-11.92,6.5-14.82,6.92-2.9,12.48-1.01,15.24,5.57l2.33,5.57-21.79,9.13Zm17.32-13.43c-2.14-5.09-6.39-6.29-11.9-3.99-5.51,2.31-7.48,6.12-5.34,11.21l1.04,2.47,17.24-7.23-1.04-2.47Z" style="fill:#1a171b;"/><path d="M669.37,271.68l-1.3-2.71,21.29-10.25,1.3,2.71-21.29,10.25Z" style="fill:#1a171b;"/><path d="M676.5,259.08c-6.69,3.66-12.96,1.86-15.96-3.63-1.57-2.87-1.3-5.48-.71-7.38l2.51,.51c-.51,1.64-.65,3.45,.48,5.53,2.28,4.18,6.96,5.11,12.12,2.28,5.21-2.85,7.13-7.1,4.71-11.52-.81-1.49-2.04-2.67-3.26-3.07l-5.4,2.95,2.4,4.39-2.19,1.2-3.71-6.79,8.71-4.76c2.12,.57,4.38,2.29,5.9,5.07,2.99,5.47,1.12,11.54-5.61,15.23Z" style="fill:#1a171b;"/><path d="M654.73,244.6l-1.58-2.56,20.12-12.39,1.58,2.56-20.12,12.39Z" style="fill:#1a171b;"/><path d="M649.28,231.39l4.03,5.9-2.1,1.44-9.76-14.29,2.1-1.44,4.03,5.9,17.41-11.89,1.7,2.48-17.41,11.89Z" style="fill:#1a171b;"/><path d="M637.09,218.8l-2.08-2.68,13.8-20.78,1.95,2.52-7.92,11.33c-1.57,2.29-3.16,4.47-4.85,6.74l.09,.11c2.62-1.1,5.12-2.08,7.73-3.02l12.99-4.78,1.87,2.42-23.58,8.14Zm13.42-5.59l-6.66-8.61,1.9-1.47,6.66,8.61-1.9,1.47Z" style="fill:#1a171b;"/><path d="M628.32,207.8l-1.98-2.26,15.87-13.89-6.79-7.76,1.92-1.68,8.77,10.02-17.78,15.56Z" style="fill:#1a171b;"/><path d="M612.11,190.07l-9.78-9.49,1.77-1.83,7.62,7.39,5.55-5.72-6.46-6.27,1.77-1.83,6.46,6.27,7.36-7.58,2.16,2.09-16.45,16.95Z" style="fill:#1a171b;"/><path d="M596.91,175.86l-2.57-2.22,9.43-23.1,2.41,2.09-5.53,12.67c-1.09,2.55-2.21,5.01-3.42,7.57l.11,.09c2.35-1.59,4.61-3.05,6.98-4.49l11.79-7.25,2.31,2-21.51,12.63Zm12.05-8.12l-8.22-7.12,1.57-1.81,8.23,7.12-1.57,1.81Z" style="fill:#1a171b;"/><path d="M586.19,166.79l-5.59-4.23c-3.83-2.9-5.49-6.21-2.98-9.52,1.41-1.86,3.65-2.77,5.85-2l.09-.12c-1.92-2.15-2.37-4.83-.42-7.41,2.8-3.7,7.1-3.29,11.3-.11l6.02,4.56-14.27,18.83Zm.89-11.94c-3.2-2.43-5.42-2.25-6.87-.34-1.67,2.2-.78,4.16,2.13,6.37l2.9,2.2,4.63-6.11-2.79-2.11Zm6.27-9.29c-3.22-2.44-6-2.72-7.92-.18-1.76,2.32-.74,4.76,2.56,7.26l3.28,2.48,5.36-7.08-3.28-2.48Z" style="fill:#1a171b;"/><path d="M569.69,154.55l-6.18-4.07c-4.02-2.64-5.96-5.99-3.25-10.1,2.59-3.94,6.73-3.94,10.75-1.3l3.67,2.41,5.49-8.34,2.51,1.65-12.98,19.74Zm.33-13.19c-3.07-2.02-5.58-1.89-7.26,.67-1.71,2.6-.62,4.63,2.45,6.65l3.31,2.18,4.82-7.32-3.31-2.18Zm1.02-1.26h-2.82s.77-14.29,.77-14.29l2.85,1.87-.8,12.42Z" style="fill:#1a171b;"/><path d="M552.79,143.76l-2.59-1.53,12.02-20.34,2.59,1.53-12.02,20.34Z" style="fill:#1a171b;"/><path d="M551.71,129.34c-3.55,6.74-9.69,8.76-14.99,5.97-2.54-1.34-3.88-3.62-4.39-5.61l2.37-.96c.48,1.75,1.44,3.28,3.21,4.21,3.95,2.08,8.28,.23,11.02-4.98,2.77-5.25,2-9.87-1.97-11.96-2-1.05-3.97-.98-6.08-.21l-.58-2.44c2.66-1.05,5.29-1.07,8,.36,5.21,2.74,6.99,8.82,3.41,15.61Z" style="fill:#1a171b;"/><path d="M522.75,128.05l-3.1-1.38,2.33-24.84,2.91,1.3-1.62,13.73c-.3,2.76-.67,5.44-1.08,8.24l.13,.06c1.79-2.2,3.53-4.25,5.38-6.32l9.18-10.35,2.79,1.25-16.93,18.32Zm9.18-11.27l-9.93-4.43,.98-2.19,9.94,4.43-.98,2.19Z" style="fill:#1a171b;"/><path d="M507.82,119.05l6.68,2.53-.9,2.38-16.18-6.13,.9-2.38,6.68,2.53,7.47-19.72,2.81,1.07-7.47,19.72Z" style="fill:#1a171b;"/><path d="M493.75,116.7l-2.86-.93,7.32-22.46,2.86,.93-7.32,22.46Z" style="fill:#1a171b;"/><path d="M489.54,102.91c-1.95,7.31-7.15,10.68-12.89,9.16-5.74-1.53-8.58-7.05-6.63-14.35,1.95-7.31,7.2-10.85,12.93-9.32,5.74,1.53,8.54,7.2,6.59,14.52Zm-16.52-4.4c-1.51,5.69,.24,9.91,4.31,11,4.08,1.08,7.69-1.71,9.21-7.4,1.51-5.69-.19-10.08-4.27-11.16-4.08-1.08-7.74,1.88-9.25,7.56Z" style="fill:#1a171b;"/><path d="M462.69,108.14l-3.05-.57-5.71-16.16-1.62-5.27-.14-.03c-.28,2.37-.54,5.03-.99,7.46l-2.23,12.03-2.81-.52,4.3-23.24,3.05,.56,5.7,16.18,1.62,5.26,.14,.03c.29-2.38,.52-4.9,.97-7.33l2.25-12.16,2.81,.52-4.3,23.24Z" style="fill:#1a171b;"/><path d="M384.45,101.97l-5.89,.47c-7.24,.58-11.46-3.33-12.05-10.81-.59-7.48,2.94-12.17,10.05-12.74l6.02-.48,1.87,23.55Zm-7.35-20.64c-5.5,.44-7.98,4.11-7.5,10.06,.47,5.95,3.48,9.01,8.99,8.58l2.67-.21-1.48-18.64-2.67,.21Z" style="fill:#1a171b;"/><path d="M362.84,104l-2.98,.39-3.07-23.42,2.98-.39,3.07,23.43Z" style="fill:#1a171b;"/><path d="M353.11,93.28c1.38,7.5-2.29,12.89-8.46,14.02-3.22,.59-5.61-.48-7.23-1.64l1.27-2.22c1.4,1,3.07,1.7,5.41,1.27,4.68-.86,7.03-5.01,5.97-10.8-1.07-5.84-4.51-9-9.47-8.09-1.67,.31-3.18,1.1-3.94,2.13l1.11,6.05,4.92-.9,.45,2.45-7.62,1.4-1.79-9.77c1.21-1.83,3.54-3.44,6.67-4.01,6.13-1.12,11.32,2.55,12.7,10.1Z" style="fill:#1a171b;"/><path d="M332.54,109.41l-2.93,.69-5.45-22.99,2.92-.69,5.46,22.99Z" style="fill:#1a171b;"/><path d="M318.28,110.44l6.87-1.97,.7,2.45-16.63,4.77-.7-2.45,6.87-1.97-5.82-20.26,2.89-.83,5.82,20.26Z" style="fill:#1a171b;"/><path d="M302.47,118.06l-3.2,1.12-15.37-19.64,3-1.06,8.26,11.09c1.68,2.21,3.25,4.41,4.87,6.73l.14-.05c-.22-2.83-.36-5.51-.43-8.29l-.44-13.83,2.89-1.01,.29,24.94Zm-1.07-14.5l-10.27,3.61-.79-2.26,10.26-3.61,.79,2.26Z" style="fill:#1a171b;"/><path d="M289.25,122.92l-2.77,1.16-8.16-19.44-9.51,3.99-.99-2.35,12.28-5.16,9.15,21.79Z" style="fill:#1a171b;"/><path d="M267.34,132.68l-12.09,6.28-1.17-2.26,9.42-4.89-3.67-7.07-7.99,4.15-1.17-2.26,7.99-4.15-4.87-9.38,2.67-1.39,10.88,20.97Z" style="fill:#1a171b;"/><path d="M249.02,142.62l-2.92,1.73-18.93-16.25,2.74-1.63,10.28,9.25c2.08,1.84,4.05,3.68,6.1,5.64l.12-.07c-.77-2.73-1.43-5.34-2.05-8.04l-3.15-13.48,2.63-1.56,5.18,24.4Zm-3.9-14l-9.36,5.55-1.22-2.06,9.36-5.55,1.22,2.06Z" style="fill:#1a171b;"/><path d="M237.06,149.91l-5.78,3.97c-3.96,2.72-7.62,3.25-9.98-.17-1.32-1.92-1.47-4.34-.06-6.18l-.08-.12c-2.64,1.14-5.33,.72-7.16-1.94-2.63-3.83-.88-7.78,3.46-10.76l6.23-4.27,13.37,19.48Zm-17.89-13.48c-3.33,2.29-4.47,4.83-2.67,7.46,1.65,2.4,4.29,2.2,7.69-.14l3.39-2.33-5.03-7.32-3.39,2.33Zm6.84,8.88c-3.31,2.27-3.85,4.44-2.49,6.41,1.56,2.28,3.71,2.05,6.72-.01l3-2.06-4.34-6.32-2.88,1.98Z" style="fill:#1a171b;"/><path d="M206.9,155.93l-.88,2.68-13.33-5.21,2.67-2.12,11.54,4.64Zm13.29,5.81l-5.8,4.6c-3.77,2.99-7.55,3.78-10.61-.07-2.93-3.7-1.63-7.62,2.14-10.61l3.44-2.73-6.2-7.82,2.36-1.87,14.68,18.51Zm-12.42-4.45c-2.88,2.28-3.54,4.71-1.64,7.11,1.93,2.44,4.2,2.04,7.08-.24l3.1-2.46-5.44-6.87-3.1,2.46Z" style="fill:#1a171b;"/><path d="M204.65,174.44l-2.26,1.98-15.57-17.77,2.26-1.98,15.57,17.77Z" style="fill:#1a171b;"/><path d="M190.62,170.93c5.3,5.48,5.3,11.94,.99,16.1-2.06,1.99-4.65,2.55-6.7,2.42l-.18-2.55c1.82,.09,3.56-.35,5-1.73,3.21-3.1,2.8-7.8-1.29-12.03-4.13-4.27-8.75-4.98-11.97-1.86-1.62,1.57-2.17,3.46-2.09,5.71l-2.5-.21c-.17-2.86,.63-5.36,2.84-7.49,4.23-4.09,10.56-3.88,15.9,1.63Z" style="fill:#1a171b;"/><path d="M180.37,198.05l-2.28,2.51-22.87-9.95,2.14-2.36,12.54,5.81c2.53,1.15,4.96,2.33,7.49,3.6l.1-.11c-1.54-2.38-2.94-4.68-4.33-7.08l-6.98-11.95,2.06-2.27,12.14,21.79Zm-7.85-12.23l-7.31,8.06-1.78-1.61,7.31-8.06,1.78,1.61Z" style="fill:#1a171b;"/><path d="M167.14,209.45l4.49-5.56,1.98,1.6-10.87,13.45-1.98-1.6,4.49-5.56-16.39-13.25,1.89-2.34,16.39,13.25Z" style="fill:#1a171b;"/><path d="M160.54,222.08l-1.78,2.42-19.04-13.99,1.78-2.42,19.04,13.99Z" style="fill:#1a171b;"/><path d="M146.1,221.78c6.33,4.15,7.89,10.15,4.64,15.11-3.25,4.96-9.39,5.92-15.71,1.78-6.33-4.15-8.03-10.24-4.78-15.21s9.52-5.84,15.85-1.69Zm-9.37,14.3c4.92,3.23,9.48,2.89,11.79-.63,2.31-3.53,.79-7.84-4.13-11.07-4.92-3.23-9.62-2.99-11.94,.54-2.31,3.53-.65,7.93,4.27,11.16Z" style="fill:#1a171b;"/><path d="M142.62,248.92l-1.5,2.72-17.14,.31-5.52-.13-.07,.13c2.16,1.02,4.6,2.1,6.77,3.3l10.71,5.91-1.38,2.5-20.69-11.41,1.5-2.72,17.15-.31,5.5,.12,.07-.13c-2.17-1.02-4.48-2.04-6.65-3.23l-10.83-5.97,1.38-2.5,20.69,11.41Z" style="fill:#1a171b;"/><path d="M112.09,321.19l-1.41,5.74c-1.73,7.06-6.76,9.83-14.05,8.04-7.29-1.79-10.63-6.62-8.93-13.54l1.44-5.87,22.95,5.63Zm-21.91,.48c-1.31,5.36,1.39,8.86,7.19,10.29,5.8,1.42,9.65-.47,10.97-5.83l.64-2.6-18.16-4.45-.64,2.6Z" style="fill:#1a171b;"/><path d="M107.22,342.35l-.57,2.95-23.2-4.44,.56-2.95,23.2,4.44Z" style="fill:#1a171b;"/><path d="M93.98,348.23c7.55,1.04,11.53,6.21,10.67,12.42-.45,3.24-2.21,5.18-3.82,6.35l-1.71-1.9c1.39-1.02,2.58-2.38,2.9-4.73,.65-4.72-2.56-8.25-8.39-9.05-5.88-.81-9.96,1.46-10.65,6.46-.23,1.68,.05,3.36,.79,4.41l6.09,.84,.68-4.96,2.47,.34-1.06,7.67-9.84-1.36c-1.36-1.72-2.16-4.44-1.72-7.59,.85-6.18,5.97-9.95,13.57-8.9Z" style="fill:#1a171b;"/><path d="M102.87,372.81l-.26,3-23.54-2.01,.26-3,23.54,2.01Z" style="fill:#1a171b;"/><path d="M99.39,386.67l.27-7.14,2.54,.1-.66,17.29-2.54-.1,.28-7.14-21.07-.81,.12-3,21.07,.81Z" style="fill:#1a171b;"/><path d="M101.68,404.06l.07,3.39-23.46,8.47-.07-3.18,13.11-4.39c2.62-.9,5.2-1.71,7.91-2.53v-.14c-2.76-.68-5.35-1.38-8.01-2.18l-13.28-3.9-.06-3.06,23.78,7.51Zm-14.1-3.5l.22,10.88-2.4,.05-.22-10.88,2.4-.05Z" style="fill:#1a171b;"/><path d="M102.17,418.12l.24,3-21.01,1.68,.82,10.28-2.54,.2-1.06-13.28,23.55-1.89Z" style="fill:#1a171b;"/><path d="M104.6,442.03l2.18,13.45-2.51,.41-1.7-10.48-7.86,1.27,1.44,8.89-2.51,.41-1.44-8.89-10.43,1.69-.48-2.97,23.32-3.77Z" style="fill:#1a171b;"/><path d="M108.3,462.52l.73,3.31-21.35,12.89-.69-3.11,12-6.86c2.4-1.4,4.77-2.7,7.27-4.02l-.03-.14c-2.83-.12-5.52-.31-8.28-.57l-13.78-1.23-.66-2.99,24.79,2.72Zm-14.52-.68l2.34,10.62-2.34,.52-2.34-10.62,2.34-.52Z" style="fill:#1a171b;"/><path d="M111.47,476.18l1.95,6.73c1.34,4.61,.69,8.26-3.29,9.42-2.24,.65-4.58,.04-5.89-1.89l-.14,.04c.25,2.87-.99,5.29-4.09,6.19-4.46,1.29-7.66-1.6-9.13-6.66l-2.1-7.25,22.69-6.58Zm-18.42,12.75c1.12,3.88,3.19,5.76,6.24,4.88,2.79-.81,3.43-3.38,2.28-7.35l-1.15-3.95-8.53,2.47,1.15,3.95Zm10.57-3.71c1.12,3.86,3.01,5.04,5.31,4.38,2.65-.77,3.11-2.87,2.1-6.38l-1.01-3.49-7.36,2.14,.97,3.36Z" style="fill:#1a171b;"/><path d="M117.41,495.9l2.54,6.95c1.65,4.52,1.21,8.36-3.41,10.04-4.43,1.62-7.75-.85-9.4-5.37l-1.5-4.13-9.38,3.42-1.03-2.83,22.19-8.09Zm-9.71,10.79l2.27,1.68-9.15,11.01-1.17-3.2,8.04-9.49Zm1.57-.4c1.26,3.45,3.35,4.84,6.23,3.79,2.92-1.06,3.26-3.34,2-6.8l-1.36-3.72-8.23,3,1.36,3.72Z" style="fill:#1a171b;"/><path d="M124.55,514.65l1.17,2.77-21.77,9.17-1.17-2.77,21.77-9.17Z" style="fill:#1a171b;"/><path d="M116.81,526.87c6.87-3.29,13-1.26,15.59,4.15,1.24,2.59,.96,5.21,.18,7.12l-2.48-.64c.66-1.69,.8-3.49-.06-5.29-1.93-4.03-6.51-5.12-11.82-2.57-5.36,2.57-7.48,6.73-5.55,10.77,.98,2.03,2.6,3.15,4.76,3.79l-.99,2.3c-2.76-.75-4.88-2.29-6.21-5.06-2.54-5.3-.35-11.25,6.57-14.57Z" style="fill:#1a171b;"/><path d="M139.31,545.18l1.67,2.96-16.66,18.57-1.56-2.77,9.47-10.07c1.88-2.04,3.77-3.97,5.77-5.97l-.07-.13c-2.75,.71-5.37,1.32-8.08,1.87l-13.54,2.85-1.5-2.67,24.51-4.64Zm-14.09,3.59l5.34,9.48-2.09,1.18-5.34-9.48,2.09-1.18Z" style="fill:#1a171b;"/><path d="M145.94,561.3l-3.86-6.02,2.14-1.37,9.34,14.57-2.14,1.37-3.86-6.02-17.75,11.38-1.62-2.53,17.75-11.38Z" style="fill:#1a171b;"/><path d="M155.83,571.55l1.74,2.45-19.26,13.68-1.74-2.45,19.26-13.68Z" style="fill:#1a171b;"/><path d="M151,585.15c5.92-4.71,12.11-4.31,15.81,.33,3.7,4.64,2.68,10.77-3.23,15.48-5.92,4.71-12.24,4.42-15.94-.22-3.7-4.64-2.56-10.87,3.36-15.58Zm10.64,13.37c4.61-3.67,5.72-8.1,3.09-11.4s-7.2-3.21-11.8,.46c-4.61,3.67-5.85,8.21-3.22,11.51,2.63,3.3,7.33,3.1,11.94-.56Z" style="fill:#1a171b;"/><path d="M175.69,596.96l2.12,2.27-5.04,16.38-1.84,5.2,.1,.11c1.64-1.73,3.43-3.72,5.24-5.4l8.95-8.33,1.95,2.09-17.29,16.1-2.12-2.27,5.05-16.39,1.83-5.19-.1-.11c-1.65,1.74-3.33,3.63-5.14,5.31l-9.05,8.43-1.95-2.09,17.29-16.1Z" style="fill:#1a171b;"/></g><g><path d="M244.54,64.72l6.17-2.69c7.59-3.3,13.57-.66,16.98,7.18,3.41,7.84,1.34,14.2-6.11,17.44l-6.31,2.75-10.74-24.68Zm15.56,19.52c5.77-2.51,7.07-7.38,4.36-13.61-2.71-6.24-7.09-8.42-12.85-5.91l-2.8,1.22,8.5,19.53,2.8-1.22Z" style="fill:#1a171b;"/><path d="M268.74,54.62l3.21-1.2,9.44,25.2-3.21,1.2-9.44-25.2Z" style="fill:#1a171b;"/><path d="M282.43,63.81c-2.62-8.27,.76-14.9,7.56-17.05,3.56-1.13,6.41-.25,8.4,.82l-1.12,2.69c-1.72-.93-3.71-1.49-6.29-.67-5.17,1.64-7.23,6.66-5.21,13.05,2.04,6.45,6.37,9.53,11.84,7.79,1.84-.58,3.44-1.69,4.15-2.97l-2.12-6.68-5.43,1.72-.86-2.71,8.41-2.66,3.41,10.78c-1.11,2.24-3.52,4.39-6.97,5.48-6.77,2.14-13.15-1.27-15.79-9.61Z" style="fill:#1a171b;"/><path d="M305.08,42.93l3.31-.86,6.78,26.04-3.31,.86-6.78-26.04Z" style="fill:#1a171b;"/><path d="M322.54,41.72l-7.96,1.68-.6-2.84,19.28-4.06,.6,2.84-7.96,1.68,4.94,23.49-3.35,.71-4.94-23.49Z" style="fill:#1a171b;"/><path d="M343.01,34.99l3.82-.57,12.98,25.26-3.59,.54-6.86-14.17c-1.4-2.83-2.69-5.63-4-8.57l-.16,.02c-.36,3.21-.78,6.24-1.29,9.36l-2.47,15.56-3.45,.51,5.03-27.95Zm-1.91,16.44l12.25-1.83,.4,2.7-12.25,1.83-.4-2.7Z" style="fill:#1a171b;"/><path d="M360.66,32.64l3.41-.3,2.13,23.91,11.7-1.04,.26,2.89-15.11,1.34-2.38-26.8Z" style="fill:#1a171b;"/><path d="M390.17,30.73l15.52-.25,.05,2.9-12.09,.2,.15,9.07,10.25-.17,.05,2.9-10.26,.17,.2,12.04-3.42,.06-.44-26.91Z" style="fill:#1a171b;"/><path d="M415.71,30.94l3.86,.18,7.83,27.31-3.62-.17-3.98-15.23c-.83-3.05-1.55-6.04-2.27-9.18h-.16c-.98,3.07-1.98,5.97-3.08,8.93l-5.44,14.79-3.48-.16,10.35-26.45Zm-5.06,15.76l12.38,.58-.13,2.73-12.38-.58,.13-2.73Z" style="fill:#1a171b;"/><path d="M433.62,32.03l7.94,.9c5.44,.62,8.99,2.89,8.46,7.59-.3,2.64-1.97,4.83-4.56,5.36l-.02,.16c3.12,.99,5.13,3.36,4.71,7.01-.59,5.25-5.04,7.35-11,6.68l-8.55-.97,3.02-26.74Zm5.34,24.95c4.57,.52,7.45-.83,7.86-4.43,.37-3.29-2.05-5.09-6.72-5.62l-4.65-.53-1.14,10.05,4.65,.53Zm.74-12.74c4.55,.51,6.62-.95,6.93-3.66,.35-3.12-1.66-4.53-5.79-5l-4.11-.47-.98,8.68,3.96,.45Z" style="fill:#1a171b;"/><path d="M458.91,35.21l8.29,1.51c5.39,.99,8.91,3.63,7.9,9.14-.97,5.29-5.3,7.12-10.69,6.14l-4.92-.9-2.04,11.19-3.37-.62,4.84-26.47Zm5.51,13.98c4.12,.75,6.69-.5,7.32-3.93,.64-3.48-1.41-5.13-5.52-5.88l-4.44-.81-1.79,9.82,4.44,.81Zm-.51,1.78l2.96-1.26,5.54,15.33-3.82-.7-4.68-13.37Z" style="fill:#1a171b;"/><path d="M482.74,39.93l3.33,.78-6.13,26.2-3.33-.78,6.13-26.2Z" style="fill:#1a171b;"/><path d="M489,55.18c2.39-8.34,8.76-12.02,15.33-10.14,3.14,.9,5.16,3.13,6.2,5.23l-2.42,1.63c-.95-1.84-2.37-3.32-4.55-3.94-4.89-1.4-9.28,1.67-11.13,8.12-1.86,6.5,.07,11.47,4.98,12.87,2.47,.71,4.65,.17,6.83-1.19l1.21,2.58c-2.72,1.79-5.65,2.42-9.01,1.46-6.44-1.85-9.84-8.21-7.44-16.61Z" style="fill:#1a171b;"/><path d="M523.13,51.63l3.64,1.31-.54,28.41-3.41-1.23,.67-15.73c.11-3.16,.29-6.23,.53-9.45l-.15-.06c-1.84,2.66-3.65,5.13-5.57,7.63l-9.55,12.54-3.28-1.18,17.67-22.25Zm-9.47,13.58l11.66,4.19-.92,2.57-11.66-4.19,.92-2.57Z" style="fill:#1a171b;"/><path d="M541.83,61.97l-7.49-3.19,1.13-2.67,18.13,7.71-1.13,2.67-7.49-3.19-9.4,22.09-3.15-1.34,9.4-22.09Z" style="fill:#1a171b;"/><path d="M558.74,66.38l3.08,1.49-11.69,24.24-3.08-1.49,11.69-24.24Z" style="fill:#1a171b;"/><path d="M561.64,82.49c4.16-7.55,10.84-9.84,16.76-6.57s7.54,10.15,3.38,17.68c-4.16,7.55-10.94,10.01-16.86,6.74s-7.45-10.31-3.29-17.85Zm17.05,9.4c3.24-5.87,2.47-11.02-1.74-13.34s-8.97-.23-12.21,5.64-2.56,11.19,1.64,13.51c4.21,2.32,9.07,.06,12.3-5.81Z" style="fill:#1a171b;"/><path d="M594.49,85.76l2.96,1.94-1.15,19.49-.63,6.25,.14,.09c1.35-2.36,2.79-5.04,4.33-7.4l7.65-11.64,2.72,1.79-14.77,22.49-2.96-1.94,1.15-19.5,.62-6.24-.14-.09c-1.35,2.37-2.71,4.91-4.25,7.27l-7.73,11.77-2.72-1.79,14.77-22.49Z" style="fill:#1a171b;"/><path d="M669.58,147.32l4.48,5.02c5.51,6.17,4.88,12.68-1.5,18.38-6.38,5.69-13.06,5.72-18.47-.34l-4.58-5.13,20.07-17.93Zm-13.66,20.89c4.19,4.69,9.22,4.41,14.29-.13s5.78-9.37,1.59-14.06l-2.03-2.28-15.88,14.19,2.03,2.28Z" style="fill:#1a171b;"/><path d="M686.77,167.16l2.15,2.67-20.96,16.87-2.15-2.67,20.96-16.88Z" style="fill:#1a171b;"/><path d="M682.33,183.01c7.03-5.09,14.38-3.96,18.56,1.82,2.19,3.02,2.25,6,1.86,8.23l-2.91-.21c.34-1.93,.25-3.99-1.34-6.18-3.18-4.39-8.59-4.77-14.03-.84-5.48,3.96-7.04,9.04-3.67,13.69,1.13,1.56,2.69,2.73,4.12,3l5.68-4.11-3.34-4.62,2.3-1.66,5.17,7.15-9.16,6.63c-2.48-.34-5.27-1.96-7.39-4.89-4.16-5.75-2.92-12.88,4.16-18.01Z" style="fill:#1a171b;"/><path d="M709.26,197.93l1.86,2.87-22.58,14.63-1.86-2.87,22.58-14.63Z" style="fill:#1a171b;"/><path d="M715.91,214.11l-4.1-7.03,2.5-1.46,9.93,17.02-2.5,1.46-4.1-7.03-20.74,12.1-1.73-2.96,20.74-12.1Z" style="fill:#1a171b;"/><path d="M728.77,231.43l1.75,3.45-19.89,20.29-1.64-3.24,11.29-10.98c2.25-2.22,4.49-4.33,6.87-6.5l-.07-.15c-3.16,.67-6.17,1.23-9.29,1.72l-15.55,2.56-1.58-3.11,28.12-4.05Zm-16.21,3.37l5.6,11.05-2.44,1.24-5.6-11.05,2.44-1.24Z" style="fill:#1a171b;"/><path d="M736.57,247.48l1.36,3.14-22.03,9.54,4.67,10.77-2.66,1.15-6.03-13.92,24.69-10.7Z" style="fill:#1a171b;"/><path d="M747.76,275.03l4.99,14.69-2.74,.93-3.89-11.45-8.59,2.92,3.3,9.71-2.74,.93-3.3-9.71-11.4,3.87-1.1-3.24,25.48-8.65Z" style="fill:#1a171b;"/><path d="M755.47,299.25l1.03,3.72-23.5,15.96-.97-3.49,13.23-8.54c2.64-1.74,5.26-3.36,8.02-5.02l-.04-.16c-3.23,.03-6.29-.02-9.45-.14l-15.75-.56-.93-3.36,28.36,1.58Zm-16.55,.11l3.31,11.94-2.63,.73-3.31-11.94,2.63-.73Z" style="fill:#1a171b;"/><path d="M760.02,316.61l1.62,7.82c1.11,5.36,.05,9.44-4.58,10.4-2.6,.54-5.21-.37-6.52-2.67l-.16,.03c.03,3.28-1.59,5.92-5.2,6.66-5.18,1.07-8.56-2.5-9.77-8.38l-1.74-8.42,26.35-5.45Zm-22.05,12.84c.93,4.51,3.1,6.83,6.65,6.09,3.25-.67,4.2-3.53,3.25-8.14l-.95-4.59-9.9,2.05,.95,4.59Zm12.33-3.26c.93,4.48,2.96,6,5.63,5.44,3.08-.64,3.79-2.98,2.95-7.06l-.84-4.05-8.55,1.77,.81,3.9Z" style="fill:#1a171b;"/><path d="M764.88,341.61l1.14,8.35c.74,5.43-.67,9.6-6.23,10.35-5.32,.73-8.42-2.82-9.16-8.25l-.68-4.96-11.27,1.54-.46-3.39,26.66-3.65Zm-13.41,9.66l2.12,2.42-12.84,10.04-.53-3.85,11.25-8.61Zm1.85-.07c.57,4.15,2.56,6.2,6.02,5.73,3.51-.48,4.44-2.93,3.87-7.08l-.61-4.47-9.89,1.35,.61,4.47Z" style="fill:#1a171b;"/><path d="M767.82,365.77l.3,3.41-26.81,2.34-.3-3.41,26.81-2.34Z" style="fill:#1a171b;"/><path d="M755.26,376.42c8.67-.34,14.16,4.57,14.42,11.39,.13,3.26-1.36,5.88-3.03,7.52l-2.3-1.79c1.46-1.47,2.41-3.29,2.32-5.56-.2-5.08-4.49-8.3-11.19-8.04-6.76,.26-10.87,3.65-10.67,8.75,.1,2.57,1.29,4.47,3.26,6.12l-2.07,1.96c-2.55-2.03-4.07-4.61-4.2-8.1-.26-6.7,4.73-11.92,13.46-12.26Z" style="fill:#1a171b;"/><path d="M769.31,407.69l-.1,3.86-27.13,8.41,.09-3.63,15.14-4.3c3.03-.89,6.01-1.68,9.13-2.46v-.16c-3.09-.91-6.01-1.85-8.99-2.9l-14.9-5.13,.09-3.48,26.67,9.79Zm-15.86-4.73l-.32,12.39-2.73-.07,.32-12.39,2.73,.07Z" style="fill:#1a171b;"/><path d="M765.38,428.68l.67-8.11,2.89,.24-1.61,19.64-2.89-.24,.67-8.11-23.93-1.97,.28-3.41,23.93,1.97Z" style="fill:#1a171b;"/><path d="M766.53,446.14l-.44,3.4-26.69-3.46,.44-3.4,26.69,3.46Z" style="fill:#1a171b;"/><path d="M752.15,453.96c8.47,1.57,12.75,7.19,11.52,13.83-1.23,6.65-7.25,10.35-15.71,8.78-8.47-1.57-12.94-7.22-11.71-13.87,1.23-6.64,7.43-10.32,15.91-8.75Zm-3.55,19.14c6.59,1.22,11.23-1.13,12.11-5.85,.88-4.72-2.61-8.58-9.21-9.81-6.59-1.22-11.42,1.09-12.3,5.82-.88,4.72,2.8,8.62,9.4,9.84Z" style="fill:#1a171b;"/><path d="M759.4,486.18l-.91,3.42-18.86,5.05-6.13,1.37-.04,.16c2.67,.53,5.67,1.06,8.38,1.79l13.46,3.59-.84,3.14-26-6.94,.91-3.42,18.87-5.04,6.12-1.37,.04-.16c-2.67-.54-5.51-1.02-8.23-1.75l-13.61-3.63,.84-3.14,26,6.94Z" style="fill:#1a171b;"/><path d="M724.49,576.84l-3.37,5.83c-4.14,7.16-10.52,8.6-17.92,4.32-7.4-4.28-9.51-10.62-5.45-17.65l3.44-5.96,23.29,13.46Zm-24.1-6.45c-3.15,5.44-1.3,10.13,4.58,13.53,5.89,3.4,10.7,2.56,13.85-2.88l1.53-2.64-18.43-10.65-1.53,2.64Z" style="fill:#1a171b;"/><path d="M711.01,599.37l-1.86,2.87-22.57-14.65,1.87-2.87,22.57,14.65Z" style="fill:#1a171b;"/><path d="M694.56,600.09c7.03,5.09,8.25,12.42,4.06,18.2-2.19,3.02-5,4.02-7.24,4.34l-.71-2.83c1.94-.28,3.87-1.01,5.46-3.2,3.18-4.39,1.85-9.66-3.58-13.59-5.48-3.97-10.79-3.87-14.16,.78-1.13,1.56-1.75,3.41-1.57,4.85l5.67,4.11,3.34-4.62,2.3,1.67-5.18,7.14-9.16-6.64c-.45-2.46,.21-5.62,2.34-8.55,4.17-5.75,11.33-6.8,18.41-1.67Z" style="fill:#1a171b;"/><path d="M688.79,630.33l-2.15,2.67-20.95-16.88,2.15-2.67,20.95,16.88Z" style="fill:#1a171b;"/><path d="M675.5,641.69l5.4-6.09,2.17,1.92-13.07,14.75-2.17-1.92,5.4-6.09-17.97-15.92,2.27-2.56,17.97,15.92Z" style="fill:#1a171b;"/><path d="M663.06,659.32l-2.73,2.74-25.49-12.54,2.56-2.57,13.96,7.28c2.81,1.44,5.52,2.91,8.33,4.49l.12-.12c-1.62-2.79-3.1-5.48-4.55-8.29l-7.3-13.97,2.46-2.47,12.64,25.44Zm-8.28-14.33l-8.74,8.78-1.94-1.93,8.74-8.78,1.94,1.93Z" style="fill:#1a171b;"/><path d="M650.28,671.73l-2.56,2.28-15.97-17.93-8.77,7.81-1.93-2.16,11.33-10.09,17.9,20.09Z" style="fill:#1a171b;"/><path d="M627.64,691l-12.38,9.36-1.75-2.31,9.65-7.29-5.47-7.24-8.18,6.18-1.75-2.31,8.18-6.18-7.26-9.61,2.73-2.07,16.22,21.47Z" style="fill:#1a171b;"/><path d="M607.09,705.92l-3.21,2.15-22.54-17.28,3.01-2.02,12.27,9.87c2.48,1.96,4.84,3.93,7.29,6.03l.14-.09c-1.04-3.06-1.96-5.98-2.84-9.02l-4.43-15.13,2.89-1.94,7.42,27.42Zm-5.31-15.68l-10.29,6.9-1.52-2.27,10.29-6.9,1.52,2.27Z" style="fill:#1a171b;"/><path d="M592.04,715.71l-6.91,4c-4.74,2.74-8.95,3.03-11.31-1.07-1.33-2.3-1.29-5.06,.48-7.03l-.08-.14c-3.1,1.06-6.12,.35-7.96-2.83-2.65-4.58-.32-8.91,4.87-11.92l7.44-4.31,13.48,23.29Zm-19.14-16.88c-3.98,2.31-5.5,5.1-3.68,8.24,1.66,2.87,4.68,2.88,8.75,.52l4.05-2.35-5.07-8.76-4.05,2.35Zm6.99,10.68c-3.96,2.29-4.76,4.7-3.39,7.06,1.57,2.72,4.03,2.66,7.63,.57l3.58-2.07-4.38-7.56-3.45,2Z" style="fill:#1a171b;"/><path d="M556.45,718.52l-1.63,2.77-13.58-9.02,3.48-1.71,11.72,7.96Zm13.4,9.68l-7.57,3.72c-4.92,2.42-9.32,2.39-11.79-2.65-2.37-4.83,.02-8.88,4.94-11.3l4.49-2.21-5.02-10.21,3.07-1.51,11.87,24.16Zm-12.75-7.95c-3.76,1.85-5.08,4.39-3.54,7.52,1.56,3.18,4.18,3.29,7.94,1.44l4.05-1.99-4.4-8.96-4.05,1.99Z" style="fill:#1a171b;"/><path d="M547.85,738.6l-3.14,1.36-10.67-24.71,3.14-1.36,10.67,24.71Z" style="fill:#1a171b;"/><path d="M533.78,730.04c3.04,8.13,.11,14.87-6.28,17.27-3.06,1.15-6.01,.56-8.09-.51l.98-2.75c1.86,.92,3.88,1.26,6.01,.46,4.76-1.78,6.47-6.87,4.12-13.15-2.37-6.33-6.88-9.17-11.66-7.38-2.41,.9-3.84,2.63-4.78,5.02l-2.51-1.35c1.12-3.06,3.1-5.31,6.37-6.53,6.28-2.35,12.8,.74,15.86,8.93Z" style="fill:#1a171b;"/><path d="M508.46,753.2l-3.7,1.11-16.47-23.15,3.47-1.04,8.82,13.04c1.79,2.6,3.47,5.18,5.19,7.91l.16-.05c-.1-3.23-.12-6.29-.06-9.45l.21-15.76,3.34-1-.97,28.39Zm-.47-16.54l-11.86,3.57-.79-2.62,11.86-3.57,.79,2.62Z" style="fill:#1a171b;"/><path d="M487.28,756.03l7.92-1.9,.67,2.82-19.16,4.59-.67-2.82,7.92-1.9-5.59-23.35,3.33-.8,5.59,23.35Z" style="fill:#1a171b;"/><path d="M471.05,762.56l-3.36,.64-5.03-26.44,3.36-.64,5.03,26.44Z" style="fill:#1a171b;"/><path d="M459.12,751.32c1.15,8.54-2.86,14.36-9.56,15.25-6.7,.9-12.09-3.67-13.24-12.2-1.14-8.54,2.83-14.55,9.53-15.45,6.7-.9,12.12,3.85,13.26,12.39Zm-19.29,2.59c.89,6.64,4.57,10.32,9.33,9.68,4.76-.64,7.34-5.16,6.45-11.8s-4.6-10.51-9.36-9.88c-4.76,.64-7.32,5.35-6.43,11.99Z" style="fill:#1a171b;"/><path d="M430.8,768.24l-3.53,.2-10.68-16.34-3.21-5.4h-.16c.33,2.71,.76,5.72,.92,8.53l.79,13.91-3.25,.18-1.52-26.87,3.53-.2,10.68,16.36,3.21,5.38h.16c-.33-2.72-.75-5.57-.91-8.38l-.8-14.06,3.25-.18,1.52,26.87Z" style="fill:#1a171b;"/><path d="M333.8,763.58l-6.59-1.36c-8.1-1.67-11.48-7.28-9.75-15.65s7.08-12.38,15.04-10.74l6.74,1.39-5.44,26.36Zm-1.47-24.92c-6.16-1.27-10.03,1.96-11.41,8.62-1.38,6.66,.94,10.97,7.1,12.24l2.99,.62,4.3-20.86-2.99-.62Z" style="fill:#1a171b;"/><path d="M308.19,757.88l-3.31-.86,6.79-26.04,3.31,.86-6.79,26.04Z" style="fill:#1a171b;"/><path d="M302.32,742.49c-2.62,8.27-9.19,11.74-15.99,9.58-3.55-1.13-5.38-3.48-6.39-5.51l2.46-1.56c.88,1.75,2.18,3.35,4.75,4.17,5.17,1.64,9.75-1.28,11.77-7.67,2.04-6.45,.28-11.45-5.2-13.19-1.84-.58-3.78-.59-5.1,.04l-2.12,6.68,5.43,1.72-.86,2.7-8.41-2.67,3.42-10.78c2.19-1.2,5.4-1.56,8.85-.47,6.77,2.15,10.02,8.61,7.38,16.94Z" style="fill:#1a171b;"/><path d="M271.75,746.5l-3.21-1.2,9.46-25.19,3.21,1.21-9.46,25.19Z" style="fill:#1a171b;"/><path d="M256.8,737.45l7.48,3.22-1.15,2.66-18.1-7.79,1.15-2.66,7.48,3.22,9.49-22.05,3.15,1.35-9.49,22.05Z" style="fill:#1a171b;"/><path d="M236.17,731.15l-3.45-1.73,3.94-28.13,3.24,1.63-2.55,15.54c-.49,3.12-1.04,6.15-1.66,9.31l.15,.07c2.15-2.41,4.24-4.65,6.45-6.91l10.98-11.3,3.11,1.56-20.21,19.96Zm11.03-12.34l-11.07-5.56,1.23-2.44,11.07,5.56-1.23,2.44Z" style="fill:#1a171b;"/><path d="M220.38,722.9l-2.96-1.72,12.05-20.77-10.16-5.89,1.45-2.51,13.12,7.61-13.5,23.27Z" style="fill:#1a171b;"/><path d="M195.01,707.39l-12.75-8.84,1.65-2.38,9.94,6.89,5.17-7.46-8.43-5.84,1.65-2.38,8.43,5.84,6.86-9.89,2.81,1.95-15.33,22.11Z" style="fill:#1a171b;"/><path d="M174.39,692.51l-3.05-2.38,9.39-26.81,2.86,2.23-5.55,14.74c-1.09,2.97-2.23,5.83-3.46,8.81l.13,.1c2.58-1.95,5.07-3.73,7.68-5.51l12.99-8.93,2.75,2.15-23.74,15.61Zm13.24-9.94l-9.77-7.63,1.68-2.15,9.77,7.63-1.68,2.15Z" style="fill:#1a171b;"/><path d="M160.43,681.29l-5.96-5.32c-4.08-3.64-5.67-7.55-2.52-11.08,1.77-1.98,4.4-2.81,6.82-1.74l.11-.12c-1.98-2.61-2.25-5.7,.2-8.45,3.52-3.94,8.37-3.09,12.84,.91l6.42,5.73-17.92,20.08Zm2.1-13.48c-3.42-3.05-5.95-3.05-7.77-1.01-2.09,2.34-1.27,4.66,1.84,7.43l3.09,2.76,5.81-6.52-2.97-2.65Zm7.96-9.97c-3.43-3.06-6.56-3.63-8.97-.93-2.21,2.47-1.27,5.34,2.24,8.47l3.5,3.12,6.73-7.55-3.5-3.12Z" style="fill:#1a171b;"/><path d="M141.62,664.1l-5.9-6.02c-3.83-3.92-5.18-8.11-1.18-12.03,3.84-3.76,8.44-2.76,12.28,1.16l3.5,3.58,8.13-7.96,2.4,2.45-19.23,18.83Zm3.56-14.6c-2.93-2.99-5.75-3.45-8.25-1.01-2.53,2.48-1.81,5,1.12,8l3.16,3.22,7.13-6.98-3.16-3.22Zm1.44-1.16l-3.14-.68,4.32-15.72,2.72,2.77-3.89,13.62Z" style="fill:#1a171b;"/><path d="M124.88,646.48l-2.27-2.56,20.12-17.87,2.27,2.56-20.12,17.87Z" style="fill:#1a171b;"/><path d="M128.58,630.42c-6.76,5.44-14.09,4.77-18.37-.55-2.05-2.54-2.41-5.53-2.05-7.85l2.91,.06c-.29,2.05,.03,4.08,1.45,5.85,3.19,3.96,8.55,3.98,13.77-.22,5.27-4.24,6.55-9.41,3.35-13.39-1.61-2-3.7-2.82-6.26-2.96l.5-2.81c3.25,.11,6.01,1.27,8.2,4,4.2,5.22,3.31,12.38-3.5,17.86Z" style="fill:#1a171b;"/><path d="M98.66,613.67l-2.22-3.16,16.79-22.91,2.08,2.97-9.6,12.48c-1.91,2.52-3.83,4.92-5.87,7.42l.09,.13c3.03-1.11,5.93-2.09,8.95-3.03l15.03-4.75,2,2.85-27.25,8.01Zm15.56-5.65l-7.12-10.14,2.24-1.57,7.12,10.14-2.24,1.57Z" style="fill:#1a171b;"/><path d="M89.31,594.47l4.29,6.92-2.46,1.53-10.39-16.74,2.46-1.53,4.29,6.92,20.4-12.66,1.81,2.91-20.4,12.66Z" style="fill:#1a171b;"/><path d="M78,581.13l-1.67-2.99,23.5-13.1,1.67,2.99-23.5,13.1Z" style="fill:#1a171b;"/><path d="M84.9,566.27c-7.75,3.78-14.53,1.81-17.49-4.26-2.96-6.07-.33-12.64,7.41-16.41,7.75-3.78,14.7-1.89,17.66,4.18s.17,12.71-7.58,16.49Zm-8.53-17.5c-6.02,2.94-8.36,7.59-6.25,11.91s7.21,5.35,13.23,2.41c6.03-2.94,8.53-7.68,6.42-12s-7.38-5.26-13.41-2.32Z" style="fill:#1a171b;"/><path d="M59.91,544.72l-1.3-3.29,12.15-15.28,4.11-4.75-.06-.15c-2.46,1.16-5.19,2.52-7.8,3.55l-12.95,5.12-1.2-3.02,25.03-9.89,1.3,3.29-12.17,15.28-4.1,4.75,.06,.15c2.47-1.16,5.04-2.46,7.66-3.5l13.1-5.18,1.2,3.02-25.03,9.89Z" style="fill:#1a171b;"/><path d="M34.01,451.07l-.76-6.69c-.94-8.22,3.34-13.17,11.84-14.14,8.5-.97,13.97,2.87,14.89,10.95l.78,6.84-26.74,3.04Zm23.22-9.16c-.71-6.25-4.98-8.92-11.74-8.15-6.76,.77-10.13,4.31-9.42,10.56l.35,3.03,21.16-2.41-.35-3.03Z" style="fill:#1a171b;"/><path d="M31.44,424.97l-.21-3.42,26.86-1.67,.21,3.42-26.86,1.67Z" style="fill:#1a171b;"/><path d="M44.29,414.61c-8.68,.14-14.06-4.99-14.17-12.12-.06-3.73,1.59-6.21,3.19-7.81l2.26,1.84c-1.38,1.39-2.49,3.13-2.44,5.83,.09,5.42,4.31,8.84,11.01,8.73,6.76-.11,10.95-3.38,10.86-9.12-.03-1.93-.64-3.78-1.66-4.82l-7.01,.11,.09,5.7-2.84,.05-.14-8.82,11.31-.19c1.83,1.7,3.2,4.63,3.26,8.24,.12,7.1-4.99,12.24-13.72,12.38Z" style="fill:#1a171b;"/><path d="M30.84,386.86l.13-3.42,26.89,1.06-.14,3.42-26.89-1.06Z" style="fill:#1a171b;"/><path d="M34.74,369.81l-.7,8.11-2.89-.25,1.69-19.63,2.89,.25-.7,8.11,23.92,2.06-.29,3.41-23.92-2.06Z" style="fill:#1a171b;"/><path d="M34.21,348.25l.56-3.82,27.94-5.13-.52,3.59-15.55,2.48c-3.12,.52-6.16,.95-9.36,1.36l-.02,.16c2.97,1.27,5.75,2.55,8.59,3.94l14.19,6.86-.5,3.45-25.32-12.88Zm15.19,6.57l1.78-12.26,2.7,.39-1.79,12.26-2.7-.39Z" style="fill:#1a171b;"/><path d="M37.06,330.66l.7-3.35,23.51,4.89,2.39-11.5,2.84,.59-3.09,14.85-26.35-5.48Z" style="fill:#1a171b;"/><path d="M43.8,301.66l4.38-14.89,2.78,.82-3.42,11.6,8.71,2.56,2.9-9.84,2.78,.82-2.9,9.84,11.55,3.4-.97,3.29-25.82-7.6Z" style="fill:#1a171b;"/><path d="M51.44,277.44l1.3-3.64,28.4,.49-1.22,3.42-15.73-.64c-3.16-.1-6.23-.28-9.45-.52l-.05,.15c2.66,1.84,5.13,3.64,7.64,5.56l12.55,9.53-1.17,3.28-22.27-17.63Zm13.59,9.45l4.17-11.67,2.57,.92-4.17,11.67-2.57-.92Z" style="fill:#1a171b;"/><path d="M57.72,260.63l3.18-7.32c2.18-5.02,5.4-7.75,9.73-5.86,2.44,1.06,4.04,3.3,3.79,5.94l.15,.07c1.86-2.7,4.71-3.92,8.09-2.45,4.85,2.11,5.55,6.98,3.16,12.48l-3.43,7.89-24.68-10.73Zm13.45-2.23c1.82-4.2,1.03-6.61-1.47-7.69-2.88-1.25-4.82,.25-6.48,4.07l-1.65,3.8,8.01,3.48,1.59-3.65Zm11.96,4.44c1.83-4.22,1.39-7.37-1.93-8.81-3.04-1.32-5.47,.47-7.34,4.78l-1.87,4.29,9.28,4.03,1.87-4.29Z" style="fill:#1a171b;"/><path d="M68.15,237.39l3.88-7.48c2.52-4.87,6.08-7.46,11.06-4.88,4.77,2.47,5.26,7.16,2.74,12.02l-2.3,4.44,10.1,5.23-1.58,3.04-23.89-12.38Zm14.98-1.18c1.93-3.72,1.48-6.55-1.62-8.15-3.14-1.63-5.32-.16-7.25,3.56l-2.08,4.01,8.86,4.59,2.08-4.01Zm1.55,1.01l-.34-3.2,16.28-.81-1.79,3.45-14.16,.56Z" style="fill:#1a171b;"/><path d="M79.66,215.97l1.72-2.96,23.25,13.53-1.72,2.96-23.25-13.53Z" style="fill:#1a171b;"/><path d="M96.07,214.46c-7.28-4.73-8.93-11.9-5.22-17.62,1.78-2.74,4.5-4.02,6.81-4.4l.85,2.79c-2.04,.37-3.87,1.3-5.1,3.2-2.77,4.27-1.11,9.37,4.51,13.02,5.67,3.68,10.99,3.28,13.77-1,1.4-2.15,1.52-4.4,.86-6.88l2.82-.4c.91,3.13,.67,6.11-1.24,9.04-3.65,5.62-10.73,7.01-18.06,2.26Z" style="fill:#1a171b;"/><path d="M102.65,180.81l2.31-3.1,27.01,8.8-2.17,2.91-14.85-5.23c-2.99-1.02-5.87-2.1-8.88-3.27l-.1,.13c2,2.53,3.84,4.98,5.67,7.56l9.21,12.79-2.08,2.79-16.12-23.39Zm10.22,13.02l7.41-9.93,2.19,1.63-7.41,9.93-2.19-1.63Z" style="fill:#1a171b;"/><path d="M117.98,165.93l-5.23,6.24-2.22-1.86,12.67-15.1,2.22,1.86-5.23,6.24,18.4,15.43-2.2,2.62-18.4-15.43Z" style="fill:#1a171b;"/><path d="M127.13,151.02l2.32-2.52,19.79,18.24-2.32,2.52-19.79-18.24Z" style="fill:#1a171b;"/><path d="M143.36,152.97c-6.01-6.17-6.27-13.23-1.42-17.95,4.84-4.72,11.9-4.27,17.9,1.9,6.01,6.17,6.4,13.37,1.56,18.09-4.84,4.72-12.03,4.14-18.04-2.04Zm13.95-13.58c-4.68-4.8-9.83-5.56-13.27-2.21-3.44,3.35-2.82,8.52,1.86,13.32s9.96,5.7,13.41,2.35c3.44-3.35,2.68-8.66-1.99-13.46Z" style="fill:#1a171b;"/><path d="M156.02,122.5l2.71-2.27,18.32,6.74,5.8,2.41,.13-.1c-1.87-1.97-4.02-4.13-5.82-6.29l-8.93-10.69,2.5-2.08,17.25,20.65-2.71,2.27-18.33-6.75-5.79-2.4-.13,.1c1.88,1.98,3.92,4.01,5.72,6.17l9.02,10.81-2.5,2.08-17.25-20.65Z" style="fill:#1a171b;"/></g><path d="M400,118.47c-155.48,0-281.53,126.04-281.53,281.53s126.04,281.53,281.53,281.53,281.53-126.04,281.53-281.53S555.48,118.47,400,118.47Zm-6.6,462.64l-138.51-138.51-51.25,51.25-32.44-32.44,141.19-141.19,32.44,32.44-51.25,51.25,138.51,138.51-38.69,38.69Zm179.5-173.2c-23.1,23.1-55.41,38.5-89.77,40.4l-4.37-48.77c23.51-2.34,46.72-11.03,63.29-27.61,16.42-16.42,17.64-30.36,9.28-38.72-12.31-12.31-25.44-5.12-48.4,4.28l-31.78,12.77c-26.14,11.74-57.96,14.5-82.84-10.37-28.32-28.32-25.44-76.45,11.7-113.59,20.56-20.56,49.06-33.63,79.16-34.39l4.89,43.88c-20.68,3.39-36.05,9.34-52.75,26.04-12.75,12.75-16.11,26.67-6.12,36.66,10.28,10.28,25.5,2.58,48.05-7.66l29.78-12.05c30.78-13.99,58.88-14.17,83,9.95,28.42,28.42,29.19,76.87-13.13,119.19Z" style="fill:#1a171b;"/></svg>