<?xml version="1.0" encoding="UTF-8"?><svg id="a" xmlns="http://www.w3.org/2000/svg" viewBox="0 0 800 800"><g><path d="M324.48,690.65l3.01,.77,1.74,22.79-2.83-.72-.66-12.65c-.15-2.54-.24-5.01-.29-7.61l-.13-.03c-1.27,2.27-2.53,4.39-3.88,6.54l-6.69,10.77-2.72-.69,12.46-19.17Zm-6.55,11.6l9.66,2.47-.54,2.13-9.66-2.47,.54-2.13Z" style="fill:#1a171b;"/><path d="M337.02,693.7l6.66,1.29c4.33,.84,7.14,2.99,6.28,7.42-.82,4.25-4.33,5.69-8.66,4.85l-3.95-.77-1.74,8.99-2.71-.52,4.12-21.26Zm4.32,11.29c3.31,.64,5.39-.35,5.92-3.1,.54-2.8-1.09-4.14-4.39-4.78l-3.57-.69-1.53,7.88,3.56,.69Zm-.43,1.42l2.39-.99,4.33,12.38-3.07-.59-3.66-10.8Z" style="fill:#1a171b;"/><path d="M352.34,707.6c.91-6.93,5.54-10.62,10.99-9.9,2.61,.34,4.48,1.88,5.56,3.42l-1.73,1.58c-.97-1.35-2.28-2.36-4.1-2.6-4.06-.53-7.19,2.44-7.89,7.79-.71,5.4,1.43,9.12,5.5,9.65,2.05,.27,3.72-.42,5.29-1.76l1.27,1.91c-1.95,1.75-4.2,2.6-6.99,2.24-5.35-.7-8.82-5.36-7.9-12.33Z" style="fill:#1a171b;"/><path d="M373.17,699.25l2.75,.18-.58,9.05,10.05,.65,.58-9.05,2.75,.18-1.39,21.62-2.75-.18,.66-10.16-10.05-.65-.65,10.16-2.75-.18,1.39-21.62Z" style="fill:#1a171b;"/><path d="M394.27,700.31l2.76,.04-.33,21.66-2.76-.04,.33-21.66Z" style="fill:#1a171b;"/><path d="M407.18,702.62l-6.55,.19-.07-2.33,15.86-.45,.07,2.33-6.55,.18,.55,19.32-2.75,.08-.55-19.32Z" style="fill:#1a171b;"/><path d="M419.82,699.77l12.44-1.07,.2,2.33-9.69,.83,.58,6.76,8.18-.7,.2,2.32-8.18,.7,.67,7.85,10.02-.86,.2,2.32-12.77,1.1-1.85-21.58Z" style="fill:#1a171b;"/><path d="M436.96,709.1c-1.01-6.91,2.45-11.72,7.89-12.51,2.6-.38,4.82,.59,6.28,1.79l-1.24,1.99c-1.3-1.04-2.84-1.65-4.65-1.39-4.05,.59-6.26,4.3-5.48,9.64,.78,5.39,3.85,8.39,7.91,7.8,2.05-.3,3.47-1.41,4.62-3.13l1.74,1.49c-1.41,2.21-3.34,3.65-6.13,4.05-5.34,.78-9.94-2.77-10.95-9.73Z" style="fill:#1a171b;"/><path d="M459.11,696.86l-6.42,1.31-.47-2.29,15.53-3.18,.47,2.28-6.42,1.31,3.88,18.93-2.7,.55-3.88-18.93Z" style="fill:#1a171b;"/><path d="M474.29,704.2l-3.34-12.27,2.66-.72,3.36,12.34c1.36,5.02,3.92,6.02,6.65,5.28,2.77-.75,4.53-2.93,3.16-7.95l-3.36-12.34,2.55-.69,3.34,12.27c1.82,6.71-.79,9.89-5.06,11.05-4.27,1.16-8.14-.26-9.96-6.97Z" style="fill:#1a171b;"/><path d="M491.03,686.26l6.42-2.2c4.17-1.43,7.68-.96,9.14,3.31,1.4,4.09-.92,7.09-5.09,8.52l-3.81,1.31,2.97,8.66-2.61,.89-7.02-20.48Zm9.37,7.64c3.19-1.09,4.5-2.99,3.59-5.64-.92-2.7-3-3.05-6.19-1.96l-3.43,1.18,2.6,7.6,3.43-1.18Zm.34,1.45l1.58-2.05,9.93,8.58-2.96,1.01-8.55-7.54Z" style="fill:#1a171b;"/><path d="M512.29,678.51l2.88-1.18,14.99,17.26-2.7,1.11-8.08-9.76c-1.64-1.95-3.18-3.88-4.77-5.93l-.12,.05c.33,2.58,.59,5.03,.78,7.57l1.05,12.64-2.59,1.06-1.43-22.82Zm1.66,13.22l9.23-3.78,.83,2.04-9.23,3.78-.83-2.04Z" style="fill:#1a171b;"/><path d="M524.18,673.45l2.49-1.18,8.29,17.46,8.54-4.05,1,2.11-11.03,5.24-9.29-19.56Z" style="fill:#1a171b;"/><path d="M548.2,673.67c-3.48-6.06-2.03-11.8,2.74-14.54,2.28-1.31,4.7-1.23,6.5-.65l-.42,2.31c-1.59-.49-3.25-.49-4.83,.42-3.55,2.04-4.24,6.3-1.55,10.98,2.71,4.72,6.66,6.39,10.22,4.34,1.79-1.03,2.71-2.59,3.14-4.61l2.17,.75c-.49,2.57-1.77,4.62-4.21,6.02-4.68,2.69-10.26,1.08-13.76-5.02Z" style="fill:#1a171b;"/><path d="M563.79,664.58c-3.82-5.79-2.96-11.41,1.58-14.4,4.54-3,10.05-1.58,13.87,4.2,3.82,5.79,3.04,11.54-1.5,14.53-4.54,3-10.13,1.45-13.95-4.33Zm13.08-8.63c-2.97-4.5-6.93-5.88-10.16-3.75-3.23,2.13-3.52,6.31-.54,10.81,2.97,4.5,7.01,6.01,10.24,3.88,3.23-2.13,3.43-6.44,.46-10.94Z" style="fill:#1a171b;"/><path d="M576.64,643.03l2.63-2.03,10.36,6.62c1.32,.85,2.64,1.76,3.98,2.63l.1-.08c-.51-1.51-1.08-3-1.57-4.49l-3.82-11.67,2.63-2.03,13.23,17.14-2.03,1.57-7.29-9.44c-1.15-1.49-2.58-3.68-3.64-5.29l-.11,.08,1.66,4.96,3.62,11.36-1.45,1.12-10.09-6.36-4.38-2.86-.11,.08c1.28,1.43,3.04,3.36,4.19,4.86l7.29,9.44-1.98,1.53-13.23-17.14Z" style="fill:#1a171b;"/><path d="M595.01,628.49l4.62-4.11c3.63-3.22,7.16-4.18,10.31-.63,3.03,3.41,2.01,7.16-1.53,10.31l-2.66,2.37,5.71,6.42-2.06,1.83-14.39-16.19Zm11.66,4.13c2.83-2.52,3.27-4.74,1.22-7.04-2.07-2.33-4.19-1.82-7.03,.71l-2.3,2.05,5.71,6.42,2.4-2.13Z" style="fill:#1a171b;"/><path d="M617.47,625.33l-9.04-8.93,1.94-1.96,9.1,8.99c3.7,3.66,6.41,3.24,8.4,1.23,2.02-2.04,2.44-4.8-1.26-8.46l-9.1-8.99,1.86-1.88,9.05,8.93c4.94,4.88,4.29,8.95,1.18,12.09-3.11,3.14-7.17,3.86-12.12-1.03Z" style="fill:#1a171b;"/><path d="M627.65,599.51l-4.3,4.95-1.76-1.53,10.41-11.97,1.76,1.53-4.3,4.94,14.59,12.68-1.81,2.08-14.59-12.68Z" style="fill:#1a171b;"/><path d="M636.05,585.76l1.91-2.45,21.58,7.53-1.79,2.3-11.86-4.46c-2.39-.87-4.69-1.79-7.09-2.77l-.08,.1c1.57,2.07,3.01,4.07,4.44,6.18l7.19,10.44-1.72,2.21-12.58-19.09Zm8.01,10.64l6.13-7.87,1.74,1.35-6.13,7.87-1.74-1.35Z" style="fill:#1a171b;"/><path d="M647.38,574.45l-3.75,5.37-1.91-1.33,9.08-13,1.91,1.34-3.75,5.37,15.85,11.06-1.58,2.26-15.85-11.06Z" style="fill:#1a171b;"/><path d="M652.62,562.48l1.48-2.33,18.28,11.62-1.48,2.33-18.28-11.62Z" style="fill:#1a171b;"/><path d="M665.82,561.92c-6.03-3.42-7.81-8.82-5.12-13.55s8.24-5.97,14.26-2.55c6.03,3.42,7.94,8.9,5.26,13.63-2.69,4.73-8.37,5.89-14.4,2.47Zm7.73-13.62c-4.69-2.66-8.84-2.09-10.75,1.27-1.91,3.36-.27,7.22,4.42,9.88,4.69,2.66,8.98,2.17,10.89-1.19,1.91-3.36,.13-7.29-4.56-9.96Z" style="fill:#1a171b;"/><path d="M667.45,536.85l1.23-2.57,15.67-1.2,5.05-.18,.06-.12c-2.03-.82-4.33-1.68-6.37-2.66l-10.11-4.83,1.13-2.36,19.54,9.34-1.23,2.57-15.68,1.2-5.04,.18-.06,.12c2.04,.82,4.21,1.62,6.26,2.6l10.23,4.89-1.13,2.36-19.54-9.34Z" style="fill:#1a171b;"/><path d="M690.18,477.3l.79-3.01,22.81-1.6-.74,2.82-12.66,.59c-2.54,.14-5.02,.21-7.61,.25l-.03,.13c2.26,1.29,4.37,2.56,6.52,3.92l10.73,6.76-.71,2.71-19.09-12.58Zm11.56,6.62l2.53-9.65,2.13,.56-2.53,9.65-2.13-.56Z" style="fill:#1a171b;"/><path d="M693.3,464.77l1.33-6.65c.87-4.33,3.04-7.12,7.46-6.24s5.66,4.36,4.8,8.69l-.79,3.95,8.98,1.79-.54,2.7-21.24-4.25Zm11.32-4.25c.66-3.31-.31-5.39-3.07-5.94-2.79-.56-4.15,1.06-4.81,4.37l-.71,3.56,7.88,1.58,.71-3.56Zm1.42,.43l-.98-2.4,12.41-4.26-.61,3.06-10.82,3.59Z" style="fill:#1a171b;"/><path d="M707.3,449.55c-6.92-.95-10.58-5.61-9.84-11.05,.36-2.61,1.9-4.47,3.46-5.54l1.57,1.74c-1.36,.96-2.37,2.27-2.62,4.08-.56,4.06,2.4,7.21,7.74,7.94,5.39,.74,9.13-1.37,9.69-5.44,.28-2.05-.4-3.73-1.73-5.3l1.92-1.26c1.74,1.96,2.58,4.22,2.2,7.01-.73,5.35-5.42,8.79-12.39,7.83Z" style="fill:#1a171b;"/><path d="M699.08,428.68l.19-2.75,9.05,.64,.71-10.05-9.05-.64,.19-2.75,21.61,1.53-.19,2.75-10.16-.72-.71,10.05,10.16,.72-.19,2.75-21.61-1.53Z" style="fill:#1a171b;"/><path d="M700.28,407.58l.06-2.75,21.65,.46-.06,2.76-21.65-.46Z" style="fill:#1a171b;"/><path d="M702.66,394.67l.14,6.55-2.33,.05-.35-15.85,2.33-.05,.14,6.55,19.32-.43,.06,2.76-19.32,.42Z" style="fill:#1a171b;"/><path d="M699.89,382.03l-.99-12.44,2.33-.18,.77,9.7,6.76-.54-.65-8.18,2.32-.18,.65,8.18,7.85-.62-.8-10.03,2.33-.18,1.01,12.77-21.59,1.71Z" style="fill:#1a171b;"/><path d="M709.33,364.91c-6.92,.96-11.7-2.52-12.46-7.97-.36-2.6,.62-4.82,1.82-6.27l1.99,1.25c-1.05,1.3-1.67,2.83-1.42,4.64,.57,4.05,4.26,6.28,9.6,5.54,5.39-.75,8.41-3.8,7.85-7.86-.29-2.05-1.39-3.48-3.1-4.64l1.5-1.73c2.2,1.42,3.62,3.36,4.01,6.15,.75,5.34-2.83,9.92-9.79,10.89Z" style="fill:#1a171b;"/><path d="M697.2,342.69l1.28,6.43-2.29,.45-3.09-15.56,2.29-.45,1.28,6.43,18.96-3.76,.54,2.7-18.96,3.76Z" style="fill:#1a171b;"/><path d="M704.65,327.57l-12.29,3.26-.71-2.66,12.36-3.28c5.03-1.33,6.05-3.88,5.32-6.61-.74-2.77-2.9-4.54-7.93-3.21l-12.36,3.28-.68-2.55,12.29-3.26c6.72-1.78,9.89,.85,11.02,5.12,1.13,4.27-.31,8.14-7.03,9.92Z" style="fill:#1a171b;"/><path d="M686.82,310.74l-2.16-6.43c-1.4-4.18-.91-7.69,3.37-9.12,4.1-1.38,7.08,.96,8.48,5.14l1.28,3.82,8.68-2.91,.88,2.61-20.53,6.89Zm7.7-9.32c-1.07-3.19-2.96-4.52-5.62-3.62-2.7,.91-3.07,2.99-2,6.18l1.16,3.44,7.61-2.56-1.16-3.44Zm1.45-.33l-2.04-1.59,8.64-9.87,.99,2.96-7.6,8.5Z" style="fill:#1a171b;"/><path d="M679.21,289.44l-1.16-2.88,17.35-14.89,1.09,2.71-9.81,8.02c-1.96,1.63-3.9,3.16-5.96,4.74l.05,.12c2.58-.32,5.03-.56,7.57-.74l12.65-.98,1.05,2.6-22.82,1.3Zm13.23-1.58l-3.73-9.25,2.04-.82,3.73,9.25-2.04,.82Z" style="fill:#1a171b;"/><path d="M674.2,277.49l-1.17-2.5,17.51-8.19-4-8.56,2.11-.99,5.17,11.06-19.62,9.17Z" style="fill:#1a171b;"/><path d="M674.59,253.49c-6.08,3.44-11.82,1.96-14.52-2.83-1.29-2.29-1.2-4.71-.61-6.5l2.31,.43c-.5,1.59-.51,3.24,.39,4.83,2.02,3.56,6.27,4.28,10.97,1.62,4.74-2.68,6.43-6.62,4.41-10.2-1.02-1.8-2.57-2.72-4.59-3.17l.76-2.17c2.57,.51,4.61,1.8,5.99,4.25,2.66,4.7,1.02,10.27-5.11,13.73Z" style="fill:#1a171b;"/><path d="M665.58,237.83c-5.81,3.79-11.42,2.89-14.39-1.67-2.97-4.56-1.52-10.06,4.29-13.84,5.81-3.79,11.55-2.97,14.52,1.59,2.97,4.56,1.4,10.14-4.42,13.93Zm-8.55-13.13c-4.52,2.95-5.92,6.89-3.81,10.13,2.11,3.24,6.29,3.55,10.81,.61,4.52-2.95,6.05-6.98,3.94-10.22-2.11-3.24-6.42-3.47-10.94-.52Z" style="fill:#1a171b;"/><path d="M644.11,224.86l-2.01-2.64,6.68-10.32c.86-1.31,1.77-2.63,2.65-3.96l-.08-.1c-1.51,.5-3,1.06-4.5,1.55l-11.69,3.76-2.01-2.64,17.22-13.14,1.55,2.04-9.48,7.23c-1.5,1.14-3.7,2.55-5.3,3.61l.08,.1,4.97-1.63,11.38-3.55,1.11,1.45-6.42,10.06-2.89,4.36,.08,.1c1.44-1.27,3.38-3.02,4.88-4.16l9.48-7.23,1.51,1.98-17.22,13.14Z" style="fill:#1a171b;"/><path d="M629.69,206.39l-4.08-4.65c-3.2-3.65-4.14-7.18-.57-10.31,3.42-3.01,7.17-1.97,10.3,1.59l2.35,2.68,6.45-5.67,1.82,2.07-16.27,14.29Zm4.2-11.63c-2.5-2.84-4.72-3.3-7.04-1.26-2.35,2.06-1.84,4.18,.67,7.03l2.03,2.32,6.46-5.67-2.12-2.41Z" style="fill:#1a171b;"/><path d="M626.66,183.92l-8.99,8.99-1.95-1.95,9.04-9.04c3.68-3.68,3.28-6.39,1.28-8.39-2.03-2.03-4.79-2.47-8.47,1.21l-9.04,9.04-1.87-1.87,8.99-8.99c4.91-4.92,8.98-4.23,12.1-1.11,3.13,3.13,3.82,7.19-1.1,12.11Z" style="fill:#1a171b;"/><path d="M600.91,173.59l4.92,4.33-1.54,1.75-11.91-10.48,1.54-1.75,4.92,4.33,12.77-14.51,2.07,1.82-12.77,14.51Z" style="fill:#1a171b;"/><path d="M587.23,165.12l-2.44-1.93,7.66-21.54,2.29,1.81-4.52,11.84c-.89,2.38-1.82,4.68-2.82,7.07l.1,.08c2.08-1.56,4.09-2.98,6.2-4.4l10.49-7.13,2.2,1.74-19.17,12.47Zm10.69-7.95l-7.83-6.18,1.36-1.73,7.83,6.18-1.36,1.73Z" style="fill:#1a171b;"/><path d="M575.98,153.7l5.35,3.78-1.35,1.9-12.95-9.15,1.35-1.9,5.35,3.78,11.16-15.78,2.25,1.59-11.16,15.78Z" style="fill:#1a171b;"/><path d="M564.04,148.38l-2.32-1.49,11.73-18.2,2.32,1.49-11.73,18.2Z" style="fill:#1a171b;"/><path d="M563.54,135.18c-3.46,6.01-8.87,7.75-13.58,5.04-4.71-2.71-5.92-8.28-2.46-14.28,3.46-6.01,8.95-7.89,13.66-5.18,4.71,2.71,5.84,8.4,2.38,14.41Zm-13.58-7.82c-2.69,4.68-2.15,8.83,1.2,10.76,3.35,1.93,7.22,.31,9.91-4.36,2.69-4.68,2.23-8.96-1.12-10.89-3.35-1.93-7.29-.18-9.99,4.5Z" style="fill:#1a171b;"/><path d="M538.51,133.4l-2.56-1.24-1.11-15.67-.14-5.06-.12-.06c-.83,2.03-1.7,4.32-2.69,6.35l-4.9,10.08-2.35-1.14,9.46-19.49,2.56,1.24,1.1,15.69,.15,5.04,.12,.06c.83-2.03,1.65-4.2,2.64-6.24l4.95-10.2,2.36,1.14-9.46,19.49Z" style="fill:#1a171b;"/><path d="M479.21,110.35l-3-.81-1.45-22.82,2.82,.76,.51,12.66c.12,2.54,.17,5.02,.2,7.61l.13,.03c1.3-2.25,2.59-4.36,3.97-6.49l6.83-10.69,2.71,.73-12.7,19.02Zm6.7-11.52l-9.63-2.59,.57-2.12,9.63,2.59-.57,2.12Z" style="fill:#1a171b;"/><path d="M466.72,107.13l-6.64-1.37c-4.32-.89-7.1-3.08-6.19-7.5,.88-4.24,4.4-5.63,8.72-4.74l3.94,.81,1.85-8.96,2.7,.56-4.38,21.21Zm-3.73-12.77l-2.4,.96-4.18-12.44,3.06,.63,3.52,10.84Zm-.44,1.42c-3.3-.68-5.39,.28-5.96,3.03-.58,2.79,1.03,4.16,4.34,4.84l3.55,.73,1.62-7.87-3.55-.73Z" style="fill:#1a171b;"/><path d="M451.56,93.03c-.99,6.92-5.67,10.55-11.11,9.76-2.6-.37-4.46-1.93-5.52-3.49l1.75-1.56c.96,1.37,2.25,2.39,4.06,2.65,4.05,.58,7.22-2.35,7.99-7.69,.77-5.39-1.31-9.14-5.38-9.72-2.05-.29-3.73,.37-5.32,1.69l-1.25-1.93c1.98-1.72,4.24-2.55,7.02-2.15,5.34,.77,8.75,5.47,7.75,12.44Z" style="fill:#1a171b;"/><path d="M430.62,101.11l-2.75-.21,.7-9.04-10.04-.78-.7,9.04-2.75-.21,1.67-21.59,2.75,.21-.78,10.15,10.04,.78,.78-10.15,2.75,.21-1.67,21.59Z" style="fill:#1a171b;"/><path d="M409.54,99.78l-2.75-.08,.6-21.65,2.75,.08-.6,21.65Z" style="fill:#1a171b;"/><path d="M396.67,97.32l6.55-.1,.04,2.33-15.86,.25-.04-2.33,6.55-.1-.3-19.33,2.76-.04,.3,19.33Z" style="fill:#1a171b;"/><path d="M384.01,100l-12.45,.91-.17-2.33,9.7-.71-.49-6.77-8.18,.6-.17-2.33,8.18-.6-.57-7.85-10.03,.73-.17-2.33,12.78-.93,1.58,21.6Z" style="fill:#1a171b;"/><path d="M366.97,90.45c.92,6.93-2.61,11.69-8.05,12.41-2.61,.35-4.82-.65-6.26-1.87l1.26-1.98c1.29,1.06,2.82,1.69,4.63,1.45,4.06-.54,6.32-4.22,5.61-9.57-.71-5.4-3.74-8.44-7.81-7.9-2.05,.27-3.49,1.37-4.66,3.07l-1.72-1.52c1.43-2.19,3.39-3.6,6.18-3.97,5.35-.71,9.91,2.9,10.83,9.87Z" style="fill:#1a171b;"/><path d="M344.65,102.42l6.44-1.23,.44,2.29-15.58,2.98-.44-2.29,6.44-1.23-3.63-18.98,2.71-.52,3.63,18.98Z" style="fill:#1a171b;"/><path d="M329.58,94.88l3.18,12.31-2.67,.69-3.2-12.39c-1.3-5.04-3.84-6.08-6.58-5.37-2.78,.72-4.56,2.87-3.26,7.91l3.2,12.39-2.56,.66-3.18-12.31c-1.74-6.73,.92-9.88,5.2-10.99,4.28-1.11,8.14,.37,9.87,7.1Z" style="fill:#1a171b;"/><path d="M303.01,103.4l-1.61,2.03-9.82-8.71,2.97-.97,8.46,7.65Zm9.6,9.22l-6.45,2.12c-4.19,1.38-7.7,.86-9.1-3.43-1.35-4.11,1.01-7.08,5.2-8.46l3.83-1.26-2.86-8.7,2.62-.86,6.76,20.58Zm-9.27-7.76c-3.2,1.05-4.54,2.93-3.66,5.6,.89,2.71,2.97,3.09,6.17,2.04l3.45-1.13-2.51-7.63-3.45,1.13Z" style="fill:#1a171b;"/><path d="M291.28,120.07l-2.89,1.14-14.77-17.45,2.71-1.07,7.96,9.86c1.61,1.97,3.13,3.92,4.7,5.99l.12-.05c-.3-2.58-.52-5.04-.69-7.57l-.9-12.65,2.61-1.03,1.15,22.83Zm-1.5-13.24l-9.27,3.66-.81-2.04,9.27-3.66,.81,2.04Z" style="fill:#1a171b;"/><path d="M279.29,125l-2.5,1.15-8.07-17.56-8.59,3.95-.97-2.12,11.1-5.09,9.04,19.68Z" style="fill:#1a171b;"/><path d="M255.3,124.46c3.4,6.1,1.88,11.82-2.92,14.5-2.3,1.28-4.72,1.17-6.5,.57l.45-2.3c1.59,.51,3.24,.53,4.84-.36,3.58-1.99,4.32-6.24,1.69-10.96-2.65-4.76-6.58-6.47-10.17-4.47-1.81,1.01-2.74,2.56-3.2,4.57l-2.16-.77c.53-2.57,1.83-4.6,4.28-5.96,4.71-2.63,10.27-.95,13.7,5.2Z" style="fill:#1a171b;"/><path d="M239.58,133.37c3.75,5.84,2.81,11.44-1.77,14.38-4.58,2.94-10.07,1.45-13.81-4.38-3.75-5.84-2.9-11.57,1.68-14.51,4.58-2.94,10.15-1.33,13.9,4.51Zm-13.18,8.47c2.92,4.54,6.86,5.97,10.11,3.88,3.25-2.09,3.59-6.27,.68-10.81-2.92-4.54-6.94-6.1-10.19-4.01-3.26,2.09-3.51,6.4-.6,10.94Z" style="fill:#1a171b;"/><path d="M226.47,154.75l-2.65,2-10.28-6.75c-1.31-.87-2.62-1.79-3.94-2.68l-.11,.08c.49,1.52,1.04,3.01,1.52,4.51l3.68,11.72-2.65,2-13.02-17.31,2.05-1.54,7.17,9.53c1.13,1.51,2.53,3.71,3.57,5.33l.11-.08-1.6-4.98-3.48-11.41,1.46-1.1,10.01,6.49,4.34,2.92,.11-.08c-1.26-1.45-3-3.4-4.13-4.91l-7.17-9.53,2-1.5,13.03,17.31Z" style="fill:#1a171b;"/><path d="M207.91,169.05l-4.68,4.05c-3.67,3.18-7.21,4.09-10.32,.5-2.98-3.45-1.92-7.19,1.67-10.29l2.69-2.33-5.63-6.49,2.08-1.8,14.18,16.37Zm-11.61-4.28c-2.86,2.48-3.33,4.7-1.31,7.03,2.05,2.36,4.16,1.87,7.04-.62l2.33-2.02-5.63-6.5-2.43,2.1Z" style="fill:#1a171b;"/><path d="M185.41,171.94l8.93,9.05-1.96,1.94-8.99-9.11c-3.66-3.71-6.37-3.32-8.39-1.34-2.04,2.02-2.51,4.77,1.15,8.48l8.99,9.11-1.88,1.86-8.93-9.05c-4.88-4.95-4.17-9.01-1.03-12.11,3.15-3.11,7.22-3.77,12.1,1.18Z" style="fill:#1a171b;"/><path d="M174.92,197.61l4.36-4.89,1.74,1.55-10.56,11.84-1.74-1.55,4.36-4.89-14.42-12.86,1.83-2.06,14.42,12.86Z" style="fill:#1a171b;"/><path d="M166.33,211.26l-1.94,2.43-21.49-7.81,1.82-2.28,11.81,4.61c2.38,.91,4.67,1.85,7.06,2.87l.08-.1c-1.54-2.09-2.96-4.11-4.36-6.23l-7.06-10.54,1.75-2.19,12.34,19.25Zm-7.88-10.75l-6.23,7.79-1.72-1.37,6.23-7.79,1.72,1.37Z" style="fill:#1a171b;"/><path d="M154.87,222.4l3.82-5.33,1.9,1.36-9.24,12.89-1.9-1.36,3.82-5.33-15.71-11.26,1.61-2.24,15.71,11.26Z" style="fill:#1a171b;"/><path d="M149.46,234.32l-1.51,2.31-18.13-11.85,1.51-2.31,18.13,11.85Z" style="fill:#1a171b;"/><path d="M136.26,234.72c5.99,3.5,7.69,8.92,4.95,13.62-2.75,4.7-8.32,5.86-14.29,2.36-5.99-3.5-7.83-9-5.09-13.7s8.44-5.79,14.43-2.29Zm-7.91,13.52c4.66,2.72,8.81,2.21,10.76-1.13,1.95-3.34,.36-7.21-4.29-9.94s-8.95-2.29-10.9,1.05c-1.95,3.34-.23,7.29,4.43,10.02Z" style="fill:#1a171b;"/><path d="M134.3,259.77l-1.26,2.55-15.68,1-5.06,.11-.06,.12c2.02,.84,4.3,1.73,6.34,2.74l10.05,4.96-1.16,2.35-19.43-9.59,1.26-2.55,15.69-1,5.04-.12,.06-.12c-2.03-.85-4.19-1.68-6.22-2.68l-10.17-5.02,1.16-2.35,19.42,9.59Z" style="fill:#1a171b;"/><path d="M110.83,319.02l-.83,3-22.82,1.31,.78-2.81,12.66-.43c2.54-.11,5.02-.15,7.61-.15l.04-.13c-2.24-1.31-4.34-2.61-6.47-4l-10.65-6.89,.74-2.7,18.93,12.81Zm-11.48-6.76l-2.65,9.61-2.12-.58,2.65-9.61,2.12,.58Z" style="fill:#1a171b;"/><path d="M94.77,335.14l.94,2.41-12.46,4.1,.65-3.06,10.87-3.46Zm12.79-3.66l-1.41,6.64c-.92,4.32-3.13,7.08-7.54,6.14-4.23-.9-5.61-4.43-4.69-8.75l.84-3.94-8.96-1.91,.57-2.7,21.19,4.51Zm-11.38,4.11c-.7,3.3,.25,5.4,2.99,5.98,2.79,.59,4.16-1.01,4.87-4.31l.76-3.55-7.86-1.67-.76,3.55Z" style="fill:#1a171b;"/><path d="M93.36,346.55c6.91,1.04,10.51,5.74,9.69,11.18-.39,2.6-1.96,4.45-3.53,5.49l-1.55-1.76c1.37-.95,2.4-2.24,2.67-4.05,.61-4.05-2.3-7.24-7.64-8.04-5.38-.81-9.14,1.25-9.75,5.31-.31,2.04,.35,3.73,1.66,5.33l-1.93,1.24c-1.71-1.99-2.52-4.25-2.1-7.04,.8-5.33,5.53-8.71,12.48-7.67Z" style="fill:#1a171b;"/><path d="M101.31,367.53l-.23,2.75-9.04-.75-.84,10.04,9.04,.75-.23,2.75-21.58-1.8,.23-2.75,10.15,.85,.84-10.04-10.15-.85,.23-2.75,21.58,1.8Z" style="fill:#1a171b;"/><path d="M99.85,388.6l-.09,2.75-21.65-.73,.09-2.75,21.65,.73Z" style="fill:#1a171b;"/><path d="M97.3,401.47l-.06-6.55,2.33-.02,.15,15.86-2.33,.02-.06-6.55-19.33,.18-.03-2.76,19.33-.18Z" style="fill:#1a171b;"/><path d="M99.91,414.16l.83,12.46-2.33,.16-.65-9.71-6.77,.45,.55,8.19-2.33,.16-.55-8.19-7.86,.53,.67,10.03-2.33,.16-.86-12.78,21.61-1.45Z" style="fill:#1a171b;"/><path d="M90.25,431.12c6.93-.88,11.67,2.67,12.36,8.13,.33,2.61-.68,4.81-1.9,6.24l-1.97-1.27c1.06-1.28,1.7-2.81,1.47-4.62-.51-4.06-4.18-6.34-9.53-5.66-5.4,.68-8.46,3.69-7.95,7.76,.26,2.05,1.35,3.5,3.04,4.68l-1.53,1.71c-2.19-1.45-3.58-3.41-3.93-6.2-.68-5.35,2.96-9.88,9.93-10.77Z" style="fill:#1a171b;"/><path d="M102.09,453.52l-1.19-6.44,2.29-.43,2.89,15.6-2.29,.42-1.19-6.44-19,3.52-.5-2.71,19-3.52Z" style="fill:#1a171b;"/><path d="M94.45,468.56l12.33-3.1,.67,2.67-12.41,3.12c-5.05,1.27-6.1,3.8-5.41,6.54,.7,2.78,2.84,4.58,7.89,3.31l12.41-3.12,.64,2.56-12.33,3.1c-6.74,1.69-9.88-.98-10.96-5.26-1.08-4.29,.42-8.13,7.16-9.83Z" style="fill:#1a171b;"/><path d="M112.07,485.61l2.08,6.46c1.35,4.2,.81,7.7-3.48,9.08-4.12,1.33-7.07-1.05-8.42-5.25l-1.23-3.83-8.71,2.8-.84-2.62,20.61-6.63Zm-9.27,9.54l2.02,1.62-8.76,9.76-.96-2.97,7.7-8.41Zm1.46-.31c1.03,3.21,2.9,4.55,5.57,3.7,2.71-.87,3.11-2.95,2.07-6.16l-1.11-3.46-7.65,2.46,1.11,3.46Z" style="fill:#1a171b;"/><path d="M119.41,507.01l1.13,2.9-17.54,14.67-1.06-2.72,9.91-7.9c1.97-1.6,3.94-3.11,6.02-4.66l-.05-.12c-2.58,.28-5.04,.49-7.58,.64l-12.66,.82-1.01-2.61,22.84-1.01Zm-13.25,1.42l3.61,9.29-2.05,.8-3.61-9.3,2.05-.8Z" style="fill:#1a171b;"/><path d="M124.25,519l1.14,2.51-17.61,7.97,3.9,8.61-2.12,.96-5.03-11.12,19.73-8.93Z" style="fill:#1a171b;"/><path d="M123.59,543.02c6.12-3.36,11.84-1.8,14.48,3.01,1.26,2.31,1.14,4.73,.53,6.51l-2.3-.46c.52-1.58,.55-3.24-.33-4.84-1.97-3.59-6.22-4.36-10.95-1.76-4.77,2.62-6.51,6.54-4.54,10.14,1,1.81,2.54,2.76,4.55,3.23l-.79,2.16c-2.56-.54-4.58-1.85-5.94-4.32-2.6-4.73-.88-10.28,5.28-13.67Z" style="fill:#1a171b;"/><path d="M132.38,558.77c5.86-3.71,11.46-2.74,14.37,1.86,2.91,4.59,1.39,10.08-4.46,13.78-5.86,3.71-11.59,2.82-14.5-1.77-2.91-4.59-1.26-10.16,4.59-13.87Zm8.38,13.23c4.56-2.89,6.01-6.82,3.94-10.08-2.07-3.27-6.24-3.63-10.8-.75-4.56,2.89-6.14,6.9-4.07,10.17,2.07,3.27,6.37,3.55,10.93,.66Z" style="fill:#1a171b;"/><path d="M153.68,572.01l1.98,2.67-6.82,10.23c-.88,1.3-1.81,2.61-2.71,3.93l.08,.11c1.52-.48,3.02-1.02,4.52-1.49l11.74-3.61,1.98,2.67-17.39,12.91-1.53-2.06,9.58-7.11c1.51-1.12,3.73-2.51,5.35-3.54l-.08-.11-4.99,1.56-11.43,3.41-1.09-1.47,6.55-9.97,2.94-4.32-.08-.11c-1.46,1.25-3.42,2.98-4.93,4.1l-9.58,7.11-1.49-2,17.39-12.91Z" style="fill:#1a171b;"/><path d="M167.88,590.67l4.02,4.7c3.15,3.69,4.04,7.24,.44,10.32-3.46,2.96-7.2,1.87-10.28-1.73l-2.32-2.71-6.53,5.59-1.79-2.09,16.46-14.08Zm-4.35,11.58c2.46,2.88,4.68,3.36,7.02,1.35,2.37-2.03,1.9-4.15-.58-7.04l-2-2.34-6.53,5.59,2.09,2.44Z" style="fill:#1a171b;"/><path d="M170.62,613.19l9.1-8.88,1.92,1.97-9.16,8.93c-3.72,3.63-3.36,6.35-1.39,8.37,2,2.05,4.76,2.53,8.48-1.1l9.16-8.93,1.84,1.89-9.1,8.88c-4.97,4.85-9.03,4.12-12.11,.95-3.09-3.16-3.72-7.24,1.25-12.09Z" style="fill:#1a171b;"/><path d="M196.23,623.83l-4.86-4.39,1.56-1.73,11.77,10.63-1.56,1.73-4.86-4.39-12.95,14.34-2.04-1.85,12.95-14.34Z" style="fill:#1a171b;"/><path d="M209.82,632.49l2.42,1.96-7.94,21.44-2.27-1.84,4.68-11.78c.92-2.37,1.88-4.66,2.91-7.04l-.1-.08c-2.1,1.53-4.13,2.93-6.26,4.32l-10.58,7-2.18-1.76,19.32-12.22Zm-10.79,7.81l7.75,6.28-1.38,1.71-7.75-6.28,1.38-1.71Z" style="fill:#1a171b;"/><path d="M220.9,644.04l-5.3-3.85,1.37-1.89,12.83,9.32-1.37,1.89-5.3-3.85-11.36,15.63-2.23-1.62,11.36-15.63Z" style="fill:#1a171b;"/><path d="M232.78,649.52l2.3,1.52-11.97,18.05-2.3-1.52,11.97-18.05Z" style="fill:#1a171b;"/><path d="M233.11,662.73c3.54-5.97,8.97-7.64,13.65-4.87,4.68,2.77,5.81,8.35,2.28,14.31-3.54,5.97-9.05,7.77-13.73,5-4.68-2.77-5.73-8.48-2.2-14.44Zm13.48,7.99c2.75-4.64,2.26-8.8-1.06-10.77-3.33-1.97-7.21-.41-9.96,4.23-2.75,4.64-2.34,8.93,.98,10.91,3.33,1.97,7.29,.27,10.04-4.37Z" style="fill:#1a171b;"/><path d="M258.14,664.83l2.54,1.28,.9,15.69,.08,5.06,.12,.06c.86-2.01,1.76-4.29,2.78-6.32l5.03-10.02,2.34,1.17-9.71,19.36-2.54-1.28-.9-15.7-.08-5.05-.12-.06c-.86,2.02-1.7,4.18-2.72,6.21l-5.08,10.13-2.34-1.17,9.71-19.36Z" style="fill:#1a171b;"/></g><g><path d="M249.71,65.21l3.2-1.42,17.45,18.96-3.01,1.34-9.42-10.73c-1.91-2.14-3.71-4.27-5.57-6.53l-.14,.06c.46,2.89,.82,5.65,1.13,8.5l1.6,14.21-2.89,1.28-2.36-25.66Zm2.3,14.84l10.27-4.56,1.01,2.27-10.27,4.56-1.01-2.27Z" style="fill:#1a171b;"/><path d="M264.56,58.85l7.16-2.68c4.66-1.74,8.63-1.32,10.41,3.44,1.71,4.57-.81,8.02-5.47,9.76l-4.25,1.59,3.62,9.66-2.91,1.09-8.56-22.86Zm10.8,8.31c3.56-1.33,4.98-3.51,3.87-6.47-1.13-3.01-3.48-3.34-7.04-2.01l-3.83,1.44,3.18,8.48,3.83-1.44Zm.43,1.62l1.72-2.36,11.46,9.35-3.3,1.24-9.88-8.23Z" style="fill:#1a171b;"/><path d="M287.75,63.36c-2.3-7.53,.73-13.48,6.65-15.29,2.83-.87,5.48-.17,7.3,.92l-1.04,2.43c-1.63-.94-3.44-1.35-5.41-.75-4.41,1.35-6.24,5.86-4.46,11.68,1.79,5.87,5.72,8.69,10.15,7.33,2.23-.68,3.62-2.17,4.61-4.28l2.2,1.37c-1.19,2.71-3.1,4.63-6.13,5.56-5.81,1.78-11.55-1.39-13.87-8.97Z" style="fill:#1a171b;"/><path d="M307.05,44.89l3.02-.71,2.34,9.95,11.05-2.6-2.34-9.95,3.02-.71,5.6,23.76-3.02,.71-2.63-11.17-11.05,2.6,2.63,11.17-3.02,.71-5.6-23.76Z" style="fill:#1a171b;"/><path d="M331.58,39.48l3.06-.56,4.43,24.02-3.06,.56-4.43-24.02Z" style="fill:#1a171b;"/><path d="M347.37,39.52l-7.31,1.03-.37-2.6,17.7-2.49,.37,2.6-7.31,1.03,3.03,21.57-3.08,.43-3.03-21.57Z" style="fill:#1a171b;"/><path d="M362.77,34.92l14.03-1.17,.22,2.62-10.93,.91,.63,7.63,9.22-.77,.22,2.62-9.22,.77,.74,8.85,11.3-.94,.22,2.62-14.4,1.2-2.02-24.34Z" style="fill:#1a171b;"/><path d="M382.28,45.67c-.2-7.87,4.32-12.79,10.51-12.94,2.96-.07,5.32,1.31,6.79,2.84l-1.65,2.06c-1.32-1.34-2.95-2.23-5.01-2.18-4.61,.12-7.58,3.97-7.43,10.05,.15,6.13,3.18,9.91,7.81,9.79,2.33-.06,4.07-1.12,5.59-2.88l1.75,1.91c-1.87,2.29-4.23,3.63-7.4,3.71-6.08,.15-10.75-4.44-10.95-12.36Z" style="fill:#1a171b;"/><path d="M409.98,35.87l-7.38-.23,.08-2.63,17.87,.56-.08,2.63-7.38-.23-.68,21.78-3.11-.1,.68-21.78Z" style="fill:#1a171b;"/><path d="M424.6,48.18l1.34-14.27,3.09,.29-1.35,14.35c-.55,5.84,1.75,7.91,4.92,8.21,3.22,.3,5.94-1.29,6.48-7.14l1.35-14.35,2.96,.28-1.34,14.27c-.73,7.8-4.75,10.13-9.71,9.66-4.96-.47-8.48-3.5-7.75-11.3Z" style="fill:#1a171b;"/><path d="M451.07,36.57l7.55,1.2c4.91,.78,8.15,3.11,7.35,8.13-.77,4.81-4.66,6.57-9.57,5.79l-4.48-.72-1.62,10.19-3.07-.49,3.85-24.1Zm5.29,12.56c3.75,.6,6.06-.59,6.56-3.72,.51-3.17-1.38-4.63-5.13-5.22l-4.04-.64-1.43,8.94,4.04,.64Zm-.43,1.62l2.66-1.2,5.34,13.79-3.48-.55-4.52-12.03Z" style="fill:#1a171b;"/><path d="M477.76,41.37l3.42,.76,2.8,25.63-3.21-.71-1.22-14.24c-.27-2.85-.46-5.64-.61-8.56l-.14-.03c-1.35,2.6-2.69,5.04-4.14,7.51l-7.15,12.39-3.09-.68,13.33-22.06Zm-6.95,13.31l10.98,2.43-.54,2.42-10.98-2.43,.54-2.42Z" style="fill:#1a171b;"/><path d="M493.4,45.07l2.99,.84-5.86,20.98,10.26,2.87-.71,2.53-13.25-3.7,6.57-23.51Z" style="fill:#1a171b;"/><path d="M513.68,63.84c2.71-7.4,8.71-10.31,14.53-8.18,2.78,1.02,4.47,3.17,5.27,5.14l-2.29,1.31c-.74-1.73-1.93-3.16-3.87-3.87-4.33-1.59-8.51,.91-10.6,6.62-2.11,5.76-.68,10.38,3.67,11.98,2.19,.8,4.2,.46,6.26-.63l.93,2.42c-2.58,1.44-5.27,1.83-8.25,.74-5.71-2.09-8.38-8.07-5.65-15.52Z" style="fill:#1a171b;"/><path d="M532.97,70.83c3.14-7.16,8.99-9.77,14.61-7.31,5.61,2.46,7.64,8.55,4.5,15.7-3.14,7.16-9.06,9.94-14.68,7.47-5.61-2.46-7.58-8.7-4.43-15.86Zm16.17,7.1c2.44-5.57,1.33-10.16-2.66-11.91-3.99-1.75-8.12,.53-10.57,6.1-2.44,5.57-1.4,10.32,2.59,12.07,3.99,1.75,8.2-.69,10.64-6.26Z" style="fill:#1a171b;"/><path d="M562.91,71.02l3.3,1.76-1.99,13.72c-.26,1.75-.58,3.53-.85,5.31l.13,.07c1.31-1.22,2.58-2.5,3.88-3.7l10.21-9.35,3.3,1.76-11.46,21.56-2.55-1.35,6.31-11.87c1-1.88,2.59-4.36,3.74-6.19l-.13-.07-4.32,4.01-9.99,9-1.82-.97,1.84-13.32,.91-5.82-.13-.07c-.88,1.98-2.04,4.68-3.04,6.56l-6.31,11.87-2.49-1.32,11.46-21.56Z" style="fill:#1a171b;"/><path d="M587.73,84.63l5.92,3.69c4.64,2.89,6.8,6.41,3.97,10.95-2.72,4.36-7.11,4.46-11.64,1.63l-3.41-2.12-5.12,8.22-2.64-1.64,12.92-20.72Zm-.75,13.92c3.62,2.26,6.17,2.02,8.01-.92,1.86-2.99,.63-5.11-3.01-7.38l-2.95-1.84-5.13,8.22,3.07,1.92Z" style="fill:#1a171b;"/><path d="M598.05,108.16l8.35-11.65,2.52,1.81-8.4,11.72c-3.42,4.77-2.48,7.71,.11,9.57,2.63,1.88,5.78,1.87,9.2-2.89l8.4-11.72,2.42,1.73-8.35,11.65c-4.56,6.37-9.21,6.35-13.26,3.45-4.05-2.9-5.56-7.3-1-13.67Z" style="fill:#1a171b;"/><path d="M629.01,116.71l-5.72-4.67,1.66-2.04,13.85,11.31-1.66,2.04-5.72-4.67-13.78,16.88-2.41-1.96,13.78-16.88Z" style="fill:#1a171b;"/><path d="M645.39,127.25l2.59,2.36-10.31,23.62-2.44-2.21,6.02-12.95c1.19-2.61,2.41-5.12,3.73-7.73l-.11-.1c-2.46,1.59-4.84,3.03-7.32,4.46l-12.36,7.19-2.34-2.13,22.54-12.51Zm-12.65,8.09l8.32,7.56-1.67,1.83-8.32-7.56,1.67-1.83Z" style="fill:#1a171b;"/><path d="M657.44,142.3l-5.2-5.24,1.87-1.85,12.59,12.69-1.87,1.85-5.2-5.24-15.46,15.34-2.19-2.21,15.46-15.34Z" style="fill:#1a171b;"/><path d="M670.14,151.72l2.09,2.3-18.05,16.45-2.09-2.3,18.05-16.45Z" style="fill:#1a171b;"/><path d="M667.07,166.23c6.03-4.98,12.43-4.68,16.33,.05s2.97,11.08-3.05,16.05c-6.03,4.98-12.57,4.79-16.47,.06-3.9-4.73-2.85-11.18,3.18-16.16Zm11.24,13.62c4.69-3.87,5.76-8.47,2.98-11.83-2.77-3.36-7.49-3.18-12.18,.69-4.69,3.87-5.89,8.58-3.12,11.95,2.77,3.36,7.63,3.07,12.32-.8Z" style="fill:#1a171b;"/><path d="M693.63,179.81l1.87,2.61-7.34,16.12-2.58,5.08,.09,.12c1.91-1.56,4.01-3.35,6.09-4.84l10.28-7.35,1.72,2.4-19.86,14.2-1.87-2.61,7.36-16.12,2.57-5.08-.09-.12c-1.92,1.56-3.9,3.27-5.97,4.76l-10.39,7.43-1.72-2.4,19.86-14.2Z" style="fill:#1a171b;"/><path d="M733.11,246.04l1.46,3.19-18.77,17.66-1.37-2.99,10.63-9.54c2.12-1.93,4.23-3.76,6.47-5.64l-.06-.14c-2.89,.49-5.64,.88-8.49,1.22l-14.19,1.75-1.31-2.88,25.63-2.63Zm-14.81,2.46l4.67,10.22-2.25,1.03-4.67-10.22,2.25-1.03Z" style="fill:#1a171b;"/><path d="M739.65,260.83l2.76,7.13c1.79,4.64,1.42,8.61-3.33,10.45-4.55,1.76-8.03-.72-9.82-5.36l-1.64-4.23-9.62,3.73-1.12-2.9,22.77-8.81Zm-9.81,11.34l2.38,1.69-9.23,11.56-1.27-3.29,8.12-9.97Zm1.62-.45c1.37,3.54,3.56,4.94,6.51,3.8,3-1.16,3.3-3.52,1.93-7.07l-1.48-3.82-8.45,3.27,1.48,3.82Z" style="fill:#1a171b;"/><path d="M735.38,284.04c7.5-2.39,13.48,.58,15.36,6.48,.9,2.82,.23,5.47-.83,7.31l-2.44-1.01c.92-1.64,1.32-3.46,.69-5.42-1.4-4.4-5.93-6.17-11.73-4.33-5.85,1.86-8.62,5.82-7.22,10.23,.71,2.22,2.21,3.6,4.33,4.56l-1.34,2.21c-2.72-1.16-4.67-3.05-5.63-6.07-1.84-5.79,1.26-11.56,8.81-13.97Z" style="fill:#1a171b;"/><path d="M754.07,303.13l.75,3.02-9.93,2.45,2.72,11.02,9.93-2.45,.75,3.02-23.7,5.86-.75-3.02,11.14-2.75-2.72-11.02-11.14,2.75-.75-3.02,23.7-5.86Z" style="fill:#1a171b;"/><path d="M759.75,327.63l.6,3.05-23.96,4.69-.6-3.05,23.96-4.69Z" style="fill:#1a171b;"/><path d="M759.89,343.41l-1.11-7.3,2.6-.4,2.68,17.67-2.6,.4-1.11-7.3-21.54,3.27-.47-3.07,21.54-3.27Z" style="fill:#1a171b;"/><path d="M764.65,358.75l1.32,14.01-2.62,.25-1.03-10.92-7.62,.72,.87,9.21-2.62,.25-.87-9.21-8.84,.83,1.07,11.29-2.62,.25-1.36-14.38,24.31-2.29Z" style="fill:#1a171b;"/><path d="M754.11,378.39c7.87-.28,12.83,4.18,13.05,10.37,.11,2.96-1.25,5.33-2.77,6.82l-2.08-1.63c1.32-1.33,2.2-2.98,2.12-5.04-.16-4.61-4.05-7.54-10.13-7.32-6.13,.22-9.87,3.28-9.71,7.91,.08,2.33,1.16,4.06,2.94,5.56l-1.89,1.77c-2.31-1.85-3.68-4.19-3.79-7.36-.22-6.08,4.32-10.8,12.24-11.08Z" style="fill:#1a171b;"/><path d="M764.21,405.97l.15-7.38,2.63,.05-.36,17.87-2.63-.05,.15-7.38-21.78-.44,.06-3.11,21.78,.44Z" style="fill:#1a171b;"/><path d="M752.07,420.72l14.29,1.18-.26,3.1-14.37-1.19c-5.85-.48-7.89,1.84-8.15,5.01-.27,3.22,1.36,5.92,7.21,6.41l14.37,1.19-.25,2.97-14.29-1.18c-7.81-.65-10.18-4.64-9.77-9.61,.41-4.97,3.41-8.52,11.22-7.88Z" style="fill:#1a171b;"/><path d="M749.83,452.09l1.23,2.64-13.74,5.49,.52-3.48,11.99-4.65Zm14.14-5.01l-1.12,7.56c-.73,4.92-3.02,8.19-8.05,7.44-4.82-.72-6.62-4.59-5.89-9.51l.67-4.49-10.21-1.52,.46-3.07,24.16,3.59Zm-12.51,5.42c-.56,3.76,.66,6.05,3.79,6.52,3.18,.47,4.61-1.43,5.17-5.19l.6-4.05-8.96-1.33-.6,4.05Z" style="fill:#1a171b;"/><path d="M759.46,473.8l-.72,3.43-25.58,3.09,.67-3.22,14.22-1.38c2.85-.3,5.63-.52,8.55-.71l.03-.15c-2.62-1.32-5.07-2.63-7.56-4.05l-12.46-7,.65-3.09,22.21,13.08Zm-13.39-6.8l-2.3,11-2.43-.51,2.3-11,2.43,.51Z" style="fill:#1a171b;"/><path d="M755.94,489.49l-.8,3-21.04-5.63-2.75,10.29-2.54-.68,3.56-13.29,23.58,6.31Z" style="fill:#1a171b;"/><path d="M737.4,509.94c7.43,2.62,10.41,8.6,8.34,14.44-.99,2.8-3.12,4.5-5.08,5.33l-1.34-2.28c1.72-.75,3.14-1.97,3.82-3.91,1.54-4.35-1.01-8.5-6.74-10.53-5.79-2.04-10.39-.56-11.93,3.8-.78,2.2-.41,4.2,.7,6.25l-2.41,.96c-1.47-2.56-1.88-5.25-.83-8.24,2.03-5.73,7.98-8.47,15.46-5.83Z" style="fill:#1a171b;"/><path d="M730.6,529.37c7.2,3.07,9.87,8.89,7.47,14.53s-8.47,7.73-15.65,4.67c-7.19-3.07-10.04-8.96-7.63-14.6s8.62-7.67,15.81-4.6Zm-6.92,16.25c5.6,2.39,10.17,1.22,11.88-2.79,1.71-4.01-.62-8.12-6.21-10.5s-10.33-1.29-12.04,2.72,.78,8.19,6.38,10.57Z" style="fill:#1a171b;"/><path d="M730.74,559.29l-1.72,3.32-13.73-1.84c-1.75-.25-3.54-.54-5.32-.8l-.07,.13c1.24,1.3,2.53,2.55,3.74,3.84l9.46,10.1-1.72,3.32-21.68-11.22,1.33-2.56,11.94,6.18c1.89,.98,4.38,2.54,6.23,3.67l.07-.13-4.05-4.28-9.1-9.89,.95-1.83,13.34,1.7,5.83,.84,.07-.13c-1.99-.85-4.71-1.99-6.59-2.97l-11.94-6.18,1.29-2.5,21.68,11.22Z" style="fill:#1a171b;"/><path d="M717.42,584.24l-3.62,5.96c-2.84,4.67-6.33,6.87-10.9,4.09-4.39-2.67-4.53-7.06-1.76-11.62l2.09-3.43-8.28-5.03,1.61-2.66,20.86,12.69Zm-13.93-.59c-2.22,3.65-1.96,6.19,1.01,8,3.01,1.83,5.12,.58,7.34-3.09l1.81-2.97-8.28-5.04-1.88,3.1Z" style="fill:#1a171b;"/><path d="M694,594.84l11.74,8.22-1.78,2.54-11.81-8.27c-4.81-3.37-7.74-2.39-9.57,.22-1.86,2.65-1.81,5.8,2.99,9.17l11.81,8.27-1.71,2.44-11.74-8.23c-6.42-4.5-6.45-9.14-3.59-13.22,2.86-4.08,7.24-5.64,13.66-1.15Z" style="fill:#1a171b;"/><path d="M685.78,625.88l4.61-5.77,2.05,1.64-11.15,13.97-2.05-1.64,4.61-5.77-17.02-13.59,1.94-2.43,17.02,13.59Z" style="fill:#1a171b;"/><path d="M675.43,642.39l-2.33,2.62-23.74-10.05,2.19-2.46,13.02,5.88c2.62,1.16,5.15,2.35,7.77,3.64l.1-.11c-1.61-2.45-3.09-4.8-4.54-7.27l-7.33-12.28,2.1-2.36,12.76,22.4Zm-8.23-12.56l-7.47,8.4-1.85-1.65,7.47-8.4,1.85,1.65Z" style="fill:#1a171b;"/><path d="M660.51,654.6l5.18-5.26,1.87,1.85-12.55,12.73-1.87-1.85,5.18-5.26-15.51-15.29,2.18-2.21,15.51,15.29Z" style="fill:#1a171b;"/><path d="M651.22,667.39l-2.27,2.12-16.64-17.86,2.27-2.12,16.64,17.86Z" style="fill:#1a171b;"/><path d="M636.68,664.49c5.05,5.98,4.82,12.38,.13,16.34-4.69,3.96-11.04,3.1-16.08-2.87-5.04-5.98-4.93-12.51-.25-16.47s11.15-2.97,16.2,3Zm-13.5,11.4c3.92,4.65,8.54,5.67,11.87,2.85,3.33-2.81,3.1-7.53-.82-12.18-3.92-4.65-8.65-5.8-11.98-2.99-3.33,2.81-2.99,7.67,.94,12.31Z" style="fill:#1a171b;"/><path d="M623.39,691.19l-2.59,1.89-16.19-7.17-5.11-2.52-.12,.09c1.58,1.9,3.4,3.98,4.9,6.04l7.46,10.2-2.38,1.74-14.41-19.71,2.59-1.89,16.2,7.19,5.1,2.51,.12-.09c-1.58-1.9-3.31-3.86-4.82-5.92l-7.54-10.31,2.38-1.74,14.41,19.71Z" style="fill:#1a171b;"/><path d="M557.62,731.4l-3.17,1.49-17.87-18.58,2.98-1.4,9.66,10.53c1.96,2.1,3.81,4.19,5.71,6.4l.13-.06c-.52-2.88-.95-5.63-1.32-8.47l-1.91-14.17,2.86-1.35,2.92,25.61Zm-2.63-14.79l-10.17,4.79-1.06-2.24,10.17-4.79,1.05,2.24Z" style="fill:#1a171b;"/><path d="M531.47,728.4l-1.66,2.4-11.66-9.1,3.27-1.31,10.05,8.01Zm11.45,9.69l-7.1,2.84c-4.62,1.85-8.6,1.51-10.48-3.21-1.81-4.53,.63-8.03,5.25-9.88l4.22-1.68-3.83-9.58,2.89-1.15,9.06,22.67Zm-10.98-8.08c-3.53,1.41-4.9,3.62-3.72,6.55,1.19,2.98,3.56,3.26,7.09,1.85l3.8-1.52-3.36-8.41-3.8,1.52Z" style="fill:#1a171b;"/><path d="M519.65,734.08c2.47,7.48-.43,13.49-6.31,15.44-2.82,.93-5.47,.29-7.32-.75l.98-2.46c1.65,.9,3.47,1.28,5.43,.63,4.38-1.45,6.11-6,4.2-11.77-1.93-5.83-5.91-8.56-10.31-7.11-2.21,.73-3.58,2.25-4.51,4.38l-2.23-1.32c1.13-2.73,3-4.7,6.01-5.7,5.77-1.91,11.58,1.13,14.07,8.66Z" style="fill:#1a171b;"/><path d="M500.76,752.98l-3.01,.78-2.56-9.9-10.99,2.85,2.56,9.9-3.01,.78-6.12-23.63,3.01-.78,2.88,11.11,10.99-2.85-2.88-11.11,3.01-.78,6.12,23.63Z" style="fill:#1a171b;"/><path d="M476.35,758.93l-3.04,.63-4.96-23.9,3.04-.63,4.96,23.9Z" style="fill:#1a171b;"/><path d="M460.54,759.25l7.29-1.19,.42,2.6-17.64,2.87-.42-2.59,7.29-1.19-3.5-21.5,3.07-.5,3.5,21.5Z" style="fill:#1a171b;"/><path d="M445.25,764.19l-14,1.47-.28-2.62,10.91-1.15-.8-7.61-9.2,.97-.27-2.62,9.2-.97-.93-8.83-11.28,1.19-.28-2.62,14.37-1.51,2.55,24.29Z" style="fill:#1a171b;"/><path d="M425.52,753.86c.37,7.87-4.04,12.88-10.23,13.17-2.96,.14-5.35-1.19-6.85-2.69l1.61-2.1c1.35,1.31,3,2.17,5.06,2.07,4.61-.22,7.49-4.13,7.21-10.21-.29-6.13-3.39-9.83-8.02-9.62-2.33,.11-4.05,1.21-5.52,3l-1.79-1.87c1.82-2.33,4.15-3.72,7.32-3.87,6.07-.28,10.85,4.2,11.22,12.12Z" style="fill:#1a171b;"/><path d="M397.92,764.27l7.39,.12-.04,2.63-17.88-.29,.04-2.63,7.39,.12,.36-21.79,3.11,.05-.36,21.79Z" style="fill:#1a171b;"/><path d="M383.16,752.27l-1.02,14.3-3.1-.22,1.03-14.38c.42-5.85-1.92-7.87-5.1-8.1-3.23-.23-5.91,1.43-6.33,7.28l-1.03,14.38-2.97-.21,1.02-14.3c.56-7.82,4.52-10.23,9.5-9.88,4.97,.36,8.56,3.31,8,11.13Z" style="fill:#1a171b;"/><path d="M356.94,764.45l-7.57-1.04c-4.93-.68-8.22-2.93-7.53-7.97,.66-4.83,4.52-6.67,9.44-6l4.5,.62,1.4-10.22,3.08,.42-3.31,24.19Zm-5.17-14.08l-2.63,1.26-5.64-13.67,3.49,.48,4.79,11.93Zm-.39,1.63c-3.76-.52-6.04,.72-6.47,3.86-.44,3.18,1.48,4.59,5.24,5.11l4.05,.56,1.23-8.97-4.05-.56Z" style="fill:#1a171b;"/><path d="M330.16,760.25l-3.44-.68-3.37-25.56,3.23,.64,1.53,14.21c.33,2.85,.58,5.63,.8,8.55l.15,.03c1.29-2.63,2.58-5.1,3.97-7.6l6.87-12.54,3.1,.61-12.84,22.35Zm6.66-13.47l-11.03-2.18,.48-2.43,11.03,2.18-.48,2.43Z" style="fill:#1a171b;"/><path d="M314.43,756.9l-3.01-.77,5.4-21.11-10.32-2.64,.65-2.55,13.33,3.41-6.05,23.65Z" style="fill:#1a171b;"/><path d="M293.77,738.59c-2.54,7.46-8.48,10.5-14.34,8.51-2.81-.96-4.54-3.07-5.39-5.02l2.26-1.37c.77,1.71,2,3.11,3.95,3.78,4.37,1.49,8.49-1.1,10.45-6.86,1.98-5.81,.45-10.4-3.94-11.89-2.21-.75-4.21-.36-6.24,.77l-.98-2.39c2.55-1.5,5.22-1.94,8.23-.92,5.76,1.96,8.56,7.88,6,15.39Z" style="fill:#1a171b;"/><path d="M274.29,732.01c-2.99,7.23-8.78,9.97-14.44,7.63-5.67-2.34-7.83-8.38-4.84-15.6,2.99-7.23,8.84-10.13,14.51-7.79,5.67,2.34,7.76,8.53,4.78,15.76Zm-16.32-6.74c-2.32,5.62-1.11,10.18,2.92,11.85,4.03,1.67,8.11-.71,10.43-6.33,2.32-5.62,1.17-10.35-2.86-12.01-4.03-1.66-8.18,.87-10.5,6.49Z" style="fill:#1a171b;"/><path d="M244.35,732.48l-3.34-1.68,1.68-13.76c.23-1.75,.5-3.55,.74-5.32l-.13-.07c-1.29,1.25-2.52,2.56-3.79,3.79l-10,9.58-3.34-1.68,10.98-21.81,2.58,1.3-6.04,12.01c-.96,1.9-2.49,4.41-3.6,6.27l.13,.07,4.23-4.1,9.79-9.22,1.84,.92-1.55,13.36-.77,5.84,.13,.07c.83-2,1.94-4.73,2.89-6.63l6.04-12.01,2.51,1.26-10.98,21.81Z" style="fill:#1a171b;"/><path d="M219.24,719.42l-6-3.56c-4.71-2.79-6.94-6.26-4.21-10.86,2.62-4.42,7.01-4.61,11.6-1.89l3.45,2.05,4.94-8.33,2.67,1.59-12.46,21Zm.44-13.94c-3.67-2.18-6.21-1.89-7.99,1.1-1.8,3.03-.52,5.12,3.17,7.31l2.99,1.77,4.94-8.33-3.12-1.85Z" style="fill:#1a171b;"/><path d="M208.41,696.13l-8.1,11.83-2.56-1.75,8.14-11.9c3.31-4.84,2.31-7.76-.32-9.57-2.67-1.83-5.82-1.75-9.13,3.09l-8.14,11.9-2.46-1.68,8.1-11.83c4.43-6.47,9.07-6.55,13.18-3.74,4.11,2.81,5.72,7.18,1.29,13.64Z" style="fill:#1a171b;"/><path d="M177.26,688.25l5.82,4.54-1.62,2.07-14.1-11,1.62-2.07,5.82,4.54,13.4-17.17,2.45,1.91-13.4,17.18Z" style="fill:#1a171b;"/><path d="M160.67,678.1l-2.65-2.3,9.79-23.85,2.48,2.16-5.74,13.09c-1.13,2.64-2.3,5.17-3.56,7.81l.11,.1c2.43-1.64,4.77-3.14,7.22-4.62l12.2-7.47,2.39,2.08-22.26,13.01Zm12.47-8.37l-8.48-7.38,1.63-1.87,8.48,7.38-1.63,1.87Z" style="fill:#1a171b;"/><path d="M148.3,663.31l5.32,5.13-1.82,1.89-12.87-12.41,1.82-1.89,5.32,5.13,15.12-15.68,2.24,2.16-15.12,15.68Z" style="fill:#1a171b;"/><path d="M135.4,654.16l-2.14-2.25,17.68-16.84,2.14,2.25-17.68,16.84Z" style="fill:#1a171b;"/><path d="M138.12,639.57c-5.92,5.11-12.33,4.95-16.33,.31-4.01-4.64-3.21-11.01,2.7-16.11,5.92-5.11,12.46-5.07,16.47-.42,4.01,4.64,3.09,11.12-2.83,16.23Zm-11.54-13.37c-4.61,3.97-5.57,8.6-2.72,11.9,2.85,3.3,7.56,3.02,12.17-.95,4.61-3.97,5.71-8.71,2.86-12.01-2.85-3.3-7.7-2.91-12.3,1.07Z" style="fill:#1a171b;"/><path d="M111.28,626.58l-1.92-2.57,6.99-16.27,2.47-5.14-.09-.12c-1.88,1.6-3.94,3.44-5.98,4.97l-10.12,7.57-1.77-2.36,19.55-14.63,1.92,2.57-7,16.28-2.46,5.13,.09,.12c1.88-1.61,3.83-3.36,5.87-4.89l10.23-7.66,1.77,2.36-19.55,14.63Z" style="fill:#1a171b;"/><path d="M70.36,561.25l-1.53-3.15,18.37-18.07,1.43,2.96-10.42,9.77c-2.07,1.98-4.15,3.85-6.34,5.78l.06,.13c2.88-.55,5.62-1.01,8.46-1.41l14.15-2.07,1.38,2.84-25.57,3.2Zm14.75-2.79l-4.9-10.12,2.23-1.08,4.9,10.12-2.23,1.08Z" style="fill:#1a171b;"/><path d="M63.51,546.61l-2.92-7.07c-1.9-4.6-1.61-8.58,3.09-10.52,4.51-1.86,8.04,.54,9.94,5.14l1.73,4.2,9.54-3.94,1.19,2.87-22.56,9.31Zm7.95-11.07c-1.45-3.51-3.67-4.86-6.59-3.65-2.97,1.23-3.22,3.59-1.77,7.1l1.56,3.78,8.37-3.45-1.56-3.78Zm1.61-.48l-2.41-1.64,8.97-11.76,1.34,3.25-7.9,10.14Z" style="fill:#1a171b;"/><path d="M67.25,523.3c-7.45,2.55-13.49-.28-15.5-6.14-.96-2.8-.35-5.47,.67-7.33l2.47,.95c-.88,1.66-1.24,3.49-.57,5.44,1.5,4.36,6.07,6.04,11.82,4.06,5.81-1.99,8.49-6.01,6.99-10.39-.76-2.2-2.29-3.55-4.43-4.46l1.29-2.24c2.74,1.1,4.73,2.94,5.76,5.94,1.97,5.75-1,11.59-8.5,14.16Z" style="fill:#1a171b;"/><path d="M48.15,504.65l-.81-3,9.87-2.68-2.97-10.96-9.87,2.68-.81-3,23.56-6.39,.81,3-11.08,3,2.97,10.96,11.08-3,.81,3-23.56,6.39Z" style="fill:#1a171b;"/><path d="M41.92,480.28l-.66-3.04,23.85-5.22,.66,3.04-23.85,5.22Z" style="fill:#1a171b;"/><path d="M41.43,464.48l1.27,7.28-2.59,.45-3.07-17.62,2.59-.45,1.27,7.28,21.46-3.74,.53,3.06-21.46,3.74Z" style="fill:#1a171b;"/><path d="M36.33,449.24l-1.63-13.98,2.61-.3,1.27,10.89,7.6-.88-1.07-9.19,2.61-.3,1.07,9.19,8.82-1.03-1.31-11.26,2.61-.3,1.67,14.35-24.26,2.82Z" style="fill:#1a171b;"/><path d="M46.44,429.4c-7.86,.45-12.92-3.9-13.28-10.09-.17-2.96,1.14-5.36,2.62-6.88l2.12,1.58c-1.29,1.36-2.13,3.03-2.01,5.08,.27,4.61,4.21,7.45,10.29,7.1,6.13-.35,9.8-3.5,9.53-8.12-.13-2.33-1.25-4.04-3.06-5.49l1.85-1.81c2.35,1.8,3.77,4.11,3.95,7.28,.35,6.07-4.08,10.89-12,11.35Z" style="fill:#1a171b;"/><path d="M35.76,402.43l.12,7.39-2.63,.04-.29-17.88,2.63-.04,.12,7.39,21.79-.36,.05,3.11-21.79,.36Z" style="fill:#1a171b;"/><path d="M47.57,387.03l-14.3-.87,.19-3.1,14.39,.88c5.85,.36,7.85-2.01,8.04-5.19,.2-3.23-1.49-5.89-7.34-6.25l-14.39-.88,.18-2.97,14.3,.87c7.82,.48,10.28,4.41,9.97,9.39-.3,4.97-3.22,8.59-11.04,8.12Z" style="fill:#1a171b;"/><path d="M35.09,360.96l.95-7.59c.62-4.93,2.84-8.25,7.88-7.62,4.84,.61,6.72,4.44,6.1,9.38l-.57,4.5,10.24,1.29-.39,3.08-24.23-3.04Zm12.38-5.7c.47-3.77-.79-6.04-3.93-6.43-3.19-.4-4.58,1.53-5.05,5.3l-.51,4.06,8.98,1.13,.51-4.06Zm1.64,.37l-1.29-2.62,13.61-5.8-.44,3.49-11.88,4.92Z" style="fill:#1a171b;"/><path d="M39.01,334.13l.64-3.45,25.52-3.64-.6,3.24-14.19,1.69c-2.84,.36-5.62,.64-8.54,.89l-.03,.15c2.65,1.26,5.12,2.52,7.65,3.88l12.62,6.73-.58,3.11-22.49-12.6Zm13.54,6.51l2.06-11.05,2.44,.45-2.06,11.05-2.44-.45Z" style="fill:#1a171b;"/><path d="M42.18,318.38l.74-3.02,21.17,5.16,2.52-10.35,2.56,.62-3.26,13.37-23.72-5.78Z" style="fill:#1a171b;"/><path d="M60.27,297.49c-7.48-2.46-10.59-8.36-8.66-14.25,.93-2.82,3.02-4.57,4.96-5.44l1.39,2.25c-1.7,.79-3.09,2.03-3.74,3.99-1.44,4.38,1.19,8.48,6.97,10.37,5.83,1.92,10.4,.33,11.84-4.06,.73-2.21,.32-4.21-.84-6.23l2.38-1.01c1.53,2.53,2,5.2,1.01,8.22-1.9,5.78-7.79,8.64-15.32,6.16Z" style="fill:#1a171b;"/><path d="M66.62,277.96c-7.26-2.91-10.06-8.66-7.79-14.36s8.3-7.92,15.54-5.02c7.26,2.91,10.23,8.73,7.95,14.42-2.28,5.69-8.45,7.86-15.71,4.95Zm6.56-16.39c-5.65-2.26-10.19-.99-11.81,3.05-1.62,4.05,.8,8.1,6.44,10.36s10.36,1.06,11.98-2.99c1.62-4.05-.96-8.17-6.61-10.43Z" style="fill:#1a171b;"/><path d="M65.81,248.04l1.65-3.36,13.78,1.53c1.76,.21,3.55,.46,5.33,.68l.07-.13c-1.26-1.27-2.59-2.49-3.83-3.75l-9.69-9.89,1.65-3.36,21.93,10.74-1.27,2.59-12.08-5.91c-1.91-.94-4.44-2.44-6.31-3.53l-.07,.13,4.15,4.19,9.32,9.68-.91,1.85-13.38-1.4-5.85-.71-.07,.13c2.01,.81,4.75,1.88,6.66,2.82l12.08,5.91-1.24,2.53-21.93-10.74Z" style="fill:#1a171b;"/><path d="M78.61,222.77l3.49-6.03c2.74-4.73,6.18-7.01,10.81-4.33,4.45,2.57,4.69,6.96,2.01,11.58l-2.01,3.47,8.38,4.85-1.56,2.69-21.13-12.23Zm13.94,.29c2.14-3.7,1.82-6.23-1.19-7.97-3.05-1.76-5.13-.46-7.27,3.25l-1.74,3.01,8.39,4.85,1.81-3.14Z" style="fill:#1a171b;"/><path d="M101.78,211.68l-11.92-7.96,1.73-2.58,11.99,8.01c4.88,3.26,7.79,2.22,9.56-.43,1.8-2.69,1.68-5.84-3.2-9.1l-11.99-8.01,1.65-2.48,11.92,7.96c6.51,4.35,6.65,8.99,3.88,13.14-2.77,4.14-7.11,5.8-13.63,1.45Z" style="fill:#1a171b;"/><path d="M109.3,180.47l-4.48,5.87-2.09-1.6,10.85-14.21,2.09,1.6-4.48,5.87,17.32,13.22-1.88,2.47-17.32-13.22Z" style="fill:#1a171b;"/><path d="M119.29,163.73l2.27-2.67,23.95,9.53-2.13,2.51-13.15-5.59c-2.65-1.1-5.2-2.24-7.85-3.47l-.1,.11c1.67,2.41,3.19,4.74,4.7,7.17l7.6,12.12-2.05,2.41-13.24-22.11Zm8.51,12.38l7.29-8.56,1.89,1.61-7.29,8.56-1.89-1.61Z" style="fill:#1a171b;"/><path d="M133.95,151.2l-5.07,5.37-1.91-1.8,12.27-13,1.91,1.8-5.07,5.37,15.84,14.95-2.13,2.26-15.84-14.95Z" style="fill:#1a171b;"/><path d="M142.95,138.2l2.23-2.17,17.04,17.5-2.23,2.17-17.04-17.5Z" style="fill:#1a171b;"/><path d="M157.55,140.79c-5.17-5.86-5.09-12.27-.49-16.33,4.6-4.06,10.97-3.33,16.14,2.52,5.17,5.86,5.2,12.4,.61,16.46-4.6,4.06-11.08,3.21-16.25-2.65Zm13.24-11.69c-4.02-4.56-8.66-5.48-11.93-2.59-3.27,2.88-2.94,7.59,1.09,12.16,4.02,4.56,8.77,5.61,12.04,2.72,3.27-2.88,2.82-7.73-1.21-12.29Z" style="fill:#1a171b;"/><path d="M170.27,113.79l2.55-1.95,16.35,6.82,5.17,2.41,.12-.09c-1.62-1.86-3.48-3.9-5.04-5.93l-7.68-10.03,2.34-1.79,14.84,19.39-2.55,1.95-16.36-6.83-5.16-2.4-.12,.09c1.63,1.87,3.4,3.79,4.95,5.82l7.77,10.15-2.34,1.79-14.84-19.39Z" style="fill:#1a171b;"/></g><path d="M400,118.47c-155.48,0-281.53,126.04-281.53,281.53s126.04,281.53,281.53,281.53,281.53-126.04,281.53-281.53S555.48,118.47,400,118.47Zm-6.6,462.64l-138.51-138.51-51.25,51.25-32.44-32.44,141.19-141.19,32.44,32.44-51.25,51.25,138.51,138.51-38.69,38.69Zm179.5-173.2c-23.1,23.1-55.41,38.5-89.77,40.4l-4.37-48.77c23.51-2.34,46.72-11.03,63.29-27.61,16.42-16.42,17.64-30.36,9.28-38.72-12.31-12.31-25.44-5.12-48.4,4.28l-31.78,12.77c-26.14,11.74-57.96,14.5-82.84-10.37-28.32-28.32-25.44-76.45,11.7-113.59,20.56-20.56,49.06-33.63,79.16-34.39l4.89,43.88c-20.68,3.39-36.05,9.34-52.75,26.04-12.75,12.75-16.11,26.67-6.12,36.66,10.28,10.28,25.5,2.58,48.05-7.66l29.78-12.05c30.78-13.99,58.88-14.17,83,9.95,28.42,28.42,29.19,76.87-13.13,119.19Z" style="fill:#1a171b;"/></svg>