<?xml version="1.0" encoding="UTF-8"?>
<svg id="Layer_1" data-name="Layer 1" xmlns="http://www.w3.org/2000/svg" viewBox="0 0 85.04 85.04">
  <defs>
    <style>
      .cls-1, .cls-2, .cls-3 {
        stroke: #fff;
      }

      .cls-1, .cls-4 {
        fill: #e3d09b;
      }

      .cls-1, .cls-3 {
        stroke-miterlimit: 10;
      }

      .cls-2 {
        stroke-linecap: round;
        stroke-linejoin: round;
      }

      .cls-2, .cls-5 {
        fill: #bc7e84;
      }

      .cls-6, .cls-3 {
        fill: #cfbddc;
      }

      .cls-7 {
        fill: #a8af8c;
      }

      .cls-8 {
        fill: #90a1ce;
      }
    </style>
  </defs>
  <path class="cls-2" d="M51.83,27.78c4.3,5.06.88,16.67,1.88,23.06.22,2.91-3.97,2.11-4.27,3.7-.12,4.08.12,8.18,0,12.25-.06,2.19-.06,7.03-.48,8.89-.75,3.3-6.15,2.83-8.8,2.64-2.35-.17-4.36-.5-4.69-3.28-.45-3.73-.15-9.35-.29-13.38-.06-1.8.37-5.97-.05-7.36-.3-1.02-3.81-.83-4.21-2.91l.06-20.43c1.75-5.79,6.47-6.18,11.75-6.13,3.77.03,6.57-.02,9.09,2.96Z"/>
  <path class="cls-3" d="M59.26,27.33c2.25.35,5.16,3,5.54,5.29.6,3.63,0,10.5,0,14.52,0,1.43.68,2.62-.4,4.14-.97,1.38-2.82.38-3.17,1.67-.38,4.32.07,8.68-.11,13-.03.61-.26,1.14-.29,1.7-.17,2.57.63,6.09-2.98,6.42-1,.09-7.42.17-7.57-.49l.62-18.43c.21-.61,3.06-.76,3.86-2.97s.44-9.69.38-12.46c-.05-2.34-.02-4.78-.07-7.11-.05-1.94-1.02-3.42-1.37-5.27,1.72.19,3.91-.26,5.55,0Z"/>
  <path class="cls-1" d="M30.91,27.33c.05,1.43-.98,2.36-1.14,3.84-.68,6.31.51,13.79,0,20.22.06,1.96,2.13,3.41,3.99,3.28l.52,19.04c-.21.04-.56.33-.67.33h-7.41c-.61,0-1.73-1.46-1.84-2.15-.43-2.73-.18-6.29-.3-9.1-.02-.55-.27-1.09-.29-1.7-.09-2.24.39-5.96-.05-7.92-.33-1.48-1.11-.74-2.05-1.06-1.25-.42-1.87-2.05-1.87-3.28,0-1.42.29-3.37.3-4.83.01-3.41-.67-10.61.94-13.3.74-1.23,3.17-3.38,4.6-3.38h5.27Z"/>
  <path class="cls-8" d="M62.33,69.97c-1.24-1.7.2-12.99-.08-15.72.23-1.2,1.61-.88,2.57-1.7.5-.43,1.07-1.33,1.14-1.99-.49-5.6.62-12.2-.01-17.67-.17-1.45-2.21-3.62-.16-3.86s6.32.11,7.98,1.45c1.89,1.51,2.3,2.9,2.44,5.25.22,3.5.36,10-.05,13.37s-2.92,1.67-3.35,2.92l-.03,11.08c-.81,2.41.86,7.41-2.71,7.83-1.55.18-6.85.29-7.75-.95Z"/>
  <path class="cls-7" d="M20.09,29.04c.08,1.5-.98,2.64-1.14,4.13-.4,3.64-.44,13.5,0,17.1.08.66.65,1.85,1.14,2.28.89.8,2.44.26,2.74,2.11-.27,4.62.73,10.45.09,14.96-.05.33-.12.67-.33.95-.47.47-6.52.51-7.47.34-1.47-.27-1.95-1.71-2.12-3.01l-.33-16.33c-1.42-.13-2.82-.18-3.1-1.88-.45-2.73-.02-7.81,0-10.82,0-1.65-.3-3.27.01-5.09.15-.9.57-1.59,1.12-2.29,2.37-2.97,6.08-2.16,9.39-2.43Z"/>
  <circle class="cls-5" cx="42.38" cy="16.8" r="6.52"/>
  <circle class="cls-6" cx="55.54" cy="20.12" r="5.62"/>
  <circle class="cls-8" cx="67.36" cy="22.87" r="5.18"/>
  <circle class="cls-4" cx="29.21" cy="20.12" r="5.62"/>
  <circle class="cls-7" cx="17.39" cy="22.87" r="5.18"/>
</svg>