<?xml version="1.0" encoding="UTF-8"?>
<svg id="Layer_1" data-name="Layer 1" xmlns="http://www.w3.org/2000/svg" viewBox="0 0 85.04 85.04">
  <defs>
    <style>
      .cls-1 {
        fill: #ced1c3;
      }

      .cls-2 {
        fill: #fff;
      }

      .cls-3 {
        fill: #e2dedc;
      }

      .cls-4 {
        fill: #90a1ce;
      }
    </style>
  </defs>
  <path class="cls-2" d="M17.44,37.24V7.57h62.38v61.56h-30.1c14.85-.57,27.65-11.87,29.75-26.62,2.71-19.1-12.74-35.54-31.82-34.89-16.01.54-29.57,13.5-30.21,29.62Z"/>
  <path class="cls-2" d="M47.17,68.96h-29.56v-29.37l.2,2.4c1.62,13.89,12.87,24.93,26.66,26.72l2.7.25Z"/>
  <path class="cls-4" d="M74.82,25.34s.09.07.02.07c-.4-.06-.7-.2-1.11-.04.02.51-.11,1.06-.11,1.56,0,.46.18,1.13,0,1.55-.01.03,0,.11-.08.07-.03-.01-.44-.39-.47-.43-.14-.18-.27-.57-.4-.8s-.53-.75-.58-.96c-.08-.3.02-.69-.03-1.01-.07-.41-.43-.93-.44-1.4,0-.06,1.19-.04,1.24-.08.03-.02.18-.57.13-.64l-1.22-.6c.17-.03.31-.16.48-.19.23-.04.42.04.61.02.17-.02.34-.16.38-.18.06-.02.26.07.31-.09.03-.1.08-.74.05-.8-.04-.06-.66-.36-.78-.48s-.28-.65-.3-.84c-.04-.33.07-.83.04-1.08s-.41-.72-.41-1.03c.4.5.83.97,1.22,1.47.12.15.72.91.74,1.01.03.13-.06.59-.04.83.03.21.24.7.23.84,0,.04-.2.44-.24.46-.12.08-.42-.06-.4.1,0,.05.26.52.3.58.25.38.84.82.84,1.3,0,.26,0,.53,0,.8Z"/>
  <path class="cls-1" d="M49.9,68.96h-2.73l-2.7-.25c-13.79-1.79-25.04-12.83-26.66-26.72l-.2-2.4c.03-.84-.03-1.69,0-2.53.65-16.11,14.2-29.07,30.21-29.62,19.08-.65,34.53,15.79,31.82,34.89-2.09,14.76-14.9,26.06-29.75,26.62ZM73.57,29.88c.05-.21-.04-.62,0-.85-.08.01-.09.09-.11.16-.13.33-.19,1.02-.33,1.27-.03.05-.66.56-.73.59-.05.03-.05.01-.09,0-.32-.11-.78-.56-1.12-.68-.13-.14-.05-.55-.12-.71-.1-.23-.67-.44-.71-.75-.02-.12-.02-.62.01-.72.04-.13.53-.53.56-.65s.02-.7-.04-.81c-.03-.06-.79-.25-.91-.27-.19-.02-.53.03-.66-.02-.06-.02-.32-.45-.35-.53-.19-.44.13-1.15.01-1.57-.02-.08-.68-1.32-.74-1.4-.16-.2-.73-.42-.82-.59-.07-.12-.22-.74-.26-.91-.08-.38-.09-1.07-.22-1.39-.14-.34-.74-.99-.92-1.37-.1-.2-.25-1.1-.29-1.14-.04-.04-.61-.2-.74-.26-.27-.12-1.12-.69-1.29-.72-.09-.01-.24.09-.25.17-.02.11.41.36.38.52-.02.08-.63.46-.58.52.52.08.97.42,1.36.75.24.21.49.55.73.73.14.1.89.4.92.49.02.07,0,.1-.05.14-.17.13-.72.25-.87.39-.12.11-.27.62-.37.65-.31-.08-.64-.1-.94-.21-.19-.07-.83-.4-.98-.53-.29-.26-.53-.97-.8-1.29-.56-.66-2.17-1.14-2.93-1.65-.15-.1-.92-1.11-.87-1.18.27-.11.59-.42.85-.51.22-.08,1.41-.21,1.46-.27-.03-.09-.13-.55-.15-.58-.02-.02-.46-.11-.49-.1-.09.03-.17.34-.25.34h-1.02c-.18,0,.15-.6.07-.72-.02-.03-.5-.17-.6-.25-.16-.13-.3-.53-.51-.65l-2.9-1.92c-.37,0-.5.47-.7.6-.03.02-.72.24-.77.25-.16.01-.48-.2-.68-.25-.45-.12-1.53-.17-1.96-.04-.13.04-.34.23-.48.3-.7.31-1.81.28-2.55.11-.15-.04-.81-.26-.86-.36-.06-.13-.08-.4-.11-.55-.33.04-.78-.06-1.09,0-.23.04-.41.38-.55.43-.23.07-.9.02-1.2.06-.39.05-.76.2-1.15.24-.04.22.08.56-.08.72-.02.02-.51.32-.54.33-.35.11-.91.04-1.25.16-.05.02-.45.27-.46.3-.04.06.2.49.18.6-.02.12-.53.35-.65.42l-1.39.17c-.17.11-.09,1.06-.2,1.23-.04.05-.42.25-.52.33-.61.49-1.55,1.86-2.28,2.11-.26.09-.65.12-.94.16-.11-.11.64-.98.67-1.15,0-.02-.08-.34-.09-.35-.05-.05-.68.03-.81-.02-.11-.19-.82-1.15-.78-1.27.2-.22.39-.5.6-.7.1-.1.65-.57.75-.59.13-.03.42.01.5-.09.04-.05.37-.76.38-.82.06-.35-.13-.73-.09-1.09l1.74-.79s.02-1.03-.02-1.11c-.09-.2-.64-.55-.87-.53-.15.01-.91.4-1.12.49-9.17,4.3-15.99,13.32-17.41,23.4-2.73,19.39,13.26,35.89,32.6,34.65.7-.05,1.42-.16,2.12-.24-.04-.19-.12-.35-.09-.55.03-.25.3-.58.32-.79.02-.18-.08-.49-.03-.7l-.77-.06c-.3-.35-.6-.78-.91-1.11-.34-.36-.97-.99-1.34-1.29-.42-.34-1.01-.58-1.48-.91-.24-.17-.47-.38-.71-.56l-.03-1.42c.16-.18.34-.8.47-.92.16-.16.97-.26,1.11-.44.06-.08.27-.57.29-.68.07-.51-.11-1.1.1-1.58-.35-.06-.73-.12-1.1-.1-.2.01-.43.09-.63.1-.7.02-1.7-.62-2.4-.79-.28-.45-.42-1.12-.72-1.54-1-1.41-3.61-2.06-5.16-2.63-1.45-.53-1.52-1.1-2.61-1.87-.31-.22-.83-.32-1.09-.51-.1-.07-.58-.77-.6-.86-.04-.2.19-.52.19-.77,0-.93-.88-2.02-1.18-2.87-.26-.74-.34-1.62-.63-2.36l-.39.07c.24.85.25,1.92.66,2.7.17.32.54.53.61.87-.02.03-.66-.22-.7-.24-.05-.03-.74-.79-.78-.84-.16-.29-.42-1.19-.54-1.56-.39-1.23-.68-2.51-1.08-3.74.03-2.53.26-4.94,1.76-7.06.12-.17.65-.71.68-.83.04-.15-.16-.72-.18-.95-.04-.47,0-1.18.05-1.66.16-1.54,1.08-3.1.92-4.68-.05-.48-.22-.93-.4-1.38-.35-.15-.66-.37-1.01-.52s-.76-.24-1.12-.39c-.18-.08-.86-.35-.97-.44s-.28-.73-.34-.9c.13-.12.66.46.83.51.07.03.55.1.58.07.13-.44.34-1.14.62-1.5.06-.07.59-.47.67-.5.29-.12.9.15,1.22.16.19-.17.36-.93.5-1.02s.55-.06.72-.06c.14,0,.29.08.39.08.12,0,.3-.18.44-.22.36-.11,1.46-.09,1.67.27.03.05.24.88.25.97.04.3-.05.69.01.96.02.1.59.9.69,1.01.31.34.9.81,1.27,1.12.75.63,1.58,1.18,2.34,1.8,0-.19.13-.53.05-.68-.06-.11-.65-.41-.73-.54-.09-.14-.07-.55-.15-.73-.1-.2-.53-.4-.65-.62-.01-.08.5-.57.62-.59s.87-.08.93-.05c.06.04.39.68.5.79.15.16.58.27.71.41.05.06.29.7.31.81.08.4.03.89.06,1.3.02.05.27.22.32.22.06,0,.39-.27.43-.34.09-.18.14-1.03.17-1.07.18.05.42-.06.56-.05.19.01.15.63.18.8.02.11.12.72.15.75s.62.21.69.21c.05,0,.68-.17.71-.2.09-.08-.03-.08-.07-.1-.14-.07-.32-.12-.45-.21l-.79-1.07s.66-.65.71-.66c.11-.03.9.23,1.05.29.73.29,1.45.79,2.16,1.13.27.48.3.97.81,1.26.2.12.76.28.9.39.05.04.59.97.58,1.03,0,.1-.41.42-.47.54-.17.32,0,.78-.38.89-.7.21-.8-.03-1.41-.24s-1.17-.34-1.78-.39c-.01-.08,0-.11.05-.17.14-.18.74-.46.85-.66.09-.15.11-.86.06-1.03-.04-.16-.33-.42-.39-.61l-1.3-.4c.05.3.61.43.43.75-.37.64-1.06.94-1.6,1.42s-1.62,1.62-1.7,2.29c-.03.25-.08.9-.05,1.12.01.07.3.56.35.6.13.11,1.01.23,1.26.32.09.03.74.32.77.35.08.09.06.78.15,1.02.18.45.65.89,1.02,1.2.14-.63.13-1.33.27-1.95.05-.23.36-.62.36-.66,0-.07-.4-.41-.43-.54l-.05-2.29c.03-.16.53-.25.69-.29l1.66.7.53.72c.42.12.9.1,1.31.17.34.06,1.72,1.15,2.01,1.45.43.44.96,1.1,1.08,1.7.04.18-.19.75-.32.85-.07.05-.67.31-.78.34-.68.2-1.15.17-1.8.64-.07.05-.59.56-.61.61-.03.06-.08.28.05.24.09-.03.51-.25.61-.32.31-.21.33-.47.78-.39.06.01.42.11.43.13.06.09.04.64.06.67.01.02.36.09.41.09.2,0,.77-.2.9-.11.08.05.27.57.24.67-.04.12-1.25.69-1.45.84-.13.09-.48.54-.52.55-.14.04-.42-.23-.58-.24-.45-.03-.82.64-1,.99-.08.16-.24.64-.31.71-.1.1-.34.07-.45.16-.04.03-.48.69-.52.77-.12.22-.47,1.12-.5,1.35-.05.31.03.92-.09,1.18-.02.04-.63.55-.73.63-.66.53-1.29.74-1.6,1.61-.05.15-.18.81-.17.94.02.17.29.55.35.77.1.32.12.69.21,1.02l-.71.27-1.24-1.83c-.55-.28-1.32-.58-1.95-.48-.32.05-.68.4-1.13.38-.17,0-.46-.26-.69-.32-.26-.06-.63-.08-.9-.05-.15.02-.94.17-1.03.23-.06.04-.82,1.07-.87,1.19-.08.17-.18.82-.19,1.03-.02.42.09.87.12,1.29.37.22.72.66,1.08.87.12.07.71.29.83.3.09,0,.59-.13.65-.17.12-.09.26-.53.38-.61.09-.06.92-.34.98-.31.04.02.61.36.64.39.05.05.05.07.05.14,0,.17-.11.88-.16,1.06-.05.2-.34.58-.36.7-.02.11.11.32.09.45.69-.01,1.56,0,2.2.31.06.03.6.41.62.45.12.16.02.75-.03.95-.13.61-.46.77.15,1.31.12.1.66.51.78.54.22.04.55.02.78.05.34.05.68.11,1.02.18.53-.5.95-.98,1.62-1.3.28-.13.54-.29.85-.23s.74.24,1.09.33c.02,0,.02.08.06.09.28.05.67-.3.92-.34.54-.08,1.28.05,1.85,0,.46-.04,1.14-.36,1.56-.34.44.01,1.38.61,1.89.75.36.1,1.11.24,1.48.27.73.07,1.45-.09,2.18-.03.51.46.91,1.04,1.38,1.54.49-.09,1-.12,1.49-.2.59-.1,1.43-.27,2-.44.52-.16,1.04-.63,1.59-.4.06.02.75.54.79.58.02.03.05.05.04.09-.42.75-1.17,1.49-1.55,2.26-.27.56-.55,1.29-.49,1.92,5.91-4.94,9.98-12.15,10.81-19.87l-.41.19-1.2,1.84c-.09.05-1.2-.2-1.33-.28-.24-.15-1.04-1.12-1.18-1.4-1.38-2.6-1.64-5.26-1.37-8.17-.17-.47-.43-.93-.6-1.39-.3-.77-.49-1.15-.16-1.96.06-.16.31-.48.33-.55ZM74.78,25.3c0-.26,0-.52,0-.78,0-.48-.58-.91-.83-1.28-.04-.07-.29-.52-.29-.57-.02-.15.27-.02.39-.1.03-.02.23-.4.23-.45.01-.14-.2-.62-.23-.83-.03-.23.06-.69.03-.81-.02-.1-.61-.84-.72-.98-.38-.49-.8-.95-1.19-1.44,0,.3.37.75.4,1.01s-.07.74-.04,1.06c.02.19.17.7.29.83s.73.42.77.47c.04.06-.01.69-.05.79-.05.15-.24.07-.3.08-.04.01-.21.16-.37.17-.19.02-.37-.06-.6-.02-.17.03-.31.15-.47.18l1.19.58c.04.07-.1.61-.13.63-.05.04-1.22.02-1.21.08,0,.46.36.97.43,1.37.05.31-.04.69.03.99.05.2.44.71.57.94s.25.6.39.78c.03.04.43.41.46.42.09.04.06-.03.08-.07.17-.41,0-1.06,0-1.52,0-.49.12-1.03.11-1.53.4-.16.69-.02,1.09.04.07,0-.02-.06-.02-.07Z"/>
  <path class="cls-4" d="M73.57,29.88c-.02.07-.27.39-.33.55-.33.81-.14,1.19.16,1.96.18.47.44.92.6,1.39-.26,2.92,0,5.57,1.37,8.17.15.27.94,1.25,1.18,1.4.13.08,1.24.33,1.33.28l1.2-1.84.41-.19c-.83,7.72-4.9,14.93-10.81,19.87-.06-.62.22-1.36.49-1.92.37-.76,1.12-1.5,1.55-2.26.01-.04-.02-.06-.04-.09-.03-.04-.73-.55-.79-.58-.55-.23-1.07.24-1.59.4-.57.17-1.4.34-2,.44-.49.09-1,.11-1.49.2-.47-.5-.87-1.08-1.38-1.54-.73-.06-1.45.1-2.18.03-.37-.03-1.12-.17-1.48-.27-.51-.14-1.45-.73-1.89-.75s-1.1.3-1.56.34c-.57.05-1.3-.08-1.85,0-.25.04-.64.39-.92.34-.04,0-.03-.08-.06-.09-.35-.09-.78-.27-1.09-.33s-.57.1-.85.23c-.67.32-1.09.79-1.62,1.3-.34-.07-.68-.13-1.02-.18-.23-.03-.55,0-.78-.05-.12-.02-.66-.43-.78-.54-.6-.54-.28-.7-.15-1.31.04-.21.14-.8.03-.95-.03-.04-.56-.42-.62-.45-.64-.31-1.51-.32-2.2-.31.03-.14-.1-.35-.09-.45.02-.12.31-.51.36-.7.05-.18.16-.89.16-1.06,0-.07,0-.09-.05-.14-.02-.03-.59-.37-.64-.39-.07-.02-.9.26-.98.31-.12.08-.26.52-.38.61-.06.05-.56.18-.65.17-.12,0-.71-.23-.83-.3-.36-.21-.71-.65-1.08-.87-.03-.42-.15-.87-.12-1.29.01-.21.1-.86.19-1.03.06-.11.81-1.15.87-1.19.09-.05.88-.21,1.03-.23.27-.03.64-.02.9.05.23.06.52.32.69.32.44.02.81-.33,1.13-.38.63-.1,1.4.2,1.95.48l1.24,1.83.71-.27c-.09-.33-.11-.69-.21-1.02-.07-.22-.34-.6-.35-.77-.01-.14.12-.8.17-.94.31-.87.95-1.08,1.6-1.61.1-.08.71-.59.73-.63.12-.26.04-.88.09-1.18.04-.23.38-1.13.5-1.35.05-.08.49-.74.52-.77.11-.09.35-.06.45-.16.07-.07.22-.56.31-.71.18-.34.55-1.02,1-.99.16.01.44.27.58.24.04-.01.4-.46.52-.55.2-.15,1.41-.72,1.45-.84.04-.11-.15-.62-.24-.67-.14-.08-.7.12-.9.11-.05,0-.39-.08-.41-.09-.02-.03,0-.58-.06-.67-.01-.02-.37-.12-.43-.13-.45-.08-.47.18-.78.39-.1.06-.51.29-.61.32-.13.04-.07-.18-.05-.24.02-.04.54-.56.61-.61.65-.46,1.12-.44,1.8-.64.11-.03.71-.29.78-.34.13-.1.36-.67.32-.85-.12-.61-.65-1.26-1.08-1.7-.29-.3-1.66-1.39-2.01-1.45-.42-.07-.89-.05-1.31-.17l-.53-.72-1.66-.7c-.16.05-.66.13-.69.29l.05,2.29c.02.12.43.46.43.54,0,.04-.31.42-.36.66-.14.62-.12,1.32-.27,1.95-.36-.3-.84-.75-1.02-1.2-.09-.24-.07-.93-.15-1.02-.03-.03-.68-.32-.77-.35-.26-.09-1.13-.21-1.26-.32-.05-.04-.34-.52-.35-.6-.04-.22.02-.87.05-1.12.08-.67,1.19-1.84,1.7-2.29.54-.47,1.23-.77,1.6-1.42.18-.32-.38-.45-.43-.75l1.3.4c.06.18.35.45.39.61.05.17.03.88-.06,1.03-.11.19-.72.48-.85.66-.05.06-.06.1-.05.17.61.05,1.2.19,1.78.39s.7.44,1.41.24c.38-.11.21-.57.38-.89.06-.12.46-.44.47-.54,0-.06-.54-1-.58-1.03-.14-.11-.69-.27-.9-.39-.51-.3-.54-.78-.81-1.26-.71-.34-1.43-.84-2.16-1.13-.16-.06-.95-.32-1.05-.29-.05.01-.7.61-.71.66l.79,1.07c.13.09.31.14.45.21.04.02.16.02.07.1-.03.03-.66.2-.71.2-.07,0-.67-.18-.69-.21s-.14-.64-.15-.75c-.03-.17.01-.79-.18-.8-.14,0-.38.1-.56.05-.04.04-.09.89-.17,1.07-.03.07-.37.34-.43.34-.05,0-.3-.17-.32-.22-.03-.41.02-.9-.06-1.3-.02-.11-.26-.74-.31-.81-.13-.15-.55-.25-.71-.41-.1-.11-.43-.76-.5-.79-.06-.03-.82.02-.93.05s-.63.52-.62.59c.12.22.56.42.65.62.08.18.06.58.15.73.07.12.67.43.73.54.09.16-.05.5-.05.68-.76-.62-1.58-1.18-2.34-1.8-.37-.31-.96-.78-1.27-1.12-.1-.11-.67-.91-.69-1.01-.06-.27.02-.66-.01-.96-.01-.09-.22-.92-.25-.97-.21-.36-1.31-.38-1.67-.27-.14.04-.32.21-.44.22-.1,0-.25-.07-.39-.08-.18,0-.59-.03-.72.06s-.31.85-.5,1.02c-.32-.02-.94-.28-1.22-.16-.08.03-.61.43-.67.5-.28.36-.49,1.06-.62,1.5-.04.03-.51-.04-.58-.07-.16-.06-.69-.63-.83-.51.07.17.23.81.34.9s.79.36.97.44c.36.15.76.24,1.12.39s.66.37,1.01.52c.18.45.35.89.4,1.38.15,1.57-.76,3.14-.92,4.68-.05.48-.09,1.18-.05,1.66.02.23.21.8.18.95-.03.12-.56.66-.68.83-1.5,2.12-1.73,4.53-1.76,7.06.4,1.23.69,2.5,1.08,3.74.12.37.38,1.27.54,1.56.03.06.73.81.78.84.03.02.67.27.7.24-.07-.35-.45-.55-.61-.87-.41-.78-.41-1.86-.66-2.7l.39-.07c.29.75.38,1.62.63,2.36.3.86,1.18,1.94,1.18,2.87,0,.25-.23.57-.19.77.02.1.5.79.6.86.27.2.78.29,1.09.51,1.09.77,1.15,1.34,2.61,1.87,1.55.57,4.16,1.22,5.16,2.63.3.42.44,1.09.72,1.54.7.18,1.69.81,2.4.79.2,0,.43-.09.63-.1.36-.02.74.04,1.1.1-.21.48-.03,1.07-.1,1.58-.02.11-.22.6-.29.68-.14.18-.95.28-1.11.44-.13.12-.31.75-.47.92l.03,1.42c.24.18.46.39.71.56.46.33,1.06.57,1.48.91.37.3,1,.93,1.34,1.29.31.33.61.76.91,1.11l.77.06c-.05.21.05.52.03.7-.02.22-.3.54-.32.79-.02.2.06.36.09.55-.7.08-1.41.2-2.12.24-19.33,1.25-35.33-15.25-32.6-34.65,1.42-10.08,8.23-19.11,17.41-23.4.2-.1.96-.48,1.12-.49.23-.02.78.34.87.53.04.08.05,1.06.02,1.11l-1.74.79c-.04.35.14.74.09,1.09-.01.07-.34.77-.38.82-.09.1-.38.06-.5.09-.09.02-.64.49-.75.59-.21.2-.4.48-.6.7-.03.13.68,1.08.78,1.27.13.05.76-.03.81.02.01.01.09.33.09.35-.03.17-.78,1.05-.67,1.15.28-.04.67-.07.94-.16.73-.24,1.67-1.61,2.28-2.11.1-.08.49-.28.52-.33.11-.17.04-1.12.2-1.23l1.39-.17c.12-.07.63-.3.65-.42.02-.1-.22-.53-.18-.6.01-.02.41-.28.46-.3.34-.12.9-.05,1.25-.16.03,0,.52-.31.54-.33.16-.16.04-.5.08-.72.39-.04.76-.19,1.15-.24.3-.04.97,0,1.2-.06.14-.04.31-.38.55-.43.31-.06.76.04,1.09,0,.03.15.05.42.11.55.05.1.7.33.86.36.74.18,1.84.2,2.55-.11.14-.06.35-.26.48-.3.44-.13,1.51-.08,1.96.04.2.05.52.27.68.25.05,0,.74-.22.77-.25.2-.13.33-.59.7-.6l2.9,1.92c.22.12.35.53.51.65.1.08.59.22.6.25.09.12-.24.72-.07.72h1.02c.08,0,.16-.31.25-.34.04-.01.48.08.49.1.03.02.12.49.15.58-.05.05-1.24.19-1.46.27-.26.09-.58.4-.85.51-.05.07.72,1.08.87,1.18.76.5,2.37.98,2.93,1.65.27.32.51,1.03.8,1.29.14.13.78.46.98.53.3.11.63.13.94.21.1-.02.25-.54.37-.65.16-.15.7-.26.87-.39.05-.04.07-.07.05-.14-.03-.09-.77-.39-.92-.49-.25-.18-.49-.52-.73-.73-.39-.34-.84-.68-1.36-.75-.05-.06.56-.44.58-.52.03-.16-.4-.41-.38-.52.01-.08.17-.18.25-.17.17.02,1.02.59,1.29.72.13.06.7.22.74.26.04.04.2.94.29,1.14.18.38.79,1.02.92,1.37.13.32.14,1,.22,1.39.04.17.19.8.26.91.1.17.67.39.82.59.06.08.72,1.32.74,1.4.11.43-.21,1.13-.01,1.57.03.08.29.51.35.53.13.05.47,0,.66.02.12.02.88.21.91.27.06.11.07.68.04.81s-.53.53-.56.65c-.03.1-.03.6-.01.72.04.32.61.52.71.75.07.16,0,.56.12.71.35.13.81.58,1.12.68.04.01.04.03.09,0,.07-.03.7-.54.73-.59.15-.26.21-.94.33-1.27.02-.06.03-.14.11-.16-.04.24.05.64,0,.85ZM57.48,21.25c-.34-.3-1.08-.91-1.45-1.11-.43-.23-1.05-.29-1.5-.49-.6-.27-.9-.75-1.63-.81-.6-.04-1.68.05-2.19.4-.12.08-.36.62-.5.67-.03.01-.48.07-.5.06s-.02-.41-.09-.47c-.11-.08-.83-.01-.99.04-.09.03-.88.37-.91.4-.13.12.15.56.12.76-.04.26-.47.92-.46,1.14,0,.1.45.7.54.78.09.07.78.5.88.54.06.02.12.04.19.03.19-.61.23-1.36.68-1.82.05-.05.06-.09.14-.07.05.25.14.69.25.89.36.66,1.18.92,1.74,1.28.75.46,1.42,1.19,2.1,1.75.21.61.17,1.28.3,1.92.02.03.62.27.72.38s.08.4.14.54c.07.16.93.69,1.14.81.12.07.42.24.54.24l2.29-.73.17-.12-1.31-.49-.38-.59.18-3.1c.04-.24.62-.52.67-.69.04-.13.03-.94.01-1.11-.03-.28-.39-.44-.59-.63-.11-.1-.22-.27-.31-.35ZM68.45,25.13c-.09-.48.21-.95.03-1.41-.09-.22-.51-.39-.72-.49-.58-.28-1.43-.51-1.95-.83-.18-.11-.59-.63-.75-.67-.08-.02-.59.2-.63.28-.08.17.73,1.23.83,1.46.17.39.22,1.15.42,1.48.03.05.78.68.85.71.21.1.48.03.71.05.07-.07-.18-.52-.24-.61-.12-.16-.88-.69-.73-.85.08-.09,1.88.92,2.19.88ZM60.7,22.17c-.09.01-.55.17-.62.21-.17.1-.23.36-.39.48-.14.1-.5.11-.53.2.06.75.19,1.57.99,1.88.47.18.39-.05.62-.33.13-.16.45-.44.53-.59.07-.12.34-1.03.35-1.17.02-.2-.44-.54-.62-.63-.14-.07-.15-.08-.31-.05ZM57.52,36.33c.41,0,.81,0,1.22,0,.02,0,.07-.05.05-.1-.02-.1-.22-.51-.29-.58-.4-.44-1.16-.93-1.63-1.34-.08-.06-.38-.41-.41-.41-.11-.03-.25.56-.26.67-.04.55.86,1.45,1.24,1.8.05,0,.08-.04.09-.04ZM51.65,51.34c-.33-.06-.7-.38-1.01-.43-.28-.05-.66-.02-.95-.07-.41-.08-.89-.29-1.3-.4-.38-.1-1.09-.35-1.45-.23-.18.06-.46.2-.6.33.62.24,1.36.19,1.98.4.25.09.76.36,1,.51.17.1.86.64.94.66.05,0,1.04-.13,1.09-.16.08-.04.33-.54.29-.6ZM53.89,51.53s-.52-.16-.6-.15c-.43,0-.98.24-1.43.25.01.17-.1.38-.05.55.06.19,1.3.47,1.53.47.41,0,.91-.2,1.34-.2,0-.07.02-.09-.03-.15-.1-.11-.71-.33-.77-.43-.03-.04.07-.28.02-.34Z"/>
  <path class="cls-1" d="M57.48,21.25c.09.08.2.25.31.35.2.19.56.35.59.63.02.18.03.98-.01,1.11-.05.17-.63.46-.67.69l-.18,3.1.38.59,1.31.49-.17.12-2.29.73c-.13,0-.42-.17-.54-.24-.21-.11-1.07-.65-1.14-.81-.06-.14-.05-.44-.14-.54s-.7-.34-.72-.38c-.13-.63-.09-1.31-.3-1.92-.68-.56-1.35-1.28-2.1-1.75-.57-.35-1.38-.61-1.74-1.28-.11-.21-.2-.65-.25-.89-.08-.02-.1.03-.14.07-.45.47-.5,1.21-.68,1.82-.07.02-.13,0-.19-.03-.1-.04-.79-.46-.88-.54-.09-.08-.54-.68-.54-.78,0-.21.43-.88.46-1.14.03-.2-.25-.64-.12-.76.04-.03.82-.37.91-.4.16-.05.88-.12.99-.04.07.05.08.45.09.47s.47-.05.5-.06c.14-.05.38-.58.5-.67.5-.35,1.59-.44,2.19-.4.73.05,1.03.53,1.63.81.45.2,1.08.27,1.5.49.37.2,1.11.81,1.45,1.11Z"/>
  <path class="cls-1" d="M68.45,25.13c-.31.04-2.11-.96-2.19-.88-.15.16.61.69.73.85.06.09.31.54.24.61-.23-.02-.5.05-.71-.05-.06-.03-.82-.67-.85-.71-.2-.33-.25-1.09-.42-1.48-.1-.23-.91-1.29-.83-1.46.04-.08.54-.31.63-.28.16.04.57.56.75.67.52.32,1.37.54,1.95.83.21.1.63.27.72.49.19.46-.12.93-.03,1.41Z"/>
  <path class="cls-1" d="M60.7,22.17c.16-.02.18-.01.31.05.18.09.64.43.62.63-.01.13-.28,1.05-.35,1.17-.08.15-.4.43-.53.59-.23.28-.15.51-.62.33-.79-.31-.92-1.12-.99-1.88.03-.09.39-.1.53-.2.17-.12.23-.38.39-.48.07-.04.53-.2.62-.21Z"/>
  <path class="cls-1" d="M51.65,51.34c.04.06-.21.57-.29.6-.05.03-1.03.17-1.09.16-.08-.01-.77-.56-.94-.66-.24-.14-.75-.42-1-.51-.62-.22-1.36-.17-1.98-.4.14-.13.42-.26.6-.33.35-.12,1.06.12,1.45.23.41.11.89.33,1.3.4.3.05.67.02.95.07.3.06.68.37,1.01.43Z"/>
  <path class="cls-1" d="M57.52,36.33s-.04.04-.09.04c-.38-.36-1.28-1.25-1.24-1.8,0-.11.15-.7.26-.67.04,0,.34.35.41.41.48.41,1.23.89,1.63,1.34.07.08.27.49.29.58.01.05-.04.1-.05.1-.41,0-.81,0-1.22,0Z"/>
  <path class="cls-1" d="M53.89,51.53c.05.06-.05.3-.02.34.06.1.67.32.77.43.05.05.03.08.03.15-.43,0-.92.2-1.34.2-.23,0-1.46-.28-1.53-.47-.05-.16.06-.38.05-.55.45-.01,1-.24,1.43-.25.08,0,.58.13.6.15Z"/>
  <path class="cls-3" d="M2.68,53.38c4-.99,6.36-.2,7.08.9.29.44.96,1.23,1.55,1.75,1.34,1.19,5.27.8,6.19.58,2.99-.72,3.52-1.6,6.06-2.62,3.33-1.33,7.75-.4,7.75-.4,3.73,1.05,4.29,2.33,8.15,3.14,2.54.53,5.55.37,6.23.34,1.82-.09,2.95-.33,4.87,0,1.61.27,2.84.5,3.62,1.58.83,1.14.87,2.81.23,3.96-.77,1.39-8.43,2.78-8.43,2.78,6.62-.17,10.36.4,14.09-.52.75-.19,1.81-.46,3.06-1.13,2.04-1.11,3.18-2.57,4.19-3.85,5.57-7.08,6.44-7.98,7.92-8.26,1.38-.27,3.15.02,4.08,1.13,1.45,1.75-.4,4.51-.57,4.89-.32.74-1,2.49-1.7,3.15-5.68,5.34-5.74,8.7-11.21,11.43-.24.12-.58.27-1.25.57-7.42,3.29-14.09,6.25-21.17,6.68-1.43.09-3.79-.17-8.49-.68,0,0-6.41-.7-20.94-.79-.25,0-.86,0-1.47.34-.87.48-1.21,1.32-1.36,1.58-.5.88-2.41,1.5-8.72.34"/>
</svg>